<?xml version="1.0" encoding="UTF-8" standalone="no"?>
<!DOCTYPE svg PUBLIC "-//W3C//DTD SVG 1.1//EN"
 "http://www.w3.org/Graphics/SVG/1.1/DTD/svg11.dtd">
<!-- Generated by graphviz version 2.38.0 (20140413.2041)
 -->
<!-- Title: G Pages: 1 -->
<svg width="1818pt" height="133pt"
 viewBox="0.00 0.00 1818.00 133.00" xmlns="http://www.w3.org/2000/svg" xmlns:xlink="http://www.w3.org/1999/xlink">
<g id="graph0" class="graph" transform="scale(1 1) rotate(0) translate(4 129)">
<title>G</title>
<polygon fill="white" stroke="none" points="-4,4 -4,-129 1814,-129 1814,4 -4,4"/>
<!-- java.lang.classfile.ClassFile.StackMapsOption -->
<g id="node1" class="node"><title>java.lang.classfile.ClassFile.StackMapsOption</title>
<g id="a_node1"><a xlink:href="../../../java/lang/classfile/ClassFile.StackMapsOption.html" xlink:title="java.lang.classfile.ClassFile.StackMapsOption">
<text text-anchor="middle" x="61.5" y="-17.4" font-family="DejaVuSans" font-size="12.00" fill="#e76f00">StackMapsOption</text>
</a>
</g>
</g>
<!-- java.lang.classfile.ClassFile.Option -->
<g id="node2" class="node"><title>java.lang.classfile.ClassFile.Option</title>
<g id="a_node2"><a xlink:href="../../../java/lang/classfile/ClassFile.Option.html" xlink:title="java.lang.classfile.ClassFile.Option">
<text text-anchor="middle" x="912.5" y="-101.4" font-family="DejaVuSans" font-size="12.00" fill="#e76f00">Option</text>
</a>
</g>
</g>
<!-- java.lang.classfile.ClassFile.StackMapsOption&#45;&gt;java.lang.classfile.ClassFile.Option -->
<g id="edge1" class="edge"><title>java.lang.classfile.ClassFile.StackMapsOption&#45;&gt;java.lang.classfile.ClassFile.Option</title>
<path fill="none" stroke="#999999" stroke-width="2" d="M123.32,-37.5924C129.437,-38.876 135.573,-40.0435 141.5,-41 416.95,-85.4483 753.127,-98.9163 870.035,-102.414"/>
<polygon fill="#999999" stroke="#999999" stroke-width="2" points="880.334,-102.713 870.208,-106.92 875.322,-103.067 870.324,-102.922 870.338,-102.422 870.353,-101.922 875.351,-102.068 870.469,-97.9241 880.334,-102.713 880.334,-102.713"/>
</g>
<!-- java.lang.classfile.ClassFile.DebugElementsOption -->
<g id="node3" class="node"><title>java.lang.classfile.ClassFile.DebugElementsOption</title>
<g id="a_node3"><a xlink:href="../../../java/lang/classfile/ClassFile.DebugElementsOption.html" xlink:title="java.lang.classfile.ClassFile.DebugElementsOption">
<text text-anchor="middle" x="234.5" y="-17.4" font-family="DejaVuSans" font-size="12.00" fill="#e76f00">DebugElementsOption</text>
</a>
</g>
</g>
<!-- java.lang.classfile.ClassFile.DebugElementsOption&#45;&gt;java.lang.classfile.ClassFile.Option -->
<g id="edge2" class="edge"><title>java.lang.classfile.ClassFile.DebugElementsOption&#45;&gt;java.lang.classfile.ClassFile.Option</title>
<path fill="none" stroke="#999999" stroke-width="2" d="M309.503,-37.9C315.578,-39.0228 321.634,-40.074 327.5,-41 529.528,-72.8902 773.428,-93.1312 870.087,-100.435"/>
<polygon fill="#999999" stroke="#999999" stroke-width="2" points="880.327,-101.202 870.019,-104.943 875.304,-101.327 870.318,-100.954 870.355,-100.455 870.393,-99.9567 875.379,-100.33 870.691,-95.9679 880.327,-101.202 880.327,-101.202"/>
</g>
<!-- java.lang.classfile.ClassFile.LineNumbersOption -->
<g id="node4" class="node"><title>java.lang.classfile.ClassFile.LineNumbersOption</title>
<g id="a_node4"><a xlink:href="../../../java/lang/classfile/ClassFile.LineNumbersOption.html" xlink:title="java.lang.classfile.ClassFile.LineNumbersOption">
<text text-anchor="middle" x="413.5" y="-17.4" font-family="DejaVuSans" font-size="12.00" fill="#e76f00">LineNumbersOption</text>
</a>
</g>
</g>
<!-- java.lang.classfile.ClassFile.LineNumbersOption&#45;&gt;java.lang.classfile.ClassFile.Option -->
<g id="edge3" class="edge"><title>java.lang.classfile.ClassFile.LineNumbersOption&#45;&gt;java.lang.classfile.ClassFile.Option</title>
<path fill="none" stroke="#999999" stroke-width="2" d="M481.941,-37.4908C487.869,-38.7324 493.783,-39.9208 499.5,-41 634.425,-66.471 795.692,-88.4544 870.525,-98.1754"/>
<polygon fill="#999999" stroke="#999999" stroke-width="2" points="880.498,-99.4648 870.004,-102.645 875.475,-99.3196 870.517,-98.6785 870.581,-98.1826 870.645,-97.6867 875.604,-98.3278 871.158,-93.7197 880.498,-99.4648 880.498,-99.4648"/>
</g>
<!-- java.lang.classfile.ClassFile.AttributesProcessingOption -->
<g id="node5" class="node"><title>java.lang.classfile.ClassFile.AttributesProcessingOption</title>
<g id="a_node5"><a xlink:href="../../../java/lang/classfile/ClassFile.AttributesProcessingOption.html" xlink:title="java.lang.classfile.ClassFile.AttributesProcessingOption">
<text text-anchor="middle" x="604.5" y="-17.4" font-family="DejaVuSans" font-size="12.00" fill="#e76f00">AttributesProcessingOption</text>
</a>
</g>
</g>
<!-- java.lang.classfile.ClassFile.AttributesProcessingOption&#45;&gt;java.lang.classfile.ClassFile.Option -->
<g id="edge4" class="edge"><title>java.lang.classfile.ClassFile.AttributesProcessingOption&#45;&gt;java.lang.classfile.ClassFile.Option</title>
<path fill="none" stroke="#999999" stroke-width="2" d="M677.882,-41.0369C738.141,-57.0799 821.335,-79.2288 870.757,-92.3866"/>
<polygon fill="#999999" stroke="#999999" stroke-width="2" points="880.472,-94.9731 869.651,-96.7489 875.512,-94.1699 870.68,-92.8835 870.809,-92.4003 870.938,-91.9172 875.769,-93.2036 871.967,-88.0518 880.472,-94.9731 880.472,-94.9731"/>
</g>
<!-- java.lang.classfile.ClassFile.ConstantPoolSharingOption -->
<g id="node6" class="node"><title>java.lang.classfile.ClassFile.ConstantPoolSharingOption</title>
<g id="a_node6"><a xlink:href="../../../java/lang/classfile/ClassFile.ConstantPoolSharingOption.html" xlink:title="java.lang.classfile.ClassFile.ConstantPoolSharingOption">
<text text-anchor="middle" x="817.5" y="-17.4" font-family="DejaVuSans" font-size="12.00" fill="#e76f00">ConstantPoolSharingOption</text>
</a>
</g>
</g>
<!-- java.lang.classfile.ClassFile.ConstantPoolSharingOption&#45;&gt;java.lang.classfile.ClassFile.Option -->
<g id="edge5" class="edge"><title>java.lang.classfile.ClassFile.ConstantPoolSharingOption&#45;&gt;java.lang.classfile.ClassFile.Option</title>
<path fill="none" stroke="#999999" stroke-width="2" d="M840.497,-41.3499C852.983,-52.1272 868.579,-65.5894 882.061,-77.2263"/>
<polygon fill="#999999" stroke="#999999" stroke-width="2" points="889.715,-83.8329 879.205,-80.7052 885.603,-80.9443 881.818,-77.6772 882.145,-77.2987 882.472,-76.9202 886.257,-80.1873 885.085,-73.8922 889.715,-83.8329 889.715,-83.8329"/>
</g>
<!-- java.lang.classfile.ClassFile.ShortJumpsOption -->
<g id="node7" class="node"><title>java.lang.classfile.ClassFile.ShortJumpsOption</title>
<g id="a_node7"><a xlink:href="../../../java/lang/classfile/ClassFile.ShortJumpsOption.html" xlink:title="java.lang.classfile.ClassFile.ShortJumpsOption">
<text text-anchor="middle" x="1007.5" y="-17.4" font-family="DejaVuSans" font-size="12.00" fill="#e76f00">ShortJumpsOption</text>
</a>
</g>
</g>
<!-- java.lang.classfile.ClassFile.ShortJumpsOption&#45;&gt;java.lang.classfile.ClassFile.Option -->
<g id="edge6" class="edge"><title>java.lang.classfile.ClassFile.ShortJumpsOption&#45;&gt;java.lang.classfile.ClassFile.Option</title>
<path fill="none" stroke="#999999" stroke-width="2" d="M984.503,-41.3499C972.017,-52.1272 956.421,-65.5894 942.939,-77.2263"/>
<polygon fill="#999999" stroke="#999999" stroke-width="2" points="935.285,-83.8329 939.915,-73.8922 938.743,-80.1873 942.528,-76.9202 942.855,-77.2987 943.182,-77.6772 939.397,-80.9443 945.795,-80.7052 935.285,-83.8329 935.285,-83.8329"/>
</g>
<!-- java.lang.classfile.ClassFile.DeadCodeOption -->
<g id="node8" class="node"><title>java.lang.classfile.ClassFile.DeadCodeOption</title>
<g id="a_node8"><a xlink:href="../../../java/lang/classfile/ClassFile.DeadCodeOption.html" xlink:title="java.lang.classfile.ClassFile.DeadCodeOption">
<text text-anchor="middle" x="1168.5" y="-17.4" font-family="DejaVuSans" font-size="12.00" fill="#e76f00">DeadCodeOption</text>
</a>
</g>
</g>
<!-- java.lang.classfile.ClassFile.DeadCodeOption&#45;&gt;java.lang.classfile.ClassFile.Option -->
<g id="edge7" class="edge"><title>java.lang.classfile.ClassFile.DeadCodeOption&#45;&gt;java.lang.classfile.ClassFile.Option</title>
<path fill="none" stroke="#999999" stroke-width="2" d="M1107.51,-41.0369C1060.13,-56.2107 995.71,-76.8468 954.111,-90.1713"/>
<polygon fill="#999999" stroke="#999999" stroke-width="2" points="944.567,-93.2284 952.718,-85.8924 949.177,-91.227 953.938,-89.7017 954.091,-90.1779 954.243,-90.6541 949.482,-92.1793 955.463,-94.4634 944.567,-93.2284 944.567,-93.2284"/>
</g>
<!-- java.lang.classfile.ClassFile.DeadLabelsOption -->
<g id="node9" class="node"><title>java.lang.classfile.ClassFile.DeadLabelsOption</title>
<g id="a_node9"><a xlink:href="../../../java/lang/classfile/ClassFile.DeadLabelsOption.html" xlink:title="java.lang.classfile.ClassFile.DeadLabelsOption">
<text text-anchor="middle" x="1330.5" y="-17.4" font-family="DejaVuSans" font-size="12.00" fill="#e76f00">DeadLabelsOption</text>
</a>
</g>
</g>
<!-- java.lang.classfile.ClassFile.DeadLabelsOption&#45;&gt;java.lang.classfile.ClassFile.Option -->
<g id="edge8" class="edge"><title>java.lang.classfile.ClassFile.DeadLabelsOption&#45;&gt;java.lang.classfile.ClassFile.Option</title>
<path fill="none" stroke="#999999" stroke-width="2" d="M1265.77,-37.0128C1259.6,-38.3988 1253.44,-39.7491 1247.5,-41 1142.76,-63.0629 1018.74,-85.1583 955.007,-96.22"/>
<polygon fill="#999999" stroke="#999999" stroke-width="2" points="944.938,-97.9629 954.024,-91.8232 949.779,-96.6174 954.706,-95.7646 954.791,-96.2573 954.876,-96.7499 949.95,-97.6028 955.559,-100.691 944.938,-97.9629 944.938,-97.9629"/>
</g>
<!-- java.lang.classfile.ClassFile.ClassHierarchyResolverOption -->
<g id="node10" class="node"><title>java.lang.classfile.ClassFile.ClassHierarchyResolverOption</title>
<g id="a_node10"><a xlink:href="../../../java/lang/classfile/ClassFile.ClassHierarchyResolverOption.html" xlink:title="java.lang.classfile.ClassFile.ClassHierarchyResolverOption">
<text text-anchor="middle" x="1528.5" y="-17.4" font-family="DejaVuSans" font-size="12.00" fill="#e76f00">ClassHierarchyResolverOption</text>
</a>
</g>
</g>
<!-- java.lang.classfile.ClassFile.ClassHierarchyResolverOption&#45;&gt;java.lang.classfile.ClassFile.Option -->
<g id="edge9" class="edge"><title>java.lang.classfile.ClassFile.ClassHierarchyResolverOption&#45;&gt;java.lang.classfile.ClassFile.Option</title>
<path fill="none" stroke="#999999" stroke-width="2" d="M1431.3,-38.2902C1425.28,-39.2342 1419.31,-40.1454 1413.5,-41 1243.88,-65.9484 1041,-89.2581 954.69,-98.8696"/>
<polygon fill="#999999" stroke="#999999" stroke-width="2" points="944.51,-99.9999 953.952,-94.4238 949.424,-98.9512 954.394,-98.3993 954.449,-98.8963 954.504,-99.3932 949.535,-99.945 954.946,-103.369 944.51,-99.9999 944.51,-99.9999"/>
</g>
<!-- java.lang.classfile.ClassFile.AttributeMapperOption -->
<g id="node11" class="node"><title>java.lang.classfile.ClassFile.AttributeMapperOption</title>
<g id="a_node11"><a xlink:href="../../../java/lang/classfile/ClassFile.AttributeMapperOption.html" xlink:title="java.lang.classfile.ClassFile.AttributeMapperOption">
<text text-anchor="middle" x="1735.5" y="-17.4" font-family="DejaVuSans" font-size="12.00" fill="#e76f00">AttributeMapperOption</text>
</a>
</g>
</g>
<!-- java.lang.classfile.ClassFile.AttributeMapperOption&#45;&gt;java.lang.classfile.ClassFile.Option -->
<g id="edge10" class="edge"><title>java.lang.classfile.ClassFile.AttributeMapperOption&#45;&gt;java.lang.classfile.ClassFile.Option</title>
<path fill="none" stroke="#999999" stroke-width="2" d="M1660.83,-38.1338C1654.98,-39.1896 1649.15,-40.1626 1643.5,-41 1383.51,-79.5168 1067.72,-96.5475 954.995,-101.705"/>
<polygon fill="#999999" stroke="#999999" stroke-width="2" points="944.728,-102.168 954.516,-97.2221 949.701,-101.443 954.696,-101.218 954.718,-101.718 954.741,-102.217 949.746,-102.442 954.921,-106.213 944.728,-102.168 944.728,-102.168"/>
</g>
</g>
</svg>
