<?xml version="1.0" encoding="UTF-8" standalone="no"?>
<!DOCTYPE svg PUBLIC "-//W3C//DTD SVG 1.1//EN"
 "http://www.w3.org/Graphics/SVG/1.1/DTD/svg11.dtd">
<!-- Generated by graphviz version 2.38.0 (20140413.2041)
 -->
<!-- Title: G Pages: 1 -->
<svg width="975pt" height="133pt"
 viewBox="0.00 0.00 975.00 133.00" xmlns="http://www.w3.org/2000/svg" xmlns:xlink="http://www.w3.org/1999/xlink">
<g id="graph0" class="graph" transform="scale(1 1) rotate(0) translate(4 129)">
<title>G</title>
<polygon fill="white" stroke="none" points="-4,4 -4,-129 971,-129 971,4 -4,4"/>
<!-- java.lang.classfile.AnnotationValue.OfString -->
<g id="node1" class="node"><title>java.lang.classfile.AnnotationValue.OfString</title>
<g id="a_node1"><a xlink:href="../../../java/lang/classfile/AnnotationValue.OfString.html" xlink:title="java.lang.classfile.AnnotationValue.OfString">
<text text-anchor="middle" x="36" y="-17.4" font-family="DejaVuSans" font-size="12.00" fill="#e76f00">OfString</text>
</a>
</g>
</g>
<!-- java.lang.classfile.AnnotationValue.OfConstant -->
<g id="node2" class="node"><title>java.lang.classfile.AnnotationValue.OfConstant</title>
<g id="a_node2"><a xlink:href="../../../java/lang/classfile/AnnotationValue.OfConstant.html" xlink:title="java.lang.classfile.AnnotationValue.OfConstant">
<text text-anchor="middle" x="471" y="-101.4" font-family="DejaVuSans" font-size="12.00" fill="#e76f00">OfConstant</text>
</a>
</g>
</g>
<!-- java.lang.classfile.AnnotationValue.OfString&#45;&gt;java.lang.classfile.AnnotationValue.OfConstant -->
<g id="edge1" class="edge"><title>java.lang.classfile.AnnotationValue.OfString&#45;&gt;java.lang.classfile.AnnotationValue.OfConstant</title>
<path fill="none" stroke="#999999" stroke-width="2" d="M72.0207,-35.5409C77.9697,-37.5602 84.1158,-39.4689 90,-41 204.308,-70.7443 341.769,-89.1532 416.351,-97.7388"/>
<polygon fill="#999999" stroke="#999999" stroke-width="2" points="426.449,-98.8853 416.005,-102.228 421.424,-98.818 416.456,-98.2539 416.512,-97.7571 416.569,-97.2603 421.537,-97.8244 417.02,-93.2858 426.449,-98.8853 426.449,-98.8853"/>
</g>
<!-- java.lang.classfile.AnnotationValue.OfDouble -->
<g id="node3" class="node"><title>java.lang.classfile.AnnotationValue.OfDouble</title>
<g id="a_node3"><a xlink:href="../../../java/lang/classfile/AnnotationValue.OfDouble.html" xlink:title="java.lang.classfile.AnnotationValue.OfDouble">
<text text-anchor="middle" x="148" y="-17.4" font-family="DejaVuSans" font-size="12.00" fill="#e76f00">OfDouble</text>
</a>
</g>
</g>
<!-- java.lang.classfile.AnnotationValue.OfDouble&#45;&gt;java.lang.classfile.AnnotationValue.OfConstant -->
<g id="edge2" class="edge"><title>java.lang.classfile.AnnotationValue.OfDouble&#45;&gt;java.lang.classfile.AnnotationValue.OfConstant</title>
<path fill="none" stroke="#999999" stroke-width="2" d="M188.099,-35.5181C194.072,-37.45 200.177,-39.3384 206,-41 277.954,-61.533 362.247,-80.5702 416.107,-92.1104"/>
<polygon fill="#999999" stroke="#999999" stroke-width="2" points="426.13,-94.2467 415.412,-96.5633 421.136,-93.6934 416.246,-92.6511 416.35,-92.1621 416.454,-91.6731 421.345,-92.7154 417.288,-87.761 426.13,-94.2467 426.13,-94.2467"/>
</g>
<!-- java.lang.classfile.AnnotationValue.OfFloat -->
<g id="node4" class="node"><title>java.lang.classfile.AnnotationValue.OfFloat</title>
<g id="a_node4"><a xlink:href="../../../java/lang/classfile/AnnotationValue.OfFloat.html" xlink:title="java.lang.classfile.AnnotationValue.OfFloat">
<text text-anchor="middle" x="258" y="-17.4" font-family="DejaVuSans" font-size="12.00" fill="#e76f00">OfFloat</text>
</a>
</g>
</g>
<!-- java.lang.classfile.AnnotationValue.OfFloat&#45;&gt;java.lang.classfile.AnnotationValue.OfConstant -->
<g id="edge3" class="edge"><title>java.lang.classfile.AnnotationValue.OfFloat&#45;&gt;java.lang.classfile.AnnotationValue.OfConstant</title>
<path fill="none" stroke="#999999" stroke-width="2" d="M292.222,-34.6747C325.829,-47.6127 377.618,-67.5501 416.821,-82.6424"/>
<polygon fill="#999999" stroke="#999999" stroke-width="2" points="426.498,-86.3678 415.549,-86.9746 421.652,-85.0381 416.986,-83.2417 417.166,-82.7751 417.345,-82.3084 422.012,-84.1048 418.783,-78.5755 426.498,-86.3678 426.498,-86.3678"/>
</g>
<!-- java.lang.classfile.AnnotationValue.OfLong -->
<g id="node5" class="node"><title>java.lang.classfile.AnnotationValue.OfLong</title>
<g id="a_node5"><a xlink:href="../../../java/lang/classfile/AnnotationValue.OfLong.html" xlink:title="java.lang.classfile.AnnotationValue.OfLong">
<text text-anchor="middle" x="362" y="-17.4" font-family="DejaVuSans" font-size="12.00" fill="#e76f00">OfLong</text>
</a>
</g>
</g>
<!-- java.lang.classfile.AnnotationValue.OfLong&#45;&gt;java.lang.classfile.AnnotationValue.OfConstant -->
<g id="edge4" class="edge"><title>java.lang.classfile.AnnotationValue.OfLong&#45;&gt;java.lang.classfile.AnnotationValue.OfConstant</title>
<path fill="none" stroke="#999999" stroke-width="2" d="M388.108,-41.141C402.563,-52.0149 420.713,-65.6698 436.343,-77.4277"/>
<polygon fill="#999999" stroke="#999999" stroke-width="2" points="444.727,-83.735 434.031,-81.3193 440.431,-81.1287 436.435,-78.1228 436.736,-77.7233 437.036,-77.3237 441.032,-80.3296 439.441,-74.1272 444.727,-83.735 444.727,-83.735"/>
</g>
<!-- java.lang.classfile.AnnotationValue.OfInteger -->
<g id="node6" class="node"><title>java.lang.classfile.AnnotationValue.OfInteger</title>
<g id="a_node6"><a xlink:href="../../../java/lang/classfile/AnnotationValue.OfInteger.html" xlink:title="java.lang.classfile.AnnotationValue.OfInteger">
<text text-anchor="middle" x="471" y="-17.4" font-family="DejaVuSans" font-size="12.00" fill="#e76f00">OfInteger</text>
</a>
</g>
</g>
<!-- java.lang.classfile.AnnotationValue.OfInteger&#45;&gt;java.lang.classfile.AnnotationValue.OfConstant -->
<g id="edge5" class="edge"><title>java.lang.classfile.AnnotationValue.OfInteger&#45;&gt;java.lang.classfile.AnnotationValue.OfConstant</title>
<path fill="none" stroke="#999999" stroke-width="2" d="M471,-41.3499C471,-51.0192 471,-62.8498 471,-73.5843"/>
<polygon fill="#999999" stroke="#999999" stroke-width="2" points="471,-83.8329 466.5,-73.8328 470.5,-78.8329 470.5,-73.8329 471,-73.8329 471.5,-73.8329 471.5,-78.8329 475.5,-73.8329 471,-83.8329 471,-83.8329"/>
</g>
<!-- java.lang.classfile.AnnotationValue.OfShort -->
<g id="node7" class="node"><title>java.lang.classfile.AnnotationValue.OfShort</title>
<g id="a_node7"><a xlink:href="../../../java/lang/classfile/AnnotationValue.OfShort.html" xlink:title="java.lang.classfile.AnnotationValue.OfShort">
<text text-anchor="middle" x="580" y="-17.4" font-family="DejaVuSans" font-size="12.00" fill="#e76f00">OfShort</text>
</a>
</g>
</g>
<!-- java.lang.classfile.AnnotationValue.OfShort&#45;&gt;java.lang.classfile.AnnotationValue.OfConstant -->
<g id="edge6" class="edge"><title>java.lang.classfile.AnnotationValue.OfShort&#45;&gt;java.lang.classfile.AnnotationValue.OfConstant</title>
<path fill="none" stroke="#999999" stroke-width="2" d="M553.892,-41.141C539.437,-52.0149 521.287,-65.6698 505.657,-77.4277"/>
<polygon fill="#999999" stroke="#999999" stroke-width="2" points="497.273,-83.735 502.559,-74.1272 500.968,-80.3296 504.964,-77.3237 505.264,-77.7233 505.565,-78.1228 501.569,-81.1287 507.969,-81.3193 497.273,-83.735 497.273,-83.735"/>
</g>
<!-- java.lang.classfile.AnnotationValue.OfCharacter -->
<g id="node8" class="node"><title>java.lang.classfile.AnnotationValue.OfCharacter</title>
<g id="a_node8"><a xlink:href="../../../java/lang/classfile/AnnotationValue.OfCharacter.html" xlink:title="java.lang.classfile.AnnotationValue.OfCharacter">
<text text-anchor="middle" x="697" y="-17.4" font-family="DejaVuSans" font-size="12.00" fill="#e76f00">OfCharacter</text>
</a>
</g>
</g>
<!-- java.lang.classfile.AnnotationValue.OfCharacter&#45;&gt;java.lang.classfile.AnnotationValue.OfConstant -->
<g id="edge7" class="edge"><title>java.lang.classfile.AnnotationValue.OfCharacter&#45;&gt;java.lang.classfile.AnnotationValue.OfConstant</title>
<path fill="none" stroke="#999999" stroke-width="2" d="M650.447,-38.391C613.996,-51.6166 563.238,-70.0331 525.004,-83.9058"/>
<polygon fill="#999999" stroke="#999999" stroke-width="2" points="515.569,-87.3289 523.435,-79.6879 520.099,-85.1535 524.799,-83.4481 524.97,-83.9181 525.14,-84.3881 520.44,-86.0935 526.504,-88.1482 515.569,-87.3289 515.569,-87.3289"/>
</g>
<!-- java.lang.classfile.AnnotationValue.OfByte -->
<g id="node9" class="node"><title>java.lang.classfile.AnnotationValue.OfByte</title>
<g id="a_node9"><a xlink:href="../../../java/lang/classfile/AnnotationValue.OfByte.html" xlink:title="java.lang.classfile.AnnotationValue.OfByte">
<text text-anchor="middle" x="812" y="-17.4" font-family="DejaVuSans" font-size="12.00" fill="#e76f00">OfByte</text>
</a>
</g>
</g>
<!-- java.lang.classfile.AnnotationValue.OfByte&#45;&gt;java.lang.classfile.AnnotationValue.OfConstant -->
<g id="edge8" class="edge"><title>java.lang.classfile.AnnotationValue.OfByte&#45;&gt;java.lang.classfile.AnnotationValue.OfConstant</title>
<path fill="none" stroke="#999999" stroke-width="2" d="M779.45,-35.0592C773.692,-37.2089 767.711,-39.2851 762,-41 681.065,-65.3029 584.78,-84.0613 525.787,-94.4411"/>
<polygon fill="#999999" stroke="#999999" stroke-width="2" points="515.933,-96.1579 525.012,-90.0082 520.773,-94.8071 525.699,-93.9489 525.784,-94.4415 525.87,-94.934 520.944,-95.7923 526.557,-98.8747 515.933,-96.1579 515.933,-96.1579"/>
</g>
<!-- java.lang.classfile.AnnotationValue.OfBoolean -->
<g id="node10" class="node"><title>java.lang.classfile.AnnotationValue.OfBoolean</title>
<g id="a_node10"><a xlink:href="../../../java/lang/classfile/AnnotationValue.OfBoolean.html" xlink:title="java.lang.classfile.AnnotationValue.OfBoolean">
<text text-anchor="middle" x="924" y="-17.4" font-family="DejaVuSans" font-size="12.00" fill="#e76f00">OfBoolean</text>
</a>
</g>
</g>
<!-- java.lang.classfile.AnnotationValue.OfBoolean&#45;&gt;java.lang.classfile.AnnotationValue.OfConstant -->
<g id="edge9" class="edge"><title>java.lang.classfile.AnnotationValue.OfBoolean&#45;&gt;java.lang.classfile.AnnotationValue.OfConstant</title>
<path fill="none" stroke="#999999" stroke-width="2" d="M880.907,-36.1655C874.931,-37.9377 868.841,-39.6093 863,-41 744.226,-69.2813 602.102,-88.352 525.834,-97.4155"/>
<polygon fill="#999999" stroke="#999999" stroke-width="2" points="515.519,-98.6279 524.925,-92.9913 520.426,-97.5476 525.392,-96.964 525.451,-97.4605 525.509,-97.9571 520.543,-98.5408 525.976,-101.93 515.519,-98.6279 515.519,-98.6279"/>
</g>
</g>
</svg>
