<?xml version="1.0" encoding="UTF-8" standalone="no"?>
<!DOCTYPE svg PUBLIC "-//W3C//DTD SVG 1.1//EN"
 "http://www.w3.org/Graphics/SVG/1.1/DTD/svg11.dtd">
<!-- Generated by graphviz version 2.38.0 (20140413.2041)
 -->
<!-- Title: G Pages: 1 -->
<svg width="171pt" height="217pt"
 viewBox="0.00 0.00 171.00 217.00" xmlns="http://www.w3.org/2000/svg" xmlns:xlink="http://www.w3.org/1999/xlink">
<g id="graph0" class="graph" transform="scale(1 1) rotate(0) translate(4 213)">
<title>G</title>
<polygon fill="white" stroke="none" points="-4,4 -4,-213 167,-213 167,4 -4,4"/>
<!-- java.awt.geom.Path2D.Double -->
<g id="node1" class="node"><title>java.awt.geom.Path2D.Double</title>
<g id="a_node1"><a xlink:href="../../../java/awt/geom/Double.html" xlink:title="java.awt.geom.Path2D.Double">
<text text-anchor="middle" x="129" y="-101.4" font-family="DejaVuSans" font-size="12.00" fill="#e76f00">Double</text>
</a>
</g>
</g>
<!-- java.awt.geom.Path2D -->
<g id="node2" class="node"><title>java.awt.geom.Path2D</title>
<g id="a_node2"><a xlink:href="../../../java/awt/geom/Path2D.html" xlink:title="java.awt.geom.Path2D">
<text text-anchor="middle" x="80" y="-185.4" font-family="DejaVuSans" font-size="12.00" fill="#e76f00">Path2D</text>
</a>
</g>
</g>
<!-- java.awt.geom.Path2D.Double&#45;&gt;java.awt.geom.Path2D -->
<g id="edge1" class="edge"><title>java.awt.geom.Path2D.Double&#45;&gt;java.awt.geom.Path2D</title>
<path fill="none" stroke="#999999" stroke-width="2" d="M117.138,-125.35C111.12,-135.422 103.7,-147.839 97.0782,-158.92"/>
<polygon fill="#999999" stroke="#999999" stroke-width="2" points="91.7523,-167.833 93.019,-156.94 93.8879,-163.284 96.4527,-158.992 96.8819,-159.249 97.3111,-159.505 94.7463,-163.797 100.745,-161.557 91.7523,-167.833 91.7523,-167.833"/>
</g>
<!-- open node #0 -->
<g id="node3" class="node"><title>open node #0</title>
<g id="a_node3"><a xlink:title="Non&#45;sealed Hierarchy">
<text text-anchor="start" x="112" y="-18.4" font-family="DejaVuSans" font-style="italic" font-size="12.00" fill="#e76f00">&lt;any&gt;</text>
</a>
</g>
</g>
<!-- open node #0&#45;&gt;java.awt.geom.Path2D.Double -->
<g id="edge2" class="edge"><title>open node #0&#45;&gt;java.awt.geom.Path2D.Double</title>
<path fill="none" stroke="#999999" stroke-width="2" stroke-dasharray="5,2" d="M129,-41.3499C129,-51.0192 129,-62.8498 129,-73.5843"/>
<polygon fill="#999999" stroke="#999999" stroke-width="2" points="129,-83.8329 124.5,-73.8328 128.5,-78.8329 128.5,-73.8329 129,-73.8329 129.5,-73.8329 129.5,-78.8329 133.5,-73.8329 129,-83.8329 129,-83.8329"/>
</g>
<!-- java.awt.geom.Path2D.Float -->
<g id="node4" class="node"><title>java.awt.geom.Path2D.Float</title>
<g id="a_node4"><a xlink:href="../../../java/awt/geom/Float.html" xlink:title="java.awt.geom.Path2D.Float">
<text text-anchor="middle" x="31" y="-101.4" font-family="DejaVuSans" font-size="12.00" fill="#e76f00">Float</text>
</a>
</g>
</g>
<!-- java.awt.geom.Path2D.Float&#45;&gt;java.awt.geom.Path2D -->
<g id="edge3" class="edge"><title>java.awt.geom.Path2D.Float&#45;&gt;java.awt.geom.Path2D</title>
<path fill="none" stroke="#999999" stroke-width="2" d="M42.8615,-125.35C48.8803,-135.422 56.3004,-147.839 62.9218,-158.92"/>
<polygon fill="#999999" stroke="#999999" stroke-width="2" points="68.2477,-167.833 59.2552,-161.557 65.2537,-163.797 62.6889,-159.505 63.1181,-159.249 63.5473,-158.992 66.1121,-163.284 66.981,-156.94 68.2477,-167.833 68.2477,-167.833"/>
</g>
<!-- open node #1 -->
<g id="node5" class="node"><title>open node #1</title>
<g id="a_node5"><a xlink:title="Non&#45;sealed Hierarchy">
<text text-anchor="start" x="14" y="-18.4" font-family="DejaVuSans" font-style="italic" font-size="12.00" fill="#e76f00">&lt;any&gt;</text>
</a>
</g>
</g>
<!-- open node #1&#45;&gt;java.awt.geom.Path2D.Float -->
<g id="edge4" class="edge"><title>open node #1&#45;&gt;java.awt.geom.Path2D.Float</title>
<path fill="none" stroke="#999999" stroke-width="2" stroke-dasharray="5,2" d="M31,-41.3499C31,-51.0192 31,-62.8498 31,-73.5843"/>
<polygon fill="#999999" stroke="#999999" stroke-width="2" points="31,-83.8329 26.5001,-73.8328 30.5,-78.8329 30.5001,-73.8329 31.0001,-73.8329 31.5001,-73.8329 31.5,-78.8329 35.5001,-73.8329 31,-83.8329 31,-83.8329"/>
</g>
</g>
</svg>
