<?xml version="1.0" encoding="UTF-8" standalone="no"?>
<!DOCTYPE svg PUBLIC "-//W3C//DTD SVG 1.1//EN"
 "http://www.w3.org/Graphics/SVG/1.1/DTD/svg11.dtd">
<!-- Generated by graphviz version 2.38.0 (20140413.2041)
 -->
<!-- Title: G Pages: 1 -->
<svg width="425pt" height="217pt"
 viewBox="0.00 0.00 424.50 217.00" xmlns="http://www.w3.org/2000/svg" xmlns:xlink="http://www.w3.org/1999/xlink">
<g id="graph0" class="graph" transform="scale(1 1) rotate(0) translate(4 213)">
<title>G</title>
<polygon fill="white" stroke="none" points="-4,4 -4,-213 420.5,-213 420.5,4 -4,4"/>
<!-- java.lang.invoke.ConstantCallSite -->
<g id="node1" class="node"><title>java.lang.invoke.ConstantCallSite</title>
<g id="a_node1"><a xlink:href="../../../java/lang/invoke/ConstantCallSite.html" xlink:title="java.lang.invoke.ConstantCallSite">
<text text-anchor="middle" x="357" y="-101.4" font-family="DejaVuSans" font-size="12.00" fill="#e76f00">ConstantCallSite</text>
</a>
</g>
</g>
<!-- java.lang.invoke.CallSite -->
<g id="node2" class="node"><title>java.lang.invoke.CallSite</title>
<g id="a_node2"><a xlink:href="../../../java/lang/invoke/CallSite.html" xlink:title="java.lang.invoke.CallSite">
<text text-anchor="middle" x="206" y="-185.4" font-family="DejaVuSans" font-size="12.00" fill="#e76f00">CallSite</text>
</a>
</g>
</g>
<!-- java.lang.invoke.ConstantCallSite&#45;&gt;java.lang.invoke.CallSite -->
<g id="edge1" class="edge"><title>java.lang.invoke.ConstantCallSite&#45;&gt;java.lang.invoke.CallSite</title>
<path fill="none" stroke="#999999" stroke-width="2" d="M320.832,-125.141C299.743,-136.593 272.975,-151.129 250.589,-163.286"/>
<polygon fill="#999999" stroke="#999999" stroke-width="2" points="241.612,-168.161 248.253,-159.434 245.768,-165.335 250.162,-162.949 250.4,-163.389 250.639,-163.828 246.245,-166.214 252.548,-167.343 241.612,-168.161 241.612,-168.161"/>
</g>
<!-- open node #0 -->
<g id="node3" class="node"><title>open node #0</title>
<g id="a_node3"><a xlink:title="Non&#45;sealed Hierarchy">
<text text-anchor="start" x="340" y="-18.4" font-family="DejaVuSans" font-style="italic" font-size="12.00" fill="#e76f00">&lt;any&gt;</text>
</a>
</g>
</g>
<!-- open node #0&#45;&gt;java.lang.invoke.ConstantCallSite -->
<g id="edge2" class="edge"><title>open node #0&#45;&gt;java.lang.invoke.ConstantCallSite</title>
<path fill="none" stroke="#999999" stroke-width="2" stroke-dasharray="5,2" d="M357,-41.3499C357,-51.0192 357,-62.8498 357,-73.5843"/>
<polygon fill="#999999" stroke="#999999" stroke-width="2" points="357,-83.8329 352.5,-73.8328 356.5,-78.8329 356.5,-73.8329 357,-73.8329 357.5,-73.8329 357.5,-78.8329 361.5,-73.8329 357,-83.8329 357,-83.8329"/>
</g>
<!-- java.lang.invoke.MutableCallSite -->
<g id="node4" class="node"><title>java.lang.invoke.MutableCallSite</title>
<g id="a_node4"><a xlink:href="../../../java/lang/invoke/MutableCallSite.html" xlink:title="java.lang.invoke.MutableCallSite">
<text text-anchor="middle" x="57" y="-101.4" font-family="DejaVuSans" font-size="12.00" fill="#e76f00">MutableCallSite</text>
</a>
</g>
</g>
<!-- java.lang.invoke.MutableCallSite&#45;&gt;java.lang.invoke.CallSite -->
<g id="edge3" class="edge"><title>java.lang.invoke.MutableCallSite&#45;&gt;java.lang.invoke.CallSite</title>
<path fill="none" stroke="#999999" stroke-width="2" d="M92.6892,-125.141C113.347,-136.51 139.528,-150.918 161.519,-163.02"/>
<polygon fill="#999999" stroke="#999999" stroke-width="2" points="170.344,-167.877 159.413,-166.998 165.723,-165.905 161.342,-163.494 161.583,-163.056 161.824,-162.618 166.205,-165.028 163.753,-159.113 170.344,-167.877 170.344,-167.877"/>
</g>
<!-- open node #1 -->
<g id="node5" class="node"><title>open node #1</title>
<g id="a_node5"><a xlink:title="Non&#45;sealed Hierarchy">
<text text-anchor="start" x="40" y="-18.4" font-family="DejaVuSans" font-style="italic" font-size="12.00" fill="#e76f00">&lt;any&gt;</text>
</a>
</g>
</g>
<!-- open node #1&#45;&gt;java.lang.invoke.MutableCallSite -->
<g id="edge4" class="edge"><title>open node #1&#45;&gt;java.lang.invoke.MutableCallSite</title>
<path fill="none" stroke="#999999" stroke-width="2" stroke-dasharray="5,2" d="M57,-41.3499C57,-51.0192 57,-62.8498 57,-73.5843"/>
<polygon fill="#999999" stroke="#999999" stroke-width="2" points="57,-83.8329 52.5001,-73.8328 56.5,-78.8329 56.5001,-73.8329 57.0001,-73.8329 57.5001,-73.8329 57.5,-78.8329 61.5001,-73.8329 57,-83.8329 57,-83.8329"/>
</g>
<!-- java.lang.invoke.VolatileCallSite -->
<g id="node6" class="node"><title>java.lang.invoke.VolatileCallSite</title>
<g id="a_node6"><a xlink:href="../../../java/lang/invoke/VolatileCallSite.html" xlink:title="java.lang.invoke.VolatileCallSite">
<text text-anchor="middle" x="206" y="-101.4" font-family="DejaVuSans" font-size="12.00" fill="#e76f00">VolatileCallSite</text>
</a>
</g>
</g>
<!-- java.lang.invoke.VolatileCallSite&#45;&gt;java.lang.invoke.CallSite -->
<g id="edge5" class="edge"><title>java.lang.invoke.VolatileCallSite&#45;&gt;java.lang.invoke.CallSite</title>
<path fill="none" stroke="#999999" stroke-width="2" d="M206,-125.35C206,-135.019 206,-146.85 206,-157.584"/>
<polygon fill="#999999" stroke="#999999" stroke-width="2" points="206,-167.833 201.5,-157.833 205.5,-162.833 205.5,-157.833 206,-157.833 206.5,-157.833 206.5,-162.833 210.5,-157.833 206,-167.833 206,-167.833"/>
</g>
<!-- open node #2 -->
<g id="node7" class="node"><title>open node #2</title>
<g id="a_node7"><a xlink:title="Non&#45;sealed Hierarchy">
<text text-anchor="start" x="189" y="-18.4" font-family="DejaVuSans" font-style="italic" font-size="12.00" fill="#e76f00">&lt;any&gt;</text>
</a>
</g>
</g>
<!-- open node #2&#45;&gt;java.lang.invoke.VolatileCallSite -->
<g id="edge6" class="edge"><title>open node #2&#45;&gt;java.lang.invoke.VolatileCallSite</title>
<path fill="none" stroke="#999999" stroke-width="2" stroke-dasharray="5,2" d="M206,-41.3499C206,-51.0192 206,-62.8498 206,-73.5843"/>
<polygon fill="#999999" stroke="#999999" stroke-width="2" points="206,-83.8329 201.5,-73.8328 205.5,-78.8329 205.5,-73.8329 206,-73.8329 206.5,-73.8329 206.5,-78.8329 210.5,-73.8329 206,-83.8329 206,-83.8329"/>
</g>
</g>
</svg>
