<?xml version="1.0" encoding="UTF-8" standalone="no"?>
<!DOCTYPE svg PUBLIC "-//W3C//DTD SVG 1.1//EN"
 "http://www.w3.org/Graphics/SVG/1.1/DTD/svg11.dtd">
<!-- Generated by graphviz version 2.38.0 (20140413.2041)
 -->
<!-- Title: G Pages: 1 -->
<svg width="1099pt" height="217pt"
 viewBox="0.00 0.00 1098.50 217.00" xmlns="http://www.w3.org/2000/svg" xmlns:xlink="http://www.w3.org/1999/xlink">
<g id="graph0" class="graph" transform="scale(1 1) rotate(0) translate(4 213)">
<title>G</title>
<polygon fill="white" stroke="none" points="-4,4 -4,-213 1094.5,-213 1094.5,4 -4,4"/>
<!-- java.lang.constant.ClassDesc -->
<g id="node1" class="node"><title>java.lang.constant.ClassDesc</title>
<g id="a_node1"><a xlink:href="../../../java/lang/constant/ClassDesc.html" xlink:title="java.lang.constant.ClassDesc">
<text text-anchor="middle" x="43.5" y="-101.4" font-family="DejaVuSans" font-size="12.00" fill="#e76f00">ClassDesc</text>
</a>
</g>
</g>
<!-- java.lang.constant.ConstantDesc -->
<g id="node2" class="node"><title>java.lang.constant.ConstantDesc</title>
<g id="a_node2"><a xlink:href="../../../java/lang/constant/ConstantDesc.html" xlink:title="java.lang.constant.ConstantDesc">
<text text-anchor="middle" x="632.5" y="-185.4" font-family="DejaVuSans" font-size="12.00" fill="#e76f00">ConstantDesc</text>
</a>
</g>
</g>
<!-- java.lang.constant.ClassDesc&#45;&gt;java.lang.constant.ConstantDesc -->
<g id="edge1" class="edge"><title>java.lang.constant.ClassDesc&#45;&gt;java.lang.constant.ConstantDesc</title>
<path fill="none" stroke="#999999" stroke-width="2" d="M87.2084,-120.578C92.9784,-122.242 98.8499,-123.774 104.5,-125 270.474,-161.004 470.607,-177.539 570.067,-183.993"/>
<polygon fill="#999999" stroke="#999999" stroke-width="2" points="580.242,-184.64 569.976,-188.496 575.22,-184.822 570.23,-184.504 570.262,-184.005 570.294,-183.506 575.284,-183.824 570.548,-179.514 580.242,-184.64 580.242,-184.64"/>
</g>
<!-- java.lang.constant.MethodHandleDesc -->
<g id="node3" class="node"><title>java.lang.constant.MethodHandleDesc</title>
<g id="a_node3"><a xlink:href="../../../java/lang/constant/MethodHandleDesc.html" xlink:title="java.lang.constant.MethodHandleDesc">
<text text-anchor="middle" x="190.5" y="-101.4" font-family="DejaVuSans" font-size="12.00" fill="#e76f00">MethodHandleDesc</text>
</a>
</g>
</g>
<!-- java.lang.constant.MethodHandleDesc&#45;&gt;java.lang.constant.ConstantDesc -->
<g id="edge2" class="edge"><title>java.lang.constant.MethodHandleDesc&#45;&gt;java.lang.constant.ConstantDesc</title>
<path fill="none" stroke="#999999" stroke-width="2" d="M258.035,-121.143C264.269,-122.487 270.496,-123.793 276.5,-125 379.114,-145.628 499.14,-165.908 570.327,-177.537"/>
<polygon fill="#999999" stroke="#999999" stroke-width="2" points="580.467,-179.188 569.874,-182.022 575.452,-178.878 570.517,-178.074 570.598,-177.581 570.678,-177.087 575.613,-177.891 571.321,-173.139 580.467,-179.188 580.467,-179.188"/>
</g>
<!-- java.lang.constant.DirectMethodHandleDesc -->
<g id="node4" class="node"><title>java.lang.constant.DirectMethodHandleDesc</title>
<g id="a_node4"><a xlink:href="../../../java/lang/constant/DirectMethodHandleDesc.html" xlink:title="java.lang.constant.DirectMethodHandleDesc">
<text text-anchor="middle" x="190.5" y="-17.4" font-family="DejaVuSans" font-size="12.00" fill="#e76f00">DirectMethodHandleDesc</text>
</a>
</g>
</g>
<!-- java.lang.constant.DirectMethodHandleDesc&#45;&gt;java.lang.constant.MethodHandleDesc -->
<g id="edge3" class="edge"><title>java.lang.constant.DirectMethodHandleDesc&#45;&gt;java.lang.constant.MethodHandleDesc</title>
<path fill="none" stroke="#999999" stroke-width="2" d="M190.5,-41.3499C190.5,-51.0192 190.5,-62.8498 190.5,-73.5843"/>
<polygon fill="#999999" stroke="#999999" stroke-width="2" points="190.5,-83.8329 186,-73.8328 190,-78.8329 190,-73.8329 190.5,-73.8329 191,-73.8329 191,-78.8329 195,-73.8329 190.5,-83.8329 190.5,-83.8329"/>
</g>
<!-- java.lang.constant.MethodTypeDesc -->
<g id="node5" class="node"><title>java.lang.constant.MethodTypeDesc</title>
<g id="a_node5"><a xlink:href="../../../java/lang/constant/MethodTypeDesc.html" xlink:title="java.lang.constant.MethodTypeDesc">
<text text-anchor="middle" x="355.5" y="-101.4" font-family="DejaVuSans" font-size="12.00" fill="#e76f00">MethodTypeDesc</text>
</a>
</g>
</g>
<!-- java.lang.constant.MethodTypeDesc&#45;&gt;java.lang.constant.ConstantDesc -->
<g id="edge4" class="edge"><title>java.lang.constant.MethodTypeDesc&#45;&gt;java.lang.constant.ConstantDesc</title>
<path fill="none" stroke="#999999" stroke-width="2" d="M416.632,-123.597C462.349,-137.13 524.625,-155.566 570.541,-169.158"/>
<polygon fill="#999999" stroke="#999999" stroke-width="2" points="580.37,-172.068 569.504,-173.544 575.434,-171.128 570.64,-169.709 570.782,-169.23 570.924,-168.75 575.718,-170.169 572.059,-164.915 580.37,-172.068 580.37,-172.068"/>
</g>
<!-- java.lang.Double -->
<g id="node6" class="node"><title>java.lang.Double</title>
<g id="a_node6"><a xlink:href="../../../java/lang/Double.html" xlink:title="java.lang.Double">
<text text-anchor="middle" x="486.5" y="-101.4" font-family="DejaVuSans" font-size="12.00" fill="#e76f00">Double</text>
</a>
</g>
</g>
<!-- java.lang.Double&#45;&gt;java.lang.constant.ConstantDesc -->
<g id="edge5" class="edge"><title>java.lang.Double&#45;&gt;java.lang.constant.ConstantDesc</title>
<path fill="none" stroke="#999999" stroke-width="2" d="M520.731,-124.725C541.102,-136.167 567.147,-150.795 588.97,-163.052"/>
<polygon fill="#999999" stroke="#999999" stroke-width="2" points="597.724,-167.968 586.802,-166.995 593.12,-165.956 588.76,-163.507 589.005,-163.071 589.25,-162.635 593.61,-165.084 591.209,-159.148 597.724,-167.968 597.724,-167.968"/>
</g>
<!-- java.lang.constant.DynamicConstantDesc -->
<g id="node7" class="node"><title>java.lang.constant.DynamicConstantDesc</title>
<g id="a_node7"><a xlink:href="../../../java/lang/constant/DynamicConstantDesc.html" xlink:title="java.lang.constant.DynamicConstantDesc">
<text text-anchor="middle" x="632.5" y="-101.4" font-family="DejaVuSans" font-size="12.00" fill="#e76f00">DynamicConstantDesc</text>
</a>
</g>
</g>
<!-- java.lang.constant.DynamicConstantDesc&#45;&gt;java.lang.constant.ConstantDesc -->
<g id="edge6" class="edge"><title>java.lang.constant.DynamicConstantDesc&#45;&gt;java.lang.constant.ConstantDesc</title>
<path fill="none" stroke="#999999" stroke-width="2" d="M632.5,-125.35C632.5,-135.019 632.5,-146.85 632.5,-157.584"/>
<polygon fill="#999999" stroke="#999999" stroke-width="2" points="632.5,-167.833 628,-157.833 632,-162.833 632,-157.833 632.5,-157.833 633,-157.833 633,-162.833 637,-157.833 632.5,-167.833 632.5,-167.833"/>
</g>
<!-- open node #0 -->
<g id="node8" class="node"><title>open node #0</title>
<g id="a_node8"><a xlink:title="Non&#45;sealed Hierarchy">
<text text-anchor="start" x="615.5" y="-18.4" font-family="DejaVuSans" font-style="italic" font-size="12.00" fill="#e76f00">&lt;any&gt;</text>
</a>
</g>
</g>
<!-- open node #0&#45;&gt;java.lang.constant.DynamicConstantDesc -->
<g id="edge7" class="edge"><title>open node #0&#45;&gt;java.lang.constant.DynamicConstantDesc</title>
<path fill="none" stroke="#999999" stroke-width="2" stroke-dasharray="5,2" d="M632.5,-41.3499C632.5,-51.0192 632.5,-62.8498 632.5,-73.5843"/>
<polygon fill="#999999" stroke="#999999" stroke-width="2" points="632.5,-83.8329 628,-73.8328 632,-78.8329 632,-73.8329 632.5,-73.8329 633,-73.8329 633,-78.8329 637,-73.8329 632.5,-83.8329 632.5,-83.8329"/>
</g>
<!-- java.lang.Float -->
<g id="node9" class="node"><title>java.lang.Float</title>
<g id="a_node9"><a xlink:href="../../../java/lang/Float.html" xlink:title="java.lang.Float">
<text text-anchor="middle" x="772.5" y="-101.4" font-family="DejaVuSans" font-size="12.00" fill="#e76f00">Float</text>
</a>
</g>
</g>
<!-- java.lang.Float&#45;&gt;java.lang.constant.ConstantDesc -->
<g id="edge8" class="edge"><title>java.lang.Float&#45;&gt;java.lang.constant.ConstantDesc</title>
<path fill="none" stroke="#999999" stroke-width="2" d="M744.169,-122.094C724.207,-133.786 697.138,-149.641 674.65,-162.812"/>
<polygon fill="#999999" stroke="#999999" stroke-width="2" points="665.964,-167.9 672.318,-158.963 670.026,-164.941 674.34,-162.414 674.593,-162.846 674.846,-163.277 670.531,-165.804 676.867,-166.729 665.964,-167.9 665.964,-167.9"/>
</g>
<!-- java.lang.Integer -->
<g id="node10" class="node"><title>java.lang.Integer</title>
<g id="a_node10"><a xlink:href="../../../java/lang/Integer.html" xlink:title="java.lang.Integer">
<text text-anchor="middle" x="869.5" y="-101.4" font-family="DejaVuSans" font-size="12.00" fill="#e76f00">Integer</text>
</a>
</g>
</g>
<!-- java.lang.Integer&#45;&gt;java.lang.constant.ConstantDesc -->
<g id="edge9" class="edge"><title>java.lang.Integer&#45;&gt;java.lang.constant.ConstantDesc</title>
<path fill="none" stroke="#999999" stroke-width="2" d="M836.926,-118.183C830.82,-120.496 824.478,-122.854 818.5,-125 777.47,-139.73 730.983,-155.351 694.747,-167.292"/>
<polygon fill="#999999" stroke="#999999" stroke-width="2" points="684.811,-170.558 692.906,-163.16 689.405,-168.522 694.155,-166.96 694.311,-167.435 694.467,-167.91 689.717,-169.471 695.716,-171.71 684.811,-170.558 684.811,-170.558"/>
</g>
<!-- java.lang.Long -->
<g id="node11" class="node"><title>java.lang.Long</title>
<g id="a_node11"><a xlink:href="../../../java/lang/Long.html" xlink:title="java.lang.Long">
<text text-anchor="middle" x="966.5" y="-101.4" font-family="DejaVuSans" font-size="12.00" fill="#e76f00">Long</text>
</a>
</g>
</g>
<!-- java.lang.Long&#45;&gt;java.lang.constant.ConstantDesc -->
<g id="edge10" class="edge"><title>java.lang.Long&#45;&gt;java.lang.constant.ConstantDesc</title>
<path fill="none" stroke="#999999" stroke-width="2" d="M938.47,-118.088C932.297,-120.59 925.738,-123.044 919.5,-125 843.375,-148.87 753.106,-166.907 694.411,-177.326"/>
<polygon fill="#999999" stroke="#999999" stroke-width="2" points="684.551,-179.057 693.622,-172.895 689.389,-177.7 694.313,-176.835 694.4,-177.328 694.486,-177.82 689.562,-178.685 695.178,-181.76 684.551,-179.057 684.551,-179.057"/>
</g>
<!-- java.lang.String -->
<g id="node12" class="node"><title>java.lang.String</title>
<g id="a_node12"><a xlink:href="../../../java/lang/String.html" xlink:title="java.lang.String">
<text text-anchor="middle" x="1060.5" y="-101.4" font-family="DejaVuSans" font-size="12.00" fill="#e76f00">String</text>
</a>
</g>
</g>
<!-- java.lang.String&#45;&gt;java.lang.constant.ConstantDesc -->
<g id="edge11" class="edge"><title>java.lang.String&#45;&gt;java.lang.constant.ConstantDesc</title>
<path fill="none" stroke="#999999" stroke-width="2" d="M1030.39,-118.921C1024.53,-121.189 1018.39,-123.342 1012.5,-125 902.938,-155.848 771.045,-173.307 694.974,-181.543"/>
<polygon fill="#999999" stroke="#999999" stroke-width="2" points="684.619,-182.644 694.087,-177.112 689.538,-181.618 694.51,-181.09 694.563,-181.587 694.616,-182.084 689.644,-182.613 695.039,-186.061 684.619,-182.644 684.619,-182.644"/>
</g>
</g>
</svg>
