<?xml version="1.0" encoding="UTF-8" standalone="no"?>
<!DOCTYPE svg PUBLIC "-//W3C//DTD SVG 1.1//EN"
 "http://www.w3.org/Graphics/SVG/1.1/DTD/svg11.dtd">
<!-- Generated by graphviz version 2.38.0 (20140413.2041)
 -->
<!-- Title: G Pages: 1 -->
<svg width="610pt" height="133pt"
 viewBox="0.00 0.00 610.00 133.00" xmlns="http://www.w3.org/2000/svg" xmlns:xlink="http://www.w3.org/1999/xlink">
<g id="graph0" class="graph" transform="scale(1 1) rotate(0) translate(4 129)">
<title>G</title>
<polygon fill="white" stroke="none" points="-4,4 -4,-129 606,-129 606,4 -4,4"/>
<!-- javax.swing.text.StyleConstants.CharacterConstants -->
<g id="node1" class="node"><title>javax.swing.text.StyleConstants.CharacterConstants</title>
<g id="a_node1"><a xlink:href="../../../javax/swing/text/CharacterConstants.html" xlink:title="javax.swing.text.StyleConstants.CharacterConstants">
<text text-anchor="middle" x="67.5" y="-17.4" font-family="DejaVuSans" font-size="12.00" fill="#e76f00">CharacterConstants</text>
</a>
</g>
</g>
<!-- javax.swing.text.StyleConstants -->
<g id="node2" class="node"><title>javax.swing.text.StyleConstants</title>
<g id="a_node2"><a xlink:href="../../../javax/swing/text/StyleConstants.html" xlink:title="javax.swing.text.StyleConstants">
<text text-anchor="middle" x="300.5" y="-101.4" font-family="DejaVuSans" font-size="12.00" fill="#e76f00">StyleConstants</text>
</a>
</g>
</g>
<!-- javax.swing.text.StyleConstants.CharacterConstants&#45;&gt;javax.swing.text.StyleConstants -->
<g id="edge1" class="edge"><title>javax.swing.text.StyleConstants.CharacterConstants&#45;&gt;javax.swing.text.StyleConstants</title>
<path fill="none" stroke="#999999" stroke-width="2" d="M123.013,-41.0369C156.848,-52.9444 200.241,-68.2155 235.651,-80.6775"/>
<polygon fill="#999999" stroke="#999999" stroke-width="2" points="245.412,-84.1128 234.485,-85.0378 240.53,-82.9245 235.813,-81.2646 235.979,-80.793 236.145,-80.3214 240.862,-81.9813 237.473,-76.5482 245.412,-84.1128 245.412,-84.1128"/>
</g>
<!-- javax.swing.text.StyleConstants.ColorConstants -->
<g id="node3" class="node"><title>javax.swing.text.StyleConstants.ColorConstants</title>
<g id="a_node3"><a xlink:href="../../../javax/swing/text/ColorConstants.html" xlink:title="javax.swing.text.StyleConstants.ColorConstants">
<text text-anchor="middle" x="227.5" y="-17.4" font-family="DejaVuSans" font-size="12.00" fill="#e76f00">ColorConstants</text>
</a>
</g>
</g>
<!-- javax.swing.text.StyleConstants.ColorConstants&#45;&gt;javax.swing.text.StyleConstants -->
<g id="edge2" class="edge"><title>javax.swing.text.StyleConstants.ColorConstants&#45;&gt;javax.swing.text.StyleConstants</title>
<path fill="none" stroke="#999999" stroke-width="2" d="M245.171,-41.3499C254.497,-51.825 266.08,-64.8366 276.235,-76.2433"/>
<polygon fill="#999999" stroke="#999999" stroke-width="2" points="282.991,-83.8329 272.981,-79.356 279.293,-80.4308 275.969,-76.6963 276.342,-76.3638 276.716,-76.0313 280.04,-79.7659 279.703,-73.3716 282.991,-83.8329 282.991,-83.8329"/>
</g>
<!-- javax.swing.text.StyleConstants.FontConstants -->
<g id="node4" class="node"><title>javax.swing.text.StyleConstants.FontConstants</title>
<g id="a_node4"><a xlink:href="../../../javax/swing/text/FontConstants.html" xlink:title="javax.swing.text.StyleConstants.FontConstants">
<text text-anchor="middle" x="373.5" y="-17.4" font-family="DejaVuSans" font-size="12.00" fill="#e76f00">FontConstants</text>
</a>
</g>
</g>
<!-- javax.swing.text.StyleConstants.FontConstants&#45;&gt;javax.swing.text.StyleConstants -->
<g id="edge3" class="edge"><title>javax.swing.text.StyleConstants.FontConstants&#45;&gt;javax.swing.text.StyleConstants</title>
<path fill="none" stroke="#999999" stroke-width="2" d="M355.829,-41.3499C346.503,-51.825 334.92,-64.8366 324.765,-76.2433"/>
<polygon fill="#999999" stroke="#999999" stroke-width="2" points="318.009,-83.8329 321.297,-73.3716 320.96,-79.7659 324.284,-76.0313 324.658,-76.3638 325.031,-76.6963 321.707,-80.4308 328.019,-79.356 318.009,-83.8329 318.009,-83.8329"/>
</g>
<!-- javax.swing.text.StyleConstants.ParagraphConstants -->
<g id="node5" class="node"><title>javax.swing.text.StyleConstants.ParagraphConstants</title>
<g id="a_node5"><a xlink:href="../../../javax/swing/text/ParagraphConstants.html" xlink:title="javax.swing.text.StyleConstants.ParagraphConstants">
<text text-anchor="middle" x="532.5" y="-17.4" font-family="DejaVuSans" font-size="12.00" fill="#e76f00">ParagraphConstants</text>
</a>
</g>
</g>
<!-- javax.swing.text.StyleConstants.ParagraphConstants&#45;&gt;javax.swing.text.StyleConstants -->
<g id="edge4" class="edge"><title>javax.swing.text.StyleConstants.ParagraphConstants&#45;&gt;javax.swing.text.StyleConstants</title>
<path fill="none" stroke="#999999" stroke-width="2" d="M477.225,-41.0369C443.658,-52.9011 400.643,-68.1045 365.456,-80.5414"/>
<polygon fill="#999999" stroke="#999999" stroke-width="2" points="355.753,-83.9709 363.682,-76.3956 360.301,-81.8332 365.015,-80.1669 365.182,-80.6383 365.348,-81.1098 360.634,-82.776 366.681,-84.8811 355.753,-83.9709 355.753,-83.9709"/>
</g>
</g>
</svg>
