<?xml version="1.0" encoding="UTF-8" standalone="no"?>
<!DOCTYPE svg PUBLIC "-//W3C//DTD SVG 1.1//EN"
 "http://www.w3.org/Graphics/SVG/1.1/DTD/svg11.dtd">
<!-- Generated by graphviz version 2.38.0 (20140413.2041)
 -->
<!-- Title: G Pages: 1 -->
<svg width="202pt" height="133pt"
 viewBox="0.00 0.00 202.00 133.00" xmlns="http://www.w3.org/2000/svg" xmlns:xlink="http://www.w3.org/1999/xlink">
<g id="graph0" class="graph" transform="scale(1 1) rotate(0) translate(4 129)">
<title>G</title>
<polygon fill="white" stroke="none" points="-4,4 -4,-129 198,-129 198,4 -4,4"/>
<!-- java.lang.reflect.Constructor -->
<g id="node1" class="node"><title>java.lang.reflect.Constructor</title>
<g id="a_node1"><a xlink:href="../../../java/lang/reflect/Constructor.html" xlink:title="java.lang.reflect.Constructor">
<text text-anchor="middle" x="45" y="-17.4" font-family="DejaVuSans" font-size="12.00" fill="#e76f00">Constructor</text>
</a>
</g>
</g>
<!-- java.lang.reflect.Executable -->
<g id="node2" class="node"><title>java.lang.reflect.Executable</title>
<g id="a_node2"><a xlink:href="../../../java/lang/reflect/Executable.html" xlink:title="java.lang.reflect.Executable">
<text text-anchor="middle" x="102" y="-101.4" font-family="DejaVuSans" font-size="12.00" fill="#e76f00">Executable</text>
</a>
</g>
</g>
<!-- java.lang.reflect.Constructor&#45;&gt;java.lang.reflect.Executable -->
<g id="edge1" class="edge"><title>java.lang.reflect.Constructor&#45;&gt;java.lang.reflect.Executable</title>
<path fill="none" stroke="#999999" stroke-width="2" d="M58.7981,-41.3499C65.9396,-51.6236 74.777,-64.3371 82.5946,-75.5834"/>
<polygon fill="#999999" stroke="#999999" stroke-width="2" points="88.329,-83.8329 78.9262,-78.1903 85.0645,-80.0127 82.2106,-75.9072 82.6212,-75.6218 83.0318,-75.3364 85.8856,-79.4419 86.3162,-73.0533 88.329,-83.8329 88.329,-83.8329"/>
</g>
<!-- java.lang.reflect.Method -->
<g id="node3" class="node"><title>java.lang.reflect.Method</title>
<g id="a_node3"><a xlink:href="../../../java/lang/reflect/Method.html" xlink:title="java.lang.reflect.Method">
<text text-anchor="middle" x="160" y="-17.4" font-family="DejaVuSans" font-size="12.00" fill="#e76f00">Method</text>
</a>
</g>
</g>
<!-- java.lang.reflect.Method&#45;&gt;java.lang.reflect.Executable -->
<g id="edge2" class="edge"><title>java.lang.reflect.Method&#45;&gt;java.lang.reflect.Executable</title>
<path fill="none" stroke="#999999" stroke-width="2" d="M145.96,-41.3499C138.693,-51.6236 129.701,-64.3371 121.746,-75.5834"/>
<polygon fill="#999999" stroke="#999999" stroke-width="2" points="115.911,-83.8329 118.012,-73.0701 118.39,-79.4621 121.277,-75.38 121.686,-75.6687 122.094,-75.9574 119.206,-80.0395 125.359,-78.2673 115.911,-83.8329 115.911,-83.8329"/>
</g>
</g>
</svg>
