<?xml version="1.0" encoding="UTF-8" standalone="no"?>
<!DOCTYPE svg PUBLIC "-//W3C//DTD SVG 1.1//EN"
 "http://www.w3.org/Graphics/SVG/1.1/DTD/svg11.dtd">
<!-- Generated by graphviz version 2.38.0 (20140413.2041)
 -->
<!-- Title: G Pages: 1 -->
<svg width="220pt" height="217pt"
 viewBox="0.00 0.00 219.50 217.00" xmlns="http://www.w3.org/2000/svg" xmlns:xlink="http://www.w3.org/1999/xlink">
<g id="graph0" class="graph" transform="scale(1 1) rotate(0) translate(4 213)">
<title>G</title>
<polygon fill="white" stroke="none" points="-4,4 -4,-213 215.5,-213 215.5,4 -4,4"/>
<!-- java.awt.event.KeyEvent -->
<g id="node1" class="node"><title>java.awt.event.KeyEvent</title>
<g id="a_node1"><a xlink:href="../../../java/awt/event/KeyEvent.html" xlink:title="java.awt.event.KeyEvent">
<text text-anchor="middle" x="171.5" y="-101.4" font-family="DejaVuSans" font-size="12.00" fill="#e76f00">KeyEvent</text>
</a>
</g>
</g>
<!-- java.awt.event.InputEvent -->
<g id="node2" class="node"><title>java.awt.event.InputEvent</title>
<g id="a_node2"><a xlink:href="../../../java/awt/event/InputEvent.html" xlink:title="java.awt.event.InputEvent">
<text text-anchor="middle" x="109.5" y="-185.4" font-family="DejaVuSans" font-size="12.00" fill="#e76f00">InputEvent</text>
</a>
</g>
</g>
<!-- java.awt.event.KeyEvent&#45;&gt;java.awt.event.InputEvent -->
<g id="edge1" class="edge"><title>java.awt.event.KeyEvent&#45;&gt;java.awt.event.InputEvent</title>
<path fill="none" stroke="#999999" stroke-width="2" d="M156.492,-125.35C148.724,-135.624 139.111,-148.337 130.608,-159.583"/>
<polygon fill="#999999" stroke="#999999" stroke-width="2" points="124.37,-167.833 126.812,-157.142 126.987,-163.543 130.003,-159.555 130.401,-159.856 130.8,-160.158 127.785,-164.146 133.991,-162.57 124.37,-167.833 124.37,-167.833"/>
</g>
<!-- open node #0 -->
<g id="node3" class="node"><title>open node #0</title>
<g id="a_node3"><a xlink:title="Non&#45;sealed Hierarchy">
<text text-anchor="start" x="154.5" y="-18.4" font-family="DejaVuSans" font-style="italic" font-size="12.00" fill="#e76f00">&lt;any&gt;</text>
</a>
</g>
</g>
<!-- open node #0&#45;&gt;java.awt.event.KeyEvent -->
<g id="edge2" class="edge"><title>open node #0&#45;&gt;java.awt.event.KeyEvent</title>
<path fill="none" stroke="#999999" stroke-width="2" stroke-dasharray="5,2" d="M171.5,-41.3499C171.5,-51.0192 171.5,-62.8498 171.5,-73.5843"/>
<polygon fill="#999999" stroke="#999999" stroke-width="2" points="171.5,-83.8329 167,-73.8328 171,-78.8329 171,-73.8329 171.5,-73.8329 172,-73.8329 172,-78.8329 176,-73.8329 171.5,-83.8329 171.5,-83.8329"/>
</g>
<!-- java.awt.event.MouseEvent -->
<g id="node4" class="node"><title>java.awt.event.MouseEvent</title>
<g id="a_node4"><a xlink:href="../../../java/awt/event/MouseEvent.html" xlink:title="java.awt.event.MouseEvent">
<text text-anchor="middle" x="47.5" y="-101.4" font-family="DejaVuSans" font-size="12.00" fill="#e76f00">MouseEvent</text>
</a>
</g>
</g>
<!-- java.awt.event.MouseEvent&#45;&gt;java.awt.event.InputEvent -->
<g id="edge3" class="edge"><title>java.awt.event.MouseEvent&#45;&gt;java.awt.event.InputEvent</title>
<path fill="none" stroke="#999999" stroke-width="2" d="M62.5085,-125.35C70.2764,-135.624 79.889,-148.337 88.3923,-159.583"/>
<polygon fill="#999999" stroke="#999999" stroke-width="2" points="94.6297,-167.833 85.0091,-162.57 91.2154,-164.146 88.1998,-160.158 88.5986,-159.856 88.9975,-159.555 92.013,-163.543 92.1881,-157.142 94.6297,-167.833 94.6297,-167.833"/>
</g>
<!-- open node #1 -->
<g id="node5" class="node"><title>open node #1</title>
<g id="a_node5"><a xlink:title="Non&#45;sealed Hierarchy">
<text text-anchor="start" x="30.5" y="-18.4" font-family="DejaVuSans" font-style="italic" font-size="12.00" fill="#e76f00">&lt;any&gt;</text>
</a>
</g>
</g>
<!-- open node #1&#45;&gt;java.awt.event.MouseEvent -->
<g id="edge4" class="edge"><title>open node #1&#45;&gt;java.awt.event.MouseEvent</title>
<path fill="none" stroke="#999999" stroke-width="2" stroke-dasharray="5,2" d="M47.5,-41.3499C47.5,-51.0192 47.5,-62.8498 47.5,-73.5843"/>
<polygon fill="#999999" stroke="#999999" stroke-width="2" points="47.5,-83.8329 43.0001,-73.8328 47,-78.8329 47.0001,-73.8329 47.5001,-73.8329 48.0001,-73.8329 48,-78.8329 52.0001,-73.8329 47.5,-83.8329 47.5,-83.8329"/>
</g>
</g>
</svg>
