<?xml version="1.0" encoding="UTF-8" standalone="no"?>
<!DOCTYPE svg PUBLIC "-//W3C//DTD SVG 1.1//EN"
 "http://www.w3.org/Graphics/SVG/1.1/DTD/svg11.dtd">
<!-- Generated by graphviz version 2.38.0 (20140413.2041)
 -->
<!-- Title: G Pages: 1 -->
<svg width="375pt" height="133pt"
 viewBox="0.00 0.00 374.50 133.00" xmlns="http://www.w3.org/2000/svg" xmlns:xlink="http://www.w3.org/1999/xlink">
<g id="graph0" class="graph" transform="scale(1 1) rotate(0) translate(4 129)">
<title>G</title>
<polygon fill="white" stroke="none" points="-4,4 -4,-129 370.5,-129 370.5,4 -4,4"/>
<!-- java.lang.classfile.Signature.ArrayTypeSig -->
<g id="node1" class="node"><title>java.lang.classfile.Signature.ArrayTypeSig</title>
<g id="a_node1"><a xlink:href="../../../java/lang/classfile/Signature.ArrayTypeSig.html" xlink:title="java.lang.classfile.Signature.ArrayTypeSig">
<text text-anchor="middle" x="50.5" y="-17.4" font-family="DejaVuSans" font-size="12.00" fill="#e76f00">ArrayTypeSig</text>
</a>
</g>
</g>
<!-- java.lang.classfile.Signature.RefTypeSig -->
<g id="node2" class="node"><title>java.lang.classfile.Signature.RefTypeSig</title>
<g id="a_node2"><a xlink:href="../../../java/lang/classfile/Signature.RefTypeSig.html" xlink:title="java.lang.classfile.Signature.RefTypeSig">
<text text-anchor="middle" x="188.5" y="-101.4" font-family="DejaVuSans" font-size="12.00" fill="#e76f00">RefTypeSig</text>
</a>
</g>
</g>
<!-- java.lang.classfile.Signature.ArrayTypeSig&#45;&gt;java.lang.classfile.Signature.RefTypeSig -->
<g id="edge1" class="edge"><title>java.lang.classfile.Signature.ArrayTypeSig&#45;&gt;java.lang.classfile.Signature.RefTypeSig</title>
<path fill="none" stroke="#999999" stroke-width="2" d="M83.5544,-41.141C102.447,-52.3673 126.329,-66.5577 146.536,-78.5647"/>
<polygon fill="#999999" stroke="#999999" stroke-width="2" points="155.237,-83.735 144.341,-82.4953 150.683,-81.6107 146.385,-79.0566 146.64,-78.6267 146.896,-78.1969 151.194,-80.751 148.939,-74.7581 155.237,-83.735 155.237,-83.735"/>
</g>
<!-- java.lang.classfile.Signature.ClassTypeSig -->
<g id="node3" class="node"><title>java.lang.classfile.Signature.ClassTypeSig</title>
<g id="a_node3"><a xlink:href="../../../java/lang/classfile/Signature.ClassTypeSig.html" xlink:title="java.lang.classfile.Signature.ClassTypeSig">
<text text-anchor="middle" x="188.5" y="-17.4" font-family="DejaVuSans" font-size="12.00" fill="#e76f00">ClassTypeSig</text>
</a>
</g>
</g>
<!-- java.lang.classfile.Signature.ClassTypeSig&#45;&gt;java.lang.classfile.Signature.RefTypeSig -->
<g id="edge2" class="edge"><title>java.lang.classfile.Signature.ClassTypeSig&#45;&gt;java.lang.classfile.Signature.RefTypeSig</title>
<path fill="none" stroke="#999999" stroke-width="2" d="M188.5,-41.3499C188.5,-51.0192 188.5,-62.8498 188.5,-73.5843"/>
<polygon fill="#999999" stroke="#999999" stroke-width="2" points="188.5,-83.8329 184,-73.8328 188,-78.8329 188,-73.8329 188.5,-73.8329 189,-73.8329 189,-78.8329 193,-73.8329 188.5,-83.8329 188.5,-83.8329"/>
</g>
<!-- java.lang.classfile.Signature.TypeVarSig -->
<g id="node4" class="node"><title>java.lang.classfile.Signature.TypeVarSig</title>
<g id="a_node4"><a xlink:href="../../../java/lang/classfile/Signature.TypeVarSig.html" xlink:title="java.lang.classfile.Signature.TypeVarSig">
<text text-anchor="middle" x="321.5" y="-17.4" font-family="DejaVuSans" font-size="12.00" fill="#e76f00">TypeVarSig</text>
</a>
</g>
</g>
<!-- java.lang.classfile.Signature.TypeVarSig&#45;&gt;java.lang.classfile.Signature.RefTypeSig -->
<g id="edge3" class="edge"><title>java.lang.classfile.Signature.TypeVarSig&#45;&gt;java.lang.classfile.Signature.RefTypeSig</title>
<path fill="none" stroke="#999999" stroke-width="2" d="M289.643,-41.141C271.516,-52.317 248.625,-66.4305 229.206,-78.403"/>
<polygon fill="#999999" stroke="#999999" stroke-width="2" points="220.558,-83.735 226.708,-74.6564 224.552,-80.6853 228.808,-78.0613 229.07,-78.4869 229.332,-78.9125 225.076,-81.5366 231.432,-82.3174 220.558,-83.735 220.558,-83.735"/>
</g>
</g>
</svg>
