<?xml version="1.0" encoding="UTF-8" standalone="no"?>
<!DOCTYPE svg PUBLIC "-//W3C//DTD SVG 1.1//EN"
 "http://www.w3.org/Graphics/SVG/1.1/DTD/svg11.dtd">
<!-- Generated by graphviz version 2.38.0 (20140413.2041)
 -->
<!-- Title: G Pages: 1 -->
<svg width="238pt" height="133pt"
 viewBox="0.00 0.00 237.50 133.00" xmlns="http://www.w3.org/2000/svg" xmlns:xlink="http://www.w3.org/1999/xlink">
<g id="graph0" class="graph" transform="scale(1 1) rotate(0) translate(4 129)">
<title>G</title>
<polygon fill="white" stroke="none" points="-4,4 -4,-129 233.5,-129 233.5,4 -4,4"/>
<!-- java.lang.classfile.Signature.ClassTypeSig -->
<g id="node1" class="node"><title>java.lang.classfile.Signature.ClassTypeSig</title>
<g id="a_node1"><a xlink:href="../../../java/lang/classfile/Signature.ClassTypeSig.html" xlink:title="java.lang.classfile.Signature.ClassTypeSig">
<text text-anchor="middle" x="51.5" y="-17.4" font-family="DejaVuSans" font-size="12.00" fill="#e76f00">ClassTypeSig</text>
</a>
</g>
</g>
<!-- java.lang.classfile.Signature.ThrowableSig -->
<g id="node2" class="node"><title>java.lang.classfile.Signature.ThrowableSig</title>
<g id="a_node2"><a xlink:href="../../../java/lang/classfile/Signature.ThrowableSig.html" xlink:title="java.lang.classfile.Signature.ThrowableSig">
<text text-anchor="middle" x="117.5" y="-101.4" font-family="DejaVuSans" font-size="12.00" fill="#e76f00">ThrowableSig</text>
</a>
</g>
</g>
<!-- java.lang.classfile.Signature.ClassTypeSig&#45;&gt;java.lang.classfile.Signature.ThrowableSig -->
<g id="edge1" class="edge"><title>java.lang.classfile.Signature.ClassTypeSig&#45;&gt;java.lang.classfile.Signature.ThrowableSig</title>
<path fill="none" stroke="#999999" stroke-width="2" d="M67.4768,-41.3499C75.8269,-51.7243 86.1794,-64.5866 95.2964,-75.9138"/>
<polygon fill="#999999" stroke="#999999" stroke-width="2" points="101.67,-83.8329 91.8947,-78.8643 98.1458,-80.2513 95.0107,-76.3563 95.4002,-76.0427 95.7897,-75.7292 98.9248,-79.6243 98.9058,-73.2212 101.67,-83.8329 101.67,-83.8329"/>
</g>
<!-- java.lang.classfile.Signature.TypeVarSig -->
<g id="node3" class="node"><title>java.lang.classfile.Signature.TypeVarSig</title>
<g id="a_node3"><a xlink:href="../../../java/lang/classfile/Signature.TypeVarSig.html" xlink:title="java.lang.classfile.Signature.TypeVarSig">
<text text-anchor="middle" x="184.5" y="-17.4" font-family="DejaVuSans" font-size="12.00" fill="#e76f00">TypeVarSig</text>
</a>
</g>
</g>
<!-- java.lang.classfile.Signature.TypeVarSig&#45;&gt;java.lang.classfile.Signature.ThrowableSig -->
<g id="edge2" class="edge"><title>java.lang.classfile.Signature.TypeVarSig&#45;&gt;java.lang.classfile.Signature.ThrowableSig</title>
<path fill="none" stroke="#999999" stroke-width="2" d="M168.281,-41.3499C159.805,-51.7243 149.295,-64.5866 140.04,-75.9138"/>
<polygon fill="#999999" stroke="#999999" stroke-width="2" points="133.569,-83.8329 136.412,-73.2418 136.346,-79.6446 139.51,-75.7727 139.897,-76.0891 140.284,-76.4054 137.12,-80.2773 143.381,-78.9364 133.569,-83.8329 133.569,-83.8329"/>
</g>
</g>
</svg>
