<?xml version="1.0" encoding="UTF-8" standalone="no"?>
<!DOCTYPE svg PUBLIC "-//W3C//DTD SVG 1.1//EN"
 "http://www.w3.org/Graphics/SVG/1.1/DTD/svg11.dtd">
<!-- Generated by graphviz version 2.38.0 (20140413.2041)
 -->
<!-- Title: G Pages: 1 -->
<svg width="318pt" height="133pt"
 viewBox="0.00 0.00 317.50 133.00" xmlns="http://www.w3.org/2000/svg" xmlns:xlink="http://www.w3.org/1999/xlink">
<g id="graph0" class="graph" transform="scale(1 1) rotate(0) translate(4 129)">
<title>G</title>
<polygon fill="white" stroke="none" points="-4,4 -4,-129 313.5,-129 313.5,4 -4,4"/>
<!-- java.awt.LinearGradientPaint -->
<g id="node1" class="node"><title>java.awt.LinearGradientPaint</title>
<g id="a_node1"><a xlink:href="../../java/awt/LinearGradientPaint.html" xlink:title="java.awt.LinearGradientPaint">
<text text-anchor="middle" x="68" y="-17.4" font-family="DejaVuSans" font-size="12.00" fill="#e76f00">LinearGradientPaint</text>
</a>
</g>
</g>
<!-- java.awt.MultipleGradientPaint -->
<g id="node2" class="node"><title>java.awt.MultipleGradientPaint</title>
<g id="a_node2"><a xlink:href="../../java/awt/MultipleGradientPaint.html" xlink:title="java.awt.MultipleGradientPaint">
<text text-anchor="middle" x="154" y="-101.4" font-family="DejaVuSans" font-size="12.00" fill="#e76f00">MultipleGradientPaint</text>
</a>
</g>
</g>
<!-- java.awt.LinearGradientPaint&#45;&gt;java.awt.MultipleGradientPaint -->
<g id="edge1" class="edge"><title>java.awt.LinearGradientPaint&#45;&gt;java.awt.MultipleGradientPaint</title>
<path fill="none" stroke="#999999" stroke-width="2" d="M88.8182,-41.3499C100.016,-52.0265 113.976,-65.338 126.102,-76.8995"/>
<polygon fill="#999999" stroke="#999999" stroke-width="2" points="133.374,-83.8329 123.031,-80.1889 129.41,-80.7444 125.791,-77.294 126.136,-76.9321 126.481,-76.5702 130.1,-80.0206 129.241,-73.6753 133.374,-83.8329 133.374,-83.8329"/>
</g>
<!-- java.awt.RadialGradientPaint -->
<g id="node3" class="node"><title>java.awt.RadialGradientPaint</title>
<g id="a_node3"><a xlink:href="../../java/awt/RadialGradientPaint.html" xlink:title="java.awt.RadialGradientPaint">
<text text-anchor="middle" x="241" y="-17.4" font-family="DejaVuSans" font-size="12.00" fill="#e76f00">RadialGradientPaint</text>
</a>
</g>
</g>
<!-- java.awt.RadialGradientPaint&#45;&gt;java.awt.MultipleGradientPaint -->
<g id="edge2" class="edge"><title>java.awt.RadialGradientPaint&#45;&gt;java.awt.MultipleGradientPaint</title>
<path fill="none" stroke="#999999" stroke-width="2" d="M219.94,-41.3499C208.612,-52.0265 194.489,-65.338 182.222,-76.8995"/>
<polygon fill="#999999" stroke="#999999" stroke-width="2" points="174.866,-83.8329 179.057,-73.6993 178.162,-80.0396 181.8,-76.6101 182.143,-76.974 182.486,-77.3378 178.848,-80.7673 185.23,-80.2487 174.866,-83.8329 174.866,-83.8329"/>
</g>
</g>
</svg>
