<?xml version="1.0" encoding="UTF-8" standalone="no"?>
<!DOCTYPE svg PUBLIC "-//W3C//DTD SVG 1.1//EN"
 "http://www.w3.org/Graphics/SVG/1.1/DTD/svg11.dtd">
<!-- Generated by graphviz version 2.38.0 (20140413.2041)
 -->
<!-- Title: G Pages: 1 -->
<svg width="585pt" height="133pt"
 viewBox="0.00 0.00 584.50 133.00" xmlns="http://www.w3.org/2000/svg" xmlns:xlink="http://www.w3.org/1999/xlink">
<g id="graph0" class="graph" transform="scale(1 1) rotate(0) translate(4 129)">
<title>G</title>
<polygon fill="white" stroke="none" points="-4,4 -4,-129 580.5,-129 580.5,4 -4,4"/>
<!-- java.lang.classfile.constantpool.DoubleEntry -->
<g id="node1" class="node"><title>java.lang.classfile.constantpool.DoubleEntry</title>
<g id="a_node1"><a xlink:href="../../../../java/lang/classfile/constantpool/DoubleEntry.html" xlink:title="java.lang.classfile.constantpool.DoubleEntry">
<text text-anchor="middle" x="47.5" y="-17.4" font-family="DejaVuSans" font-size="12.00" fill="#e76f00">DoubleEntry</text>
</a>
</g>
</g>
<!-- java.lang.classfile.constantpool.AnnotationConstantValueEntry -->
<g id="node2" class="node"><title>java.lang.classfile.constantpool.AnnotationConstantValueEntry</title>
<g id="a_node2"><a xlink:href="../../../../java/lang/classfile/constantpool/AnnotationConstantValueEntry.html" xlink:title="java.lang.classfile.constantpool.AnnotationConstantValueEntry">
<text text-anchor="middle" x="296.5" y="-101.4" font-family="DejaVuSans" font-size="12.00" fill="#e76f00">AnnotationConstantValueEntry</text>
</a>
</g>
</g>
<!-- java.lang.classfile.constantpool.DoubleEntry&#45;&gt;java.lang.classfile.constantpool.AnnotationConstantValueEntry -->
<g id="edge1" class="edge"><title>java.lang.classfile.constantpool.DoubleEntry&#45;&gt;java.lang.classfile.constantpool.AnnotationConstantValueEntry</title>
<path fill="none" stroke="#999999" stroke-width="2" d="M95.2151,-37.2134C132.684,-49.5524 185.375,-66.9045 227.448,-80.76"/>
<polygon fill="#999999" stroke="#999999" stroke-width="2" points="237.075,-83.9302 226.169,-85.0764 232.169,-82.8411 227.42,-81.2771 227.576,-80.8022 227.733,-80.3273 232.482,-81.8913 228.984,-76.528 237.075,-83.9302 237.075,-83.9302"/>
</g>
<!-- java.lang.classfile.constantpool.FloatEntry -->
<g id="node3" class="node"><title>java.lang.classfile.constantpool.FloatEntry</title>
<g id="a_node3"><a xlink:href="../../../../java/lang/classfile/constantpool/FloatEntry.html" xlink:title="java.lang.classfile.constantpool.FloatEntry">
<text text-anchor="middle" x="172.5" y="-17.4" font-family="DejaVuSans" font-size="12.00" fill="#e76f00">FloatEntry</text>
</a>
</g>
</g>
<!-- java.lang.classfile.constantpool.FloatEntry&#45;&gt;java.lang.classfile.constantpool.AnnotationConstantValueEntry -->
<g id="edge2" class="edge"><title>java.lang.classfile.constantpool.FloatEntry&#45;&gt;java.lang.classfile.constantpool.AnnotationConstantValueEntry</title>
<path fill="none" stroke="#999999" stroke-width="2" d="M202.201,-41.141C218.949,-52.2163 240.06,-66.1765 258.058,-78.0789"/>
<polygon fill="#999999" stroke="#999999" stroke-width="2" points="266.611,-83.735 255.788,-81.9726 262.165,-81.3941 257.995,-78.6361 258.27,-78.2191 258.546,-77.802 262.717,-80.56 260.753,-74.4655 266.611,-83.735 266.611,-83.735"/>
</g>
<!-- java.lang.classfile.constantpool.IntegerEntry -->
<g id="node4" class="node"><title>java.lang.classfile.constantpool.IntegerEntry</title>
<g id="a_node4"><a xlink:href="../../../../java/lang/classfile/constantpool/IntegerEntry.html" xlink:title="java.lang.classfile.constantpool.IntegerEntry">
<text text-anchor="middle" x="296.5" y="-17.4" font-family="DejaVuSans" font-size="12.00" fill="#e76f00">IntegerEntry</text>
</a>
</g>
</g>
<!-- java.lang.classfile.constantpool.IntegerEntry&#45;&gt;java.lang.classfile.constantpool.AnnotationConstantValueEntry -->
<g id="edge3" class="edge"><title>java.lang.classfile.constantpool.IntegerEntry&#45;&gt;java.lang.classfile.constantpool.AnnotationConstantValueEntry</title>
<path fill="none" stroke="#999999" stroke-width="2" d="M296.5,-41.3499C296.5,-51.0192 296.5,-62.8498 296.5,-73.5843"/>
<polygon fill="#999999" stroke="#999999" stroke-width="2" points="296.5,-83.8329 292,-73.8328 296,-78.8329 296,-73.8329 296.5,-73.8329 297,-73.8329 297,-78.8329 301,-73.8329 296.5,-83.8329 296.5,-83.8329"/>
</g>
<!-- java.lang.classfile.constantpool.LongEntry -->
<g id="node5" class="node"><title>java.lang.classfile.constantpool.LongEntry</title>
<g id="a_node5"><a xlink:href="../../../../java/lang/classfile/constantpool/LongEntry.html" xlink:title="java.lang.classfile.constantpool.LongEntry">
<text text-anchor="middle" x="420.5" y="-17.4" font-family="DejaVuSans" font-size="12.00" fill="#e76f00">LongEntry</text>
</a>
</g>
</g>
<!-- java.lang.classfile.constantpool.LongEntry&#45;&gt;java.lang.classfile.constantpool.AnnotationConstantValueEntry -->
<g id="edge4" class="edge"><title>java.lang.classfile.constantpool.LongEntry&#45;&gt;java.lang.classfile.constantpool.AnnotationConstantValueEntry</title>
<path fill="none" stroke="#999999" stroke-width="2" d="M390.799,-41.141C374.051,-52.2163 352.94,-66.1765 334.942,-78.0789"/>
<polygon fill="#999999" stroke="#999999" stroke-width="2" points="326.389,-83.735 332.247,-74.4655 330.283,-80.56 334.454,-77.802 334.73,-78.2191 335.005,-78.6361 330.835,-81.3941 337.212,-81.9726 326.389,-83.735 326.389,-83.735"/>
</g>
<!-- java.lang.classfile.constantpool.Utf8Entry -->
<g id="node6" class="node"><title>java.lang.classfile.constantpool.Utf8Entry</title>
<g id="a_node6"><a xlink:href="../../../../java/lang/classfile/constantpool/Utf8Entry.html" xlink:title="java.lang.classfile.constantpool.Utf8Entry">
<text text-anchor="middle" x="537.5" y="-17.4" font-family="DejaVuSans" font-size="12.00" fill="#e76f00">Utf8Entry</text>
</a>
</g>
</g>
<!-- java.lang.classfile.constantpool.Utf8Entry&#45;&gt;java.lang.classfile.constantpool.AnnotationConstantValueEntry -->
<g id="edge5" class="edge"><title>java.lang.classfile.constantpool.Utf8Entry&#45;&gt;java.lang.classfile.constantpool.AnnotationConstantValueEntry</title>
<path fill="none" stroke="#999999" stroke-width="2" d="M498.256,-34.9381C492.308,-36.9714 486.242,-39.0427 480.5,-41 441.825,-54.1838 398.561,-68.882 363.706,-80.7109"/>
<polygon fill="#999999" stroke="#999999" stroke-width="2" points="354.109,-83.9675 362.133,-76.4927 358.684,-81.8873 363.418,-80.2805 363.579,-80.754 363.74,-81.2275 359.005,-82.8342 365.025,-85.0154 354.109,-83.9675 354.109,-83.9675"/>
</g>
</g>
</svg>
