<?xml version="1.0" encoding="UTF-8" standalone="no"?>
<!DOCTYPE svg PUBLIC "-//W3C//DTD SVG 1.1//EN"
 "http://www.w3.org/Graphics/SVG/1.1/DTD/svg11.dtd">
<!-- Generated by graphviz version 2.38.0 (20140413.2041)
 -->
<!-- Title: G Pages: 1 -->
<svg width="284pt" height="133pt"
 viewBox="0.00 0.00 283.50 133.00" xmlns="http://www.w3.org/2000/svg" xmlns:xlink="http://www.w3.org/1999/xlink">
<g id="graph0" class="graph" transform="scale(1 1) rotate(0) translate(4 129)">
<title>G</title>
<polygon fill="white" stroke="none" points="-4,4 -4,-129 279.5,-129 279.5,4 -4,4"/>
<!-- java.lang.classfile.ClassReader -->
<g id="node1" class="node"><title>java.lang.classfile.ClassReader</title>
<g id="a_node1"><a xlink:href="../../../../java/lang/classfile/ClassReader.html" xlink:title="java.lang.classfile.ClassReader">
<text text-anchor="middle" x="49.5" y="-17.4" font-family="DejaVuSans" font-size="12.00" fill="#e76f00">ClassReader</text>
</a>
</g>
</g>
<!-- java.lang.classfile.constantpool.ConstantPool -->
<g id="node2" class="node"><title>java.lang.classfile.constantpool.ConstantPool</title>
<g id="a_node2"><a xlink:href="../../../../java/lang/classfile/constantpool/ConstantPool.html" xlink:title="java.lang.classfile.constantpool.ConstantPool">
<text text-anchor="middle" x="127.5" y="-101.4" font-family="DejaVuSans" font-size="12.00" fill="#e76f00">ConstantPool</text>
</a>
</g>
</g>
<!-- java.lang.classfile.ClassReader&#45;&gt;java.lang.classfile.constantpool.ConstantPool -->
<g id="edge1" class="edge"><title>java.lang.classfile.ClassReader&#45;&gt;java.lang.classfile.constantpool.ConstantPool</title>
<path fill="none" stroke="#999999" stroke-width="2" d="M68.3816,-41.3499C78.4416,-51.9257 90.9608,-65.087 101.885,-76.5718"/>
<polygon fill="#999999" stroke="#999999" stroke-width="2" points="108.792,-83.8329 98.6396,-79.6888 104.984,-80.5547 101.538,-76.9319 101.9,-76.5873 102.262,-76.2427 105.708,-79.8655 105.161,-73.4858 108.792,-83.8329 108.792,-83.8329"/>
</g>
<!-- java.lang.classfile.constantpool.ConstantPoolBuilder -->
<g id="node3" class="node"><title>java.lang.classfile.constantpool.ConstantPoolBuilder</title>
<g id="a_node3"><a xlink:href="../../../../java/lang/classfile/constantpool/ConstantPoolBuilder.html" xlink:title="java.lang.classfile.constantpool.ConstantPoolBuilder">
<text text-anchor="middle" x="205.5" y="-17.4" font-family="DejaVuSans" font-size="12.00" fill="#e76f00">ConstantPoolBuilder</text>
</a>
</g>
</g>
<!-- java.lang.classfile.constantpool.ConstantPoolBuilder&#45;&gt;java.lang.classfile.constantpool.ConstantPool -->
<g id="edge2" class="edge"><title>java.lang.classfile.constantpool.ConstantPoolBuilder&#45;&gt;java.lang.classfile.constantpool.ConstantPool</title>
<path fill="none" stroke="#999999" stroke-width="2" d="M186.618,-41.3499C176.558,-51.9257 164.039,-65.087 153.115,-76.5718"/>
<polygon fill="#999999" stroke="#999999" stroke-width="2" points="146.208,-83.8329 149.839,-73.4858 149.292,-79.8655 152.738,-76.2427 153.1,-76.5873 153.462,-76.9319 150.016,-80.5547 156.36,-79.6888 146.208,-83.8329 146.208,-83.8329"/>
</g>
</g>
</svg>
