<?xml version="1.0" encoding="UTF-8" standalone="no"?>
<!DOCTYPE svg PUBLIC "-//W3C//DTD SVG 1.1//EN"
 "http://www.w3.org/Graphics/SVG/1.1/DTD/svg11.dtd">
<!-- Generated by graphviz version 2.38.0 (20140413.2041)
 -->
<!-- Title: G Pages: 1 -->
<svg width="785pt" height="217pt"
 viewBox="0.00 0.00 784.50 217.00" xmlns="http://www.w3.org/2000/svg" xmlns:xlink="http://www.w3.org/1999/xlink">
<g id="graph0" class="graph" transform="scale(1 1) rotate(0) translate(4 213)">
<title>G</title>
<polygon fill="white" stroke="none" points="-4,4 -4,-213 780.5,-213 780.5,4 -4,4"/>
<!-- java.lang.classfile.constantpool.ClassEntry -->
<g id="node1" class="node"><title>java.lang.classfile.constantpool.ClassEntry</title>
<g id="a_node1"><a xlink:href="../../../../java/lang/classfile/constantpool/ClassEntry.html" xlink:title="java.lang.classfile.constantpool.ClassEntry">
<text text-anchor="middle" x="43.5" y="-101.4" font-family="DejaVuSans" font-size="12.00" fill="#e76f00">ClassEntry</text>
</a>
</g>
</g>
<!-- java.lang.classfile.constantpool.LoadableConstantEntry -->
<g id="node2" class="node"><title>java.lang.classfile.constantpool.LoadableConstantEntry</title>
<g id="a_node2"><a xlink:href="../../../../java/lang/classfile/constantpool/LoadableConstantEntry.html" xlink:title="java.lang.classfile.constantpool.LoadableConstantEntry">
<text text-anchor="middle" x="379.5" y="-185.4" font-family="DejaVuSans" font-size="12.00" fill="#e76f00">LoadableConstantEntry</text>
</a>
</g>
</g>
<!-- java.lang.classfile.constantpool.ClassEntry&#45;&gt;java.lang.classfile.constantpool.LoadableConstantEntry -->
<g id="edge1" class="edge"><title>java.lang.classfile.constantpool.ClassEntry&#45;&gt;java.lang.classfile.constantpool.LoadableConstantEntry</title>
<path fill="none" stroke="#999999" stroke-width="2" d="M87.0659,-119.686C93.2317,-121.552 99.5098,-123.378 105.5,-125 167.348,-141.751 237.847,-157.763 291.845,-169.386"/>
<polygon fill="#999999" stroke="#999999" stroke-width="2" points="301.73,-171.505 291.009,-173.809 296.736,-170.946 291.847,-169.898 291.952,-169.409 292.057,-168.92 296.946,-169.968 292.895,-165.009 301.73,-171.505 301.73,-171.505"/>
</g>
<!-- java.lang.classfile.constantpool.ConstantDynamicEntry -->
<g id="node3" class="node"><title>java.lang.classfile.constantpool.ConstantDynamicEntry</title>
<g id="a_node3"><a xlink:href="../../../../java/lang/classfile/constantpool/ConstantDynamicEntry.html" xlink:title="java.lang.classfile.constantpool.ConstantDynamicEntry">
<text text-anchor="middle" x="199.5" y="-101.4" font-family="DejaVuSans" font-size="12.00" fill="#e76f00">ConstantDynamicEntry</text>
</a>
</g>
</g>
<!-- java.lang.classfile.constantpool.ConstantDynamicEntry&#45;&gt;java.lang.classfile.constantpool.LoadableConstantEntry -->
<g id="edge2" class="edge"><title>java.lang.classfile.constantpool.ConstantDynamicEntry&#45;&gt;java.lang.classfile.constantpool.LoadableConstantEntry</title>
<path fill="none" stroke="#999999" stroke-width="2" d="M242.614,-125.141C268.014,-136.712 300.325,-151.431 327.176,-163.664"/>
<polygon fill="#999999" stroke="#999999" stroke-width="2" points="336.426,-167.877 325.46,-167.827 331.668,-166.259 327.118,-164.187 327.326,-163.732 327.533,-163.277 332.083,-165.349 329.191,-159.636 336.426,-167.877 336.426,-167.877"/>
</g>
<!-- java.lang.classfile.constantpool.ConstantValueEntry -->
<g id="node4" class="node"><title>java.lang.classfile.constantpool.ConstantValueEntry</title>
<g id="a_node4"><a xlink:href="../../../../java/lang/classfile/constantpool/ConstantValueEntry.html" xlink:title="java.lang.classfile.constantpool.ConstantValueEntry">
<text text-anchor="middle" x="379.5" y="-101.4" font-family="DejaVuSans" font-size="12.00" fill="#e76f00">ConstantValueEntry</text>
</a>
</g>
</g>
<!-- java.lang.classfile.constantpool.ConstantValueEntry&#45;&gt;java.lang.classfile.constantpool.LoadableConstantEntry -->
<g id="edge3" class="edge"><title>java.lang.classfile.constantpool.ConstantValueEntry&#45;&gt;java.lang.classfile.constantpool.LoadableConstantEntry</title>
<path fill="none" stroke="#999999" stroke-width="2" d="M379.5,-125.35C379.5,-135.019 379.5,-146.85 379.5,-157.584"/>
<polygon fill="#999999" stroke="#999999" stroke-width="2" points="379.5,-167.833 375,-157.833 379,-162.833 379,-157.833 379.5,-157.833 380,-157.833 380,-162.833 384,-157.833 379.5,-167.833 379.5,-167.833"/>
</g>
<!-- java.lang.classfile.constantpool.DoubleEntry -->
<g id="node5" class="node"><title>java.lang.classfile.constantpool.DoubleEntry</title>
<g id="a_node5"><a xlink:href="../../../../java/lang/classfile/constantpool/DoubleEntry.html" xlink:title="java.lang.classfile.constantpool.DoubleEntry">
<text text-anchor="middle" x="130.5" y="-17.4" font-family="DejaVuSans" font-size="12.00" fill="#e76f00">DoubleEntry</text>
</a>
</g>
</g>
<!-- java.lang.classfile.constantpool.DoubleEntry&#45;&gt;java.lang.classfile.constantpool.ConstantValueEntry -->
<g id="edge4" class="edge"><title>java.lang.classfile.constantpool.DoubleEntry&#45;&gt;java.lang.classfile.constantpool.ConstantValueEntry</title>
<path fill="none" stroke="#999999" stroke-width="2" d="M178.215,-37.2134C215.684,-49.5524 268.375,-66.9045 310.448,-80.76"/>
<polygon fill="#999999" stroke="#999999" stroke-width="2" points="320.075,-83.9302 309.169,-85.0764 315.169,-82.8411 310.42,-81.2771 310.576,-80.8022 310.733,-80.3273 315.482,-81.8913 311.984,-76.528 320.075,-83.9302 320.075,-83.9302"/>
</g>
<!-- java.lang.classfile.constantpool.FloatEntry -->
<g id="node6" class="node"><title>java.lang.classfile.constantpool.FloatEntry</title>
<g id="a_node6"><a xlink:href="../../../../java/lang/classfile/constantpool/FloatEntry.html" xlink:title="java.lang.classfile.constantpool.FloatEntry">
<text text-anchor="middle" x="255.5" y="-17.4" font-family="DejaVuSans" font-size="12.00" fill="#e76f00">FloatEntry</text>
</a>
</g>
</g>
<!-- java.lang.classfile.constantpool.FloatEntry&#45;&gt;java.lang.classfile.constantpool.ConstantValueEntry -->
<g id="edge5" class="edge"><title>java.lang.classfile.constantpool.FloatEntry&#45;&gt;java.lang.classfile.constantpool.ConstantValueEntry</title>
<path fill="none" stroke="#999999" stroke-width="2" d="M285.201,-41.141C301.949,-52.2163 323.06,-66.1765 341.058,-78.0789"/>
<polygon fill="#999999" stroke="#999999" stroke-width="2" points="349.611,-83.735 338.788,-81.9726 345.165,-81.3941 340.995,-78.6361 341.27,-78.2191 341.546,-77.802 345.717,-80.56 343.753,-74.4655 349.611,-83.735 349.611,-83.735"/>
</g>
<!-- java.lang.classfile.constantpool.IntegerEntry -->
<g id="node7" class="node"><title>java.lang.classfile.constantpool.IntegerEntry</title>
<g id="a_node7"><a xlink:href="../../../../java/lang/classfile/constantpool/IntegerEntry.html" xlink:title="java.lang.classfile.constantpool.IntegerEntry">
<text text-anchor="middle" x="379.5" y="-17.4" font-family="DejaVuSans" font-size="12.00" fill="#e76f00">IntegerEntry</text>
</a>
</g>
</g>
<!-- java.lang.classfile.constantpool.IntegerEntry&#45;&gt;java.lang.classfile.constantpool.ConstantValueEntry -->
<g id="edge6" class="edge"><title>java.lang.classfile.constantpool.IntegerEntry&#45;&gt;java.lang.classfile.constantpool.ConstantValueEntry</title>
<path fill="none" stroke="#999999" stroke-width="2" d="M379.5,-41.3499C379.5,-51.0192 379.5,-62.8498 379.5,-73.5843"/>
<polygon fill="#999999" stroke="#999999" stroke-width="2" points="379.5,-83.8329 375,-73.8328 379,-78.8329 379,-73.8329 379.5,-73.8329 380,-73.8329 380,-78.8329 384,-73.8329 379.5,-83.8329 379.5,-83.8329"/>
</g>
<!-- java.lang.classfile.constantpool.LongEntry -->
<g id="node8" class="node"><title>java.lang.classfile.constantpool.LongEntry</title>
<g id="a_node8"><a xlink:href="../../../../java/lang/classfile/constantpool/LongEntry.html" xlink:title="java.lang.classfile.constantpool.LongEntry">
<text text-anchor="middle" x="503.5" y="-17.4" font-family="DejaVuSans" font-size="12.00" fill="#e76f00">LongEntry</text>
</a>
</g>
</g>
<!-- java.lang.classfile.constantpool.LongEntry&#45;&gt;java.lang.classfile.constantpool.ConstantValueEntry -->
<g id="edge7" class="edge"><title>java.lang.classfile.constantpool.LongEntry&#45;&gt;java.lang.classfile.constantpool.ConstantValueEntry</title>
<path fill="none" stroke="#999999" stroke-width="2" d="M473.799,-41.141C457.051,-52.2163 435.94,-66.1765 417.942,-78.0789"/>
<polygon fill="#999999" stroke="#999999" stroke-width="2" points="409.389,-83.735 415.247,-74.4655 413.283,-80.56 417.454,-77.802 417.73,-78.2191 418.005,-78.6361 413.835,-81.3941 420.212,-81.9726 409.389,-83.735 409.389,-83.735"/>
</g>
<!-- java.lang.classfile.constantpool.StringEntry -->
<g id="node9" class="node"><title>java.lang.classfile.constantpool.StringEntry</title>
<g id="a_node9"><a xlink:href="../../../../java/lang/classfile/constantpool/StringEntry.html" xlink:title="java.lang.classfile.constantpool.StringEntry">
<text text-anchor="middle" x="625.5" y="-17.4" font-family="DejaVuSans" font-size="12.00" fill="#e76f00">StringEntry</text>
</a>
</g>
</g>
<!-- java.lang.classfile.constantpool.StringEntry&#45;&gt;java.lang.classfile.constantpool.ConstantValueEntry -->
<g id="edge8" class="edge"><title>java.lang.classfile.constantpool.StringEntry&#45;&gt;java.lang.classfile.constantpool.ConstantValueEntry</title>
<path fill="none" stroke="#999999" stroke-width="2" d="M581.236,-36.2547C544.148,-48.6175 490.582,-66.4726 447.967,-80.6776"/>
<polygon fill="#999999" stroke="#999999" stroke-width="2" points="438.221,-83.9263 446.285,-76.4949 442.806,-81.8708 447.55,-80.2896 447.708,-80.764 447.866,-81.2383 443.123,-82.8195 449.131,-85.0331 438.221,-83.9263 438.221,-83.9263"/>
</g>
<!-- java.lang.classfile.constantpool.MethodHandleEntry -->
<g id="node10" class="node"><title>java.lang.classfile.constantpool.MethodHandleEntry</title>
<g id="a_node10"><a xlink:href="../../../../java/lang/classfile/constantpool/MethodHandleEntry.html" xlink:title="java.lang.classfile.constantpool.MethodHandleEntry">
<text text-anchor="middle" x="550.5" y="-101.4" font-family="DejaVuSans" font-size="12.00" fill="#e76f00">MethodHandleEntry</text>
</a>
</g>
</g>
<!-- java.lang.classfile.constantpool.MethodHandleEntry&#45;&gt;java.lang.classfile.constantpool.LoadableConstantEntry -->
<g id="edge9" class="edge"><title>java.lang.classfile.constantpool.MethodHandleEntry&#45;&gt;java.lang.classfile.constantpool.LoadableConstantEntry</title>
<path fill="none" stroke="#999999" stroke-width="2" d="M509.541,-125.141C485.517,-136.661 454.984,-151.303 429.542,-163.503"/>
<polygon fill="#999999" stroke="#999999" stroke-width="2" points="420.421,-167.877 427.492,-159.496 424.713,-165.264 429.221,-163.102 429.437,-163.553 429.654,-164.004 425.145,-166.166 431.383,-167.611 420.421,-167.877 420.421,-167.877"/>
</g>
<!-- java.lang.classfile.constantpool.MethodTypeEntry -->
<g id="node11" class="node"><title>java.lang.classfile.constantpool.MethodTypeEntry</title>
<g id="a_node11"><a xlink:href="../../../../java/lang/classfile/constantpool/MethodTypeEntry.html" xlink:title="java.lang.classfile.constantpool.MethodTypeEntry">
<text text-anchor="middle" x="715.5" y="-101.4" font-family="DejaVuSans" font-size="12.00" fill="#e76f00">MethodTypeEntry</text>
</a>
</g>
</g>
<!-- java.lang.classfile.constantpool.MethodTypeEntry&#45;&gt;java.lang.classfile.constantpool.LoadableConstantEntry -->
<g id="edge10" class="edge"><title>java.lang.classfile.constantpool.MethodTypeEntry&#45;&gt;java.lang.classfile.constantpool.LoadableConstantEntry</title>
<path fill="none" stroke="#999999" stroke-width="2" d="M654.263,-120.445C601.925,-133.218 525.982,-151.751 467.194,-166.098"/>
<polygon fill="#999999" stroke="#999999" stroke-width="2" points="457.172,-168.544 465.82,-161.802 461.911,-166.873 466.768,-165.688 466.887,-166.173 467.005,-166.659 462.148,-167.845 467.953,-170.545 457.172,-168.544 457.172,-168.544"/>
</g>
</g>
</svg>
