<?xml version="1.0" encoding="UTF-8" standalone="no"?>
<!DOCTYPE svg PUBLIC "-//W3C//DTD SVG 1.1//EN"
 "http://www.w3.org/Graphics/SVG/1.1/DTD/svg11.dtd">
<!-- Generated by graphviz version 2.38.0 (20140413.2041)
 -->
<!-- Title: G Pages: 1 -->
<svg width="459pt" height="133pt"
 viewBox="0.00 0.00 458.50 133.00" xmlns="http://www.w3.org/2000/svg" xmlns:xlink="http://www.w3.org/1999/xlink">
<g id="graph0" class="graph" transform="scale(1 1) rotate(0) translate(4 129)">
<title>G</title>
<polygon fill="white" stroke="none" points="-4,4 -4,-129 454.5,-129 454.5,4 -4,4"/>
<!-- java.lang.classfile.constantpool.FieldRefEntry -->
<g id="node1" class="node"><title>java.lang.classfile.constantpool.FieldRefEntry</title>
<g id="a_node1"><a xlink:href="../../../../java/lang/classfile/constantpool/FieldRefEntry.html" xlink:title="java.lang.classfile.constantpool.FieldRefEntry">
<text text-anchor="middle" x="51" y="-17.4" font-family="DejaVuSans" font-size="12.00" fill="#e76f00">FieldRefEntry</text>
</a>
</g>
</g>
<!-- java.lang.classfile.constantpool.MemberRefEntry -->
<g id="node2" class="node"><title>java.lang.classfile.constantpool.MemberRefEntry</title>
<g id="a_node2"><a xlink:href="../../../../java/lang/classfile/constantpool/MemberRefEntry.html" xlink:title="java.lang.classfile.constantpool.MemberRefEntry">
<text text-anchor="middle" x="219" y="-101.4" font-family="DejaVuSans" font-size="12.00" fill="#e76f00">MemberRefEntry</text>
</a>
</g>
</g>
<!-- java.lang.classfile.constantpool.FieldRefEntry&#45;&gt;java.lang.classfile.constantpool.MemberRefEntry -->
<g id="edge1" class="edge"><title>java.lang.classfile.constantpool.FieldRefEntry&#45;&gt;java.lang.classfile.constantpool.MemberRefEntry</title>
<path fill="none" stroke="#999999" stroke-width="2" d="M91.2402,-41.141C114.739,-52.6107 144.577,-67.1744 169.507,-79.3425"/>
<polygon fill="#999999" stroke="#999999" stroke-width="2" points="178.797,-83.8773 167.837,-83.5349 174.085,-82.1334 169.591,-79.9402 169.811,-79.4909 170.03,-79.0416 174.523,-81.2347 171.785,-75.4469 178.797,-83.8773 178.797,-83.8773"/>
</g>
<!-- java.lang.classfile.constantpool.InterfaceMethodRefEntry -->
<g id="node3" class="node"><title>java.lang.classfile.constantpool.InterfaceMethodRefEntry</title>
<g id="a_node3"><a xlink:href="../../../../java/lang/classfile/constantpool/InterfaceMethodRefEntry.html" xlink:title="java.lang.classfile.constantpool.InterfaceMethodRefEntry">
<text text-anchor="middle" x="219" y="-17.4" font-family="DejaVuSans" font-size="12.00" fill="#e76f00">InterfaceMethodRefEntry</text>
</a>
</g>
</g>
<!-- java.lang.classfile.constantpool.InterfaceMethodRefEntry&#45;&gt;java.lang.classfile.constantpool.MemberRefEntry -->
<g id="edge2" class="edge"><title>java.lang.classfile.constantpool.InterfaceMethodRefEntry&#45;&gt;java.lang.classfile.constantpool.MemberRefEntry</title>
<path fill="none" stroke="#999999" stroke-width="2" d="M219,-41.3499C219,-51.0192 219,-62.8498 219,-73.5843"/>
<polygon fill="#999999" stroke="#999999" stroke-width="2" points="219,-83.8329 214.5,-73.8328 218.5,-78.8329 218.5,-73.8329 219,-73.8329 219.5,-73.8329 219.5,-78.8329 223.5,-73.8329 219,-83.8329 219,-83.8329"/>
</g>
<!-- java.lang.classfile.constantpool.MethodRefEntry -->
<g id="node4" class="node"><title>java.lang.classfile.constantpool.MethodRefEntry</title>
<g id="a_node4"><a xlink:href="../../../../java/lang/classfile/constantpool/MethodRefEntry.html" xlink:title="java.lang.classfile.constantpool.MethodRefEntry">
<text text-anchor="middle" x="393" y="-17.4" font-family="DejaVuSans" font-size="12.00" fill="#e76f00">MethodRefEntry</text>
</a>
</g>
</g>
<!-- java.lang.classfile.constantpool.MethodRefEntry&#45;&gt;java.lang.classfile.constantpool.MemberRefEntry -->
<g id="edge3" class="edge"><title>java.lang.classfile.constantpool.MethodRefEntry&#45;&gt;java.lang.classfile.constantpool.MemberRefEntry</title>
<path fill="none" stroke="#999999" stroke-width="2" d="M351.323,-41.141C326.877,-52.6612 295.809,-67.3028 269.92,-79.5032"/>
<polygon fill="#999999" stroke="#999999" stroke-width="2" points="260.638,-83.8773 267.766,-75.5436 264.948,-81.2935 269.471,-79.162 269.684,-79.6142 269.897,-80.0665 265.375,-82.1981 271.603,-83.6849 260.638,-83.8773 260.638,-83.8773"/>
</g>
</g>
</svg>
