<?xml version="1.0" encoding="UTF-8" standalone="no"?>
<!DOCTYPE svg PUBLIC "-//W3C//DTD SVG 1.1//EN"
 "http://www.w3.org/Graphics/SVG/1.1/DTD/svg11.dtd">
<!-- Generated by graphviz version 2.38.0 (20140413.2041)
 -->
<!-- Title: G Pages: 1 -->
<svg width="1713pt" height="301pt"
 viewBox="0.00 0.00 1712.50 301.00" xmlns="http://www.w3.org/2000/svg" xmlns:xlink="http://www.w3.org/1999/xlink">
<g id="graph0" class="graph" transform="scale(1 1) rotate(0) translate(4 297)">
<title>G</title>
<polygon fill="white" stroke="none" points="-4,4 -4,-297 1708.5,-297 1708.5,4 -4,4"/>
<!-- java.lang.classfile.constantpool.AnnotationConstantValueEntry -->
<g id="node1" class="node"><title>java.lang.classfile.constantpool.AnnotationConstantValueEntry</title>
<g id="a_node1"><a xlink:href="../../../../java/lang/classfile/constantpool/AnnotationConstantValueEntry.html" xlink:title="java.lang.classfile.constantpool.AnnotationConstantValueEntry">
<text text-anchor="middle" x="96.5" y="-101.4" font-family="DejaVuSans" font-size="12.00" fill="#e76f00">AnnotationConstantValueEntry</text>
</a>
</g>
</g>
<!-- java.lang.classfile.constantpool.PoolEntry -->
<g id="node2" class="node"><title>java.lang.classfile.constantpool.PoolEntry</title>
<g id="a_node2"><a xlink:href="../../../../java/lang/classfile/constantpool/PoolEntry.html" xlink:title="java.lang.classfile.constantpool.PoolEntry">
<text text-anchor="middle" x="1200.5" y="-269.4" font-family="DejaVuSans" font-size="12.00" fill="#e76f00">PoolEntry</text>
</a>
</g>
</g>
<!-- java.lang.classfile.constantpool.AnnotationConstantValueEntry&#45;&gt;java.lang.classfile.constantpool.PoolEntry -->
<g id="edge1" class="edge"><title>java.lang.classfile.constantpool.AnnotationConstantValueEntry&#45;&gt;java.lang.classfile.constantpool.PoolEntry</title>
<path fill="none" stroke="#999999" stroke-width="2" d="M137.775,-125.064C191.112,-149.354 287.474,-189.908 374.5,-209 523.66,-241.723 993.787,-263.166 1149.7,-269.524"/>
<polygon fill="#999999" stroke="#999999" stroke-width="2" points="1159.94,-269.938 1149.77,-274.03 1154.93,-270.236 1149.93,-270.034 1149.95,-269.534 1149.97,-269.035 1154.97,-269.237 1150.13,-265.038 1159.94,-269.938 1159.94,-269.938"/>
</g>
<!-- java.lang.classfile.constantpool.DoubleEntry -->
<g id="node3" class="node"><title>java.lang.classfile.constantpool.DoubleEntry</title>
<g id="a_node3"><a xlink:href="../../../../java/lang/classfile/constantpool/DoubleEntry.html" xlink:title="java.lang.classfile.constantpool.DoubleEntry">
<text text-anchor="middle" x="244.5" y="-17.4" font-family="DejaVuSans" font-size="12.00" fill="#e76f00">DoubleEntry</text>
</a>
</g>
</g>
<!-- java.lang.classfile.constantpool.DoubleEntry&#45;&gt;java.lang.classfile.constantpool.AnnotationConstantValueEntry -->
<g id="edge2" class="edge"><title>java.lang.classfile.constantpool.DoubleEntry&#45;&gt;java.lang.classfile.constantpool.AnnotationConstantValueEntry</title>
<path fill="none" stroke="#999999" stroke-width="2" d="M209.05,-41.141C188.531,-52.5097 162.526,-66.918 140.683,-79.0203"/>
<polygon fill="#999999" stroke="#999999" stroke-width="2" points="131.917,-83.8773 138.483,-75.0946 136.048,-81.0167 140.421,-78.5935 140.664,-79.0308 140.906,-79.4682 136.533,-81.8914 142.845,-82.9671 131.917,-83.8773 131.917,-83.8773"/>
</g>
<!-- java.lang.classfile.constantpool.ConstantValueEntry -->
<g id="node13" class="node"><title>java.lang.classfile.constantpool.ConstantValueEntry</title>
<g id="a_node13"><a xlink:href="../../../../java/lang/classfile/constantpool/ConstantValueEntry.html" xlink:title="java.lang.classfile.constantpool.ConstantValueEntry">
<text text-anchor="middle" x="1113.5" y="-101.4" font-family="DejaVuSans" font-size="12.00" fill="#e76f00">ConstantValueEntry</text>
</a>
</g>
</g>
<!-- java.lang.classfile.constantpool.DoubleEntry&#45;&gt;java.lang.classfile.constantpool.ConstantValueEntry -->
<g id="edge14" class="edge"><title>java.lang.classfile.constantpool.DoubleEntry&#45;&gt;java.lang.classfile.constantpool.ConstantValueEntry</title>
<path fill="none" stroke="#999999" stroke-width="2" d="M292.127,-25.1037C456.502,-37.5666 991.977,-78.3855 1028.5,-84 1030.99,-84.3824 1033.51,-84.7975 1036.05,-85.2392"/>
<polygon fill="#999999" stroke="#999999" stroke-width="2" points="1045.93,-87.0631 1035.28,-89.6727 1040.93,-86.647 1036.01,-85.7391 1036.1,-85.2474 1036.19,-84.7557 1041.11,-85.6636 1036.92,-80.8222 1045.93,-87.0631 1045.93,-87.0631"/>
</g>
<!-- java.lang.classfile.constantpool.FloatEntry -->
<g id="node4" class="node"><title>java.lang.classfile.constantpool.FloatEntry</title>
<g id="a_node4"><a xlink:href="../../../../java/lang/classfile/constantpool/FloatEntry.html" xlink:title="java.lang.classfile.constantpool.FloatEntry">
<text text-anchor="middle" x="568.5" y="-17.4" font-family="DejaVuSans" font-size="12.00" fill="#e76f00">FloatEntry</text>
</a>
</g>
</g>
<!-- java.lang.classfile.constantpool.FloatEntry&#45;&gt;java.lang.classfile.constantpool.AnnotationConstantValueEntry -->
<g id="edge3" class="edge"><title>java.lang.classfile.constantpool.FloatEntry&#45;&gt;java.lang.classfile.constantpool.AnnotationConstantValueEntry</title>
<path fill="none" stroke="#999999" stroke-width="2" d="M526.613,-28.777C454.668,-41.2759 305.5,-67.1908 203.207,-84.9619"/>
<polygon fill="#999999" stroke="#999999" stroke-width="2" points="193.149,-86.7094 202.231,-80.564 197.989,-85.3609 202.915,-84.505 203.001,-84.9976 203.087,-85.4903 198.16,-86.3461 203.771,-89.4312 193.149,-86.7094 193.149,-86.7094"/>
</g>
<!-- java.lang.classfile.constantpool.FloatEntry&#45;&gt;java.lang.classfile.constantpool.ConstantValueEntry -->
<g id="edge15" class="edge"><title>java.lang.classfile.constantpool.FloatEntry&#45;&gt;java.lang.classfile.constantpool.ConstantValueEntry</title>
<path fill="none" stroke="#999999" stroke-width="2" d="M610.216,-26.6761C707.716,-38.8534 948.319,-69.3867 1028.5,-84 1030.98,-84.4513 1033.49,-84.9262 1036.02,-85.4198"/>
<polygon fill="#999999" stroke="#999999" stroke-width="2" points="1045.88,-87.4056 1035.18,-89.8409 1040.88,-86.9077 1035.97,-85.9198 1036.07,-85.4296 1036.17,-84.9395 1041.07,-85.9275 1036.96,-81.0183 1045.88,-87.4056 1045.88,-87.4056"/>
</g>
<!-- java.lang.classfile.constantpool.IntegerEntry -->
<g id="node5" class="node"><title>java.lang.classfile.constantpool.IntegerEntry</title>
<g id="a_node5"><a xlink:href="../../../../java/lang/classfile/constantpool/IntegerEntry.html" xlink:title="java.lang.classfile.constantpool.IntegerEntry">
<text text-anchor="middle" x="792.5" y="-17.4" font-family="DejaVuSans" font-size="12.00" fill="#e76f00">IntegerEntry</text>
</a>
</g>
</g>
<!-- java.lang.classfile.constantpool.IntegerEntry&#45;&gt;java.lang.classfile.constantpool.AnnotationConstantValueEntry -->
<g id="edge4" class="edge"><title>java.lang.classfile.constantpool.IntegerEntry&#45;&gt;java.lang.classfile.constantpool.AnnotationConstantValueEntry</title>
<path fill="none" stroke="#999999" stroke-width="2" d="M745.937,-27.1903C712.897,-31.1821 667.495,-36.5748 627.5,-41 442.314,-61.4896 395.094,-58.7236 210.5,-84 208.108,-84.3275 205.689,-84.6673 203.252,-85.0174"/>
<polygon fill="#999999" stroke="#999999" stroke-width="2" points="193.143,-86.5106 202.378,-80.5975 198.017,-85.2853 202.963,-84.5546 203.036,-85.0492 203.109,-85.5439 198.163,-86.2745 203.694,-89.5009 193.143,-86.5106 193.143,-86.5106"/>
</g>
<!-- java.lang.classfile.constantpool.IntegerEntry&#45;&gt;java.lang.classfile.constantpool.ConstantValueEntry -->
<g id="edge16" class="edge"><title>java.lang.classfile.constantpool.IntegerEntry&#45;&gt;java.lang.classfile.constantpool.ConstantValueEntry</title>
<path fill="none" stroke="#999999" stroke-width="2" d="M839.176,-33.4235C890.649,-46.5724 974.302,-67.9417 1035.72,-83.6305"/>
<polygon fill="#999999" stroke="#999999" stroke-width="2" points="1045.76,-86.1954 1034.96,-88.0803 1040.79,-85.4423 1035.95,-84.2048 1036.07,-83.7203 1036.19,-83.2359 1041.04,-84.4734 1037.18,-79.3603 1045.76,-86.1954 1045.76,-86.1954"/>
</g>
<!-- java.lang.classfile.constantpool.LongEntry -->
<g id="node6" class="node"><title>java.lang.classfile.constantpool.LongEntry</title>
<g id="a_node6"><a xlink:href="../../../../java/lang/classfile/constantpool/LongEntry.html" xlink:title="java.lang.classfile.constantpool.LongEntry">
<text text-anchor="middle" x="966.5" y="-17.4" font-family="DejaVuSans" font-size="12.00" fill="#e76f00">LongEntry</text>
</a>
</g>
</g>
<!-- java.lang.classfile.constantpool.LongEntry&#45;&gt;java.lang.classfile.constantpool.AnnotationConstantValueEntry -->
<g id="edge5" class="edge"><title>java.lang.classfile.constantpool.LongEntry&#45;&gt;java.lang.classfile.constantpool.AnnotationConstantValueEntry</title>
<path fill="none" stroke="#999999" stroke-width="2" d="M924.997,-30.0392C904.723,-33.925 879.921,-38.2579 857.5,-41 571.441,-75.9847 496.69,-50.1045 210.5,-84 208.103,-84.2839 205.679,-84.5842 203.237,-84.8987"/>
<polygon fill="#999999" stroke="#999999" stroke-width="2" points="193.112,-86.2659 202.42,-80.4681 198,-85.1012 202.955,-84.4321 203.022,-84.9276 203.089,-85.4231 198.134,-86.0922 203.624,-89.3871 193.112,-86.2659 193.112,-86.2659"/>
</g>
<!-- java.lang.classfile.constantpool.LongEntry&#45;&gt;java.lang.classfile.constantpool.ConstantValueEntry -->
<g id="edge17" class="edge"><title>java.lang.classfile.constantpool.LongEntry&#45;&gt;java.lang.classfile.constantpool.ConstantValueEntry</title>
<path fill="none" stroke="#999999" stroke-width="2" d="M1001.71,-41.141C1022,-52.4591 1047.69,-66.79 1069.33,-78.8588"/>
<polygon fill="#999999" stroke="#999999" stroke-width="2" points="1078.32,-83.8773 1067.4,-82.9356 1073.71,-81.8781 1069.35,-79.4423 1069.59,-79.0057 1069.83,-78.569 1074.2,-81.0048 1071.78,-75.0758 1078.32,-83.8773 1078.32,-83.8773"/>
</g>
<!-- java.lang.classfile.constantpool.Utf8Entry -->
<g id="node7" class="node"><title>java.lang.classfile.constantpool.Utf8Entry</title>
<g id="a_node7"><a xlink:href="../../../../java/lang/classfile/constantpool/Utf8Entry.html" xlink:title="java.lang.classfile.constantpool.Utf8Entry">
<text text-anchor="middle" x="96.5" y="-17.4" font-family="DejaVuSans" font-size="12.00" fill="#e76f00">Utf8Entry</text>
</a>
</g>
</g>
<!-- java.lang.classfile.constantpool.Utf8Entry&#45;&gt;java.lang.classfile.constantpool.AnnotationConstantValueEntry -->
<g id="edge6" class="edge"><title>java.lang.classfile.constantpool.Utf8Entry&#45;&gt;java.lang.classfile.constantpool.AnnotationConstantValueEntry</title>
<path fill="none" stroke="#999999" stroke-width="2" d="M96.5,-41.3499C96.5,-51.0192 96.5,-62.8498 96.5,-73.5843"/>
<polygon fill="#999999" stroke="#999999" stroke-width="2" points="96.5,-83.8329 92.0001,-73.8328 96,-78.8329 96.0001,-73.8329 96.5001,-73.8329 97.0001,-73.8329 97,-78.8329 101,-73.8329 96.5,-83.8329 96.5,-83.8329"/>
</g>
<!-- java.lang.classfile.constantpool.DynamicConstantPoolEntry -->
<g id="node8" class="node"><title>java.lang.classfile.constantpool.DynamicConstantPoolEntry</title>
<g id="a_node8"><a xlink:href="../../../../java/lang/classfile/constantpool/DynamicConstantPoolEntry.html" xlink:title="java.lang.classfile.constantpool.DynamicConstantPoolEntry">
<text text-anchor="middle" x="480.5" y="-185.4" font-family="DejaVuSans" font-size="12.00" fill="#e76f00">DynamicConstantPoolEntry</text>
</a>
</g>
</g>
<!-- java.lang.classfile.constantpool.DynamicConstantPoolEntry&#45;&gt;java.lang.classfile.constantpool.PoolEntry -->
<g id="edge7" class="edge"><title>java.lang.classfile.constantpool.DynamicConstantPoolEntry&#45;&gt;java.lang.classfile.constantpool.PoolEntry</title>
<path fill="none" stroke="#999999" stroke-width="2" d="M568.786,-199.555C721.121,-216.904 1028.64,-251.927 1149.8,-265.725"/>
<polygon fill="#999999" stroke="#999999" stroke-width="2" points="1159.91,-266.877 1149.46,-270.216 1154.88,-266.808 1149.91,-266.242 1149.97,-265.745 1150.03,-265.248 1154.99,-265.814 1150.48,-261.274 1159.91,-266.877 1159.91,-266.877"/>
</g>
<!-- java.lang.classfile.constantpool.ConstantDynamicEntry -->
<g id="node9" class="node"><title>java.lang.classfile.constantpool.ConstantDynamicEntry</title>
<g id="a_node9"><a xlink:href="../../../../java/lang/classfile/constantpool/ConstantDynamicEntry.html" xlink:title="java.lang.classfile.constantpool.ConstantDynamicEntry">
<text text-anchor="middle" x="480.5" y="-101.4" font-family="DejaVuSans" font-size="12.00" fill="#e76f00">ConstantDynamicEntry</text>
</a>
</g>
</g>
<!-- java.lang.classfile.constantpool.ConstantDynamicEntry&#45;&gt;java.lang.classfile.constantpool.DynamicConstantPoolEntry -->
<g id="edge8" class="edge"><title>java.lang.classfile.constantpool.ConstantDynamicEntry&#45;&gt;java.lang.classfile.constantpool.DynamicConstantPoolEntry</title>
<path fill="none" stroke="#999999" stroke-width="2" d="M480.5,-125.35C480.5,-135.019 480.5,-146.85 480.5,-157.584"/>
<polygon fill="#999999" stroke="#999999" stroke-width="2" points="480.5,-167.833 476,-157.833 480,-162.833 480,-157.833 480.5,-157.833 481,-157.833 481,-162.833 485,-157.833 480.5,-167.833 480.5,-167.833"/>
</g>
<!-- java.lang.classfile.constantpool.LoadableConstantEntry -->
<g id="node11" class="node"><title>java.lang.classfile.constantpool.LoadableConstantEntry</title>
<g id="a_node11"><a xlink:href="../../../../java/lang/classfile/constantpool/LoadableConstantEntry.html" xlink:title="java.lang.classfile.constantpool.LoadableConstantEntry">
<text text-anchor="middle" x="892.5" y="-185.4" font-family="DejaVuSans" font-size="12.00" fill="#e76f00">LoadableConstantEntry</text>
</a>
</g>
</g>
<!-- java.lang.classfile.constantpool.ConstantDynamicEntry&#45;&gt;java.lang.classfile.constantpool.LoadableConstantEntry -->
<g id="edge12" class="edge"><title>java.lang.classfile.constantpool.ConstantDynamicEntry&#45;&gt;java.lang.classfile.constantpool.LoadableConstantEntry</title>
<path fill="none" stroke="#999999" stroke-width="2" d="M556.671,-121.372C562.702,-122.607 568.7,-123.829 574.5,-125 652.24,-140.703 740.782,-158.062 804.66,-170.492"/>
<polygon fill="#999999" stroke="#999999" stroke-width="2" points="814.695,-172.444 804.02,-174.952 809.692,-171.98 804.784,-171.026 804.879,-170.535 804.975,-170.044 809.883,-170.999 805.739,-166.118 814.695,-172.444 814.695,-172.444"/>
</g>
<!-- java.lang.classfile.constantpool.InvokeDynamicEntry -->
<g id="node10" class="node"><title>java.lang.classfile.constantpool.InvokeDynamicEntry</title>
<g id="a_node10"><a xlink:href="../../../../java/lang/classfile/constantpool/InvokeDynamicEntry.html" xlink:title="java.lang.classfile.constantpool.InvokeDynamicEntry">
<text text-anchor="middle" x="298.5" y="-101.4" font-family="DejaVuSans" font-size="12.00" fill="#e76f00">InvokeDynamicEntry</text>
</a>
</g>
</g>
<!-- java.lang.classfile.constantpool.InvokeDynamicEntry&#45;&gt;java.lang.classfile.constantpool.DynamicConstantPoolEntry -->
<g id="edge9" class="edge"><title>java.lang.classfile.constantpool.InvokeDynamicEntry&#45;&gt;java.lang.classfile.constantpool.DynamicConstantPoolEntry</title>
<path fill="none" stroke="#999999" stroke-width="2" d="M342.094,-125.141C367.775,-136.712 400.445,-151.431 427.595,-163.664"/>
<polygon fill="#999999" stroke="#999999" stroke-width="2" points="436.947,-167.877 425.981,-167.872 432.183,-166.279 427.624,-164.225 427.83,-163.769 428.035,-163.314 432.594,-165.367 429.678,-159.667 436.947,-167.877 436.947,-167.877"/>
</g>
<!-- java.lang.classfile.constantpool.LoadableConstantEntry&#45;&gt;java.lang.classfile.constantpool.PoolEntry -->
<g id="edge10" class="edge"><title>java.lang.classfile.constantpool.LoadableConstantEntry&#45;&gt;java.lang.classfile.constantpool.PoolEntry</title>
<path fill="none" stroke="#999999" stroke-width="2" d="M965.882,-209.037C1022.65,-224.149 1099.76,-244.68 1149.83,-258.009"/>
<polygon fill="#999999" stroke="#999999" stroke-width="2" points="1159.77,-260.657 1148.95,-262.433 1154.81,-259.854 1149.98,-258.568 1150.11,-258.084 1150.24,-257.601 1155.07,-258.888 1151.27,-253.736 1159.77,-260.657 1159.77,-260.657"/>
</g>
<!-- java.lang.classfile.constantpool.ClassEntry -->
<g id="node12" class="node"><title>java.lang.classfile.constantpool.ClassEntry</title>
<g id="a_node12"><a xlink:href="../../../../java/lang/classfile/constantpool/ClassEntry.html" xlink:title="java.lang.classfile.constantpool.ClassEntry">
<text text-anchor="middle" x="966.5" y="-101.4" font-family="DejaVuSans" font-size="12.00" fill="#e76f00">ClassEntry</text>
</a>
</g>
</g>
<!-- java.lang.classfile.constantpool.ClassEntry&#45;&gt;java.lang.classfile.constantpool.LoadableConstantEntry -->
<g id="edge11" class="edge"><title>java.lang.classfile.constantpool.ClassEntry&#45;&gt;java.lang.classfile.constantpool.LoadableConstantEntry</title>
<path fill="none" stroke="#999999" stroke-width="2" d="M948.587,-125.35C939.134,-135.825 927.391,-148.837 917.098,-160.243"/>
<polygon fill="#999999" stroke="#999999" stroke-width="2" points="910.248,-167.833 913.607,-157.394 913.227,-163.786 916.577,-160.074 916.948,-160.409 917.319,-160.744 913.969,-164.456 920.289,-163.424 910.248,-167.833 910.248,-167.833"/>
</g>
<!-- java.lang.classfile.constantpool.ConstantValueEntry&#45;&gt;java.lang.classfile.constantpool.LoadableConstantEntry -->
<g id="edge13" class="edge"><title>java.lang.classfile.constantpool.ConstantValueEntry&#45;&gt;java.lang.classfile.constantpool.LoadableConstantEntry</title>
<path fill="none" stroke="#999999" stroke-width="2" d="M1060.85,-125.037C1029.01,-136.85 988.245,-151.975 954.806,-164.382"/>
<polygon fill="#999999" stroke="#999999" stroke-width="2" points="945.133,-167.971 952.943,-160.273 949.647,-165.763 954.335,-164.023 954.509,-164.492 954.683,-164.961 949.995,-166.7 956.074,-168.711 945.133,-167.971 945.133,-167.971"/>
</g>
<!-- java.lang.classfile.constantpool.StringEntry -->
<g id="node14" class="node"><title>java.lang.classfile.constantpool.StringEntry</title>
<g id="a_node14"><a xlink:href="../../../../java/lang/classfile/constantpool/StringEntry.html" xlink:title="java.lang.classfile.constantpool.StringEntry">
<text text-anchor="middle" x="1113.5" y="-17.4" font-family="DejaVuSans" font-size="12.00" fill="#e76f00">StringEntry</text>
</a>
</g>
</g>
<!-- java.lang.classfile.constantpool.StringEntry&#45;&gt;java.lang.classfile.constantpool.ConstantValueEntry -->
<g id="edge18" class="edge"><title>java.lang.classfile.constantpool.StringEntry&#45;&gt;java.lang.classfile.constantpool.ConstantValueEntry</title>
<path fill="none" stroke="#999999" stroke-width="2" d="M1113.5,-41.3499C1113.5,-51.0192 1113.5,-62.8498 1113.5,-73.5843"/>
<polygon fill="#999999" stroke="#999999" stroke-width="2" points="1113.5,-83.8329 1109,-73.8328 1113,-78.8329 1113,-73.8329 1113.5,-73.8329 1114,-73.8329 1114,-78.8329 1118,-73.8329 1113.5,-83.8329 1113.5,-83.8329"/>
</g>
<!-- java.lang.classfile.constantpool.MethodHandleEntry -->
<g id="node15" class="node"><title>java.lang.classfile.constantpool.MethodHandleEntry</title>
<g id="a_node15"><a xlink:href="../../../../java/lang/classfile/constantpool/MethodHandleEntry.html" xlink:title="java.lang.classfile.constantpool.MethodHandleEntry">
<text text-anchor="middle" x="660.5" y="-101.4" font-family="DejaVuSans" font-size="12.00" fill="#e76f00">MethodHandleEntry</text>
</a>
</g>
</g>
<!-- java.lang.classfile.constantpool.MethodHandleEntry&#45;&gt;java.lang.classfile.constantpool.LoadableConstantEntry -->
<g id="edge19" class="edge"><title>java.lang.classfile.constantpool.MethodHandleEntry&#45;&gt;java.lang.classfile.constantpool.LoadableConstantEntry</title>
<path fill="none" stroke="#999999" stroke-width="2" d="M715.775,-125.037C749.342,-136.901 792.357,-152.105 827.544,-164.541"/>
<polygon fill="#999999" stroke="#999999" stroke-width="2" points="837.247,-167.971 826.319,-168.881 832.366,-166.776 827.652,-165.11 827.818,-164.638 827.985,-164.167 832.699,-165.833 829.318,-160.396 837.247,-167.971 837.247,-167.971"/>
</g>
<!-- java.lang.classfile.constantpool.MethodTypeEntry -->
<g id="node16" class="node"><title>java.lang.classfile.constantpool.MethodTypeEntry</title>
<g id="a_node16"><a xlink:href="../../../../java/lang/classfile/constantpool/MethodTypeEntry.html" xlink:title="java.lang.classfile.constantpool.MethodTypeEntry">
<text text-anchor="middle" x="825.5" y="-101.4" font-family="DejaVuSans" font-size="12.00" fill="#e76f00">MethodTypeEntry</text>
</a>
</g>
</g>
<!-- java.lang.classfile.constantpool.MethodTypeEntry&#45;&gt;java.lang.classfile.constantpool.LoadableConstantEntry -->
<g id="edge20" class="edge"><title>java.lang.classfile.constantpool.MethodTypeEntry&#45;&gt;java.lang.classfile.constantpool.LoadableConstantEntry</title>
<path fill="none" stroke="#999999" stroke-width="2" d="M841.719,-125.35C850.195,-135.724 860.705,-148.587 869.96,-159.914"/>
<polygon fill="#999999" stroke="#999999" stroke-width="2" points="876.431,-167.833 866.619,-162.936 872.88,-164.277 869.716,-160.405 870.103,-160.089 870.49,-159.773 873.654,-163.645 873.588,-157.242 876.431,-167.833 876.431,-167.833"/>
</g>
<!-- java.lang.classfile.constantpool.MemberRefEntry -->
<g id="node17" class="node"><title>java.lang.classfile.constantpool.MemberRefEntry</title>
<g id="a_node17"><a xlink:href="../../../../java/lang/classfile/constantpool/MemberRefEntry.html" xlink:title="java.lang.classfile.constantpool.MemberRefEntry">
<text text-anchor="middle" x="1200.5" y="-185.4" font-family="DejaVuSans" font-size="12.00" fill="#e76f00">MemberRefEntry</text>
</a>
</g>
</g>
<!-- java.lang.classfile.constantpool.MemberRefEntry&#45;&gt;java.lang.classfile.constantpool.PoolEntry -->
<g id="edge21" class="edge"><title>java.lang.classfile.constantpool.MemberRefEntry&#45;&gt;java.lang.classfile.constantpool.PoolEntry</title>
<path fill="none" stroke="#999999" stroke-width="2" d="M1200.5,-209.35C1200.5,-219.019 1200.5,-230.85 1200.5,-241.584"/>
<polygon fill="#999999" stroke="#999999" stroke-width="2" points="1200.5,-251.833 1196,-241.833 1200,-246.833 1200,-241.833 1200.5,-241.833 1201,-241.833 1201,-246.833 1205,-241.833 1200.5,-251.833 1200.5,-251.833"/>
</g>
<!-- java.lang.classfile.constantpool.FieldRefEntry -->
<g id="node18" class="node"><title>java.lang.classfile.constantpool.FieldRefEntry</title>
<g id="a_node18"><a xlink:href="../../../../java/lang/classfile/constantpool/FieldRefEntry.html" xlink:title="java.lang.classfile.constantpool.FieldRefEntry">
<text text-anchor="middle" x="1268.5" y="-101.4" font-family="DejaVuSans" font-size="12.00" fill="#e76f00">FieldRefEntry</text>
</a>
</g>
</g>
<!-- java.lang.classfile.constantpool.FieldRefEntry&#45;&gt;java.lang.classfile.constantpool.MemberRefEntry -->
<g id="edge22" class="edge"><title>java.lang.classfile.constantpool.FieldRefEntry&#45;&gt;java.lang.classfile.constantpool.MemberRefEntry</title>
<path fill="none" stroke="#999999" stroke-width="2" d="M1252.04,-125.35C1243.44,-135.724 1232.77,-148.587 1223.38,-159.914"/>
<polygon fill="#999999" stroke="#999999" stroke-width="2" points="1216.81,-167.833 1219.73,-157.263 1219.62,-163.665 1222.81,-159.816 1223.19,-160.135 1223.58,-160.454 1220.39,-164.303 1226.66,-163.008 1216.81,-167.833 1216.81,-167.833"/>
</g>
<!-- java.lang.classfile.constantpool.InterfaceMethodRefEntry -->
<g id="node19" class="node"><title>java.lang.classfile.constantpool.InterfaceMethodRefEntry</title>
<g id="a_node19"><a xlink:href="../../../../java/lang/classfile/constantpool/InterfaceMethodRefEntry.html" xlink:title="java.lang.classfile.constantpool.InterfaceMethodRefEntry">
<text text-anchor="middle" x="1436.5" y="-101.4" font-family="DejaVuSans" font-size="12.00" fill="#e76f00">InterfaceMethodRefEntry</text>
</a>
</g>
</g>
<!-- java.lang.classfile.constantpool.InterfaceMethodRefEntry&#45;&gt;java.lang.classfile.constantpool.MemberRefEntry -->
<g id="edge23" class="edge"><title>java.lang.classfile.constantpool.InterfaceMethodRefEntry&#45;&gt;java.lang.classfile.constantpool.MemberRefEntry</title>
<path fill="none" stroke="#999999" stroke-width="2" d="M1380.27,-125.037C1346.13,-136.901 1302.37,-152.105 1266.58,-164.541"/>
<polygon fill="#999999" stroke="#999999" stroke-width="2" points="1256.71,-167.971 1264.67,-160.438 1261.26,-165.857 1265.99,-164.216 1266.15,-164.689 1266.32,-165.161 1261.59,-166.802 1267.63,-168.939 1256.71,-167.971 1256.71,-167.971"/>
</g>
<!-- java.lang.classfile.constantpool.MethodRefEntry -->
<g id="node20" class="node"><title>java.lang.classfile.constantpool.MethodRefEntry</title>
<g id="a_node20"><a xlink:href="../../../../java/lang/classfile/constantpool/MethodRefEntry.html" xlink:title="java.lang.classfile.constantpool.MethodRefEntry">
<text text-anchor="middle" x="1610.5" y="-101.4" font-family="DejaVuSans" font-size="12.00" fill="#e76f00">MethodRefEntry</text>
</a>
</g>
</g>
<!-- java.lang.classfile.constantpool.MethodRefEntry&#45;&gt;java.lang.classfile.constantpool.MemberRefEntry -->
<g id="edge24" class="edge"><title>java.lang.classfile.constantpool.MethodRefEntry&#45;&gt;java.lang.classfile.constantpool.MemberRefEntry</title>
<path fill="none" stroke="#999999" stroke-width="2" d="M1552.89,-121.029C1547.03,-122.442 1541.16,-123.794 1535.5,-125 1422.24,-149.15 1391.88,-144.382 1278.5,-168 1275.68,-168.587 1272.81,-169.206 1269.91,-169.848"/>
<polygon fill="#999999" stroke="#999999" stroke-width="2" points="1260.01,-172.107 1268.76,-165.496 1264.77,-170.508 1269.65,-169.396 1269.76,-169.884 1269.87,-170.371 1265,-171.483 1270.76,-174.271 1260.01,-172.107 1260.01,-172.107"/>
</g>
<!-- java.lang.classfile.constantpool.ModuleEntry -->
<g id="node21" class="node"><title>java.lang.classfile.constantpool.ModuleEntry</title>
<g id="a_node21"><a xlink:href="../../../../java/lang/classfile/constantpool/ModuleEntry.html" xlink:title="java.lang.classfile.constantpool.ModuleEntry">
<text text-anchor="middle" x="1344.5" y="-185.4" font-family="DejaVuSans" font-size="12.00" fill="#e76f00">ModuleEntry</text>
</a>
</g>
</g>
<!-- java.lang.classfile.constantpool.ModuleEntry&#45;&gt;java.lang.classfile.constantpool.PoolEntry -->
<g id="edge25" class="edge"><title>java.lang.classfile.constantpool.ModuleEntry&#45;&gt;java.lang.classfile.constantpool.PoolEntry</title>
<path fill="none" stroke="#999999" stroke-width="2" d="M1310.01,-209.141C1290.21,-220.418 1265.15,-234.685 1244.01,-246.726"/>
<polygon fill="#999999" stroke="#999999" stroke-width="2" points="1235.21,-251.735 1241.67,-242.876 1239.31,-248.826 1243.65,-246.352 1243.9,-246.787 1244.15,-247.221 1239.8,-249.695 1246.13,-250.697 1235.21,-251.735 1235.21,-251.735"/>
</g>
<!-- java.lang.classfile.constantpool.NameAndTypeEntry -->
<g id="node22" class="node"><title>java.lang.classfile.constantpool.NameAndTypeEntry</title>
<g id="a_node22"><a xlink:href="../../../../java/lang/classfile/constantpool/NameAndTypeEntry.html" xlink:title="java.lang.classfile.constantpool.NameAndTypeEntry">
<text text-anchor="middle" x="1496.5" y="-185.4" font-family="DejaVuSans" font-size="12.00" fill="#e76f00">NameAndTypeEntry</text>
</a>
</g>
</g>
<!-- java.lang.classfile.constantpool.NameAndTypeEntry&#45;&gt;java.lang.classfile.constantpool.PoolEntry -->
<g id="edge26" class="edge"><title>java.lang.classfile.constantpool.NameAndTypeEntry&#45;&gt;java.lang.classfile.constantpool.PoolEntry</title>
<path fill="none" stroke="#999999" stroke-width="2" d="M1428.22,-208.415C1374.07,-223.416 1299.63,-244.038 1250.81,-257.562"/>
<polygon fill="#999999" stroke="#999999" stroke-width="2" points="1241.1,-260.252 1249.54,-253.245 1245.79,-258.435 1250.61,-257.1 1250.74,-257.582 1250.87,-258.064 1246.05,-259.399 1251.94,-261.919 1241.1,-260.252 1241.1,-260.252"/>
</g>
<!-- java.lang.classfile.constantpool.PackageEntry -->
<g id="node23" class="node"><title>java.lang.classfile.constantpool.PackageEntry</title>
<g id="a_node23"><a xlink:href="../../../../java/lang/classfile/constantpool/PackageEntry.html" xlink:title="java.lang.classfile.constantpool.PackageEntry">
<text text-anchor="middle" x="1652.5" y="-185.4" font-family="DejaVuSans" font-size="12.00" fill="#e76f00">PackageEntry</text>
</a>
</g>
</g>
<!-- java.lang.classfile.constantpool.PackageEntry&#45;&gt;java.lang.classfile.constantpool.PoolEntry -->
<g id="edge27" class="edge"><title>java.lang.classfile.constantpool.PackageEntry&#45;&gt;java.lang.classfile.constantpool.PoolEntry</title>
<path fill="none" stroke="#999999" stroke-width="2" d="M1600.29,-204.718C1594.31,-206.259 1588.29,-207.724 1582.5,-209 1465.06,-234.883 1325.15,-255.12 1251.57,-264.957"/>
<polygon fill="#999999" stroke="#999999" stroke-width="2" points="1241.2,-266.332 1250.52,-260.556 1246.09,-265.179 1251.05,-264.521 1251.12,-265.017 1251.18,-265.512 1246.23,-266.17 1251.71,-269.478 1241.2,-266.332 1241.2,-266.332"/>
</g>
</g>
</svg>
