<?xml version="1.0" encoding="UTF-8" standalone="no"?>
<!DOCTYPE svg PUBLIC "-//W3C//DTD SVG 1.1//EN"
 "http://www.w3.org/Graphics/SVG/1.1/DTD/svg11.dtd">
<!-- Generated by graphviz version 2.38.0 (20140413.2041)
 -->
<!-- Title: java.se Pages: 1 -->
<svg width="1706pt" height="385pt"
 viewBox="0.00 0.00 1706.48 385.00" xmlns="http://www.w3.org/2000/svg" xmlns:xlink="http://www.w3.org/1999/xlink">
<g id="graph0" class="graph" transform="scale(1 1) rotate(0) translate(4 381)">
<title>java.se</title>
<polygon fill="white" stroke="none" points="-4,4 -4,-381 1702.48,-381 1702.48,4 -4,4"/>
<!-- java.logging -->
<g id="node1" class="node"><title>java.logging</title>
<text text-anchor="middle" x="238.982" y="-101.4" font-family="DejaVuSans" font-size="12.00" fill="#e76f00">java.logging</text>
</g>
<!-- java.base -->
<g id="node9" class="node"><title>java.base</title>
<text text-anchor="middle" x="493.982" y="-17.4" font-family="DejaVuSans" font-size="12.00" fill="#e76f00">java.base</text>
</g>
<!-- java.logging&#45;&gt;java.base -->
<g id="edge6" class="edge"><title>java.logging&#45;&gt;java.base</title>
<path fill="none" stroke="#dddddd" stroke-width="2" d="M286.05,-88.3644C330.964,-73.9216 398.384,-52.2414 444.183,-37.5138"/>
<polygon fill="#dddddd" stroke="#dddddd" stroke-width="2" points="453.898,-34.3898 445.755,-41.7352 449.291,-36.3965 444.531,-37.9272 444.378,-37.4512 444.225,-36.9752 448.985,-35.4445 443,-33.1672 453.898,-34.3898 453.898,-34.3898"/>
</g>
<!-- java.scripting -->
<g id="node2" class="node"><title>java.scripting</title>
<text text-anchor="middle" x="371.982" y="-101.4" font-family="DejaVuSans" font-size="12.00" fill="#e76f00">java.scripting</text>
</g>
<!-- java.scripting&#45;&gt;java.base -->
<g id="edge14" class="edge"><title>java.scripting&#45;&gt;java.base</title>
<path fill="none" stroke="#dddddd" stroke-width="2" d="M401.204,-83.859C417.682,-72.7837 438.452,-58.8235 456.16,-46.9211"/>
<polygon fill="#dddddd" stroke="#dddddd" stroke-width="2" points="464.576,-41.265 458.786,-50.5782 460.705,-44.4692 456.555,-47.2584 456.276,-46.8434 455.997,-46.4284 460.147,-43.6392 453.766,-43.1086 464.576,-41.265 464.576,-41.265"/>
</g>
<!-- java.xml -->
<g id="node3" class="node"><title>java.xml</title>
<text text-anchor="middle" x="493.982" y="-101.4" font-family="DejaVuSans" font-size="12.00" fill="#e76f00">java.xml</text>
</g>
<!-- java.xml&#45;&gt;java.base -->
<g id="edge34" class="edge"><title>java.xml&#45;&gt;java.base</title>
<path fill="none" stroke="#dddddd" stroke-width="2" d="M493.982,-83.6501C493.982,-73.9808 493.982,-62.1502 493.982,-51.4157"/>
<polygon fill="#dddddd" stroke="#dddddd" stroke-width="2" points="493.982,-41.1671 498.482,-51.1671 494.482,-46.1671 494.482,-51.1671 493.982,-51.1671 493.482,-51.1671 493.482,-46.1671 489.482,-51.1672 493.982,-41.1671 493.982,-41.1671"/>
</g>
<!-- java.sql -->
<g id="node4" class="node"><title>java.sql</title>
<text text-anchor="middle" x="493.982" y="-185.4" font-family="DejaVuSans" font-size="12.00" fill="#e76f00">java.sql</text>
</g>
<!-- java.sql&#45;&gt;java.logging -->
<g id="edge28" class="edge"><title>java.sql&#45;&gt;java.logging</title>
<path fill="none" stroke="#999999" stroke-width="2" d="M458.793,-176.184C416.78,-162.674 345.945,-139.896 296.063,-123.855"/>
<polygon fill="#999999" stroke="#999999" stroke-width="2" points="286.381,-120.742 297.278,-119.519 291.294,-121.797 296.054,-123.327 295.9,-123.803 295.747,-124.279 290.987,-122.749 294.523,-128.087 286.381,-120.742 286.381,-120.742"/>
</g>
<!-- java.sql&#45;&gt;java.xml -->
<g id="edge30" class="edge"><title>java.sql&#45;&gt;java.xml</title>
<path fill="none" stroke="#999999" stroke-width="2" d="M493.982,-167.65C493.982,-157.981 493.982,-146.15 493.982,-135.416"/>
<polygon fill="#999999" stroke="#999999" stroke-width="2" points="493.982,-125.167 498.482,-135.167 494.482,-130.167 494.482,-135.167 493.982,-135.167 493.482,-135.167 493.482,-130.167 489.482,-135.167 493.982,-125.167 493.982,-125.167"/>
</g>
<!-- java.transaction.xa -->
<g id="node20" class="node"><title>java.transaction.xa</title>
<text text-anchor="middle" x="91.982" y="-101.4" font-family="DejaVuSans" font-size="12.00" fill="#e76f00">java.transaction.xa</text>
</g>
<!-- java.sql&#45;&gt;java.transaction.xa -->
<g id="edge29" class="edge"><title>java.sql&#45;&gt;java.transaction.xa</title>
<path fill="none" stroke="#999999" stroke-width="2" d="M458.846,-181.12C399.84,-170.298 277.161,-147.335 173.982,-125 171.479,-124.458 168.935,-123.899 166.368,-123.328"/>
<polygon fill="#999999" stroke="#999999" stroke-width="2" points="156.384,-121.076 167.129,-118.887 161.371,-121.689 166.249,-122.789 166.139,-123.277 166.028,-123.764 161.151,-122.664 165.148,-127.666 156.384,-121.076 156.384,-121.076"/>
</g>
<!-- java.compiler -->
<g id="node5" class="node"><title>java.compiler</title>
<text text-anchor="middle" x="774.982" y="-101.4" font-family="DejaVuSans" font-size="12.00" fill="#e76f00">java.compiler</text>
</g>
<!-- java.compiler&#45;&gt;java.base -->
<g id="edge1" class="edge"><title>java.compiler&#45;&gt;java.base</title>
<path fill="none" stroke="#dddddd" stroke-width="2" d="M724.745,-88.84C673.686,-73.9404 595.048,-50.9925 544.05,-36.1106"/>
<polygon fill="#dddddd" stroke="#dddddd" stroke-width="2" points="534.235,-33.2466 545.096,-31.7281 539.175,-34.1673 543.975,-35.568 543.835,-36.0479 543.695,-36.5279 538.895,-35.1272 542.574,-40.3678 534.235,-33.2466 534.235,-33.2466"/>
</g>
<!-- java.instrument -->
<g id="node6" class="node"><title>java.instrument</title>
<text text-anchor="middle" x="917.982" y="-101.4" font-family="DejaVuSans" font-size="12.00" fill="#e76f00">java.instrument</text>
</g>
<!-- java.instrument&#45;&gt;java.base -->
<g id="edge5" class="edge"><title>java.instrument&#45;&gt;java.base</title>
<path fill="none" stroke="#dddddd" stroke-width="2" d="M862.804,-88.6384C856.144,-86.9971 849.421,-85.4115 842.982,-84 737.322,-60.8394 612.271,-40.0255 544.238,-29.2498"/>
<polygon fill="#dddddd" stroke="#dddddd" stroke-width="2" points="534.222,-27.6707 544.801,-24.783 539.239,-27.9555 544.178,-28.7342 544.1,-29.2281 544.022,-29.722 539.083,-28.9433 543.399,-33.6732 534.222,-27.6707 534.222,-27.6707"/>
</g>
<!-- java.desktop -->
<g id="node7" class="node"><title>java.desktop</title>
<text text-anchor="middle" x="760.982" y="-185.4" font-family="DejaVuSans" font-size="12.00" fill="#e76f00">java.desktop</text>
</g>
<!-- java.desktop&#45;&gt;java.xml -->
<g id="edge4" class="edge"><title>java.desktop&#45;&gt;java.xml</title>
<path fill="none" stroke="#999999" stroke-width="2" d="M712.762,-174.087C669.643,-161.903 604.826,-143.117 548.982,-125 546.088,-124.061 543.116,-123.074 540.124,-122.063"/>
<polygon fill="#999999" stroke="#999999" stroke-width="2" points="530.573,-118.783 541.493,-117.775 535.464,-119.934 540.193,-121.558 540.031,-122.031 539.869,-122.504 535.14,-120.88 538.569,-126.287 530.573,-118.783 530.573,-118.783"/>
</g>
<!-- java.datatransfer -->
<g id="node10" class="node"><title>java.datatransfer</title>
<text text-anchor="middle" x="625.982" y="-101.4" font-family="DejaVuSans" font-size="12.00" fill="#e76f00">java.datatransfer</text>
</g>
<!-- java.desktop&#45;&gt;java.datatransfer -->
<g id="edge3" class="edge"><title>java.desktop&#45;&gt;java.datatransfer</title>
<path fill="none" stroke="#999999" stroke-width="2" d="M728.646,-167.859C710.247,-156.683 687.011,-142.569 667.3,-130.597"/>
<polygon fill="#999999" stroke="#999999" stroke-width="2" points="658.522,-125.265 669.405,-126.61 663.055,-127.433 667.328,-130.029 667.069,-130.456 666.809,-130.884 662.536,-128.288 664.733,-134.303 658.522,-125.265 658.522,-125.265"/>
</g>
<!-- java.management -->
<g id="node8" class="node"><title>java.management</title>
<text text-anchor="middle" x="1162.98" y="-185.4" font-family="DejaVuSans" font-size="12.00" fill="#e76f00">java.management</text>
</g>
<!-- java.management&#45;&gt;java.base -->
<g id="edge7" class="edge"><title>java.management&#45;&gt;java.base</title>
<path fill="none" stroke="#dddddd" stroke-width="2" d="M1145.38,-167.956C1122.23,-143.687 1079.07,-103.155 1032.98,-84 945.164,-47.4995 660.589,-29.697 544.246,-23.8033"/>
<polygon fill="#dddddd" stroke="#dddddd" stroke-width="2" points="534.182,-23.302 544.394,-19.3051 539.201,-23.0514 544.195,-23.3001 544.17,-23.7995 544.145,-24.2989 539.151,-24.0501 543.946,-28.294 534.182,-23.302 534.182,-23.302"/>
</g>
<!-- java.datatransfer&#45;&gt;java.base -->
<g id="edge2" class="edge"><title>java.datatransfer&#45;&gt;java.base</title>
<path fill="none" stroke="#dddddd" stroke-width="2" d="M594.365,-83.859C576.374,-72.683 553.655,-58.5695 534.382,-46.597"/>
<polygon fill="#dddddd" stroke="#dddddd" stroke-width="2" points="525.799,-41.265 536.668,-42.7194 530.31,-43.4787 534.557,-46.1171 534.293,-46.5419 534.029,-46.9666 529.782,-44.3281 531.919,-50.3643 525.799,-41.265 525.799,-41.265"/>
</g>
<!-- java.management.rmi -->
<g id="node11" class="node"><title>java.management.rmi</title>
<text text-anchor="middle" x="1095.98" y="-269.4" font-family="DejaVuSans" font-size="12.00" fill="#e76f00">java.management.rmi</text>
</g>
<!-- java.management.rmi&#45;&gt;java.management -->
<g id="edge8" class="edge"><title>java.management.rmi&#45;&gt;java.management</title>
<path fill="none" stroke="#999999" stroke-width="2" d="M1112.2,-251.65C1120.68,-241.276 1131.19,-228.413 1140.44,-217.086"/>
<polygon fill="#999999" stroke="#999999" stroke-width="2" points="1146.91,-209.167 1144.07,-219.758 1144.14,-213.355 1140.97,-217.227 1140.59,-216.911 1140.2,-216.595 1143.36,-212.723 1137.1,-214.064 1146.91,-209.167 1146.91,-209.167"/>
</g>
<!-- java.rmi -->
<g id="node15" class="node"><title>java.rmi</title>
<text text-anchor="middle" x="1028.98" y="-185.4" font-family="DejaVuSans" font-size="12.00" fill="#e76f00">java.rmi</text>
</g>
<!-- java.management.rmi&#45;&gt;java.rmi -->
<g id="edge9" class="edge"><title>java.management.rmi&#45;&gt;java.rmi</title>
<path fill="none" stroke="#999999" stroke-width="2" d="M1079.76,-251.65C1071.29,-241.276 1060.78,-228.413 1051.52,-217.086"/>
<polygon fill="#999999" stroke="#999999" stroke-width="2" points="1045.05,-209.167 1054.86,-214.064 1048.6,-212.723 1051.77,-216.595 1051.38,-216.911 1050.99,-217.227 1047.83,-213.355 1047.89,-219.758 1045.05,-209.167 1045.05,-209.167"/>
</g>
<!-- java.naming -->
<g id="node12" class="node"><title>java.naming</title>
<text text-anchor="middle" x="174.982" y="-185.4" font-family="DejaVuSans" font-size="12.00" fill="#e76f00">java.naming</text>
</g>
<!-- java.naming&#45;&gt;java.base -->
<g id="edge10" class="edge"><title>java.naming&#45;&gt;java.base</title>
<path fill="none" stroke="#dddddd" stroke-width="2" d="M127.814,-177.25C66.0711,-161.766 -29.8723,-129.332 9.982,-84 38.3215,-51.7656 325.041,-31.4024 443.348,-24.3133"/>
<polygon fill="#dddddd" stroke="#dddddd" stroke-width="2" points="453.588,-23.7077 443.871,-28.7903 448.626,-24.5021 443.635,-24.7973 443.605,-24.2981 443.576,-23.799 448.567,-23.5038 443.34,-19.806 453.588,-23.7077 453.588,-23.7077"/>
</g>
<!-- java.net.http -->
<g id="node13" class="node"><title>java.net.http</title>
<text text-anchor="middle" x="1307.98" y="-185.4" font-family="DejaVuSans" font-size="12.00" fill="#e76f00">java.net.http</text>
</g>
<!-- java.net.http&#45;&gt;java.base -->
<g id="edge11" class="edge"><title>java.net.http&#45;&gt;java.base</title>
<path fill="none" stroke="#dddddd" stroke-width="2" d="M1276.39,-167.866C1235.82,-143.7 1162.46,-103.478 1093.98,-84 896.281,-27.7631 649.069,-21.0195 544.456,-20.9347"/>
<polygon fill="#dddddd" stroke="#dddddd" stroke-width="2" points="534.19,-20.9478 544.185,-16.4349 539.19,-20.4414 544.19,-20.4349 544.19,-20.9349 544.191,-21.4349 539.191,-21.4414 544.196,-25.4349 534.19,-20.9478 534.19,-20.9478"/>
</g>
<!-- java.prefs -->
<g id="node14" class="node"><title>java.prefs</title>
<text text-anchor="middle" x="1374.98" y="-101.4" font-family="DejaVuSans" font-size="12.00" fill="#e76f00">java.prefs</text>
</g>
<!-- java.prefs&#45;&gt;java.base -->
<g id="edge12" class="edge"><title>java.prefs&#45;&gt;java.base</title>
<path fill="none" stroke="#dddddd" stroke-width="2" d="M1334.96,-94.1445C1318.07,-90.495 1298.15,-86.5773 1279.98,-84 1003.81,-44.827 669.292,-28.4168 544.294,-23.3514"/>
<polygon fill="#dddddd" stroke="#dddddd" stroke-width="2" points="534.255,-22.9508 544.426,-18.8531 539.271,-22.6506 544.267,-22.85 544.247,-23.3496 544.227,-23.8492 539.231,-23.6498 544.068,-27.846 534.255,-22.9508 534.255,-22.9508"/>
</g>
<!-- java.rmi&#45;&gt;java.base -->
<g id="edge13" class="edge"><title>java.rmi&#45;&gt;java.base</title>
<path fill="none" stroke="#dddddd" stroke-width="2" d="M1027.67,-167.586C1024.95,-143.712 1016.6,-104.378 990.982,-84 922.759,-29.7265 656.56,-22.129 544.327,-21.386"/>
<polygon fill="#dddddd" stroke="#dddddd" stroke-width="2" points="534.277,-21.3352 544.299,-16.8859 539.279,-20.8606 544.279,-20.8859 544.276,-21.3858 544.274,-21.8858 539.274,-21.8605 544.254,-25.8858 534.277,-21.3352 534.277,-21.3352"/>
</g>
<!-- java.se -->
<g id="node16" class="node"><title>java.se</title>
<text text-anchor="middle" x="493.982" y="-353.4" font-family="DejaVuSans" font-size="12.00" fill="#e76f00">java.se</text>
</g>
<!-- java.se&#45;&gt;java.scripting -->
<g id="edge21" class="edge"><title>java.se&#45;&gt;java.scripting</title>
<path fill="none" stroke="#999999" stroke-width="2" d="M527.503,-335.815C542.215,-325.189 557.945,-310.62 565.982,-293 580.115,-262.017 547.315,-168.376 546.982,-168 538.85,-158.823 478.661,-138.504 431.111,-123.513"/>
<polygon fill="#999999" stroke="#999999" stroke-width="2" points="421.484,-120.496 432.372,-119.193 426.405,-121.514 431.176,-123.01 431.026,-123.487 430.877,-123.964 426.106,-122.469 429.681,-127.781 421.484,-120.496 421.484,-120.496"/>
</g>
<!-- java.se&#45;&gt;java.compiler -->
<g id="edge15" class="edge"><title>java.se&#45;&gt;java.compiler</title>
<path fill="none" stroke="#999999" stroke-width="2" d="M527.725,-353.857C602.384,-349.483 778.039,-334.88 816.982,-293 854.934,-252.186 845.934,-220.412 826.982,-168 822.239,-154.884 813.41,-142.581 804.356,-132.418"/>
<polygon fill="#999999" stroke="#999999" stroke-width="2" points="797.453,-125.086 807.584,-129.282 801.245,-128.384 804.672,-132.024 804.308,-132.367 803.944,-132.71 800.516,-129.069 801.032,-135.452 797.453,-125.086 797.453,-125.086"/>
</g>
<!-- java.se&#45;&gt;java.instrument -->
<g id="edge17" class="edge"><title>java.se&#45;&gt;java.instrument</title>
<path fill="none" stroke="#999999" stroke-width="2" d="M527.608,-354.05C607.914,-349.923 807.842,-335.527 856.982,-293 903.295,-252.919 914.668,-177.272 917.318,-135.355"/>
<polygon fill="#999999" stroke="#999999" stroke-width="2" points="917.829,-125.221 921.819,-135.435 918.076,-130.239 917.824,-135.233 917.325,-135.208 916.826,-135.183 917.077,-130.189 912.831,-134.981 917.829,-125.221 917.829,-125.221"/>
</g>
<!-- java.se&#45;&gt;java.desktop -->
<g id="edge16" class="edge"><title>java.se&#45;&gt;java.desktop</title>
<path fill="none" stroke="#999999" stroke-width="2" d="M527.486,-353.4C596.775,-348.284 752.031,-332.57 783.982,-293 801.057,-271.854 790.783,-240.669 779.029,-218.06"/>
<polygon fill="#999999" stroke="#999999" stroke-width="2" points="774.154,-209.253 782.933,-215.823 777.012,-213.385 779.434,-217.76 778.996,-218.002 778.559,-218.244 776.137,-213.87 775.059,-220.181 774.154,-209.253 774.154,-209.253"/>
</g>
<!-- java.se&#45;&gt;java.management.rmi -->
<g id="edge18" class="edge"><title>java.se&#45;&gt;java.management.rmi</title>
<path fill="none" stroke="#999999" stroke-width="2" d="M527.652,-352.15C608.712,-343.903 821.035,-321.223 996.982,-293 1002.69,-292.085 1008.57,-291.081 1014.48,-290.028"/>
<polygon fill="#999999" stroke="#999999" stroke-width="2" points="1024.44,-288.215 1015.41,-294.433 1019.61,-289.602 1014.69,-290.498 1014.6,-290.006 1014.51,-289.514 1019.43,-288.618 1013.8,-285.579 1024.44,-288.215 1024.44,-288.215"/>
</g>
<!-- java.se&#45;&gt;java.net.http -->
<g id="edge19" class="edge"><title>java.se&#45;&gt;java.net.http</title>
<path fill="none" stroke="#999999" stroke-width="2" d="M527.544,-355.11C648.872,-353.294 1063.93,-343.449 1184.98,-293 1225.2,-276.241 1262.1,-241.435 1284.78,-216.824"/>
<polygon fill="#999999" stroke="#999999" stroke-width="2" points="1291.63,-209.227 1288.28,-219.667 1288.65,-213.275 1285.31,-216.989 1284.94,-216.654 1284.56,-216.319 1287.91,-212.606 1281.59,-213.641 1291.63,-209.227 1291.63,-209.227"/>
</g>
<!-- java.se&#45;&gt;java.prefs -->
<g id="edge20" class="edge"><title>java.se&#45;&gt;java.prefs</title>
<path fill="none" stroke="#999999" stroke-width="2" d="M527.59,-354.91C655.217,-352.331 1109.47,-339.977 1244.98,-293 1308.92,-270.834 1339.08,-268.138 1371.98,-209 1384.45,-186.59 1383.95,-157.017 1381.07,-135.222"/>
<polygon fill="#999999" stroke="#999999" stroke-width="2" points="1379.51,-125.213 1385.5,-134.4 1380.77,-130.076 1381.54,-135.017 1381.05,-135.094 1380.56,-135.171 1379.79,-130.231 1376.6,-135.787 1379.51,-125.213 1379.51,-125.213"/>
</g>
<!-- java.security.jgss -->
<g id="node17" class="node"><title>java.security.jgss</title>
<text text-anchor="middle" x="1483.98" y="-269.4" font-family="DejaVuSans" font-size="12.00" fill="#e76f00">java.security.jgss</text>
</g>
<!-- java.se&#45;&gt;java.security.jgss -->
<g id="edge22" class="edge"><title>java.se&#45;&gt;java.security.jgss</title>
<path fill="none" stroke="#999999" stroke-width="2" d="M527.797,-355.002C647.253,-352.85 1060.32,-342.092 1396.98,-293 1402.67,-292.17 1408.55,-291.17 1414.43,-290.067"/>
<polygon fill="#999999" stroke="#999999" stroke-width="2" points="1424.3,-288.126 1415.35,-294.471 1419.49,-289.581 1414.58,-290.546 1414.49,-290.055 1414.39,-289.565 1419.3,-288.6 1413.62,-285.64 1424.3,-288.126 1424.3,-288.126"/>
</g>
<!-- java.security.sasl -->
<g id="node18" class="node"><title>java.security.sasl</title>
<text text-anchor="middle" x="1638.98" y="-269.4" font-family="DejaVuSans" font-size="12.00" fill="#e76f00">java.security.sasl</text>
</g>
<!-- java.se&#45;&gt;java.security.sasl -->
<g id="edge23" class="edge"><title>java.se&#45;&gt;java.security.sasl</title>
<path fill="none" stroke="#999999" stroke-width="2" d="M527.86,-355.803C660.611,-356.509 1157.9,-354.639 1560.98,-293 1563.67,-292.589 1566.4,-292.127 1569.15,-291.626"/>
<polygon fill="#999999" stroke="#999999" stroke-width="2" points="1579.17,-289.65 1570.23,-296.001 1574.36,-291.108 1569.45,-292.076 1569.36,-291.586 1569.26,-291.095 1574.16,-290.127 1568.48,-287.171 1579.17,-289.65 1579.17,-289.65"/>
</g>
<!-- java.sql.rowset -->
<g id="node19" class="node"><title>java.sql.rowset</title>
<text text-anchor="middle" x="493.982" y="-269.4" font-family="DejaVuSans" font-size="12.00" fill="#e76f00">java.sql.rowset</text>
</g>
<!-- java.se&#45;&gt;java.sql.rowset -->
<g id="edge24" class="edge"><title>java.se&#45;&gt;java.sql.rowset</title>
<path fill="none" stroke="#999999" stroke-width="2" d="M493.982,-335.65C493.982,-325.981 493.982,-314.15 493.982,-303.416"/>
<polygon fill="#999999" stroke="#999999" stroke-width="2" points="493.982,-293.167 498.482,-303.167 494.482,-298.167 494.482,-303.167 493.982,-303.167 493.482,-303.167 493.482,-298.167 489.482,-303.167 493.982,-293.167 493.982,-293.167"/>
</g>
<!-- java.xml.crypto -->
<g id="node21" class="node"><title>java.xml.crypto</title>
<text text-anchor="middle" x="711.982" y="-269.4" font-family="DejaVuSans" font-size="12.00" fill="#e76f00">java.xml.crypto</text>
</g>
<!-- java.se&#45;&gt;java.xml.crypto -->
<g id="edge25" class="edge"><title>java.se&#45;&gt;java.xml.crypto</title>
<path fill="none" stroke="#999999" stroke-width="2" d="M527.567,-342.867C560.296,-330.556 610.818,-311.553 650.711,-296.547"/>
<polygon fill="#999999" stroke="#999999" stroke-width="2" points="660.086,-293.021 652.31,-300.753 655.582,-295.249 650.902,-297.009 650.726,-296.541 650.55,-296.073 655.23,-294.313 649.142,-292.329 660.086,-293.021 660.086,-293.021"/>
</g>
<!-- java.security.jgss&#45;&gt;java.base -->
<g id="edge26" class="edge"><title>java.security.jgss&#45;&gt;java.base</title>
<path fill="none" stroke="#dddddd" stroke-width="2" d="M1485.35,-251.732C1486.83,-212.645 1483.89,-125.662 1432.98,-84 1363.95,-27.5072 729.362,-21.916 544.37,-21.4926"/>
<polygon fill="#dddddd" stroke="#dddddd" stroke-width="2" points="534.112,-21.4734 544.12,-16.9922 539.113,-20.9828 544.113,-20.9922 544.112,-21.4922 544.111,-21.9922 539.111,-21.9828 544.103,-25.9922 534.112,-21.4734 534.112,-21.4734"/>
</g>
<!-- java.security.sasl&#45;&gt;java.base -->
<g id="edge27" class="edge"><title>java.security.sasl&#45;&gt;java.base</title>
<path fill="none" stroke="#dddddd" stroke-width="2" d="M1629.07,-251.914C1607.62,-211.946 1552.7,-121.594 1476.98,-84 1393.13,-42.3659 733.447,-26.2274 544.433,-22.4308"/>
<polygon fill="#dddddd" stroke="#dddddd" stroke-width="2" points="534.224,-22.2286 544.311,-17.9276 539.233,-21.8278 544.232,-21.9269 544.222,-22.4268 544.212,-22.9267 539.213,-22.8276 544.133,-26.9259 534.224,-22.2286 534.224,-22.2286"/>
</g>
<!-- java.sql.rowset&#45;&gt;java.sql -->
<g id="edge32" class="edge"><title>java.sql.rowset&#45;&gt;java.sql</title>
<path fill="none" stroke="#999999" stroke-width="2" d="M493.982,-251.65C493.982,-241.981 493.982,-230.15 493.982,-219.416"/>
<polygon fill="#999999" stroke="#999999" stroke-width="2" points="493.982,-209.167 498.482,-219.167 494.482,-214.167 494.482,-219.167 493.982,-219.167 493.482,-219.167 493.482,-214.167 489.482,-219.167 493.982,-209.167 493.982,-209.167"/>
</g>
<!-- java.sql.rowset&#45;&gt;java.naming -->
<g id="edge31" class="edge"><title>java.sql.rowset&#45;&gt;java.naming</title>
<path fill="none" stroke="#999999" stroke-width="2" d="M439.868,-257.59C382.063,-242.731 290.833,-219.28 231.954,-204.145"/>
<polygon fill="#999999" stroke="#999999" stroke-width="2" points="222.073,-201.605 232.878,-199.736 227.04,-202.365 231.883,-203.61 231.758,-204.095 231.634,-204.579 226.791,-203.334 230.638,-208.453 222.073,-201.605 222.073,-201.605"/>
</g>
<!-- java.transaction.xa&#45;&gt;java.base -->
<g id="edge33" class="edge"><title>java.transaction.xa&#45;&gt;java.base</title>
<path fill="none" stroke="#dddddd" stroke-width="2" d="M156.384,-87.9242C162.326,-86.5658 168.261,-85.2383 173.982,-84 269.1,-63.4103 380.789,-42.2864 443.89,-30.6327"/>
<polygon fill="#dddddd" stroke="#dddddd" stroke-width="2" points="453.965,-28.7762 444.946,-35.0139 449.138,-30.174 444.221,-31.0801 444.131,-30.5884 444.04,-30.0967 448.957,-29.1906 443.315,-26.1629 453.965,-28.7762 453.965,-28.7762"/>
</g>
<!-- java.xml.crypto&#45;&gt;java.xml -->
<g id="edge35" class="edge"><title>java.xml.crypto&#45;&gt;java.xml</title>
<path fill="none" stroke="#999999" stroke-width="2" d="M696.218,-251.764C677.724,-229.483 645.329,-193.08 611.982,-168 589.755,-151.283 562.446,-136.508 539.699,-125.526"/>
<polygon fill="#999999" stroke="#999999" stroke-width="2" points="530.582,-121.208 541.546,-121.422 535.315,-122.897 539.834,-125.037 539.619,-125.489 539.405,-125.941 534.887,-123.8 537.693,-129.556 530.582,-121.208 530.582,-121.208"/>
</g>
</g>
</svg>
