<?xml version="1.0" encoding="UTF-8" standalone="no"?>
<!DOCTYPE svg PUBLIC "-//W3C//DTD SVG 1.1//EN"
 "http://www.w3.org/Graphics/SVG/1.1/DTD/svg11.dtd">
<!-- Generated by graphviz version 2.38.0 (20140413.2041)
 -->
<!-- Title: G Pages: 1 -->
<svg width="433pt" height="217pt"
 viewBox="0.00 0.00 432.50 217.00" xmlns="http://www.w3.org/2000/svg" xmlns:xlink="http://www.w3.org/1999/xlink">
<g id="graph0" class="graph" transform="scale(1 1) rotate(0) translate(4 213)">
<title>G</title>
<polygon fill="white" stroke="none" points="-4,4 -4,-213 428.5,-213 428.5,4 -4,4"/>
<!-- java.lang.ref.PhantomReference -->
<g id="node1" class="node"><title>java.lang.ref.PhantomReference</title>
<g id="a_node1"><a xlink:href="../../../java/lang/ref/PhantomReference.html" xlink:title="java.lang.ref.PhantomReference">
<text text-anchor="middle" x="358.5" y="-101.4" font-family="DejaVuSans" font-size="12.00" fill="#e76f00">PhantomReference</text>
</a>
</g>
</g>
<!-- java.lang.ref.Reference -->
<g id="node2" class="node"><title>java.lang.ref.Reference</title>
<g id="a_node2"><a xlink:href="../../../java/lang/ref/Reference.html" xlink:title="java.lang.ref.Reference">
<text text-anchor="middle" x="198.5" y="-185.4" font-family="DejaVuSans" font-size="12.00" fill="#e76f00">Reference</text>
</a>
</g>
</g>
<!-- java.lang.ref.PhantomReference&#45;&gt;java.lang.ref.Reference -->
<g id="edge1" class="edge"><title>java.lang.ref.PhantomReference&#45;&gt;java.lang.ref.Reference</title>
<path fill="none" stroke="#999999" stroke-width="2" d="M320.176,-125.141C297.895,-136.56 269.629,-151.046 245.951,-163.182"/>
<polygon fill="#999999" stroke="#999999" stroke-width="2" points="236.788,-167.877 243.635,-159.312 241.01,-165.152 245.46,-162.871 245.688,-163.316 245.916,-163.761 241.466,-166.042 247.74,-167.321 236.788,-167.877 236.788,-167.877"/>
</g>
<!-- open node #0 -->
<g id="node3" class="node"><title>open node #0</title>
<g id="a_node3"><a xlink:title="Non&#45;sealed Hierarchy">
<text text-anchor="start" x="341.5" y="-18.4" font-family="DejaVuSans" font-style="italic" font-size="12.00" fill="#e76f00">&lt;any&gt;</text>
</a>
</g>
</g>
<!-- open node #0&#45;&gt;java.lang.ref.PhantomReference -->
<g id="edge2" class="edge"><title>open node #0&#45;&gt;java.lang.ref.PhantomReference</title>
<path fill="none" stroke="#999999" stroke-width="2" stroke-dasharray="5,2" d="M358.5,-41.3499C358.5,-51.0192 358.5,-62.8498 358.5,-73.5843"/>
<polygon fill="#999999" stroke="#999999" stroke-width="2" points="358.5,-83.8329 354,-73.8328 358,-78.8329 358,-73.8329 358.5,-73.8329 359,-73.8329 359,-78.8329 363,-73.8329 358.5,-83.8329 358.5,-83.8329"/>
</g>
<!-- java.lang.ref.SoftReference -->
<g id="node4" class="node"><title>java.lang.ref.SoftReference</title>
<g id="a_node4"><a xlink:href="../../../java/lang/ref/SoftReference.html" xlink:title="java.lang.ref.SoftReference">
<text text-anchor="middle" x="52.5" y="-101.4" font-family="DejaVuSans" font-size="12.00" fill="#e76f00">SoftReference</text>
</a>
</g>
</g>
<!-- java.lang.ref.SoftReference&#45;&gt;java.lang.ref.Reference -->
<g id="edge3" class="edge"><title>java.lang.ref.SoftReference&#45;&gt;java.lang.ref.Reference</title>
<path fill="none" stroke="#999999" stroke-width="2" d="M87.4706,-125.141C107.622,-136.459 133.138,-150.79 154.627,-162.859"/>
<polygon fill="#999999" stroke="#999999" stroke-width="2" points="163.562,-167.877 152.639,-166.904 158.958,-165.865 154.598,-163.416 154.843,-162.98 155.088,-162.544 159.447,-164.993 157.047,-159.057 163.562,-167.877 163.562,-167.877"/>
</g>
<!-- open node #1 -->
<g id="node5" class="node"><title>open node #1</title>
<g id="a_node5"><a xlink:title="Non&#45;sealed Hierarchy">
<text text-anchor="start" x="35.5" y="-18.4" font-family="DejaVuSans" font-style="italic" font-size="12.00" fill="#e76f00">&lt;any&gt;</text>
</a>
</g>
</g>
<!-- open node #1&#45;&gt;java.lang.ref.SoftReference -->
<g id="edge4" class="edge"><title>open node #1&#45;&gt;java.lang.ref.SoftReference</title>
<path fill="none" stroke="#999999" stroke-width="2" stroke-dasharray="5,2" d="M52.5,-41.3499C52.5,-51.0192 52.5,-62.8498 52.5,-73.5843"/>
<polygon fill="#999999" stroke="#999999" stroke-width="2" points="52.5,-83.8329 48.0001,-73.8328 52,-78.8329 52.0001,-73.8329 52.5001,-73.8329 53.0001,-73.8329 53,-78.8329 57.0001,-73.8329 52.5,-83.8329 52.5,-83.8329"/>
</g>
<!-- java.lang.ref.WeakReference -->
<g id="node6" class="node"><title>java.lang.ref.WeakReference</title>
<g id="a_node6"><a xlink:href="../../../java/lang/ref/WeakReference.html" xlink:title="java.lang.ref.WeakReference">
<text text-anchor="middle" x="198.5" y="-101.4" font-family="DejaVuSans" font-size="12.00" fill="#e76f00">WeakReference</text>
</a>
</g>
</g>
<!-- java.lang.ref.WeakReference&#45;&gt;java.lang.ref.Reference -->
<g id="edge5" class="edge"><title>java.lang.ref.WeakReference&#45;&gt;java.lang.ref.Reference</title>
<path fill="none" stroke="#999999" stroke-width="2" d="M198.5,-125.35C198.5,-135.019 198.5,-146.85 198.5,-157.584"/>
<polygon fill="#999999" stroke="#999999" stroke-width="2" points="198.5,-167.833 194,-157.833 198,-162.833 198,-157.833 198.5,-157.833 199,-157.833 199,-162.833 203,-157.833 198.5,-167.833 198.5,-167.833"/>
</g>
<!-- open node #2 -->
<g id="node7" class="node"><title>open node #2</title>
<g id="a_node7"><a xlink:title="Non&#45;sealed Hierarchy">
<text text-anchor="start" x="181.5" y="-18.4" font-family="DejaVuSans" font-style="italic" font-size="12.00" fill="#e76f00">&lt;any&gt;</text>
</a>
</g>
</g>
<!-- open node #2&#45;&gt;java.lang.ref.WeakReference -->
<g id="edge6" class="edge"><title>open node #2&#45;&gt;java.lang.ref.WeakReference</title>
<path fill="none" stroke="#999999" stroke-width="2" stroke-dasharray="5,2" d="M198.5,-41.3499C198.5,-51.0192 198.5,-62.8498 198.5,-73.5843"/>
<polygon fill="#999999" stroke="#999999" stroke-width="2" points="198.5,-83.8329 194,-73.8328 198,-78.8329 198,-73.8329 198.5,-73.8329 199,-73.8329 199,-78.8329 203,-73.8329 198.5,-83.8329 198.5,-83.8329"/>
</g>
</g>
</svg>
