<?xml version="1.0" encoding="UTF-8" standalone="no"?>
<!DOCTYPE svg PUBLIC "-//W3C//DTD SVG 1.1//EN"
 "http://www.w3.org/Graphics/SVG/1.1/DTD/svg11.dtd">
<!-- Generated by graphviz version 2.38.0 (20140413.2041)
 -->
<!-- Title: G Pages: 1 -->
<svg width="236pt" height="133pt"
 viewBox="0.00 0.00 236.00 133.00" xmlns="http://www.w3.org/2000/svg" xmlns:xlink="http://www.w3.org/1999/xlink">
<g id="graph0" class="graph" transform="scale(1 1) rotate(0) translate(4 129)">
<title>G</title>
<polygon fill="white" stroke="none" points="-4,4 -4,-129 232,-129 232,4 -4,4"/>
<!-- java.lang.foreign.StructLayout -->
<g id="node1" class="node"><title>java.lang.foreign.StructLayout</title>
<g id="a_node1"><a xlink:href="../../../java/lang/foreign/StructLayout.html" xlink:title="java.lang.foreign.StructLayout">
<text text-anchor="middle" x="47.5" y="-17.4" font-family="DejaVuSans" font-size="12.00" fill="#e76f00">StructLayout</text>
</a>
</g>
</g>
<!-- java.lang.foreign.GroupLayout -->
<g id="node2" class="node"><title>java.lang.foreign.GroupLayout</title>
<g id="a_node2"><a xlink:href="../../../java/lang/foreign/GroupLayout.html" xlink:title="java.lang.foreign.GroupLayout">
<text text-anchor="middle" x="113.5" y="-101.4" font-family="DejaVuSans" font-size="12.00" fill="#e76f00">GroupLayout</text>
</a>
</g>
</g>
<!-- java.lang.foreign.StructLayout&#45;&gt;java.lang.foreign.GroupLayout -->
<g id="edge1" class="edge"><title>java.lang.foreign.StructLayout&#45;&gt;java.lang.foreign.GroupLayout</title>
<path fill="none" stroke="#999999" stroke-width="2" d="M63.4768,-41.3499C71.8269,-51.7243 82.1794,-64.5866 91.2964,-75.9138"/>
<polygon fill="#999999" stroke="#999999" stroke-width="2" points="97.6704,-83.8329 87.8947,-78.8643 94.1458,-80.2513 91.0107,-76.3563 91.4002,-76.0427 91.7897,-75.7292 94.9248,-79.6243 94.9058,-73.2212 97.6704,-83.8329 97.6704,-83.8329"/>
</g>
<!-- java.lang.foreign.UnionLayout -->
<g id="node3" class="node"><title>java.lang.foreign.UnionLayout</title>
<g id="a_node3"><a xlink:href="../../../java/lang/foreign/UnionLayout.html" xlink:title="java.lang.foreign.UnionLayout">
<text text-anchor="middle" x="179.5" y="-17.4" font-family="DejaVuSans" font-size="12.00" fill="#e76f00">UnionLayout</text>
</a>
</g>
</g>
<!-- java.lang.foreign.UnionLayout&#45;&gt;java.lang.foreign.GroupLayout -->
<g id="edge2" class="edge"><title>java.lang.foreign.UnionLayout&#45;&gt;java.lang.foreign.GroupLayout</title>
<path fill="none" stroke="#999999" stroke-width="2" d="M163.523,-41.3499C155.173,-51.7243 144.821,-64.5866 135.704,-75.9138"/>
<polygon fill="#999999" stroke="#999999" stroke-width="2" points="129.33,-83.8329 132.094,-73.2212 132.075,-79.6243 135.21,-75.7292 135.6,-76.0427 135.989,-76.3563 132.854,-80.2513 139.105,-78.8643 129.33,-83.8329 129.33,-83.8329"/>
</g>
</g>
</svg>
