<?xml version="1.0" encoding="UTF-8" standalone="no"?>
<!DOCTYPE svg PUBLIC "-//W3C//DTD SVG 1.1//EN"
 "http://www.w3.org/Graphics/SVG/1.1/DTD/svg11.dtd">
<!-- Generated by graphviz version 2.38.0 (20140413.2041)
 -->
<!-- Title: G Pages: 1 -->
<svg width="1253pt" height="217pt"
 viewBox="0.00 0.00 1253.00 217.00" xmlns="http://www.w3.org/2000/svg" xmlns:xlink="http://www.w3.org/1999/xlink">
<g id="graph0" class="graph" transform="scale(1 1) rotate(0) translate(4 213)">
<title>G</title>
<polygon fill="white" stroke="none" points="-4,4 -4,-213 1249,-213 1249,4 -4,4"/>
<!-- java.lang.foreign.SequenceLayout -->
<g id="node1" class="node"><title>java.lang.foreign.SequenceLayout</title>
<g id="a_node1"><a xlink:href="../../../java/lang/foreign/SequenceLayout.html" xlink:title="java.lang.foreign.SequenceLayout">
<text text-anchor="middle" x="59.5" y="-101.4" font-family="DejaVuSans" font-size="12.00" fill="#e76f00">SequenceLayout</text>
</a>
</g>
</g>
<!-- java.lang.foreign.MemoryLayout -->
<g id="node2" class="node"><title>java.lang.foreign.MemoryLayout</title>
<g id="a_node2"><a xlink:href="../../../java/lang/foreign/MemoryLayout.html" xlink:title="java.lang.foreign.MemoryLayout">
<text text-anchor="middle" x="274.5" y="-185.4" font-family="DejaVuSans" font-size="12.00" fill="#e76f00">MemoryLayout</text>
</a>
</g>
</g>
<!-- java.lang.foreign.SequenceLayout&#45;&gt;java.lang.foreign.MemoryLayout -->
<g id="edge1" class="edge"><title>java.lang.foreign.SequenceLayout&#45;&gt;java.lang.foreign.MemoryLayout</title>
<path fill="none" stroke="#999999" stroke-width="2" d="M110.725,-125.037C141.699,-136.85 181.354,-151.975 213.885,-164.382"/>
<polygon fill="#999999" stroke="#999999" stroke-width="2" points="223.296,-167.971 212.348,-168.612 218.446,-166.656 213.774,-164.874 213.952,-164.407 214.13,-163.94 218.802,-165.722 215.556,-160.203 223.296,-167.971 223.296,-167.971"/>
</g>
<!-- java.lang.foreign.GroupLayout -->
<g id="node3" class="node"><title>java.lang.foreign.GroupLayout</title>
<g id="a_node3"><a xlink:href="../../../java/lang/foreign/GroupLayout.html" xlink:title="java.lang.foreign.GroupLayout">
<text text-anchor="middle" x="204.5" y="-101.4" font-family="DejaVuSans" font-size="12.00" fill="#e76f00">GroupLayout</text>
</a>
</g>
</g>
<!-- java.lang.foreign.GroupLayout&#45;&gt;java.lang.foreign.MemoryLayout -->
<g id="edge2" class="edge"><title>java.lang.foreign.GroupLayout&#45;&gt;java.lang.foreign.MemoryLayout</title>
<path fill="none" stroke="#999999" stroke-width="2" d="M221.445,-125.35C230.301,-135.724 241.281,-148.587 250.951,-159.914"/>
<polygon fill="#999999" stroke="#999999" stroke-width="2" points="257.711,-167.833 247.796,-163.149 254.084,-164.355 250.838,-160.552 251.218,-160.227 251.599,-159.903 254.845,-163.705 254.641,-157.306 257.711,-167.833 257.711,-167.833"/>
</g>
<!-- java.lang.foreign.StructLayout -->
<g id="node4" class="node"><title>java.lang.foreign.StructLayout</title>
<g id="a_node4"><a xlink:href="../../../java/lang/foreign/StructLayout.html" xlink:title="java.lang.foreign.StructLayout">
<text text-anchor="middle" x="72.5" y="-17.4" font-family="DejaVuSans" font-size="12.00" fill="#e76f00">StructLayout</text>
</a>
</g>
</g>
<!-- java.lang.foreign.StructLayout&#45;&gt;java.lang.foreign.GroupLayout -->
<g id="edge3" class="edge"><title>java.lang.foreign.StructLayout&#45;&gt;java.lang.foreign.GroupLayout</title>
<path fill="none" stroke="#999999" stroke-width="2" d="M104.117,-41.141C122.108,-52.317 144.827,-66.4305 164.1,-78.403"/>
<polygon fill="#999999" stroke="#999999" stroke-width="2" points="172.683,-83.735 161.814,-82.2806 168.172,-81.5213 163.925,-78.8829 164.189,-78.4581 164.453,-78.0334 168.7,-80.6719 166.563,-74.6357 172.683,-83.735 172.683,-83.735"/>
</g>
<!-- java.lang.foreign.UnionLayout -->
<g id="node5" class="node"><title>java.lang.foreign.UnionLayout</title>
<g id="a_node5"><a xlink:href="../../../java/lang/foreign/UnionLayout.html" xlink:title="java.lang.foreign.UnionLayout">
<text text-anchor="middle" x="204.5" y="-17.4" font-family="DejaVuSans" font-size="12.00" fill="#e76f00">UnionLayout</text>
</a>
</g>
</g>
<!-- java.lang.foreign.UnionLayout&#45;&gt;java.lang.foreign.GroupLayout -->
<g id="edge4" class="edge"><title>java.lang.foreign.UnionLayout&#45;&gt;java.lang.foreign.GroupLayout</title>
<path fill="none" stroke="#999999" stroke-width="2" d="M204.5,-41.3499C204.5,-51.0192 204.5,-62.8498 204.5,-73.5843"/>
<polygon fill="#999999" stroke="#999999" stroke-width="2" points="204.5,-83.8329 200,-73.8328 204,-78.8329 204,-73.8329 204.5,-73.8329 205,-73.8329 205,-78.8329 209,-73.8329 204.5,-83.8329 204.5,-83.8329"/>
</g>
<!-- java.lang.foreign.PaddingLayout -->
<g id="node6" class="node"><title>java.lang.foreign.PaddingLayout</title>
<g id="a_node6"><a xlink:href="../../../java/lang/foreign/PaddingLayout.html" xlink:title="java.lang.foreign.PaddingLayout">
<text text-anchor="middle" x="344.5" y="-101.4" font-family="DejaVuSans" font-size="12.00" fill="#e76f00">PaddingLayout</text>
</a>
</g>
</g>
<!-- java.lang.foreign.PaddingLayout&#45;&gt;java.lang.foreign.MemoryLayout -->
<g id="edge5" class="edge"><title>java.lang.foreign.PaddingLayout&#45;&gt;java.lang.foreign.MemoryLayout</title>
<path fill="none" stroke="#999999" stroke-width="2" d="M327.555,-125.35C318.699,-135.724 307.719,-148.587 298.049,-159.914"/>
<polygon fill="#999999" stroke="#999999" stroke-width="2" points="291.289,-167.833 294.359,-157.306 294.155,-163.705 297.401,-159.903 297.782,-160.227 298.162,-160.552 294.916,-164.355 301.204,-163.149 291.289,-167.833 291.289,-167.833"/>
</g>
<!-- java.lang.foreign.ValueLayout -->
<g id="node7" class="node"><title>java.lang.foreign.ValueLayout</title>
<g id="a_node7"><a xlink:href="../../../java/lang/foreign/ValueLayout.html" xlink:title="java.lang.foreign.ValueLayout">
<text text-anchor="middle" x="699.5" y="-101.4" font-family="DejaVuSans" font-size="12.00" fill="#e76f00">ValueLayout</text>
</a>
</g>
</g>
<!-- java.lang.foreign.ValueLayout&#45;&gt;java.lang.foreign.MemoryLayout -->
<g id="edge6" class="edge"><title>java.lang.foreign.ValueLayout&#45;&gt;java.lang.foreign.MemoryLayout</title>
<path fill="none" stroke="#999999" stroke-width="2" d="M651.984,-114.668C575.205,-129.482 423.808,-158.692 337.912,-175.265"/>
<polygon fill="#999999" stroke="#999999" stroke-width="2" points="328.026,-177.173 336.992,-170.86 332.841,-175.734 337.75,-174.787 337.845,-175.278 337.94,-175.769 333.03,-176.716 338.697,-179.697 328.026,-177.173 328.026,-177.173"/>
</g>
<!-- java.lang.foreign.ValueLayout.OfBoolean -->
<g id="node8" class="node"><title>java.lang.foreign.ValueLayout.OfBoolean</title>
<g id="a_node8"><a xlink:href="../../../java/lang/foreign/OfBoolean.html" xlink:title="java.lang.foreign.ValueLayout.OfBoolean">
<text text-anchor="middle" x="332.5" y="-17.4" font-family="DejaVuSans" font-size="12.00" fill="#e76f00">OfBoolean</text>
</a>
</g>
</g>
<!-- java.lang.foreign.ValueLayout.OfBoolean&#45;&gt;java.lang.foreign.ValueLayout -->
<g id="edge7" class="edge"><title>java.lang.foreign.ValueLayout.OfBoolean&#45;&gt;java.lang.foreign.ValueLayout</title>
<path fill="none" stroke="#999999" stroke-width="2" d="M375.652,-35.9295C381.618,-37.7383 387.691,-39.483 393.5,-41 479.225,-63.3868 580.185,-82.6586 642.005,-93.6711"/>
<polygon fill="#999999" stroke="#999999" stroke-width="2" points="651.956,-95.4327 641.325,-98.1207 646.946,-95.0535 642.022,-94.1819 642.109,-93.6895 642.196,-93.1972 647.12,-94.0688 642.894,-89.2584 651.956,-95.4327 651.956,-95.4327"/>
</g>
<!-- java.lang.foreign.ValueLayout.OfByte -->
<g id="node9" class="node"><title>java.lang.foreign.ValueLayout.OfByte</title>
<g id="a_node9"><a xlink:href="../../../java/lang/foreign/OfByte.html" xlink:title="java.lang.foreign.ValueLayout.OfByte">
<text text-anchor="middle" x="444.5" y="-17.4" font-family="DejaVuSans" font-size="12.00" fill="#e76f00">OfByte</text>
</a>
</g>
</g>
<!-- java.lang.foreign.ValueLayout.OfByte&#45;&gt;java.lang.foreign.ValueLayout -->
<g id="edge8" class="edge"><title>java.lang.foreign.ValueLayout.OfByte&#45;&gt;java.lang.foreign.ValueLayout</title>
<path fill="none" stroke="#999999" stroke-width="2" d="M477.18,-34.6553C482.924,-36.8499 488.866,-39.0458 494.5,-41 543.967,-58.1589 600.992,-75.3383 642.32,-87.3311"/>
<polygon fill="#999999" stroke="#999999" stroke-width="2" points="651.946,-90.1128 641.089,-91.6594 647.003,-89.2049 642.2,-87.8167 642.339,-87.3363 642.477,-86.856 647.281,-88.2442 643.588,-83.0132 651.946,-90.1128 651.946,-90.1128"/>
</g>
<!-- java.lang.foreign.ValueLayout.OfChar -->
<g id="node10" class="node"><title>java.lang.foreign.ValueLayout.OfChar</title>
<g id="a_node10"><a xlink:href="../../../java/lang/foreign/OfChar.html" xlink:title="java.lang.foreign.ValueLayout.OfChar">
<text text-anchor="middle" x="546.5" y="-17.4" font-family="DejaVuSans" font-size="12.00" fill="#e76f00">OfChar</text>
</a>
</g>
</g>
<!-- java.lang.foreign.ValueLayout.OfChar&#45;&gt;java.lang.foreign.ValueLayout -->
<g id="edge9" class="edge"><title>java.lang.foreign.ValueLayout.OfChar&#45;&gt;java.lang.foreign.ValueLayout</title>
<path fill="none" stroke="#999999" stroke-width="2" d="M580.076,-39.4952C601.839,-51.1586 630.452,-66.4941 654.216,-79.2301"/>
<polygon fill="#999999" stroke="#999999" stroke-width="2" points="663.061,-83.9709 652.122,-83.2133 658.418,-82.0496 654.011,-79.6877 654.248,-79.247 654.484,-78.8063 658.891,-81.1682 656.373,-75.2807 663.061,-83.9709 663.061,-83.9709"/>
</g>
<!-- java.lang.foreign.ValueLayout.OfShort -->
<g id="node11" class="node"><title>java.lang.foreign.ValueLayout.OfShort</title>
<g id="a_node11"><a xlink:href="../../../java/lang/foreign/OfShort.html" xlink:title="java.lang.foreign.ValueLayout.OfShort">
<text text-anchor="middle" x="650.5" y="-17.4" font-family="DejaVuSans" font-size="12.00" fill="#e76f00">OfShort</text>
</a>
</g>
</g>
<!-- java.lang.foreign.ValueLayout.OfShort&#45;&gt;java.lang.foreign.ValueLayout -->
<g id="edge10" class="edge"><title>java.lang.foreign.ValueLayout.OfShort&#45;&gt;java.lang.foreign.ValueLayout</title>
<path fill="none" stroke="#999999" stroke-width="2" d="M662.362,-41.3499C668.38,-51.4221 675.8,-63.8394 682.422,-74.9202"/>
<polygon fill="#999999" stroke="#999999" stroke-width="2" points="687.748,-83.8329 678.755,-77.557 684.754,-79.7973 682.189,-75.5052 682.618,-75.2487 683.047,-74.9922 685.612,-79.2843 686.481,-72.9404 687.748,-83.8329 687.748,-83.8329"/>
</g>
<!-- java.lang.foreign.ValueLayout.OfInt -->
<g id="node12" class="node"><title>java.lang.foreign.ValueLayout.OfInt</title>
<g id="a_node12"><a xlink:href="../../../java/lang/foreign/OfInt.html" xlink:title="java.lang.foreign.ValueLayout.OfInt">
<text text-anchor="middle" x="748.5" y="-17.4" font-family="DejaVuSans" font-size="12.00" fill="#e76f00">OfInt</text>
</a>
</g>
</g>
<!-- java.lang.foreign.ValueLayout.OfInt&#45;&gt;java.lang.foreign.ValueLayout -->
<g id="edge11" class="edge"><title>java.lang.foreign.ValueLayout.OfInt&#45;&gt;java.lang.foreign.ValueLayout</title>
<path fill="none" stroke="#999999" stroke-width="2" d="M736.638,-41.3499C730.62,-51.4221 723.2,-63.8394 716.578,-74.9202"/>
<polygon fill="#999999" stroke="#999999" stroke-width="2" points="711.252,-83.8329 712.519,-72.9404 713.388,-79.2843 715.953,-74.9922 716.382,-75.2487 716.811,-75.5052 714.246,-79.7973 720.245,-77.557 711.252,-83.8329 711.252,-83.8329"/>
</g>
<!-- java.lang.foreign.ValueLayout.OfFloat -->
<g id="node13" class="node"><title>java.lang.foreign.ValueLayout.OfFloat</title>
<g id="a_node13"><a xlink:href="../../../java/lang/foreign/OfFloat.html" xlink:title="java.lang.foreign.ValueLayout.OfFloat">
<text text-anchor="middle" x="845.5" y="-17.4" font-family="DejaVuSans" font-size="12.00" fill="#e76f00">OfFloat</text>
</a>
</g>
</g>
<!-- java.lang.foreign.ValueLayout.OfFloat&#45;&gt;java.lang.foreign.ValueLayout -->
<g id="edge12" class="edge"><title>java.lang.foreign.ValueLayout.OfFloat&#45;&gt;java.lang.foreign.ValueLayout</title>
<path fill="none" stroke="#999999" stroke-width="2" d="M811.269,-40.7254C790.898,-52.1668 764.853,-66.7952 743.03,-79.0519"/>
<polygon fill="#999999" stroke="#999999" stroke-width="2" points="734.276,-83.9684 740.791,-75.1479 738.39,-81.084 742.75,-78.6355 742.995,-79.0714 743.24,-79.5074 738.88,-81.9559 745.198,-82.995 734.276,-83.9684 734.276,-83.9684"/>
</g>
<!-- java.lang.foreign.ValueLayout.OfLong -->
<g id="node14" class="node"><title>java.lang.foreign.ValueLayout.OfLong</title>
<g id="a_node14"><a xlink:href="../../../java/lang/foreign/OfLong.html" xlink:title="java.lang.foreign.ValueLayout.OfLong">
<text text-anchor="middle" x="949.5" y="-17.4" font-family="DejaVuSans" font-size="12.00" fill="#e76f00">OfLong</text>
</a>
</g>
</g>
<!-- java.lang.foreign.ValueLayout.OfLong&#45;&gt;java.lang.foreign.ValueLayout -->
<g id="edge13" class="edge"><title>java.lang.foreign.ValueLayout.OfLong&#45;&gt;java.lang.foreign.ValueLayout</title>
<path fill="none" stroke="#999999" stroke-width="2" d="M915.468,-34.5566C909.5,-36.7621 903.333,-38.9872 897.5,-41 850.537,-57.2048 796.754,-74.0761 757.104,-86.1995"/>
<polygon fill="#999999" stroke="#999999" stroke-width="2" points="747.341,-89.1762 755.594,-81.9553 751.978,-87.2397 756.761,-85.7815 756.907,-86.2597 757.053,-86.738 752.27,-88.1962 758.219,-90.5641 747.341,-89.1762 747.341,-89.1762"/>
</g>
<!-- java.lang.foreign.ValueLayout.OfDouble -->
<g id="node15" class="node"><title>java.lang.foreign.ValueLayout.OfDouble</title>
<g id="a_node15"><a xlink:href="../../../java/lang/foreign/OfDouble.html" xlink:title="java.lang.foreign.ValueLayout.OfDouble">
<text text-anchor="middle" x="1059.5" y="-17.4" font-family="DejaVuSans" font-size="12.00" fill="#e76f00">OfDouble</text>
</a>
</g>
</g>
<!-- java.lang.foreign.ValueLayout.OfDouble&#45;&gt;java.lang.foreign.ValueLayout -->
<g id="edge14" class="edge"><title>java.lang.foreign.ValueLayout.OfDouble&#45;&gt;java.lang.foreign.ValueLayout</title>
<path fill="none" stroke="#999999" stroke-width="2" d="M1019.44,-35.6638C1013.46,-37.5749 1007.35,-39.4187 1001.5,-41 917.588,-63.7006 818.641,-82.7462 757.48,-93.6421"/>
<polygon fill="#999999" stroke="#999999" stroke-width="2" points="747.255,-95.4505 756.319,-89.2776 752.092,-94.0873 757.015,-93.2165 757.103,-93.7089 757.19,-94.2012 752.266,-95.072 757.886,-98.1401 747.255,-95.4505 747.255,-95.4505"/>
</g>
<!-- java.lang.foreign.AddressLayout -->
<g id="node16" class="node"><title>java.lang.foreign.AddressLayout</title>
<g id="a_node16"><a xlink:href="../../../java/lang/foreign/AddressLayout.html" xlink:title="java.lang.foreign.AddressLayout">
<text text-anchor="middle" x="1190.5" y="-17.4" font-family="DejaVuSans" font-size="12.00" fill="#e76f00">AddressLayout</text>
</a>
</g>
</g>
<!-- java.lang.foreign.AddressLayout&#45;&gt;java.lang.foreign.ValueLayout -->
<g id="edge15" class="edge"><title>java.lang.foreign.AddressLayout&#45;&gt;java.lang.foreign.ValueLayout</title>
<path fill="none" stroke="#999999" stroke-width="2" d="M1135.65,-36.8609C1129.55,-38.3577 1123.41,-39.7732 1117.5,-41 989.868,-67.5008 838.081,-87.3191 757.127,-96.9676"/>
<polygon fill="#999999" stroke="#999999" stroke-width="2" points="747.136,-98.1495 756.538,-92.5058 752.043,-97.0656 757.008,-96.4781 757.067,-96.9747 757.126,-97.4712 752.16,-98.0586 757.596,-101.444 747.136,-98.1495 747.136,-98.1495"/>
</g>
</g>
</svg>
