<?xml version="1.0" encoding="UTF-8" standalone="no"?>
<!DOCTYPE svg PUBLIC "-//W3C//DTD SVG 1.1//EN"
 "http://www.w3.org/Graphics/SVG/1.1/DTD/svg11.dtd">
<!-- Generated by graphviz version 2.38.0 (20140413.2041)
 -->
<!-- Title: G Pages: 1 -->
<svg width="964pt" height="133pt"
 viewBox="0.00 0.00 963.50 133.00" xmlns="http://www.w3.org/2000/svg" xmlns:xlink="http://www.w3.org/1999/xlink">
<g id="graph0" class="graph" transform="scale(1 1) rotate(0) translate(4 129)">
<title>G</title>
<polygon fill="white" stroke="none" points="-4,4 -4,-129 959.5,-129 959.5,4 -4,4"/>
<!-- java.lang.foreign.ValueLayout.OfBoolean -->
<g id="node1" class="node"><title>java.lang.foreign.ValueLayout.OfBoolean</title>
<g id="a_node1"><a xlink:href="../../../java/lang/foreign/OfBoolean.html" xlink:title="java.lang.foreign.ValueLayout.OfBoolean">
<text text-anchor="middle" x="43" y="-17.4" font-family="DejaVuSans" font-size="12.00" fill="#e76f00">OfBoolean</text>
</a>
</g>
</g>
<!-- java.lang.foreign.ValueLayout -->
<g id="node2" class="node"><title>java.lang.foreign.ValueLayout</title>
<g id="a_node2"><a xlink:href="../../../java/lang/foreign/ValueLayout.html" xlink:title="java.lang.foreign.ValueLayout">
<text text-anchor="middle" x="459" y="-101.4" font-family="DejaVuSans" font-size="12.00" fill="#e76f00">ValueLayout</text>
</a>
</g>
</g>
<!-- java.lang.foreign.ValueLayout.OfBoolean&#45;&gt;java.lang.foreign.ValueLayout -->
<g id="edge1" class="edge"><title>java.lang.foreign.ValueLayout.OfBoolean&#45;&gt;java.lang.foreign.ValueLayout</title>
<path fill="none" stroke="#999999" stroke-width="2" d="M86.1145,-36.0774C92.0867,-37.8633 98.1709,-39.5622 104,-41 207.66,-66.5694 330.825,-85.8168 401.457,-95.8122"/>
<polygon fill="#999999" stroke="#999999" stroke-width="2" points="411.488,-97.2195 400.96,-100.286 406.467,-97.0199 401.516,-96.3253 401.585,-95.8301 401.655,-95.335 406.606,-96.0296 402.21,-91.3738 411.488,-97.2195 411.488,-97.2195"/>
</g>
<!-- java.lang.foreign.ValueLayout.OfByte -->
<g id="node3" class="node"><title>java.lang.foreign.ValueLayout.OfByte</title>
<g id="a_node3"><a xlink:href="../../../java/lang/foreign/OfByte.html" xlink:title="java.lang.foreign.ValueLayout.OfByte">
<text text-anchor="middle" x="155" y="-17.4" font-family="DejaVuSans" font-size="12.00" fill="#e76f00">OfByte</text>
</a>
</g>
</g>
<!-- java.lang.foreign.ValueLayout.OfByte&#45;&gt;java.lang.foreign.ValueLayout -->
<g id="edge2" class="edge"><title>java.lang.foreign.ValueLayout.OfByte&#45;&gt;java.lang.foreign.ValueLayout</title>
<path fill="none" stroke="#999999" stroke-width="2" d="M187.594,-34.9164C193.347,-37.0819 199.315,-39.2004 205,-41 271.364,-62.0068 349.317,-80.2645 401.189,-91.534"/>
<polygon fill="#999999" stroke="#999999" stroke-width="2" points="411.205,-93.6935 400.481,-95.9847 406.212,-93.1284 401.324,-92.0745 401.43,-91.5858 401.535,-91.097 406.423,-92.1509 402.378,-87.1868 411.205,-93.6935 411.205,-93.6935"/>
</g>
<!-- java.lang.foreign.ValueLayout.OfChar -->
<g id="node4" class="node"><title>java.lang.foreign.ValueLayout.OfChar</title>
<g id="a_node4"><a xlink:href="../../../java/lang/foreign/OfChar.html" xlink:title="java.lang.foreign.ValueLayout.OfChar">
<text text-anchor="middle" x="257" y="-17.4" font-family="DejaVuSans" font-size="12.00" fill="#e76f00">OfChar</text>
</a>
</g>
</g>
<!-- java.lang.foreign.ValueLayout.OfChar&#45;&gt;java.lang.foreign.ValueLayout -->
<g id="edge3" class="edge"><title>java.lang.foreign.ValueLayout.OfChar&#45;&gt;java.lang.foreign.ValueLayout</title>
<path fill="none" stroke="#999999" stroke-width="2" d="M290.81,-35.225C321.122,-47.5296 366.209,-65.8326 402.074,-80.3914"/>
<polygon fill="#999999" stroke="#999999" stroke-width="2" points="411.45,-84.1977 400.492,-84.6059 406.63,-82.7803 401.997,-80.8996 402.185,-80.4364 402.373,-79.9731 407.006,-81.8538 403.877,-76.2668 411.45,-84.1977 411.45,-84.1977"/>
</g>
<!-- java.lang.foreign.ValueLayout.OfShort -->
<g id="node5" class="node"><title>java.lang.foreign.ValueLayout.OfShort</title>
<g id="a_node5"><a xlink:href="../../../java/lang/foreign/OfShort.html" xlink:title="java.lang.foreign.ValueLayout.OfShort">
<text text-anchor="middle" x="361" y="-17.4" font-family="DejaVuSans" font-size="12.00" fill="#e76f00">OfShort</text>
</a>
</g>
</g>
<!-- java.lang.foreign.ValueLayout.OfShort&#45;&gt;java.lang.foreign.ValueLayout -->
<g id="edge4" class="edge"><title>java.lang.foreign.ValueLayout.OfShort&#45;&gt;java.lang.foreign.ValueLayout</title>
<path fill="none" stroke="#999999" stroke-width="2" d="M384.723,-41.3499C397.603,-52.1272 413.692,-65.5894 427.6,-77.2263"/>
<polygon fill="#999999" stroke="#999999" stroke-width="2" points="435.495,-83.8329 424.938,-80.8669 431.34,-81.0077 427.505,-77.7991 427.826,-77.4156 428.147,-77.0322 431.982,-80.2408 430.714,-73.9644 435.495,-83.8329 435.495,-83.8329"/>
</g>
<!-- java.lang.foreign.ValueLayout.OfInt -->
<g id="node6" class="node"><title>java.lang.foreign.ValueLayout.OfInt</title>
<g id="a_node6"><a xlink:href="../../../java/lang/foreign/OfInt.html" xlink:title="java.lang.foreign.ValueLayout.OfInt">
<text text-anchor="middle" x="459" y="-17.4" font-family="DejaVuSans" font-size="12.00" fill="#e76f00">OfInt</text>
</a>
</g>
</g>
<!-- java.lang.foreign.ValueLayout.OfInt&#45;&gt;java.lang.foreign.ValueLayout -->
<g id="edge5" class="edge"><title>java.lang.foreign.ValueLayout.OfInt&#45;&gt;java.lang.foreign.ValueLayout</title>
<path fill="none" stroke="#999999" stroke-width="2" d="M459,-41.3499C459,-51.0192 459,-62.8498 459,-73.5843"/>
<polygon fill="#999999" stroke="#999999" stroke-width="2" points="459,-83.8329 454.5,-73.8328 458.5,-78.8329 458.5,-73.8329 459,-73.8329 459.5,-73.8329 459.5,-78.8329 463.5,-73.8329 459,-83.8329 459,-83.8329"/>
</g>
<!-- java.lang.foreign.ValueLayout.OfFloat -->
<g id="node7" class="node"><title>java.lang.foreign.ValueLayout.OfFloat</title>
<g id="a_node7"><a xlink:href="../../../java/lang/foreign/OfFloat.html" xlink:title="java.lang.foreign.ValueLayout.OfFloat">
<text text-anchor="middle" x="556" y="-17.4" font-family="DejaVuSans" font-size="12.00" fill="#e76f00">OfFloat</text>
</a>
</g>
</g>
<!-- java.lang.foreign.ValueLayout.OfFloat&#45;&gt;java.lang.foreign.ValueLayout -->
<g id="edge6" class="edge"><title>java.lang.foreign.ValueLayout.OfFloat&#45;&gt;java.lang.foreign.ValueLayout</title>
<path fill="none" stroke="#999999" stroke-width="2" d="M532.519,-41.3499C519.77,-52.1272 503.846,-65.5894 490.08,-77.2263"/>
<polygon fill="#999999" stroke="#999999" stroke-width="2" points="482.265,-83.8329 486.996,-73.9404 485.76,-80.2231 489.579,-76.9951 489.902,-77.377 490.224,-77.7588 486.406,-80.9868 492.807,-80.8136 482.265,-83.8329 482.265,-83.8329"/>
</g>
<!-- java.lang.foreign.ValueLayout.OfLong -->
<g id="node8" class="node"><title>java.lang.foreign.ValueLayout.OfLong</title>
<g id="a_node8"><a xlink:href="../../../java/lang/foreign/OfLong.html" xlink:title="java.lang.foreign.ValueLayout.OfLong">
<text text-anchor="middle" x="660" y="-17.4" font-family="DejaVuSans" font-size="12.00" fill="#e76f00">OfLong</text>
</a>
</g>
</g>
<!-- java.lang.foreign.ValueLayout.OfLong&#45;&gt;java.lang.foreign.ValueLayout -->
<g id="edge7" class="edge"><title>java.lang.foreign.ValueLayout.OfLong&#45;&gt;java.lang.foreign.ValueLayout</title>
<path fill="none" stroke="#999999" stroke-width="2" d="M625.903,-35.4102C595.881,-47.6581 551.548,-65.744 516.118,-80.1982"/>
<polygon fill="#999999" stroke="#999999" stroke-width="2" points="506.849,-83.9794 514.409,-76.0354 511.29,-81.6277 515.92,-79.739 516.108,-80.202 516.297,-80.6649 511.668,-82.5536 517.808,-84.3686 506.849,-83.9794 506.849,-83.9794"/>
</g>
<!-- java.lang.foreign.ValueLayout.OfDouble -->
<g id="node9" class="node"><title>java.lang.foreign.ValueLayout.OfDouble</title>
<g id="a_node9"><a xlink:href="../../../java/lang/foreign/OfDouble.html" xlink:title="java.lang.foreign.ValueLayout.OfDouble">
<text text-anchor="middle" x="770" y="-17.4" font-family="DejaVuSans" font-size="12.00" fill="#e76f00">OfDouble</text>
</a>
</g>
</g>
<!-- java.lang.foreign.ValueLayout.OfDouble&#45;&gt;java.lang.foreign.ValueLayout -->
<g id="edge8" class="edge"><title>java.lang.foreign.ValueLayout.OfDouble&#45;&gt;java.lang.foreign.ValueLayout</title>
<path fill="none" stroke="#999999" stroke-width="2" d="M729.885,-35.4624C723.914,-37.4022 717.814,-39.3076 712,-41 645.617,-60.3234 568.336,-78.8475 516.822,-90.6412"/>
<polygon fill="#999999" stroke="#999999" stroke-width="2" points="506.874,-92.9085 515.624,-86.2989 511.638,-91.3099 516.513,-90.1989 516.624,-90.6864 516.735,-91.1739 511.86,-92.2849 517.624,-95.0739 506.874,-92.9085 506.874,-92.9085"/>
</g>
<!-- java.lang.foreign.AddressLayout -->
<g id="node10" class="node"><title>java.lang.foreign.AddressLayout</title>
<g id="a_node10"><a xlink:href="../../../java/lang/foreign/AddressLayout.html" xlink:title="java.lang.foreign.AddressLayout">
<text text-anchor="middle" x="901" y="-17.4" font-family="DejaVuSans" font-size="12.00" fill="#e76f00">AddressLayout</text>
</a>
</g>
</g>
<!-- java.lang.foreign.AddressLayout&#45;&gt;java.lang.foreign.ValueLayout -->
<g id="edge9" class="edge"><title>java.lang.foreign.AddressLayout&#45;&gt;java.lang.foreign.ValueLayout</title>
<path fill="none" stroke="#999999" stroke-width="2" d="M846.127,-36.7456C840.03,-38.264 833.896,-39.7161 828,-41 718.705,-64.7994 589.537,-84.8536 516.649,-95.4371"/>
<polygon fill="#999999" stroke="#999999" stroke-width="2" points="506.746,-96.8671 516,-90.9841 511.623,-95.6576 516.572,-94.9431 516.643,-95.4379 516.715,-95.9328 511.766,-96.6474 517.286,-99.8917 506.746,-96.8671 506.746,-96.8671"/>
</g>
</g>
</svg>
