<?xml version="1.0" encoding="UTF-8" standalone="no"?>
<!DOCTYPE svg PUBLIC "-//W3C//DTD SVG 1.1//EN"
 "http://www.w3.org/Graphics/SVG/1.1/DTD/svg11.dtd">
<!-- Generated by graphviz version 2.38.0 (20140413.2041)
 -->
<!-- Title: G Pages: 1 -->
<svg width="200pt" height="217pt"
 viewBox="0.00 0.00 199.50 217.00" xmlns="http://www.w3.org/2000/svg" xmlns:xlink="http://www.w3.org/1999/xlink">
<g id="graph0" class="graph" transform="scale(1 1) rotate(0) translate(4 213)">
<title>G</title>
<polygon fill="white" stroke="none" points="-4,4 -4,-213 195.5,-213 195.5,4 -4,4"/>
<!-- java.awt.TextArea -->
<g id="node1" class="node"><title>java.awt.TextArea</title>
<g id="a_node1"><a xlink:href="../../java/awt/TextArea.html" xlink:title="java.awt.TextArea">
<text text-anchor="middle" x="153" y="-101.4" font-family="DejaVuSans" font-size="12.00" fill="#e76f00">TextArea</text>
</a>
</g>
</g>
<!-- java.awt.TextComponent -->
<g id="node2" class="node"><title>java.awt.TextComponent</title>
<g id="a_node2"><a xlink:href="../../java/awt/TextComponent.html" xlink:title="java.awt.TextComponent">
<text text-anchor="middle" x="96" y="-185.4" font-family="DejaVuSans" font-size="12.00" fill="#e76f00">TextComponent</text>
</a>
</g>
</g>
<!-- java.awt.TextArea&#45;&gt;java.awt.TextComponent -->
<g id="edge1" class="edge"><title>java.awt.TextArea&#45;&gt;java.awt.TextComponent</title>
<path fill="none" stroke="#999999" stroke-width="2" d="M139.202,-125.35C132.06,-135.624 123.223,-148.337 115.405,-159.583"/>
<polygon fill="#999999" stroke="#999999" stroke-width="2" points="109.671,-167.833 111.684,-157.053 112.114,-163.442 114.968,-159.336 115.379,-159.622 115.789,-159.907 112.935,-164.013 119.074,-162.19 109.671,-167.833 109.671,-167.833"/>
</g>
<!-- open node #0 -->
<g id="node3" class="node"><title>open node #0</title>
<g id="a_node3"><a xlink:title="Non&#45;sealed Hierarchy">
<text text-anchor="start" x="136" y="-18.4" font-family="DejaVuSans" font-style="italic" font-size="12.00" fill="#e76f00">&lt;any&gt;</text>
</a>
</g>
</g>
<!-- open node #0&#45;&gt;java.awt.TextArea -->
<g id="edge2" class="edge"><title>open node #0&#45;&gt;java.awt.TextArea</title>
<path fill="none" stroke="#999999" stroke-width="2" stroke-dasharray="5,2" d="M153,-41.3499C153,-51.0192 153,-62.8498 153,-73.5843"/>
<polygon fill="#999999" stroke="#999999" stroke-width="2" points="153,-83.8329 148.5,-73.8328 152.5,-78.8329 152.5,-73.8329 153,-73.8329 153.5,-73.8329 153.5,-78.8329 157.5,-73.8329 153,-83.8329 153,-83.8329"/>
</g>
<!-- java.awt.TextField -->
<g id="node4" class="node"><title>java.awt.TextField</title>
<g id="a_node4"><a xlink:href="../../java/awt/TextField.html" xlink:title="java.awt.TextField">
<text text-anchor="middle" x="39" y="-101.4" font-family="DejaVuSans" font-size="12.00" fill="#e76f00">TextField</text>
</a>
</g>
</g>
<!-- java.awt.TextField&#45;&gt;java.awt.TextComponent -->
<g id="edge3" class="edge"><title>java.awt.TextField&#45;&gt;java.awt.TextComponent</title>
<path fill="none" stroke="#999999" stroke-width="2" d="M52.7981,-125.35C59.9396,-135.624 68.777,-148.337 76.5946,-159.583"/>
<polygon fill="#999999" stroke="#999999" stroke-width="2" points="82.329,-167.833 72.9262,-162.19 79.0645,-164.013 76.2106,-159.907 76.6212,-159.622 77.0318,-159.336 79.8856,-163.442 80.3162,-157.053 82.329,-167.833 82.329,-167.833"/>
</g>
<!-- open node #1 -->
<g id="node5" class="node"><title>open node #1</title>
<g id="a_node5"><a xlink:title="Non&#45;sealed Hierarchy">
<text text-anchor="start" x="22" y="-18.4" font-family="DejaVuSans" font-style="italic" font-size="12.00" fill="#e76f00">&lt;any&gt;</text>
</a>
</g>
</g>
<!-- open node #1&#45;&gt;java.awt.TextField -->
<g id="edge4" class="edge"><title>open node #1&#45;&gt;java.awt.TextField</title>
<path fill="none" stroke="#999999" stroke-width="2" stroke-dasharray="5,2" d="M39,-41.3499C39,-51.0192 39,-62.8498 39,-73.5843"/>
<polygon fill="#999999" stroke="#999999" stroke-width="2" points="39,-83.8329 34.5001,-73.8328 38.5,-78.8329 38.5001,-73.8329 39.0001,-73.8329 39.5001,-73.8329 39.5,-78.8329 43.5001,-73.8329 39,-83.8329 39,-83.8329"/>
</g>
</g>
</svg>
