<?xml version="1.0" encoding="UTF-8" standalone="no"?>
<!DOCTYPE svg PUBLIC "-//W3C//DTD SVG 1.1//EN"
 "http://www.w3.org/Graphics/SVG/1.1/DTD/svg11.dtd">
<!-- Generated by graphviz version 2.38.0 (20140413.2041)
 -->
<!-- Title: G Pages: 1 -->
<svg width="1555pt" height="133pt"
 viewBox="0.00 0.00 1555.00 133.00" xmlns="http://www.w3.org/2000/svg" xmlns:xlink="http://www.w3.org/1999/xlink">
<g id="graph0" class="graph" transform="scale(1 1) rotate(0) translate(4 129)">
<title>G</title>
<polygon fill="white" stroke="none" points="-4,4 -4,-129 1551,-129 1551,4 -4,4"/>
<!-- java.lang.classfile.TypeAnnotation.TypeParameterTarget -->
<g id="node1" class="node"><title>java.lang.classfile.TypeAnnotation.TypeParameterTarget</title>
<g id="a_node1"><a xlink:href="../../../java/lang/classfile/TypeAnnotation.TypeParameterTarget.html" xlink:title="java.lang.classfile.TypeAnnotation.TypeParameterTarget">
<text text-anchor="middle" x="71.5" y="-17.4" font-family="DejaVuSans" font-size="12.00" fill="#e76f00">TypeParameterTarget</text>
</a>
</g>
</g>
<!-- java.lang.classfile.TypeAnnotation.TargetInfo -->
<g id="node2" class="node"><title>java.lang.classfile.TypeAnnotation.TargetInfo</title>
<g id="a_node2"><a xlink:href="../../../java/lang/classfile/TypeAnnotation.TargetInfo.html" xlink:title="java.lang.classfile.TypeAnnotation.TargetInfo">
<text text-anchor="middle" x="836.5" y="-101.4" font-family="DejaVuSans" font-size="12.00" fill="#e76f00">TargetInfo</text>
</a>
</g>
</g>
<!-- java.lang.classfile.TypeAnnotation.TypeParameterTarget&#45;&gt;java.lang.classfile.TypeAnnotation.TargetInfo -->
<g id="edge1" class="edge"><title>java.lang.classfile.TypeAnnotation.TypeParameterTarget&#45;&gt;java.lang.classfile.TypeAnnotation.TargetInfo</title>
<path fill="none" stroke="#999999" stroke-width="2" d="M143.077,-37.8263C149.291,-38.995 155.496,-40.075 161.5,-41 393.294,-76.7081 673.238,-94.6958 785.911,-100.914"/>
<polygon fill="#999999" stroke="#999999" stroke-width="2" points="795.967,-101.462 785.737,-105.411 790.948,-101.689 785.955,-101.417 785.982,-100.918 786.01,-100.418 791.002,-100.691 786.227,-96.4243 795.967,-101.462 795.967,-101.462"/>
</g>
<!-- java.lang.classfile.TypeAnnotation.SupertypeTarget -->
<g id="node3" class="node"><title>java.lang.classfile.TypeAnnotation.SupertypeTarget</title>
<g id="a_node3"><a xlink:href="../../../java/lang/classfile/TypeAnnotation.SupertypeTarget.html" xlink:title="java.lang.classfile.TypeAnnotation.SupertypeTarget">
<text text-anchor="middle" x="237.5" y="-17.4" font-family="DejaVuSans" font-size="12.00" fill="#e76f00">SupertypeTarget</text>
</a>
</g>
</g>
<!-- java.lang.classfile.TypeAnnotation.SupertypeTarget&#45;&gt;java.lang.classfile.TypeAnnotation.TargetInfo -->
<g id="edge2" class="edge"><title>java.lang.classfile.TypeAnnotation.SupertypeTarget&#45;&gt;java.lang.classfile.TypeAnnotation.TargetInfo</title>
<path fill="none" stroke="#999999" stroke-width="2" d="M295.831,-37.2961C301.775,-38.6564 307.743,-39.9223 313.5,-41 485.255,-73.1511 691.998,-92.1275 785.802,-99.684"/>
<polygon fill="#999999" stroke="#999999" stroke-width="2" points="795.867,-100.486 785.542,-104.177 790.843,-100.587 785.859,-100.19 785.899,-99.6916 785.939,-99.1932 790.923,-99.5902 786.256,-95.2058 795.867,-100.486 795.867,-100.486"/>
</g>
<!-- java.lang.classfile.TypeAnnotation.TypeParameterBoundTarget -->
<g id="node4" class="node"><title>java.lang.classfile.TypeAnnotation.TypeParameterBoundTarget</title>
<g id="a_node4"><a xlink:href="../../../java/lang/classfile/TypeAnnotation.TypeParameterBoundTarget.html" xlink:title="java.lang.classfile.TypeAnnotation.TypeParameterBoundTarget">
<text text-anchor="middle" x="420.5" y="-17.4" font-family="DejaVuSans" font-size="12.00" fill="#e76f00">TypeParameterBoundTarget</text>
</a>
</g>
</g>
<!-- java.lang.classfile.TypeAnnotation.TypeParameterBoundTarget&#45;&gt;java.lang.classfile.TypeAnnotation.TargetInfo -->
<g id="edge3" class="edge"><title>java.lang.classfile.TypeAnnotation.TypeParameterBoundTarget&#45;&gt;java.lang.classfile.TypeAnnotation.TargetInfo</title>
<path fill="none" stroke="#999999" stroke-width="2" d="M509.742,-39.0911C593.99,-55.6975 717.327,-80.0092 785.85,-93.5162"/>
<polygon fill="#999999" stroke="#999999" stroke-width="2" points="795.957,-95.5084 785.276,-97.9894 790.955,-95.0319 786.049,-94.0649 786.146,-93.5744 786.243,-93.0838 791.148,-94.0508 787.016,-89.1593 795.957,-95.5084 795.957,-95.5084"/>
</g>
<!-- java.lang.classfile.TypeAnnotation.EmptyTarget -->
<g id="node5" class="node"><title>java.lang.classfile.TypeAnnotation.EmptyTarget</title>
<g id="a_node5"><a xlink:href="../../../java/lang/classfile/TypeAnnotation.EmptyTarget.html" xlink:title="java.lang.classfile.TypeAnnotation.EmptyTarget">
<text text-anchor="middle" x="593.5" y="-17.4" font-family="DejaVuSans" font-size="12.00" fill="#e76f00">EmptyTarget</text>
</a>
</g>
</g>
<!-- java.lang.classfile.TypeAnnotation.EmptyTarget&#45;&gt;java.lang.classfile.TypeAnnotation.TargetInfo -->
<g id="edge4" class="edge"><title>java.lang.classfile.TypeAnnotation.EmptyTarget&#45;&gt;java.lang.classfile.TypeAnnotation.TargetInfo</title>
<path fill="none" stroke="#999999" stroke-width="2" d="M641.219,-37.6027C683.022,-51.7091 743.579,-72.1438 786.147,-86.5083"/>
<polygon fill="#999999" stroke="#999999" stroke-width="2" points="795.749,-89.7487 784.835,-90.8151 790.852,-88.6237 786.114,-87.025 786.274,-86.5513 786.434,-86.0775 791.171,-87.6762 787.713,-82.2875 795.749,-89.7487 795.749,-89.7487"/>
</g>
<!-- java.lang.classfile.TypeAnnotation.FormalParameterTarget -->
<g id="node6" class="node"><title>java.lang.classfile.TypeAnnotation.FormalParameterTarget</title>
<g id="a_node6"><a xlink:href="../../../java/lang/classfile/TypeAnnotation.FormalParameterTarget.html" xlink:title="java.lang.classfile.TypeAnnotation.FormalParameterTarget">
<text text-anchor="middle" x="754.5" y="-17.4" font-family="DejaVuSans" font-size="12.00" fill="#e76f00">FormalParameterTarget</text>
</a>
</g>
</g>
<!-- java.lang.classfile.TypeAnnotation.FormalParameterTarget&#45;&gt;java.lang.classfile.TypeAnnotation.TargetInfo -->
<g id="edge5" class="edge"><title>java.lang.classfile.TypeAnnotation.FormalParameterTarget&#45;&gt;java.lang.classfile.TypeAnnotation.TargetInfo</title>
<path fill="none" stroke="#999999" stroke-width="2" d="M774.35,-41.3499C784.926,-51.9257 798.087,-65.087 809.572,-76.5718"/>
<polygon fill="#999999" stroke="#999999" stroke-width="2" points="816.833,-83.8329 806.58,-79.9438 812.944,-80.6509 809.408,-77.1153 809.762,-76.7618 810.115,-76.4082 813.651,-79.9438 812.944,-73.5798 816.833,-83.8329 816.833,-83.8329"/>
</g>
<!-- java.lang.classfile.TypeAnnotation.ThrowsTarget -->
<g id="node7" class="node"><title>java.lang.classfile.TypeAnnotation.ThrowsTarget</title>
<g id="a_node7"><a xlink:href="../../../java/lang/classfile/TypeAnnotation.ThrowsTarget.html" xlink:title="java.lang.classfile.TypeAnnotation.ThrowsTarget">
<text text-anchor="middle" x="918.5" y="-17.4" font-family="DejaVuSans" font-size="12.00" fill="#e76f00">ThrowsTarget</text>
</a>
</g>
</g>
<!-- java.lang.classfile.TypeAnnotation.ThrowsTarget&#45;&gt;java.lang.classfile.TypeAnnotation.TargetInfo -->
<g id="edge6" class="edge"><title>java.lang.classfile.TypeAnnotation.ThrowsTarget&#45;&gt;java.lang.classfile.TypeAnnotation.TargetInfo</title>
<path fill="none" stroke="#999999" stroke-width="2" d="M898.65,-41.3499C888.074,-51.9257 874.913,-65.087 863.428,-76.5718"/>
<polygon fill="#999999" stroke="#999999" stroke-width="2" points="856.167,-83.8329 860.056,-73.5798 859.349,-79.9438 862.885,-76.4082 863.238,-76.7618 863.592,-77.1153 860.056,-80.6509 866.42,-79.9438 856.167,-83.8329 856.167,-83.8329"/>
</g>
<!-- java.lang.classfile.TypeAnnotation.LocalVarTarget -->
<g id="node8" class="node"><title>java.lang.classfile.TypeAnnotation.LocalVarTarget</title>
<g id="a_node8"><a xlink:href="../../../java/lang/classfile/TypeAnnotation.LocalVarTarget.html" xlink:title="java.lang.classfile.TypeAnnotation.LocalVarTarget">
<text text-anchor="middle" x="1059.5" y="-17.4" font-family="DejaVuSans" font-size="12.00" fill="#e76f00">LocalVarTarget</text>
</a>
</g>
</g>
<!-- java.lang.classfile.TypeAnnotation.LocalVarTarget&#45;&gt;java.lang.classfile.TypeAnnotation.TargetInfo -->
<g id="edge7" class="edge"><title>java.lang.classfile.TypeAnnotation.LocalVarTarget&#45;&gt;java.lang.classfile.TypeAnnotation.TargetInfo</title>
<path fill="none" stroke="#999999" stroke-width="2" d="M1006.37,-41.0369C970.101,-54.3733 922.358,-71.9291 886.725,-85.0318"/>
<polygon fill="#999999" stroke="#999999" stroke-width="2" points="877.015,-88.6021 884.847,-80.9274 881.535,-86.4072 886.228,-84.6816 886.401,-85.1509 886.573,-85.6201 881.88,-87.3458 887.954,-89.3744 877.015,-88.6021 877.015,-88.6021"/>
</g>
<!-- java.lang.classfile.TypeAnnotation.CatchTarget -->
<g id="node9" class="node"><title>java.lang.classfile.TypeAnnotation.CatchTarget</title>
<g id="a_node9"><a xlink:href="../../../java/lang/classfile/TypeAnnotation.CatchTarget.html" xlink:title="java.lang.classfile.TypeAnnotation.CatchTarget">
<text text-anchor="middle" x="1196.5" y="-17.4" font-family="DejaVuSans" font-size="12.00" fill="#e76f00">CatchTarget</text>
</a>
</g>
</g>
<!-- java.lang.classfile.TypeAnnotation.CatchTarget&#45;&gt;java.lang.classfile.TypeAnnotation.TargetInfo -->
<g id="edge8" class="edge"><title>java.lang.classfile.TypeAnnotation.CatchTarget&#45;&gt;java.lang.classfile.TypeAnnotation.TargetInfo</title>
<path fill="none" stroke="#999999" stroke-width="2" d="M1149.8,-36.2468C1143.99,-37.9263 1138.12,-39.5523 1132.5,-41 1047.15,-62.9673 946.524,-82.9883 887.31,-94.1771"/>
<polygon fill="#999999" stroke="#999999" stroke-width="2" points="877.46,-96.0289 886.457,-89.7586 882.282,-94.6136 887.196,-93.6898 887.288,-94.1811 887.381,-94.6725 882.467,-95.5964 888.12,-98.6037 877.46,-96.0289 877.46,-96.0289"/>
</g>
<!-- java.lang.classfile.TypeAnnotation.OffsetTarget -->
<g id="node10" class="node"><title>java.lang.classfile.TypeAnnotation.OffsetTarget</title>
<g id="a_node10"><a xlink:href="../../../java/lang/classfile/TypeAnnotation.OffsetTarget.html" xlink:title="java.lang.classfile.TypeAnnotation.OffsetTarget">
<text text-anchor="middle" x="1325.5" y="-17.4" font-family="DejaVuSans" font-size="12.00" fill="#e76f00">OffsetTarget</text>
</a>
</g>
</g>
<!-- java.lang.classfile.TypeAnnotation.OffsetTarget&#45;&gt;java.lang.classfile.TypeAnnotation.TargetInfo -->
<g id="edge9" class="edge"><title>java.lang.classfile.TypeAnnotation.OffsetTarget&#45;&gt;java.lang.classfile.TypeAnnotation.TargetInfo</title>
<path fill="none" stroke="#999999" stroke-width="2" d="M1278.88,-36.5872C1273.06,-38.2083 1267.17,-39.7276 1261.5,-41 1127.97,-70.9845 967.487,-90.097 887.311,-98.5167"/>
<polygon fill="#999999" stroke="#999999" stroke-width="2" points="877.007,-99.5861 886.489,-94.0777 881.929,-98.5726 886.902,-98.0564 886.954,-98.5537 887.005,-99.051 882.032,-99.5672 887.418,-103.03 877.007,-99.5861 877.007,-99.5861"/>
</g>
<!-- java.lang.classfile.TypeAnnotation.TypeArgumentTarget -->
<g id="node11" class="node"><title>java.lang.classfile.TypeAnnotation.TypeArgumentTarget</title>
<g id="a_node11"><a xlink:href="../../../java/lang/classfile/TypeAnnotation.TypeArgumentTarget.html" xlink:title="java.lang.classfile.TypeAnnotation.TypeArgumentTarget">
<text text-anchor="middle" x="1477.5" y="-17.4" font-family="DejaVuSans" font-size="12.00" fill="#e76f00">TypeArgumentTarget</text>
</a>
</g>
</g>
<!-- java.lang.classfile.TypeAnnotation.TypeArgumentTarget&#45;&gt;java.lang.classfile.TypeAnnotation.TargetInfo -->
<g id="edge10" class="edge"><title>java.lang.classfile.TypeAnnotation.TypeArgumentTarget&#45;&gt;java.lang.classfile.TypeAnnotation.TargetInfo</title>
<path fill="none" stroke="#999999" stroke-width="2" d="M1407.83,-37.8128C1401.98,-38.9695 1396.15,-40.0513 1390.5,-41 1206.3,-71.9395 985.019,-91.7475 887.217,-99.626"/>
<polygon fill="#999999" stroke="#999999" stroke-width="2" points="877.026,-100.44 886.636,-95.1579 881.97,-99.5432 886.954,-99.1453 886.994,-99.6437 887.034,-100.142 882.05,-100.54 887.352,-104.129 877.026,-100.44 877.026,-100.44"/>
</g>
</g>
</svg>
