<?xml version="1.0" encoding="UTF-8" standalone="no"?>
<!DOCTYPE svg PUBLIC "-//W3C//DTD SVG 1.1//EN"
 "http://www.w3.org/Graphics/SVG/1.1/DTD/svg11.dtd">
<!-- Generated by graphviz version 2.38.0 (20140413.2041)
 -->
<!-- Title: G Pages: 1 -->
<svg width="1651pt" height="217pt"
 viewBox="0.00 0.00 1650.50 217.00" xmlns="http://www.w3.org/2000/svg" xmlns:xlink="http://www.w3.org/1999/xlink">
<g id="graph0" class="graph" transform="scale(1 1) rotate(0) translate(4 213)">
<title>G</title>
<polygon fill="white" stroke="none" points="-4,4 -4,-213 1646.5,-213 1646.5,4 -4,4"/>
<!-- java.awt.desktop.AboutEvent -->
<g id="node1" class="node"><title>java.awt.desktop.AboutEvent</title>
<g id="a_node1"><a xlink:href="../../../java/awt/desktop/AboutEvent.html" xlink:title="java.awt.desktop.AboutEvent">
<text text-anchor="middle" x="45.5" y="-101.4" font-family="DejaVuSans" font-size="12.00" fill="#e76f00">AboutEvent</text>
</a>
</g>
</g>
<!-- java.awt.desktop.AppEvent -->
<g id="node2" class="node"><title>java.awt.desktop.AppEvent</title>
<g id="a_node2"><a xlink:href="../../../java/awt/desktop/AppEvent.html" xlink:title="java.awt.desktop.AppEvent">
<text text-anchor="middle" x="813.5" y="-185.4" font-family="DejaVuSans" font-size="12.00" fill="#e76f00">AppEvent</text>
</a>
</g>
</g>
<!-- java.awt.desktop.AboutEvent&#45;&gt;java.awt.desktop.AppEvent -->
<g id="edge1" class="edge"><title>java.awt.desktop.AboutEvent&#45;&gt;java.awt.desktop.AppEvent</title>
<path fill="none" stroke="#999999" stroke-width="2" d="M91.3176,-120.912C97.0569,-122.477 102.883,-123.895 108.5,-125 350.463,-172.613 646.333,-183.985 762.882,-186.676"/>
<polygon fill="#999999" stroke="#999999" stroke-width="2" points="772.938,-186.897 762.842,-191.176 767.928,-187.287 762.929,-187.177 762.94,-186.677 762.951,-186.177 767.95,-186.287 763.039,-182.178 772.938,-186.897 772.938,-186.897"/>
</g>
<!-- java.awt.desktop.AppForegroundEvent -->
<g id="node3" class="node"><title>java.awt.desktop.AppForegroundEvent</title>
<g id="a_node3"><a xlink:href="../../../java/awt/desktop/AppForegroundEvent.html" xlink:title="java.awt.desktop.AppForegroundEvent">
<text text-anchor="middle" x="198.5" y="-101.4" font-family="DejaVuSans" font-size="12.00" fill="#e76f00">AppForegroundEvent</text>
</a>
</g>
</g>
<!-- java.awt.desktop.AppForegroundEvent&#45;&gt;java.awt.desktop.AppEvent -->
<g id="edge2" class="edge"><title>java.awt.desktop.AppForegroundEvent&#45;&gt;java.awt.desktop.AppEvent</title>
<path fill="none" stroke="#999999" stroke-width="2" d="M270.105,-121.656C276.312,-122.861 282.508,-123.997 288.5,-125 461.488,-153.97 668.738,-174.514 762.719,-183.07"/>
<polygon fill="#999999" stroke="#999999" stroke-width="2" points="772.803,-183.982 762.439,-187.563 767.779,-184.03 762.799,-183.58 762.844,-183.082 762.889,-182.584 767.869,-183.034 763.249,-178.6 772.803,-183.982 772.803,-183.982"/>
</g>
<!-- java.awt.desktop.AppHiddenEvent -->
<g id="node4" class="node"><title>java.awt.desktop.AppHiddenEvent</title>
<g id="a_node4"><a xlink:href="../../../java/awt/desktop/AppHiddenEvent.html" xlink:title="java.awt.desktop.AppHiddenEvent">
<text text-anchor="middle" x="366.5" y="-101.4" font-family="DejaVuSans" font-size="12.00" fill="#e76f00">AppHiddenEvent</text>
</a>
</g>
</g>
<!-- java.awt.desktop.AppHiddenEvent&#45;&gt;java.awt.desktop.AppEvent -->
<g id="edge3" class="edge"><title>java.awt.desktop.AppHiddenEvent&#45;&gt;java.awt.desktop.AppEvent</title>
<path fill="none" stroke="#999999" stroke-width="2" d="M426.861,-121.079C432.807,-122.467 438.762,-123.799 444.5,-125 557.547,-148.668 691.513,-169.601 762.843,-180.187"/>
<polygon fill="#999999" stroke="#999999" stroke-width="2" points="772.902,-181.672 762.352,-184.663 767.883,-181.436 762.936,-180.706 763.009,-180.211 763.083,-179.716 768.029,-180.447 763.667,-175.759 772.902,-181.672 772.902,-181.672"/>
</g>
<!-- java.awt.desktop.AppReopenedEvent -->
<g id="node5" class="node"><title>java.awt.desktop.AppReopenedEvent</title>
<g id="a_node5"><a xlink:href="../../../java/awt/desktop/AppReopenedEvent.html" xlink:title="java.awt.desktop.AppReopenedEvent">
<text text-anchor="middle" x="531.5" y="-101.4" font-family="DejaVuSans" font-size="12.00" fill="#e76f00">AppReopenedEvent</text>
</a>
</g>
</g>
<!-- java.awt.desktop.AppReopenedEvent&#45;&gt;java.awt.desktop.AppEvent -->
<g id="edge4" class="edge"><title>java.awt.desktop.AppReopenedEvent&#45;&gt;java.awt.desktop.AppEvent</title>
<path fill="none" stroke="#999999" stroke-width="2" d="M598.688,-125.037C649.228,-139.733 717.389,-159.553 763.261,-172.892"/>
<polygon fill="#999999" stroke="#999999" stroke-width="2" points="772.983,-175.719 762.124,-177.247 768.042,-174.803 763.241,-173.406 763.381,-172.926 763.52,-172.446 768.322,-173.842 764.637,-168.605 772.983,-175.719 772.983,-175.719"/>
</g>
<!-- java.awt.desktop.FilesEvent -->
<g id="node6" class="node"><title>java.awt.desktop.FilesEvent</title>
<g id="a_node6"><a xlink:href="../../../java/awt/desktop/FilesEvent.html" xlink:title="java.awt.desktop.FilesEvent">
<text text-anchor="middle" x="679.5" y="-101.4" font-family="DejaVuSans" font-size="12.00" fill="#e76f00">FilesEvent</text>
</a>
</g>
</g>
<!-- java.awt.desktop.FilesEvent&#45;&gt;java.awt.desktop.AppEvent -->
<g id="edge5" class="edge"><title>java.awt.desktop.FilesEvent&#45;&gt;java.awt.desktop.AppEvent</title>
<path fill="none" stroke="#999999" stroke-width="2" d="M711.596,-125.141C729.859,-136.317 752.923,-150.431 772.488,-162.403"/>
<polygon fill="#999999" stroke="#999999" stroke-width="2" points="781.201,-167.735 770.323,-166.354 776.675,-165.552 772.41,-162.942 772.671,-162.515 772.932,-162.089 777.197,-164.699 775.02,-158.677 781.201,-167.735 781.201,-167.735"/>
</g>
<!-- java.awt.desktop.OpenFilesEvent -->
<g id="node7" class="node"><title>java.awt.desktop.OpenFilesEvent</title>
<g id="a_node7"><a xlink:href="../../../java/awt/desktop/OpenFilesEvent.html" xlink:title="java.awt.desktop.OpenFilesEvent">
<text text-anchor="middle" x="605.5" y="-17.4" font-family="DejaVuSans" font-size="12.00" fill="#e76f00">OpenFilesEvent</text>
</a>
</g>
</g>
<!-- java.awt.desktop.OpenFilesEvent&#45;&gt;java.awt.desktop.FilesEvent -->
<g id="edge6" class="edge"><title>java.awt.desktop.OpenFilesEvent&#45;&gt;java.awt.desktop.FilesEvent</title>
<path fill="none" stroke="#999999" stroke-width="2" d="M623.413,-41.3499C632.866,-51.825 644.609,-64.8366 654.902,-76.2433"/>
<polygon fill="#999999" stroke="#999999" stroke-width="2" points="661.752,-83.8329 651.711,-79.4238 658.031,-80.4559 654.681,-76.7439 655.052,-76.4089 655.423,-76.0739 658.773,-79.7859 658.393,-73.3941 661.752,-83.8329 661.752,-83.8329"/>
</g>
<!-- java.awt.desktop.PrintFilesEvent -->
<g id="node8" class="node"><title>java.awt.desktop.PrintFilesEvent</title>
<g id="a_node8"><a xlink:href="../../../java/awt/desktop/PrintFilesEvent.html" xlink:title="java.awt.desktop.PrintFilesEvent">
<text text-anchor="middle" x="754.5" y="-17.4" font-family="DejaVuSans" font-size="12.00" fill="#e76f00">PrintFilesEvent</text>
</a>
</g>
</g>
<!-- java.awt.desktop.PrintFilesEvent&#45;&gt;java.awt.desktop.FilesEvent -->
<g id="edge7" class="edge"><title>java.awt.desktop.PrintFilesEvent&#45;&gt;java.awt.desktop.FilesEvent</title>
<path fill="none" stroke="#999999" stroke-width="2" d="M736.345,-41.3499C726.764,-51.825 714.863,-64.8366 704.43,-76.2433"/>
<polygon fill="#999999" stroke="#999999" stroke-width="2" points="697.488,-83.8329 700.917,-73.4167 700.494,-79.8059 703.868,-76.1164 704.237,-76.4539 704.606,-76.7913 701.232,-80.4808 707.558,-79.491 697.488,-83.8329 697.488,-83.8329"/>
</g>
<!-- java.awt.desktop.OpenURIEvent -->
<g id="node9" class="node"><title>java.awt.desktop.OpenURIEvent</title>
<g id="a_node9"><a xlink:href="../../../java/awt/desktop/OpenURIEvent.html" xlink:title="java.awt.desktop.OpenURIEvent">
<text text-anchor="middle" x="813.5" y="-101.4" font-family="DejaVuSans" font-size="12.00" fill="#e76f00">OpenURIEvent</text>
</a>
</g>
</g>
<!-- java.awt.desktop.OpenURIEvent&#45;&gt;java.awt.desktop.AppEvent -->
<g id="edge8" class="edge"><title>java.awt.desktop.OpenURIEvent&#45;&gt;java.awt.desktop.AppEvent</title>
<path fill="none" stroke="#999999" stroke-width="2" d="M813.5,-125.35C813.5,-135.019 813.5,-146.85 813.5,-157.584"/>
<polygon fill="#999999" stroke="#999999" stroke-width="2" points="813.5,-167.833 809,-157.833 813,-162.833 813,-157.833 813.5,-157.833 814,-157.833 814,-162.833 818,-157.833 813.5,-167.833 813.5,-167.833"/>
</g>
<!-- java.awt.desktop.PreferencesEvent -->
<g id="node10" class="node"><title>java.awt.desktop.PreferencesEvent</title>
<g id="a_node10"><a xlink:href="../../../java/awt/desktop/PreferencesEvent.html" xlink:title="java.awt.desktop.PreferencesEvent">
<text text-anchor="middle" x="966.5" y="-101.4" font-family="DejaVuSans" font-size="12.00" fill="#e76f00">PreferencesEvent</text>
</a>
</g>
</g>
<!-- java.awt.desktop.PreferencesEvent&#45;&gt;java.awt.desktop.AppEvent -->
<g id="edge9" class="edge"><title>java.awt.desktop.PreferencesEvent&#45;&gt;java.awt.desktop.AppEvent</title>
<path fill="none" stroke="#999999" stroke-width="2" d="M929.853,-125.141C908.641,-136.51 881.757,-150.918 859.176,-163.02"/>
<polygon fill="#999999" stroke="#999999" stroke-width="2" points="850.113,-167.877 856.801,-159.187 854.284,-165.075 858.691,-162.713 858.927,-163.153 859.163,-163.594 854.756,-165.956 861.053,-167.12 850.113,-167.877 850.113,-167.877"/>
</g>
<!-- java.awt.desktop.QuitEvent -->
<g id="node11" class="node"><title>java.awt.desktop.QuitEvent</title>
<g id="a_node11"><a xlink:href="../../../java/awt/desktop/QuitEvent.html" xlink:title="java.awt.desktop.QuitEvent">
<text text-anchor="middle" x="1105.5" y="-101.4" font-family="DejaVuSans" font-size="12.00" fill="#e76f00">QuitEvent</text>
</a>
</g>
</g>
<!-- java.awt.desktop.QuitEvent&#45;&gt;java.awt.desktop.AppEvent -->
<g id="edge10" class="edge"><title>java.awt.desktop.QuitEvent&#45;&gt;java.awt.desktop.AppEvent</title>
<path fill="none" stroke="#999999" stroke-width="2" d="M1064.97,-119.233C1058.8,-121.225 1052.49,-123.207 1046.5,-125 983.941,-143.712 911.16,-162.814 863.811,-174.89"/>
<polygon fill="#999999" stroke="#999999" stroke-width="2" points="854.107,-177.358 862.689,-170.532 858.829,-175.641 863.675,-174.409 863.798,-174.893 863.921,-175.378 859.076,-176.61 864.907,-179.255 854.107,-177.358 854.107,-177.358"/>
</g>
<!-- java.awt.desktop.ScreenSleepEvent -->
<g id="node12" class="node"><title>java.awt.desktop.ScreenSleepEvent</title>
<g id="a_node12"><a xlink:href="../../../java/awt/desktop/ScreenSleepEvent.html" xlink:title="java.awt.desktop.ScreenSleepEvent">
<text text-anchor="middle" x="1246.5" y="-101.4" font-family="DejaVuSans" font-size="12.00" fill="#e76f00">ScreenSleepEvent</text>
</a>
</g>
</g>
<!-- java.awt.desktop.ScreenSleepEvent&#45;&gt;java.awt.desktop.AppEvent -->
<g id="edge11" class="edge"><title>java.awt.desktop.ScreenSleepEvent&#45;&gt;java.awt.desktop.AppEvent</title>
<path fill="none" stroke="#999999" stroke-width="2" d="M1181.78,-121.061C1175.61,-122.437 1169.44,-123.772 1163.5,-125 1057.42,-146.916 932.303,-168.155 864.1,-179.346"/>
<polygon fill="#999999" stroke="#999999" stroke-width="2" points="854.056,-180.989 863.199,-174.934 858.91,-179.689 863.845,-178.881 863.925,-179.375 864.006,-179.868 859.072,-180.676 864.652,-183.816 854.056,-180.989 854.056,-180.989"/>
</g>
<!-- java.awt.desktop.SystemSleepEvent -->
<g id="node13" class="node"><title>java.awt.desktop.SystemSleepEvent</title>
<g id="a_node13"><a xlink:href="../../../java/awt/desktop/SystemSleepEvent.html" xlink:title="java.awt.desktop.SystemSleepEvent">
<text text-anchor="middle" x="1412.5" y="-101.4" font-family="DejaVuSans" font-size="12.00" fill="#e76f00">SystemSleepEvent</text>
</a>
</g>
</g>
<!-- java.awt.desktop.SystemSleepEvent&#45;&gt;java.awt.desktop.AppEvent -->
<g id="edge12" class="edge"><title>java.awt.desktop.SystemSleepEvent&#45;&gt;java.awt.desktop.AppEvent</title>
<path fill="none" stroke="#999999" stroke-width="2" d="M1346.61,-121.501C1340.5,-122.77 1334.4,-123.961 1328.5,-125 1159.61,-154.763 957.043,-174.828 864.334,-183.156"/>
<polygon fill="#999999" stroke="#999999" stroke-width="2" points="854.113,-184.066 863.674,-178.696 859.049,-183.124 864.029,-182.681 864.074,-183.179 864.118,-183.677 859.138,-184.12 864.473,-187.661 854.113,-184.066 854.113,-184.066"/>
</g>
<!-- java.awt.desktop.UserSessionEvent -->
<g id="node14" class="node"><title>java.awt.desktop.UserSessionEvent</title>
<g id="a_node14"><a xlink:href="../../../java/awt/desktop/UserSessionEvent.html" xlink:title="java.awt.desktop.UserSessionEvent">
<text text-anchor="middle" x="1578.5" y="-101.4" font-family="DejaVuSans" font-size="12.00" fill="#e76f00">UserSessionEvent</text>
</a>
</g>
</g>
<!-- java.awt.desktop.UserSessionEvent&#45;&gt;java.awt.desktop.AppEvent -->
<g id="edge13" class="edge"><title>java.awt.desktop.UserSessionEvent&#45;&gt;java.awt.desktop.AppEvent</title>
<path fill="none" stroke="#999999" stroke-width="2" d="M1514.22,-121.7C1508.25,-122.927 1502.28,-124.054 1496.5,-125 1262.05,-163.403 978.175,-179.91 864.329,-185.324"/>
<polygon fill="#999999" stroke="#999999" stroke-width="2" points="854.17,-185.799 863.949,-180.836 859.141,-185.066 864.136,-184.832 864.159,-185.332 864.183,-185.831 859.188,-186.065 864.37,-189.827 854.17,-185.799 854.17,-185.799"/>
</g>
</g>
</svg>
