<?xml version="1.0" encoding="UTF-8" standalone="no"?>
<!DOCTYPE svg PUBLIC "-//W3C//DTD SVG 1.1//EN"
 "http://www.w3.org/Graphics/SVG/1.1/DTD/svg11.dtd">
<!-- Generated by graphviz version 2.38.0 (20140413.2041)
 -->
<!-- Title: G Pages: 1 -->
<svg width="270pt" height="133pt"
 viewBox="0.00 0.00 269.50 133.00" xmlns="http://www.w3.org/2000/svg" xmlns:xlink="http://www.w3.org/1999/xlink">
<g id="graph0" class="graph" transform="scale(1 1) rotate(0) translate(4 129)">
<title>G</title>
<polygon fill="white" stroke="none" points="-4,4 -4,-129 265.5,-129 265.5,4 -4,4"/>
<!-- java.awt.desktop.OpenFilesEvent -->
<g id="node1" class="node"><title>java.awt.desktop.OpenFilesEvent</title>
<g id="a_node1"><a xlink:href="../../../java/awt/desktop/OpenFilesEvent.html" xlink:title="java.awt.desktop.OpenFilesEvent">
<text text-anchor="middle" x="57.5" y="-17.4" font-family="DejaVuSans" font-size="12.00" fill="#e76f00">OpenFilesEvent</text>
</a>
</g>
</g>
<!-- java.awt.desktop.FilesEvent -->
<g id="node2" class="node"><title>java.awt.desktop.FilesEvent</title>
<g id="a_node2"><a xlink:href="../../../java/awt/desktop/FilesEvent.html" xlink:title="java.awt.desktop.FilesEvent">
<text text-anchor="middle" x="131.5" y="-101.4" font-family="DejaVuSans" font-size="12.00" fill="#e76f00">FilesEvent</text>
</a>
</g>
</g>
<!-- java.awt.desktop.OpenFilesEvent&#45;&gt;java.awt.desktop.FilesEvent -->
<g id="edge1" class="edge"><title>java.awt.desktop.OpenFilesEvent&#45;&gt;java.awt.desktop.FilesEvent</title>
<path fill="none" stroke="#999999" stroke-width="2" d="M75.4133,-41.3499C84.8665,-51.825 96.6086,-64.8366 106.902,-76.2433"/>
<polygon fill="#999999" stroke="#999999" stroke-width="2" points="113.752,-83.8329 103.711,-79.4238 110.031,-80.4559 106.681,-76.7439 107.052,-76.4089 107.423,-76.0739 110.773,-79.7859 110.393,-73.3941 113.752,-83.8329 113.752,-83.8329"/>
</g>
<!-- java.awt.desktop.PrintFilesEvent -->
<g id="node3" class="node"><title>java.awt.desktop.PrintFilesEvent</title>
<g id="a_node3"><a xlink:href="../../../java/awt/desktop/PrintFilesEvent.html" xlink:title="java.awt.desktop.PrintFilesEvent">
<text text-anchor="middle" x="206.5" y="-17.4" font-family="DejaVuSans" font-size="12.00" fill="#e76f00">PrintFilesEvent</text>
</a>
</g>
</g>
<!-- java.awt.desktop.PrintFilesEvent&#45;&gt;java.awt.desktop.FilesEvent -->
<g id="edge2" class="edge"><title>java.awt.desktop.PrintFilesEvent&#45;&gt;java.awt.desktop.FilesEvent</title>
<path fill="none" stroke="#999999" stroke-width="2" d="M188.345,-41.3499C178.764,-51.825 166.863,-64.8366 156.43,-76.2433"/>
<polygon fill="#999999" stroke="#999999" stroke-width="2" points="149.488,-83.8329 152.917,-73.4167 152.494,-79.8059 155.868,-76.1164 156.237,-76.4539 156.606,-76.7913 153.232,-80.4808 159.558,-79.491 149.488,-83.8329 149.488,-83.8329"/>
</g>
</g>
</svg>
