<?xml version="1.0" encoding="UTF-8" standalone="no"?>
<!DOCTYPE svg PUBLIC "-//W3C//DTD SVG 1.1//EN"
 "http://www.w3.org/Graphics/SVG/1.1/DTD/svg11.dtd">
<!-- Generated by graphviz version 2.38.0 (20140413.2041)
 -->
<!-- Title: G Pages: 1 -->
<svg width="242pt" height="133pt"
 viewBox="0.00 0.00 242.00 133.00" xmlns="http://www.w3.org/2000/svg" xmlns:xlink="http://www.w3.org/1999/xlink">
<g id="graph0" class="graph" transform="scale(1 1) rotate(0) translate(4 129)">
<title>G</title>
<polygon fill="white" stroke="none" points="-4,4 -4,-129 238,-129 238,4 -4,4"/>
<!-- java.net.Inet4Address -->
<g id="node1" class="node"><title>java.net.Inet4Address</title>
<g id="a_node1"><a xlink:href="../../java/net/Inet4Address.html" xlink:title="java.net.Inet4Address">
<text text-anchor="middle" x="49.5" y="-17.4" font-family="DejaVuSans" font-size="12.00" fill="#e76f00">Inet4Address</text>
</a>
</g>
</g>
<!-- java.net.InetAddress -->
<g id="node2" class="node"><title>java.net.InetAddress</title>
<g id="a_node2"><a xlink:href="../../java/net/InetAddress.html" xlink:title="java.net.InetAddress">
<text text-anchor="middle" x="116.5" y="-101.4" font-family="DejaVuSans" font-size="12.00" fill="#e76f00">InetAddress</text>
</a>
</g>
</g>
<!-- java.net.Inet4Address&#45;&gt;java.net.InetAddress -->
<g id="edge1" class="edge"><title>java.net.Inet4Address&#45;&gt;java.net.InetAddress</title>
<path fill="none" stroke="#999999" stroke-width="2" d="M65.7188,-41.3499C74.1955,-51.7243 84.7049,-64.5866 93.96,-75.9138"/>
<polygon fill="#999999" stroke="#999999" stroke-width="2" points="100.431,-83.8329 90.6185,-78.9364 96.8797,-80.2773 93.7161,-76.4054 94.1033,-76.0891 94.4904,-75.7727 97.6541,-79.6446 97.588,-73.2418 100.431,-83.8329 100.431,-83.8329"/>
</g>
<!-- java.net.Inet6Address -->
<g id="node3" class="node"><title>java.net.Inet6Address</title>
<g id="a_node3"><a xlink:href="../../java/net/Inet6Address.html" xlink:title="java.net.Inet6Address">
<text text-anchor="middle" x="184.5" y="-17.4" font-family="DejaVuSans" font-size="12.00" fill="#e76f00">Inet6Address</text>
</a>
</g>
</g>
<!-- java.net.Inet6Address&#45;&gt;java.net.InetAddress -->
<g id="edge2" class="edge"><title>java.net.Inet6Address&#45;&gt;java.net.InetAddress</title>
<path fill="none" stroke="#999999" stroke-width="2" d="M168.039,-41.3499C159.436,-51.7243 148.77,-64.5866 139.376,-75.9138"/>
<polygon fill="#999999" stroke="#999999" stroke-width="2" points="132.809,-83.8329 135.729,-73.2628 135.616,-79.6649 138.808,-75.8161 139.193,-76.1353 139.578,-76.4545 136.386,-80.3033 142.657,-79.0078 132.809,-83.8329 132.809,-83.8329"/>
</g>
</g>
</svg>
