<?xml version="1.0" encoding="UTF-8" standalone="no"?>
<!DOCTYPE svg PUBLIC "-//W3C//DTD SVG 1.1//EN"
 "http://www.w3.org/Graphics/SVG/1.1/DTD/svg11.dtd">
<!-- Generated by graphviz version 2.38.0 (20140413.2041)
 -->
<!-- Title: G Pages: 1 -->
<svg width="2655pt" height="217pt"
 viewBox="0.00 0.00 2655.00 217.00" xmlns="http://www.w3.org/2000/svg" xmlns:xlink="http://www.w3.org/1999/xlink">
<g id="graph0" class="graph" transform="scale(1 1) rotate(0) translate(4 213)">
<title>G</title>
<polygon fill="white" stroke="none" points="-4,4 -4,-213 2651,-213 2651,4 -4,4"/>
<!-- java.util.DuplicateFormatFlagsException -->
<g id="node1" class="node"><title>java.util.DuplicateFormatFlagsException</title>
<g id="a_node1"><a xlink:href="../../java/util/DuplicateFormatFlagsException.html" xlink:title="java.util.DuplicateFormatFlagsException">
<text text-anchor="middle" x="2547" y="-101.4" font-family="DejaVuSans" font-size="12.00" fill="#e76f00">DuplicateFormatFlagsException</text>
</a>
</g>
</g>
<!-- java.util.IllegalFormatException -->
<g id="node2" class="node"><title>java.util.IllegalFormatException</title>
<g id="a_node2"><a xlink:href="../../java/util/IllegalFormatException.html" xlink:title="java.util.IllegalFormatException">
<text text-anchor="middle" x="1340" y="-185.4" font-family="DejaVuSans" font-size="12.00" fill="#e76f00">IllegalFormatException</text>
</a>
</g>
</g>
<!-- java.util.DuplicateFormatFlagsException&#45;&gt;java.util.IllegalFormatException -->
<g id="edge1" class="edge"><title>java.util.DuplicateFormatFlagsException&#45;&gt;java.util.IllegalFormatException</title>
<path fill="none" stroke="#999999" stroke-width="2" d="M2447,-122.782C2440.92,-123.598 2434.88,-124.347 2429,-125 2057.24,-166.267 1610.88,-181.06 1426.33,-185.666"/>
<polygon fill="#999999" stroke="#999999" stroke-width="2" points="1416.15,-185.916 1426.03,-181.172 1421.13,-185.293 1426.13,-185.171 1426.15,-185.67 1426.16,-186.17 1421.16,-186.293 1426.26,-190.169 1416.15,-185.916 1416.15,-185.916"/>
</g>
<!-- open node #0 -->
<g id="node3" class="node"><title>open node #0</title>
<g id="a_node3"><a xlink:title="Non&#45;sealed Hierarchy">
<text text-anchor="start" x="2530" y="-18.4" font-family="DejaVuSans" font-style="italic" font-size="12.00" fill="#e76f00">&lt;any&gt;</text>
</a>
</g>
</g>
<!-- open node #0&#45;&gt;java.util.DuplicateFormatFlagsException -->
<g id="edge2" class="edge"><title>open node #0&#45;&gt;java.util.DuplicateFormatFlagsException</title>
<path fill="none" stroke="#999999" stroke-width="2" stroke-dasharray="5,2" d="M2547,-41.3499C2547,-51.0192 2547,-62.8498 2547,-73.5843"/>
<polygon fill="#999999" stroke="#999999" stroke-width="2" points="2547,-83.8329 2542.5,-73.8328 2546.5,-78.8329 2546.5,-73.8329 2547,-73.8329 2547.5,-73.8329 2547.5,-78.8329 2551.5,-73.8329 2547,-83.8329 2547,-83.8329"/>
</g>
<!-- java.util.FormatFlagsConversionMismatchException -->
<g id="node4" class="node"><title>java.util.FormatFlagsConversionMismatchException</title>
<g id="a_node4"><a xlink:href="../../java/util/FormatFlagsConversionMismatchException.html" xlink:title="java.util.FormatFlagsConversionMismatchException">
<text text-anchor="middle" x="131" y="-101.4" font-family="DejaVuSans" font-size="12.00" fill="#e76f00">FormatFlagsConversionMismatchException</text>
</a>
</g>
</g>
<!-- java.util.FormatFlagsConversionMismatchException&#45;&gt;java.util.IllegalFormatException -->
<g id="edge3" class="edge"><title>java.util.FormatFlagsConversionMismatchException&#45;&gt;java.util.IllegalFormatException</title>
<path fill="none" stroke="#999999" stroke-width="2" d="M262.164,-123.192C268.189,-123.839 274.156,-124.446 280,-125 640.735,-159.196 1072.42,-177.726 1253.44,-184.487"/>
<polygon fill="#999999" stroke="#999999" stroke-width="2" points="1263.7,-184.867 1253.54,-188.994 1258.68,-185.182 1253.69,-184.996 1253.7,-184.497 1253.72,-183.997 1258.72,-184.182 1253.87,-180 1263.7,-184.867 1263.7,-184.867"/>
</g>
<!-- open node #1 -->
<g id="node5" class="node"><title>open node #1</title>
<g id="a_node5"><a xlink:title="Non&#45;sealed Hierarchy">
<text text-anchor="start" x="114" y="-18.4" font-family="DejaVuSans" font-style="italic" font-size="12.00" fill="#e76f00">&lt;any&gt;</text>
</a>
</g>
</g>
<!-- open node #1&#45;&gt;java.util.FormatFlagsConversionMismatchException -->
<g id="edge4" class="edge"><title>open node #1&#45;&gt;java.util.FormatFlagsConversionMismatchException</title>
<path fill="none" stroke="#999999" stroke-width="2" stroke-dasharray="5,2" d="M131,-41.3499C131,-51.0192 131,-62.8498 131,-73.5843"/>
<polygon fill="#999999" stroke="#999999" stroke-width="2" points="131,-83.8329 126.5,-73.8328 130.5,-78.8329 130.5,-73.8329 131,-73.8329 131.5,-73.8329 131.5,-78.8329 135.5,-73.8329 131,-83.8329 131,-83.8329"/>
</g>
<!-- java.util.IllegalFormatCodePointException -->
<g id="node6" class="node"><title>java.util.IllegalFormatCodePointException</title>
<g id="a_node6"><a xlink:href="../../java/util/IllegalFormatCodePointException.html" xlink:title="java.util.IllegalFormatCodePointException">
<text text-anchor="middle" x="403" y="-101.4" font-family="DejaVuSans" font-size="12.00" fill="#e76f00">IllegalFormatCodePointException</text>
</a>
</g>
</g>
<!-- java.util.IllegalFormatCodePointException&#45;&gt;java.util.IllegalFormatException -->
<g id="edge5" class="edge"><title>java.util.IllegalFormatCodePointException&#45;&gt;java.util.IllegalFormatException</title>
<path fill="none" stroke="#999999" stroke-width="2" d="M507.739,-122.81C513.572,-123.596 519.355,-124.334 525,-125 789.852,-156.269 1105.06,-175.31 1253.96,-183.226"/>
<polygon fill="#999999" stroke="#999999" stroke-width="2" points="1263.96,-183.754 1253.73,-187.72 1258.94,-183.989 1253.94,-183.726 1253.97,-183.226 1254,-182.727 1258.99,-182.991 1254.21,-178.733 1263.96,-183.754 1263.96,-183.754"/>
</g>
<!-- open node #2 -->
<g id="node7" class="node"><title>open node #2</title>
<g id="a_node7"><a xlink:title="Non&#45;sealed Hierarchy">
<text text-anchor="start" x="386" y="-18.4" font-family="DejaVuSans" font-style="italic" font-size="12.00" fill="#e76f00">&lt;any&gt;</text>
</a>
</g>
</g>
<!-- open node #2&#45;&gt;java.util.IllegalFormatCodePointException -->
<g id="edge6" class="edge"><title>open node #2&#45;&gt;java.util.IllegalFormatCodePointException</title>
<path fill="none" stroke="#999999" stroke-width="2" stroke-dasharray="5,2" d="M403,-41.3499C403,-51.0192 403,-62.8498 403,-73.5843"/>
<polygon fill="#999999" stroke="#999999" stroke-width="2" points="403,-83.8329 398.5,-73.8328 402.5,-78.8329 402.5,-73.8329 403,-73.8329 403.5,-73.8329 403.5,-78.8329 407.5,-73.8329 403,-83.8329 403,-83.8329"/>
</g>
<!-- java.util.IllegalFormatConversionException -->
<g id="node8" class="node"><title>java.util.IllegalFormatConversionException</title>
<g id="a_node8"><a xlink:href="../../java/util/IllegalFormatConversionException.html" xlink:title="java.util.IllegalFormatConversionException">
<text text-anchor="middle" x="650" y="-101.4" font-family="DejaVuSans" font-size="12.00" fill="#e76f00">IllegalFormatConversionException</text>
</a>
</g>
</g>
<!-- java.util.IllegalFormatConversionException&#45;&gt;java.util.IllegalFormatException -->
<g id="edge7" class="edge"><title>java.util.IllegalFormatConversionException&#45;&gt;java.util.IllegalFormatException</title>
<path fill="none" stroke="#999999" stroke-width="2" d="M756.673,-122.467C762.87,-123.351 769.013,-124.202 775,-125 944.093,-147.53 1142.43,-168.13 1253.42,-179.134"/>
<polygon fill="#999999" stroke="#999999" stroke-width="2" points="1263.56,-180.136 1253.17,-183.63 1258.54,-180.142 1253.56,-179.649 1253.61,-179.152 1253.66,-178.654 1258.63,-179.146 1254.05,-174.674 1263.56,-180.136 1263.56,-180.136"/>
</g>
<!-- open node #3 -->
<g id="node9" class="node"><title>open node #3</title>
<g id="a_node9"><a xlink:title="Non&#45;sealed Hierarchy">
<text text-anchor="start" x="633" y="-18.4" font-family="DejaVuSans" font-style="italic" font-size="12.00" fill="#e76f00">&lt;any&gt;</text>
</a>
</g>
</g>
<!-- open node #3&#45;&gt;java.util.IllegalFormatConversionException -->
<g id="edge8" class="edge"><title>open node #3&#45;&gt;java.util.IllegalFormatConversionException</title>
<path fill="none" stroke="#999999" stroke-width="2" stroke-dasharray="5,2" d="M650,-41.3499C650,-51.0192 650,-62.8498 650,-73.5843"/>
<polygon fill="#999999" stroke="#999999" stroke-width="2" points="650,-83.8329 645.5,-73.8328 649.5,-78.8329 649.5,-73.8329 650,-73.8329 650.5,-73.8329 650.5,-78.8329 654.5,-73.8329 650,-83.8329 650,-83.8329"/>
</g>
<!-- java.util.IllegalFormatFlagsException -->
<g id="node10" class="node"><title>java.util.IllegalFormatFlagsException</title>
<g id="a_node10"><a xlink:href="../../java/util/IllegalFormatFlagsException.html" xlink:title="java.util.IllegalFormatFlagsException">
<text text-anchor="middle" x="884" y="-101.4" font-family="DejaVuSans" font-size="12.00" fill="#e76f00">IllegalFormatFlagsException</text>
</a>
</g>
</g>
<!-- java.util.IllegalFormatFlagsException&#45;&gt;java.util.IllegalFormatException -->
<g id="edge9" class="edge"><title>java.util.IllegalFormatFlagsException&#45;&gt;java.util.IllegalFormatException</title>
<path fill="none" stroke="#999999" stroke-width="2" d="M975.182,-121.897C1056.31,-136.486 1174.12,-157.67 1253.72,-171.986"/>
<polygon fill="#999999" stroke="#999999" stroke-width="2" points="1263.72,-173.784 1253.08,-176.443 1258.71,-173.391 1253.79,-172.506 1253.88,-172.014 1253.97,-171.521 1258.89,-172.406 1254.68,-167.585 1263.72,-173.784 1263.72,-173.784"/>
</g>
<!-- open node #4 -->
<g id="node11" class="node"><title>open node #4</title>
<g id="a_node11"><a xlink:title="Non&#45;sealed Hierarchy">
<text text-anchor="start" x="867" y="-18.4" font-family="DejaVuSans" font-style="italic" font-size="12.00" fill="#e76f00">&lt;any&gt;</text>
</a>
</g>
</g>
<!-- open node #4&#45;&gt;java.util.IllegalFormatFlagsException -->
<g id="edge10" class="edge"><title>open node #4&#45;&gt;java.util.IllegalFormatFlagsException</title>
<path fill="none" stroke="#999999" stroke-width="2" stroke-dasharray="5,2" d="M884,-41.3499C884,-51.0192 884,-62.8498 884,-73.5843"/>
<polygon fill="#999999" stroke="#999999" stroke-width="2" points="884,-83.8329 879.5,-73.8328 883.5,-78.8329 883.5,-73.8329 884,-73.8329 884.5,-73.8329 884.5,-78.8329 888.5,-73.8329 884,-83.8329 884,-83.8329"/>
</g>
<!-- java.util.IllegalFormatPrecisionException -->
<g id="node12" class="node"><title>java.util.IllegalFormatPrecisionException</title>
<g id="a_node12"><a xlink:href="../../java/util/IllegalFormatPrecisionException.html" xlink:title="java.util.IllegalFormatPrecisionException">
<text text-anchor="middle" x="1112" y="-101.4" font-family="DejaVuSans" font-size="12.00" fill="#e76f00">IllegalFormatPrecisionException</text>
</a>
</g>
</g>
<!-- java.util.IllegalFormatPrecisionException&#45;&gt;java.util.IllegalFormatException -->
<g id="edge11" class="edge"><title>java.util.IllegalFormatPrecisionException&#45;&gt;java.util.IllegalFormatException</title>
<path fill="none" stroke="#999999" stroke-width="2" d="M1166.32,-125.037C1199.31,-136.901 1241.58,-152.105 1276.16,-164.541"/>
<polygon fill="#999999" stroke="#999999" stroke-width="2" points="1285.7,-167.971 1274.77,-168.821 1280.83,-166.749 1276.12,-165.057 1276.29,-164.587 1276.46,-164.116 1281.16,-165.808 1277.81,-160.352 1285.7,-167.971 1285.7,-167.971"/>
</g>
<!-- open node #5 -->
<g id="node13" class="node"><title>open node #5</title>
<g id="a_node13"><a xlink:title="Non&#45;sealed Hierarchy">
<text text-anchor="start" x="1095" y="-18.4" font-family="DejaVuSans" font-style="italic" font-size="12.00" fill="#e76f00">&lt;any&gt;</text>
</a>
</g>
</g>
<!-- open node #5&#45;&gt;java.util.IllegalFormatPrecisionException -->
<g id="edge12" class="edge"><title>open node #5&#45;&gt;java.util.IllegalFormatPrecisionException</title>
<path fill="none" stroke="#999999" stroke-width="2" stroke-dasharray="5,2" d="M1112,-41.3499C1112,-51.0192 1112,-62.8498 1112,-73.5843"/>
<polygon fill="#999999" stroke="#999999" stroke-width="2" points="1112,-83.8329 1107.5,-73.8328 1111.5,-78.8329 1111.5,-73.8329 1112,-73.8329 1112.5,-73.8329 1112.5,-78.8329 1116.5,-73.8329 1112,-83.8329 1112,-83.8329"/>
</g>
<!-- java.util.IllegalFormatWidthException -->
<g id="node14" class="node"><title>java.util.IllegalFormatWidthException</title>
<g id="a_node14"><a xlink:href="../../java/util/IllegalFormatWidthException.html" xlink:title="java.util.IllegalFormatWidthException">
<text text-anchor="middle" x="1340" y="-101.4" font-family="DejaVuSans" font-size="12.00" fill="#e76f00">IllegalFormatWidthException</text>
</a>
</g>
</g>
<!-- java.util.IllegalFormatWidthException&#45;&gt;java.util.IllegalFormatException -->
<g id="edge13" class="edge"><title>java.util.IllegalFormatWidthException&#45;&gt;java.util.IllegalFormatException</title>
<path fill="none" stroke="#999999" stroke-width="2" d="M1340,-125.35C1340,-135.019 1340,-146.85 1340,-157.584"/>
<polygon fill="#999999" stroke="#999999" stroke-width="2" points="1340,-167.833 1335.5,-157.833 1339.5,-162.833 1339.5,-157.833 1340,-157.833 1340.5,-157.833 1340.5,-162.833 1344.5,-157.833 1340,-167.833 1340,-167.833"/>
</g>
<!-- open node #6 -->
<g id="node15" class="node"><title>open node #6</title>
<g id="a_node15"><a xlink:title="Non&#45;sealed Hierarchy">
<text text-anchor="start" x="1323" y="-18.4" font-family="DejaVuSans" font-style="italic" font-size="12.00" fill="#e76f00">&lt;any&gt;</text>
</a>
</g>
</g>
<!-- open node #6&#45;&gt;java.util.IllegalFormatWidthException -->
<g id="edge14" class="edge"><title>open node #6&#45;&gt;java.util.IllegalFormatWidthException</title>
<path fill="none" stroke="#999999" stroke-width="2" stroke-dasharray="5,2" d="M1340,-41.3499C1340,-51.0192 1340,-62.8498 1340,-73.5843"/>
<polygon fill="#999999" stroke="#999999" stroke-width="2" points="1340,-83.8329 1335.5,-73.8328 1339.5,-78.8329 1339.5,-73.8329 1340,-73.8329 1340.5,-73.8329 1340.5,-78.8329 1344.5,-73.8329 1340,-83.8329 1340,-83.8329"/>
</g>
<!-- java.util.MissingFormatArgumentException -->
<g id="node16" class="node"><title>java.util.MissingFormatArgumentException</title>
<g id="a_node16"><a xlink:href="../../java/util/MissingFormatArgumentException.html" xlink:title="java.util.MissingFormatArgumentException">
<text text-anchor="middle" x="1573" y="-101.4" font-family="DejaVuSans" font-size="12.00" fill="#e76f00">MissingFormatArgumentException</text>
</a>
</g>
</g>
<!-- java.util.MissingFormatArgumentException&#45;&gt;java.util.IllegalFormatException -->
<g id="edge15" class="edge"><title>java.util.MissingFormatArgumentException&#45;&gt;java.util.IllegalFormatException</title>
<path fill="none" stroke="#999999" stroke-width="2" d="M1517.49,-125.037C1483.78,-136.901 1440.57,-152.105 1405.24,-164.541"/>
<polygon fill="#999999" stroke="#999999" stroke-width="2" points="1395.49,-167.971 1403.43,-160.406 1400.04,-165.839 1404.76,-164.179 1404.92,-164.651 1405.09,-165.123 1400.37,-166.783 1406.42,-168.896 1395.49,-167.971 1395.49,-167.971"/>
</g>
<!-- open node #7 -->
<g id="node17" class="node"><title>open node #7</title>
<g id="a_node17"><a xlink:title="Non&#45;sealed Hierarchy">
<text text-anchor="start" x="1556" y="-18.4" font-family="DejaVuSans" font-style="italic" font-size="12.00" fill="#e76f00">&lt;any&gt;</text>
</a>
</g>
</g>
<!-- open node #7&#45;&gt;java.util.MissingFormatArgumentException -->
<g id="edge16" class="edge"><title>open node #7&#45;&gt;java.util.MissingFormatArgumentException</title>
<path fill="none" stroke="#999999" stroke-width="2" stroke-dasharray="5,2" d="M1573,-41.3499C1573,-51.0192 1573,-62.8498 1573,-73.5843"/>
<polygon fill="#999999" stroke="#999999" stroke-width="2" points="1573,-83.8329 1568.5,-73.8328 1572.5,-78.8329 1572.5,-73.8329 1573,-73.8329 1573.5,-73.8329 1573.5,-78.8329 1577.5,-73.8329 1573,-83.8329 1573,-83.8329"/>
</g>
<!-- java.util.MissingFormatWidthException -->
<g id="node18" class="node"><title>java.util.MissingFormatWidthException</title>
<g id="a_node18"><a xlink:href="../../java/util/MissingFormatWidthException.html" xlink:title="java.util.MissingFormatWidthException">
<text text-anchor="middle" x="1811" y="-101.4" font-family="DejaVuSans" font-size="12.00" fill="#e76f00">MissingFormatWidthException</text>
</a>
</g>
</g>
<!-- java.util.MissingFormatWidthException&#45;&gt;java.util.IllegalFormatException -->
<g id="edge17" class="edge"><title>java.util.MissingFormatWidthException&#45;&gt;java.util.IllegalFormatException</title>
<path fill="none" stroke="#999999" stroke-width="2" d="M1715.4,-122.143C1630.61,-136.906 1507.86,-158.276 1426.07,-172.515"/>
<polygon fill="#999999" stroke="#999999" stroke-width="2" points="1416.06,-174.258 1425.14,-168.11 1420.9,-172.908 1425.82,-172.05 1425.91,-172.543 1426,-173.036 1421.07,-173.893 1426.68,-176.976 1416.06,-174.258 1416.06,-174.258"/>
</g>
<!-- open node #8 -->
<g id="node19" class="node"><title>open node #8</title>
<g id="a_node19"><a xlink:title="Non&#45;sealed Hierarchy">
<text text-anchor="start" x="1794" y="-18.4" font-family="DejaVuSans" font-style="italic" font-size="12.00" fill="#e76f00">&lt;any&gt;</text>
</a>
</g>
</g>
<!-- open node #8&#45;&gt;java.util.MissingFormatWidthException -->
<g id="edge18" class="edge"><title>open node #8&#45;&gt;java.util.MissingFormatWidthException</title>
<path fill="none" stroke="#999999" stroke-width="2" stroke-dasharray="5,2" d="M1811,-41.3499C1811,-51.0192 1811,-62.8498 1811,-73.5843"/>
<polygon fill="#999999" stroke="#999999" stroke-width="2" points="1811,-83.8329 1806.5,-73.8328 1810.5,-78.8329 1810.5,-73.8329 1811,-73.8329 1811.5,-73.8329 1811.5,-78.8329 1815.5,-73.8329 1811,-83.8329 1811,-83.8329"/>
</g>
<!-- java.util.UnknownFormatConversionException -->
<g id="node20" class="node"><title>java.util.UnknownFormatConversionException</title>
<g id="a_node20"><a xlink:href="../../java/util/UnknownFormatConversionException.html" xlink:title="java.util.UnknownFormatConversionException">
<text text-anchor="middle" x="2059" y="-101.4" font-family="DejaVuSans" font-size="12.00" fill="#e76f00">UnknownFormatConversionException</text>
</a>
</g>
</g>
<!-- java.util.UnknownFormatConversionException&#45;&gt;java.util.IllegalFormatException -->
<g id="edge19" class="edge"><title>java.util.UnknownFormatConversionException&#45;&gt;java.util.IllegalFormatException</title>
<path fill="none" stroke="#999999" stroke-width="2" d="M1942.69,-122.578C1936.37,-123.419 1930.11,-124.232 1924,-125 1747.47,-147.188 1540.28,-168.164 1426.23,-179.274"/>
<polygon fill="#999999" stroke="#999999" stroke-width="2" points="1416.17,-180.252 1425.68,-174.806 1421.09,-179.271 1426.07,-178.787 1426.12,-179.285 1426.17,-179.782 1421.19,-180.266 1426.55,-183.764 1416.17,-180.252 1416.17,-180.252"/>
</g>
<!-- open node #9 -->
<g id="node21" class="node"><title>open node #9</title>
<g id="a_node21"><a xlink:title="Non&#45;sealed Hierarchy">
<text text-anchor="start" x="2042" y="-18.4" font-family="DejaVuSans" font-style="italic" font-size="12.00" fill="#e76f00">&lt;any&gt;</text>
</a>
</g>
</g>
<!-- open node #9&#45;&gt;java.util.UnknownFormatConversionException -->
<g id="edge20" class="edge"><title>open node #9&#45;&gt;java.util.UnknownFormatConversionException</title>
<path fill="none" stroke="#999999" stroke-width="2" stroke-dasharray="5,2" d="M2059,-41.3499C2059,-51.0192 2059,-62.8498 2059,-73.5843"/>
<polygon fill="#999999" stroke="#999999" stroke-width="2" points="2059,-83.8329 2054.5,-73.8328 2058.5,-78.8329 2058.5,-73.8329 2059,-73.8329 2059.5,-73.8329 2059.5,-78.8329 2063.5,-73.8329 2059,-83.8329 2059,-83.8329"/>
</g>
<!-- java.util.UnknownFormatFlagsException -->
<g id="node22" class="node"><title>java.util.UnknownFormatFlagsException</title>
<g id="a_node22"><a xlink:href="../../java/util/UnknownFormatFlagsException.html" xlink:title="java.util.UnknownFormatFlagsException">
<text text-anchor="middle" x="2311" y="-101.4" font-family="DejaVuSans" font-size="12.00" fill="#e76f00">UnknownFormatFlagsException</text>
</a>
</g>
</g>
<!-- java.util.UnknownFormatFlagsException&#45;&gt;java.util.IllegalFormatException -->
<g id="edge21" class="edge"><title>java.util.UnknownFormatFlagsException&#45;&gt;java.util.IllegalFormatException</title>
<path fill="none" stroke="#999999" stroke-width="2" d="M2210.98,-122.672C2204.91,-123.515 2198.88,-124.301 2193,-125 1913.74,-158.236 1580.8,-176.504 1426.46,-183.759"/>
<polygon fill="#999999" stroke="#999999" stroke-width="2" points="1416.11,-184.242 1425.89,-179.281 1421.08,-183.509 1426.07,-183.276 1426.1,-183.776 1426.12,-184.275 1421.12,-184.508 1426.31,-188.271 1416.11,-184.242 1416.11,-184.242"/>
</g>
<!-- open node #10 -->
<g id="node23" class="node"><title>open node #10</title>
<g id="a_node23"><a xlink:title="Non&#45;sealed Hierarchy">
<text text-anchor="start" x="2294" y="-18.4" font-family="DejaVuSans" font-style="italic" font-size="12.00" fill="#e76f00">&lt;any&gt;</text>
</a>
</g>
</g>
<!-- open node #10&#45;&gt;java.util.UnknownFormatFlagsException -->
<g id="edge22" class="edge"><title>open node #10&#45;&gt;java.util.UnknownFormatFlagsException</title>
<path fill="none" stroke="#999999" stroke-width="2" stroke-dasharray="5,2" d="M2311,-41.3499C2311,-51.0192 2311,-62.8498 2311,-73.5843"/>
<polygon fill="#999999" stroke="#999999" stroke-width="2" points="2311,-83.8329 2306.5,-73.8328 2310.5,-78.8329 2310.5,-73.8329 2311,-73.8329 2311.5,-73.8329 2311.5,-78.8329 2315.5,-73.8329 2311,-83.8329 2311,-83.8329"/>
</g>
</g>
</svg>
