<?xml version="1.0" encoding="UTF-8" standalone="no"?>
<!DOCTYPE svg PUBLIC "-//W3C//DTD SVG 1.1//EN"
 "http://www.w3.org/Graphics/SVG/1.1/DTD/svg11.dtd">
<!-- Generated by graphviz version 2.38.0 (20140413.2041)
 -->
<!-- Title: G Pages: 1 -->
<svg width="975pt" height="217pt"
 viewBox="0.00 0.00 975.00 217.00" xmlns="http://www.w3.org/2000/svg" xmlns:xlink="http://www.w3.org/1999/xlink">
<g id="graph0" class="graph" transform="scale(1 1) rotate(0) translate(4 213)">
<title>G</title>
<polygon fill="white" stroke="none" points="-4,4 -4,-213 971,-213 971,4 -4,4"/>
<!-- java.lang.classfile.AnnotationValue.OfAnnotation -->
<g id="node1" class="node"><title>java.lang.classfile.AnnotationValue.OfAnnotation</title>
<g id="a_node1"><a xlink:href="../../../java/lang/classfile/AnnotationValue.OfAnnotation.html" xlink:title="java.lang.classfile.AnnotationValue.OfAnnotation">
<text text-anchor="middle" x="236" y="-101.4" font-family="DejaVuSans" font-size="12.00" fill="#e76f00">OfAnnotation</text>
</a>
</g>
</g>
<!-- java.lang.classfile.AnnotationValue -->
<g id="node2" class="node"><title>java.lang.classfile.AnnotationValue</title>
<g id="a_node2"><a xlink:href="../../../java/lang/classfile/AnnotationValue.html" xlink:title="java.lang.classfile.AnnotationValue">
<text text-anchor="middle" x="471" y="-185.4" font-family="DejaVuSans" font-size="12.00" fill="#e76f00">AnnotationValue</text>
</a>
</g>
</g>
<!-- java.lang.classfile.AnnotationValue.OfAnnotation&#45;&gt;java.lang.classfile.AnnotationValue -->
<g id="edge1" class="edge"><title>java.lang.classfile.AnnotationValue.OfAnnotation&#45;&gt;java.lang.classfile.AnnotationValue</title>
<path fill="none" stroke="#999999" stroke-width="2" d="M285.264,-122.69C320.129,-134.855 367.26,-151.301 405.32,-164.582"/>
<polygon fill="#999999" stroke="#999999" stroke-width="2" points="414.787,-167.885 403.863,-168.84 409.902,-166.71 405.181,-165.063 405.346,-164.591 405.511,-164.119 410.231,-165.766 406.828,-160.342 414.787,-167.885 414.787,-167.885"/>
</g>
<!-- java.lang.classfile.AnnotationValue.OfArray -->
<g id="node3" class="node"><title>java.lang.classfile.AnnotationValue.OfArray</title>
<g id="a_node3"><a xlink:href="../../../java/lang/classfile/AnnotationValue.OfArray.html" xlink:title="java.lang.classfile.AnnotationValue.OfArray">
<text text-anchor="middle" x="356" y="-101.4" font-family="DejaVuSans" font-size="12.00" fill="#e76f00">OfArray</text>
</a>
</g>
</g>
<!-- java.lang.classfile.AnnotationValue.OfArray&#45;&gt;java.lang.classfile.AnnotationValue -->
<g id="edge2" class="edge"><title>java.lang.classfile.AnnotationValue.OfArray&#45;&gt;java.lang.classfile.AnnotationValue</title>
<path fill="none" stroke="#999999" stroke-width="2" d="M383.545,-125.141C398.937,-136.116 418.3,-149.923 434.893,-161.754"/>
<polygon fill="#999999" stroke="#999999" stroke-width="2" points="443.281,-167.735 432.526,-165.593 438.919,-165.239 434.848,-162.336 435.139,-161.929 435.429,-161.522 439.5,-164.425 437.751,-158.265 443.281,-167.735 443.281,-167.735"/>
</g>
<!-- java.lang.classfile.AnnotationValue.OfConstant -->
<g id="node4" class="node"><title>java.lang.classfile.AnnotationValue.OfConstant</title>
<g id="a_node4"><a xlink:href="../../../java/lang/classfile/AnnotationValue.OfConstant.html" xlink:title="java.lang.classfile.AnnotationValue.OfConstant">
<text text-anchor="middle" x="471" y="-101.4" font-family="DejaVuSans" font-size="12.00" fill="#e76f00">OfConstant</text>
</a>
</g>
</g>
<!-- java.lang.classfile.AnnotationValue.OfConstant&#45;&gt;java.lang.classfile.AnnotationValue -->
<g id="edge3" class="edge"><title>java.lang.classfile.AnnotationValue.OfConstant&#45;&gt;java.lang.classfile.AnnotationValue</title>
<path fill="none" stroke="#999999" stroke-width="2" d="M471,-125.35C471,-135.019 471,-146.85 471,-157.584"/>
<polygon fill="#999999" stroke="#999999" stroke-width="2" points="471,-167.833 466.5,-157.833 470.5,-162.833 470.5,-157.833 471,-157.833 471.5,-157.833 471.5,-162.833 475.5,-157.833 471,-167.833 471,-167.833"/>
</g>
<!-- java.lang.classfile.AnnotationValue.OfString -->
<g id="node5" class="node"><title>java.lang.classfile.AnnotationValue.OfString</title>
<g id="a_node5"><a xlink:href="../../../java/lang/classfile/AnnotationValue.OfString.html" xlink:title="java.lang.classfile.AnnotationValue.OfString">
<text text-anchor="middle" x="36" y="-17.4" font-family="DejaVuSans" font-size="12.00" fill="#e76f00">OfString</text>
</a>
</g>
</g>
<!-- java.lang.classfile.AnnotationValue.OfString&#45;&gt;java.lang.classfile.AnnotationValue.OfConstant -->
<g id="edge4" class="edge"><title>java.lang.classfile.AnnotationValue.OfString&#45;&gt;java.lang.classfile.AnnotationValue.OfConstant</title>
<path fill="none" stroke="#999999" stroke-width="2" d="M72.2771,-35.7839C78.1395,-37.7478 84.1916,-39.5757 90,-41 228.516,-74.9664 268.734,-53.2538 408,-84 410.778,-84.6132 413.609,-85.2911 416.459,-86.0152"/>
<polygon fill="#999999" stroke="#999999" stroke-width="2" points="426.161,-88.6291 415.334,-90.3727 421.203,-87.8112 416.375,-86.5104 416.505,-86.0276 416.635,-85.5448 421.463,-86.8456 417.676,-81.6825 426.161,-88.6291 426.161,-88.6291"/>
</g>
<!-- java.lang.classfile.AnnotationValue.OfDouble -->
<g id="node6" class="node"><title>java.lang.classfile.AnnotationValue.OfDouble</title>
<g id="a_node6"><a xlink:href="../../../java/lang/classfile/AnnotationValue.OfDouble.html" xlink:title="java.lang.classfile.AnnotationValue.OfDouble">
<text text-anchor="middle" x="148" y="-17.4" font-family="DejaVuSans" font-size="12.00" fill="#e76f00">OfDouble</text>
</a>
</g>
</g>
<!-- java.lang.classfile.AnnotationValue.OfDouble&#45;&gt;java.lang.classfile.AnnotationValue.OfConstant -->
<g id="edge5" class="edge"><title>java.lang.classfile.AnnotationValue.OfDouble&#45;&gt;java.lang.classfile.AnnotationValue.OfConstant</title>
<path fill="none" stroke="#999999" stroke-width="2" d="M188.066,-35.6338C194.044,-37.5491 200.159,-39.4022 206,-41 294.536,-65.2209 319.178,-60.8505 408,-84 410.804,-84.7309 413.67,-85.5079 416.558,-86.3148"/>
<polygon fill="#999999" stroke="#999999" stroke-width="2" points="426.402,-89.1494 415.547,-90.7066 421.459,-88.2463 416.654,-86.8628 416.792,-86.3823 416.931,-85.9018 421.736,-87.2854 418.038,-82.058 426.402,-89.1494 426.402,-89.1494"/>
</g>
<!-- java.lang.classfile.AnnotationValue.OfFloat -->
<g id="node7" class="node"><title>java.lang.classfile.AnnotationValue.OfFloat</title>
<g id="a_node7"><a xlink:href="../../../java/lang/classfile/AnnotationValue.OfFloat.html" xlink:title="java.lang.classfile.AnnotationValue.OfFloat">
<text text-anchor="middle" x="258" y="-17.4" font-family="DejaVuSans" font-size="12.00" fill="#e76f00">OfFloat</text>
</a>
</g>
</g>
<!-- java.lang.classfile.AnnotationValue.OfFloat&#45;&gt;java.lang.classfile.AnnotationValue.OfConstant -->
<g id="edge6" class="edge"><title>java.lang.classfile.AnnotationValue.OfFloat&#45;&gt;java.lang.classfile.AnnotationValue.OfConstant</title>
<path fill="none" stroke="#999999" stroke-width="2" d="M292.222,-34.6747C325.829,-47.6127 377.618,-67.5501 416.821,-82.6424"/>
<polygon fill="#999999" stroke="#999999" stroke-width="2" points="426.498,-86.3678 415.549,-86.9746 421.652,-85.0381 416.986,-83.2417 417.166,-82.7751 417.345,-82.3084 422.012,-84.1048 418.783,-78.5755 426.498,-86.3678 426.498,-86.3678"/>
</g>
<!-- java.lang.classfile.AnnotationValue.OfLong -->
<g id="node8" class="node"><title>java.lang.classfile.AnnotationValue.OfLong</title>
<g id="a_node8"><a xlink:href="../../../java/lang/classfile/AnnotationValue.OfLong.html" xlink:title="java.lang.classfile.AnnotationValue.OfLong">
<text text-anchor="middle" x="362" y="-17.4" font-family="DejaVuSans" font-size="12.00" fill="#e76f00">OfLong</text>
</a>
</g>
</g>
<!-- java.lang.classfile.AnnotationValue.OfLong&#45;&gt;java.lang.classfile.AnnotationValue.OfConstant -->
<g id="edge7" class="edge"><title>java.lang.classfile.AnnotationValue.OfLong&#45;&gt;java.lang.classfile.AnnotationValue.OfConstant</title>
<path fill="none" stroke="#999999" stroke-width="2" d="M388.108,-41.141C402.563,-52.0149 420.713,-65.6698 436.343,-77.4277"/>
<polygon fill="#999999" stroke="#999999" stroke-width="2" points="444.727,-83.735 434.031,-81.3193 440.431,-81.1287 436.435,-78.1228 436.736,-77.7233 437.036,-77.3237 441.032,-80.3296 439.441,-74.1272 444.727,-83.735 444.727,-83.735"/>
</g>
<!-- java.lang.classfile.AnnotationValue.OfInteger -->
<g id="node9" class="node"><title>java.lang.classfile.AnnotationValue.OfInteger</title>
<g id="a_node9"><a xlink:href="../../../java/lang/classfile/AnnotationValue.OfInteger.html" xlink:title="java.lang.classfile.AnnotationValue.OfInteger">
<text text-anchor="middle" x="471" y="-17.4" font-family="DejaVuSans" font-size="12.00" fill="#e76f00">OfInteger</text>
</a>
</g>
</g>
<!-- java.lang.classfile.AnnotationValue.OfInteger&#45;&gt;java.lang.classfile.AnnotationValue.OfConstant -->
<g id="edge8" class="edge"><title>java.lang.classfile.AnnotationValue.OfInteger&#45;&gt;java.lang.classfile.AnnotationValue.OfConstant</title>
<path fill="none" stroke="#999999" stroke-width="2" d="M471,-41.3499C471,-51.0192 471,-62.8498 471,-73.5843"/>
<polygon fill="#999999" stroke="#999999" stroke-width="2" points="471,-83.8329 466.5,-73.8328 470.5,-78.8329 470.5,-73.8329 471,-73.8329 471.5,-73.8329 471.5,-78.8329 475.5,-73.8329 471,-83.8329 471,-83.8329"/>
</g>
<!-- java.lang.classfile.AnnotationValue.OfShort -->
<g id="node10" class="node"><title>java.lang.classfile.AnnotationValue.OfShort</title>
<g id="a_node10"><a xlink:href="../../../java/lang/classfile/AnnotationValue.OfShort.html" xlink:title="java.lang.classfile.AnnotationValue.OfShort">
<text text-anchor="middle" x="580" y="-17.4" font-family="DejaVuSans" font-size="12.00" fill="#e76f00">OfShort</text>
</a>
</g>
</g>
<!-- java.lang.classfile.AnnotationValue.OfShort&#45;&gt;java.lang.classfile.AnnotationValue.OfConstant -->
<g id="edge9" class="edge"><title>java.lang.classfile.AnnotationValue.OfShort&#45;&gt;java.lang.classfile.AnnotationValue.OfConstant</title>
<path fill="none" stroke="#999999" stroke-width="2" d="M553.892,-41.141C539.437,-52.0149 521.287,-65.6698 505.657,-77.4277"/>
<polygon fill="#999999" stroke="#999999" stroke-width="2" points="497.273,-83.735 502.559,-74.1272 500.968,-80.3296 504.964,-77.3237 505.264,-77.7233 505.565,-78.1228 501.569,-81.1287 507.969,-81.3193 497.273,-83.735 497.273,-83.735"/>
</g>
<!-- java.lang.classfile.AnnotationValue.OfCharacter -->
<g id="node11" class="node"><title>java.lang.classfile.AnnotationValue.OfCharacter</title>
<g id="a_node11"><a xlink:href="../../../java/lang/classfile/AnnotationValue.OfCharacter.html" xlink:title="java.lang.classfile.AnnotationValue.OfCharacter">
<text text-anchor="middle" x="697" y="-17.4" font-family="DejaVuSans" font-size="12.00" fill="#e76f00">OfCharacter</text>
</a>
</g>
</g>
<!-- java.lang.classfile.AnnotationValue.OfCharacter&#45;&gt;java.lang.classfile.AnnotationValue.OfConstant -->
<g id="edge10" class="edge"><title>java.lang.classfile.AnnotationValue.OfCharacter&#45;&gt;java.lang.classfile.AnnotationValue.OfConstant</title>
<path fill="none" stroke="#999999" stroke-width="2" d="M650.447,-38.391C613.996,-51.6166 563.238,-70.0331 525.004,-83.9058"/>
<polygon fill="#999999" stroke="#999999" stroke-width="2" points="515.569,-87.3289 523.435,-79.6879 520.099,-85.1535 524.799,-83.4481 524.97,-83.9181 525.14,-84.3881 520.44,-86.0935 526.504,-88.1482 515.569,-87.3289 515.569,-87.3289"/>
</g>
<!-- java.lang.classfile.AnnotationValue.OfByte -->
<g id="node12" class="node"><title>java.lang.classfile.AnnotationValue.OfByte</title>
<g id="a_node12"><a xlink:href="../../../java/lang/classfile/AnnotationValue.OfByte.html" xlink:title="java.lang.classfile.AnnotationValue.OfByte">
<text text-anchor="middle" x="812" y="-17.4" font-family="DejaVuSans" font-size="12.00" fill="#e76f00">OfByte</text>
</a>
</g>
</g>
<!-- java.lang.classfile.AnnotationValue.OfByte&#45;&gt;java.lang.classfile.AnnotationValue.OfConstant -->
<g id="edge11" class="edge"><title>java.lang.classfile.AnnotationValue.OfByte&#45;&gt;java.lang.classfile.AnnotationValue.OfConstant</title>
<path fill="none" stroke="#999999" stroke-width="2" d="M779.37,-34.9645C773.326,-37.1749 767.02,-39.2963 761,-41 661.778,-69.0817 633.026,-58.9313 533,-84 530.421,-84.6463 527.792,-85.3389 525.143,-86.0637"/>
<polygon fill="#999999" stroke="#999999" stroke-width="2" points="515.522,-88.8042 523.907,-81.7366 520.194,-86.9535 525.003,-85.5836 525.14,-86.0645 525.277,-86.5453 520.468,-87.9152 526.373,-90.3923 515.522,-88.8042 515.522,-88.8042"/>
</g>
<!-- java.lang.classfile.AnnotationValue.OfBoolean -->
<g id="node13" class="node"><title>java.lang.classfile.AnnotationValue.OfBoolean</title>
<g id="a_node13"><a xlink:href="../../../java/lang/classfile/AnnotationValue.OfBoolean.html" xlink:title="java.lang.classfile.AnnotationValue.OfBoolean">
<text text-anchor="middle" x="924" y="-17.4" font-family="DejaVuSans" font-size="12.00" fill="#e76f00">OfBoolean</text>
</a>
</g>
</g>
<!-- java.lang.classfile.AnnotationValue.OfBoolean&#45;&gt;java.lang.classfile.AnnotationValue.OfConstant -->
<g id="edge12" class="edge"><title>java.lang.classfile.AnnotationValue.OfBoolean&#45;&gt;java.lang.classfile.AnnotationValue.OfConstant</title>
<path fill="none" stroke="#999999" stroke-width="2" d="M880.943,-36.3214C874.962,-38.0694 868.86,-39.6928 863,-41 718.642,-73.2039 677.433,-52.1344 533,-84 530.541,-84.5424 528.04,-85.1384 525.523,-85.7745"/>
<polygon fill="#999999" stroke="#999999" stroke-width="2" points="515.788,-88.3985 524.272,-81.4511 520.485,-86.6145 525.313,-85.3132 525.443,-85.796 525.573,-86.2788 520.746,-87.58 526.614,-90.141 515.788,-88.3985 515.788,-88.3985"/>
</g>
<!-- java.lang.classfile.AnnotationValue.OfClass -->
<g id="node14" class="node"><title>java.lang.classfile.AnnotationValue.OfClass</title>
<g id="a_node14"><a xlink:href="../../../java/lang/classfile/AnnotationValue.OfClass.html" xlink:title="java.lang.classfile.AnnotationValue.OfClass">
<text text-anchor="middle" x="587" y="-101.4" font-family="DejaVuSans" font-size="12.00" fill="#e76f00">OfClass</text>
</a>
</g>
</g>
<!-- java.lang.classfile.AnnotationValue.OfClass&#45;&gt;java.lang.classfile.AnnotationValue -->
<g id="edge13" class="edge"><title>java.lang.classfile.AnnotationValue.OfClass&#45;&gt;java.lang.classfile.AnnotationValue</title>
<path fill="none" stroke="#999999" stroke-width="2" d="M559.215,-125.141C543.69,-136.116 524.158,-149.923 507.421,-161.754"/>
<polygon fill="#999999" stroke="#999999" stroke-width="2" points="498.96,-167.735 504.528,-158.288 502.754,-164.441 506.837,-161.554 507.126,-161.963 507.415,-162.371 503.332,-165.257 509.724,-165.637 498.96,-167.735 498.96,-167.735"/>
</g>
<!-- java.lang.classfile.AnnotationValue.OfEnum -->
<g id="node15" class="node"><title>java.lang.classfile.AnnotationValue.OfEnum</title>
<g id="a_node15"><a xlink:href="../../../java/lang/classfile/AnnotationValue.OfEnum.html" xlink:title="java.lang.classfile.AnnotationValue.OfEnum">
<text text-anchor="middle" x="695" y="-101.4" font-family="DejaVuSans" font-size="12.00" fill="#e76f00">OfEnum</text>
</a>
</g>
</g>
<!-- java.lang.classfile.AnnotationValue.OfEnum&#45;&gt;java.lang.classfile.AnnotationValue -->
<g id="edge14" class="edge"><title>java.lang.classfile.AnnotationValue.OfEnum&#45;&gt;java.lang.classfile.AnnotationValue</title>
<path fill="none" stroke="#999999" stroke-width="2" d="M658.512,-118.857C624.884,-131.167 574.257,-149.7 534.082,-164.408"/>
<polygon fill="#999999" stroke="#999999" stroke-width="2" points="524.635,-167.866 532.478,-160.202 529.158,-165.678 533.853,-163.959 534.025,-164.428 534.197,-164.898 529.502,-166.617 535.572,-168.654 524.635,-167.866 524.635,-167.866"/>
</g>
</g>
</svg>
