<?xml version="1.0" encoding="UTF-8" standalone="no"?>
<!DOCTYPE svg PUBLIC "-//W3C//DTD SVG 1.1//EN"
 "http://www.w3.org/Graphics/SVG/1.1/DTD/svg11.dtd">
<!-- Generated by graphviz version 2.38.0 (20140413.2041)
 -->
<!-- Title: G Pages: 1 -->
<svg width="7652pt" height="217pt"
 viewBox="0.00 0.00 7651.50 217.00" xmlns="http://www.w3.org/2000/svg" xmlns:xlink="http://www.w3.org/1999/xlink">
<g id="graph0" class="graph" transform="scale(1 1) rotate(0) translate(4 213)">
<title>G</title>
<polygon fill="white" stroke="none" points="-4,4 -4,-213 7647.5,-213 7647.5,4 -4,4"/>
<!-- java.lang.classfile.attribute.AnnotationDefaultAttribute -->
<g id="node1" class="node"><title>java.lang.classfile.attribute.AnnotationDefaultAttribute</title>
<g id="a_node1"><a xlink:href="../../../java/lang/classfile/attribute/AnnotationDefaultAttribute.html" xlink:title="java.lang.classfile.attribute.AnnotationDefaultAttribute">
<text text-anchor="middle" x="84.5" y="-101.4" font-family="DejaVuSans" font-size="12.00" fill="#e76f00">AnnotationDefaultAttribute</text>
</a>
</g>
</g>
<!-- java.lang.classfile.Attribute -->
<g id="node2" class="node"><title>java.lang.classfile.Attribute</title>
<g id="a_node2"><a xlink:href="../../../java/lang/classfile/Attribute.html" xlink:title="java.lang.classfile.Attribute">
<text text-anchor="middle" x="3666.5" y="-185.4" font-family="DejaVuSans" font-size="12.00" fill="#e76f00">Attribute</text>
</a>
</g>
</g>
<!-- java.lang.classfile.attribute.AnnotationDefaultAttribute&#45;&gt;java.lang.classfile.Attribute -->
<g id="edge1" class="edge"><title>java.lang.classfile.attribute.AnnotationDefaultAttribute&#45;&gt;java.lang.classfile.Attribute</title>
<path fill="none" stroke="#999999" stroke-width="2" d="M169.207,-122.712C175.38,-123.605 181.526,-124.385 187.5,-125 544.142,-161.697 3231.11,-184.08 3619.71,-187.139"/>
<polygon fill="#999999" stroke="#999999" stroke-width="2" points="3629.76,-187.218 3619.73,-191.639 3624.76,-187.679 3619.76,-187.64 3619.76,-187.14 3619.77,-186.64 3624.77,-186.679 3619.8,-182.64 3629.76,-187.218 3629.76,-187.218"/>
</g>
<!-- java.lang.classfile.attribute.BootstrapMethodsAttribute -->
<g id="node3" class="node"><title>java.lang.classfile.attribute.BootstrapMethodsAttribute</title>
<g id="a_node3"><a xlink:href="../../../java/lang/classfile/attribute/BootstrapMethodsAttribute.html" xlink:title="java.lang.classfile.attribute.BootstrapMethodsAttribute">
<text text-anchor="middle" x="290.5" y="-101.4" font-family="DejaVuSans" font-size="12.00" fill="#e76f00">BootstrapMethodsAttribute</text>
</a>
</g>
</g>
<!-- java.lang.classfile.attribute.BootstrapMethodsAttribute&#45;&gt;java.lang.classfile.Attribute -->
<g id="edge2" class="edge"><title>java.lang.classfile.attribute.BootstrapMethodsAttribute&#45;&gt;java.lang.classfile.Attribute</title>
<path fill="none" stroke="#999999" stroke-width="2" d="M375.75,-122.662C382.078,-123.574 388.378,-124.372 394.5,-125 1060,-193.268 3269.92,-188.825 3619.69,-187.675"/>
<polygon fill="#999999" stroke="#999999" stroke-width="2" points="3629.73,-187.641 3619.74,-192.175 3624.73,-188.158 3619.73,-188.175 3619.73,-187.675 3619.72,-187.175 3624.72,-187.158 3619.71,-183.175 3629.73,-187.641 3629.73,-187.641"/>
</g>
<!-- java.lang.classfile.attribute.CharacterRangeTableAttribute -->
<g id="node4" class="node"><title>java.lang.classfile.attribute.CharacterRangeTableAttribute</title>
<g id="a_node4"><a xlink:href="../../../java/lang/classfile/attribute/CharacterRangeTableAttribute.html" xlink:title="java.lang.classfile.attribute.CharacterRangeTableAttribute">
<text text-anchor="middle" x="507.5" y="-101.4" font-family="DejaVuSans" font-size="12.00" fill="#e76f00">CharacterRangeTableAttribute</text>
</a>
</g>
</g>
<!-- java.lang.classfile.attribute.CharacterRangeTableAttribute&#45;&gt;java.lang.classfile.Attribute -->
<g id="edge3" class="edge"><title>java.lang.classfile.attribute.CharacterRangeTableAttribute&#45;&gt;java.lang.classfile.Attribute</title>
<path fill="none" stroke="#999999" stroke-width="2" d="M603.15,-122.924C609.347,-123.724 615.503,-124.429 621.5,-125 1239.2,-183.839 3283.69,-187.323 3619.6,-187.496"/>
<polygon fill="#999999" stroke="#999999" stroke-width="2" points="3629.94,-187.5 3619.94,-191.996 3624.94,-187.998 3619.94,-187.996 3619.94,-187.496 3619.94,-186.996 3624.94,-186.998 3619.94,-182.996 3629.94,-187.5 3629.94,-187.5"/>
</g>
<!-- java.lang.classfile.attribute.CodeAttribute -->
<g id="node5" class="node"><title>java.lang.classfile.attribute.CodeAttribute</title>
<g id="a_node5"><a xlink:href="../../../java/lang/classfile/attribute/CodeAttribute.html" xlink:title="java.lang.classfile.attribute.CodeAttribute">
<text text-anchor="middle" x="690.5" y="-101.4" font-family="DejaVuSans" font-size="12.00" fill="#e76f00">CodeAttribute</text>
</a>
</g>
</g>
<!-- java.lang.classfile.attribute.CodeAttribute&#45;&gt;java.lang.classfile.Attribute -->
<g id="edge4" class="edge"><title>java.lang.classfile.attribute.CodeAttribute&#45;&gt;java.lang.classfile.Attribute</title>
<path fill="none" stroke="#999999" stroke-width="2" d="M741.807,-121.539C747.726,-122.93 753.714,-124.135 759.5,-125 1053.58,-168.983 3268.85,-184.948 3619.74,-187.211"/>
<polygon fill="#999999" stroke="#999999" stroke-width="2" points="3629.81,-187.275 3619.78,-191.711 3624.81,-187.743 3619.81,-187.711 3619.81,-187.211 3619.81,-186.711 3624.81,-186.743 3619.84,-182.711 3629.81,-187.275 3629.81,-187.275"/>
</g>
<!-- java.lang.classfile.attribute.CompilationIDAttribute -->
<g id="node6" class="node"><title>java.lang.classfile.attribute.CompilationIDAttribute</title>
<g id="a_node6"><a xlink:href="../../../java/lang/classfile/attribute/CompilationIDAttribute.html" xlink:title="java.lang.classfile.attribute.CompilationIDAttribute">
<text text-anchor="middle" x="851.5" y="-101.4" font-family="DejaVuSans" font-size="12.00" fill="#e76f00">CompilationIDAttribute</text>
</a>
</g>
</g>
<!-- java.lang.classfile.attribute.CompilationIDAttribute&#45;&gt;java.lang.classfile.Attribute -->
<g id="edge5" class="edge"><title>java.lang.classfile.attribute.CompilationIDAttribute&#45;&gt;java.lang.classfile.Attribute</title>
<path fill="none" stroke="#999999" stroke-width="2" d="M926.175,-122.402C932.352,-123.421 938.518,-124.31 944.5,-125 1492.67,-188.219 3305,-188.111 3619.71,-187.602"/>
<polygon fill="#999999" stroke="#999999" stroke-width="2" points="3629.85,-187.584 3619.86,-192.102 3624.85,-188.093 3619.85,-188.102 3619.85,-187.602 3619.85,-187.102 3624.85,-187.093 3619.84,-183.102 3629.85,-187.584 3629.85,-187.584"/>
</g>
<!-- java.lang.classfile.attribute.ConstantValueAttribute -->
<g id="node7" class="node"><title>java.lang.classfile.attribute.ConstantValueAttribute</title>
<g id="a_node7"><a xlink:href="../../../java/lang/classfile/attribute/ConstantValueAttribute.html" xlink:title="java.lang.classfile.attribute.ConstantValueAttribute">
<text text-anchor="middle" x="1038.5" y="-101.4" font-family="DejaVuSans" font-size="12.00" fill="#e76f00">ConstantValueAttribute</text>
</a>
</g>
</g>
<!-- java.lang.classfile.attribute.ConstantValueAttribute&#45;&gt;java.lang.classfile.Attribute -->
<g id="edge6" class="edge"><title>java.lang.classfile.attribute.ConstantValueAttribute&#45;&gt;java.lang.classfile.Attribute</title>
<path fill="none" stroke="#999999" stroke-width="2" d="M1114.53,-122.346C1120.93,-123.385 1127.31,-124.294 1133.5,-125 1641.83,-182.976 3317.76,-187.195 3619.68,-187.482"/>
<polygon fill="#999999" stroke="#999999" stroke-width="2" points="3629.84,-187.491 3619.84,-191.982 3624.84,-187.986 3619.84,-187.982 3619.84,-187.482 3619.84,-186.982 3624.84,-186.986 3619.84,-182.982 3629.84,-187.491 3629.84,-187.491"/>
</g>
<!-- java.lang.classfile.attribute.DeprecatedAttribute -->
<g id="node8" class="node"><title>java.lang.classfile.attribute.DeprecatedAttribute</title>
<g id="a_node8"><a xlink:href="../../../java/lang/classfile/attribute/DeprecatedAttribute.html" xlink:title="java.lang.classfile.attribute.DeprecatedAttribute">
<text text-anchor="middle" x="1218.5" y="-101.4" font-family="DejaVuSans" font-size="12.00" fill="#e76f00">DeprecatedAttribute</text>
</a>
</g>
</g>
<!-- java.lang.classfile.attribute.DeprecatedAttribute&#45;&gt;java.lang.classfile.Attribute -->
<g id="edge7" class="edge"><title>java.lang.classfile.attribute.DeprecatedAttribute&#45;&gt;java.lang.classfile.Attribute</title>
<path fill="none" stroke="#999999" stroke-width="2" d="M1286.35,-122.179C1292.46,-123.288 1298.58,-124.257 1304.5,-125 1776.16,-184.13 3329.71,-187.422 3619.67,-187.515"/>
<polygon fill="#999999" stroke="#999999" stroke-width="2" points="3629.84,-187.518 3619.83,-192.015 3624.84,-188.016 3619.84,-188.015 3619.84,-187.515 3619.84,-187.015 3624.84,-187.016 3619.84,-183.015 3629.84,-187.518 3629.84,-187.518"/>
</g>
<!-- java.lang.classfile.attribute.EnclosingMethodAttribute -->
<g id="node9" class="node"><title>java.lang.classfile.attribute.EnclosingMethodAttribute</title>
<g id="a_node9"><a xlink:href="../../../java/lang/classfile/attribute/EnclosingMethodAttribute.html" xlink:title="java.lang.classfile.attribute.EnclosingMethodAttribute">
<text text-anchor="middle" x="1405.5" y="-101.4" font-family="DejaVuSans" font-size="12.00" fill="#e76f00">EnclosingMethodAttribute</text>
</a>
</g>
</g>
<!-- java.lang.classfile.attribute.EnclosingMethodAttribute&#45;&gt;java.lang.classfile.Attribute -->
<g id="edge8" class="edge"><title>java.lang.classfile.attribute.EnclosingMethodAttribute&#45;&gt;java.lang.classfile.Attribute</title>
<path fill="none" stroke="#999999" stroke-width="2" d="M1488.56,-122.641C1494.62,-123.551 1500.64,-124.354 1506.5,-125 1936.56,-172.422 3345.18,-185.127 3619.84,-187.178"/>
<polygon fill="#999999" stroke="#999999" stroke-width="2" points="3629.87,-187.252 3619.83,-191.678 3624.86,-187.715 3619.86,-187.678 3619.87,-187.178 3619.87,-186.678 3624.87,-186.715 3619.9,-182.678 3629.87,-187.252 3629.87,-187.252"/>
</g>
<!-- java.lang.classfile.attribute.ExceptionsAttribute -->
<g id="node10" class="node"><title>java.lang.classfile.attribute.ExceptionsAttribute</title>
<g id="a_node10"><a xlink:href="../../../java/lang/classfile/attribute/ExceptionsAttribute.html" xlink:title="java.lang.classfile.attribute.ExceptionsAttribute">
<text text-anchor="middle" x="1590.5" y="-101.4" font-family="DejaVuSans" font-size="12.00" fill="#e76f00">ExceptionsAttribute</text>
</a>
</g>
</g>
<!-- java.lang.classfile.attribute.ExceptionsAttribute&#45;&gt;java.lang.classfile.Attribute -->
<g id="edge9" class="edge"><title>java.lang.classfile.attribute.ExceptionsAttribute&#45;&gt;java.lang.classfile.Attribute</title>
<path fill="none" stroke="#999999" stroke-width="2" d="M1656.63,-121.977C1662.98,-123.164 1669.34,-124.205 1675.5,-125 2068.98,-175.82 3356.49,-185.749 3619.37,-187.262"/>
<polygon fill="#999999" stroke="#999999" stroke-width="2" points="3629.71,-187.321 3619.69,-191.764 3624.71,-187.792 3619.71,-187.764 3619.71,-187.264 3619.71,-186.764 3624.71,-186.792 3619.74,-182.764 3629.71,-187.321 3629.71,-187.321"/>
</g>
<!-- java.lang.classfile.attribute.InnerClassesAttribute -->
<g id="node11" class="node"><title>java.lang.classfile.attribute.InnerClassesAttribute</title>
<g id="a_node11"><a xlink:href="../../../java/lang/classfile/attribute/InnerClassesAttribute.html" xlink:title="java.lang.classfile.attribute.InnerClassesAttribute">
<text text-anchor="middle" x="1764.5" y="-101.4" font-family="DejaVuSans" font-size="12.00" fill="#e76f00">InnerClassesAttribute</text>
</a>
</g>
</g>
<!-- java.lang.classfile.attribute.InnerClassesAttribute&#45;&gt;java.lang.classfile.Attribute -->
<g id="edge10" class="edge"><title>java.lang.classfile.attribute.InnerClassesAttribute&#45;&gt;java.lang.classfile.Attribute</title>
<path fill="none" stroke="#999999" stroke-width="2" d="M1836.02,-122.205C1842.25,-123.291 1848.47,-124.249 1854.5,-125 2210.93,-169.398 3371.95,-184.307 3619.72,-187.02"/>
<polygon fill="#999999" stroke="#999999" stroke-width="2" points="3629.82,-187.13 3619.77,-191.521 3624.82,-187.575 3619.82,-187.521 3619.82,-187.021 3619.83,-186.521 3624.83,-186.576 3619.87,-182.522 3629.82,-187.13 3629.82,-187.13"/>
</g>
<!-- java.lang.classfile.attribute.LineNumberTableAttribute -->
<g id="node12" class="node"><title>java.lang.classfile.attribute.LineNumberTableAttribute</title>
<g id="a_node12"><a xlink:href="../../../java/lang/classfile/attribute/LineNumberTableAttribute.html" xlink:title="java.lang.classfile.attribute.LineNumberTableAttribute">
<text text-anchor="middle" x="1956.5" y="-101.4" font-family="DejaVuSans" font-size="12.00" fill="#e76f00">LineNumberTableAttribute</text>
</a>
</g>
</g>
<!-- java.lang.classfile.attribute.LineNumberTableAttribute&#45;&gt;java.lang.classfile.Attribute -->
<g id="edge11" class="edge"><title>java.lang.classfile.attribute.LineNumberTableAttribute&#45;&gt;java.lang.classfile.Attribute</title>
<path fill="none" stroke="#999999" stroke-width="2" d="M2040.67,-122.615C2046.69,-123.523 2052.68,-124.334 2058.5,-125 2372.87,-160.954 3389.87,-182.215 3619.94,-186.635"/>
<polygon fill="#999999" stroke="#999999" stroke-width="2" points="3629.99,-186.827 3619.9,-191.135 3624.98,-187.231 3619.98,-187.135 3619.99,-186.636 3620,-186.136 3625,-186.231 3620.08,-182.136 3629.99,-186.827 3629.99,-186.827"/>
</g>
<!-- java.lang.classfile.attribute.LocalVariableTableAttribute -->
<g id="node13" class="node"><title>java.lang.classfile.attribute.LocalVariableTableAttribute</title>
<g id="a_node13"><a xlink:href="../../../java/lang/classfile/attribute/LocalVariableTableAttribute.html" xlink:title="java.lang.classfile.attribute.LocalVariableTableAttribute">
<text text-anchor="middle" x="2164.5" y="-101.4" font-family="DejaVuSans" font-size="12.00" fill="#e76f00">LocalVariableTableAttribute</text>
</a>
</g>
</g>
<!-- java.lang.classfile.attribute.LocalVariableTableAttribute&#45;&gt;java.lang.classfile.Attribute -->
<g id="edge12" class="edge"><title>java.lang.classfile.attribute.LocalVariableTableAttribute&#45;&gt;java.lang.classfile.Attribute</title>
<path fill="none" stroke="#999999" stroke-width="2" d="M2252.53,-122.519C2258.93,-123.457 2265.31,-124.3 2271.5,-125 2798.24,-184.52 3442.88,-187.96 3619.74,-187.698"/>
<polygon fill="#999999" stroke="#999999" stroke-width="2" points="3629.99,-187.677 3619.99,-192.197 3624.99,-188.187 3619.99,-188.197 3619.99,-187.697 3619.98,-187.197 3624.98,-187.187 3619.98,-183.197 3629.99,-187.677 3629.99,-187.677"/>
</g>
<!-- java.lang.classfile.attribute.LocalVariableTypeTableAttribute -->
<g id="node14" class="node"><title>java.lang.classfile.attribute.LocalVariableTypeTableAttribute</title>
<g id="a_node14"><a xlink:href="../../../java/lang/classfile/attribute/LocalVariableTypeTableAttribute.html" xlink:title="java.lang.classfile.attribute.LocalVariableTypeTableAttribute">
<text text-anchor="middle" x="2389.5" y="-101.4" font-family="DejaVuSans" font-size="12.00" fill="#e76f00">LocalVariableTypeTableAttribute</text>
</a>
</g>
</g>
<!-- java.lang.classfile.attribute.LocalVariableTypeTableAttribute&#45;&gt;java.lang.classfile.Attribute -->
<g id="edge13" class="edge"><title>java.lang.classfile.attribute.LocalVariableTypeTableAttribute&#45;&gt;java.lang.classfile.Attribute</title>
<path fill="none" stroke="#999999" stroke-width="2" d="M2490.03,-122.76C2496.27,-123.587 2502.46,-124.345 2508.5,-125 2938.47,-171.692 3462.22,-184.031 3619.61,-186.793"/>
<polygon fill="#999999" stroke="#999999" stroke-width="2" points="3629.88,-186.969 3619.8,-191.297 3624.87,-187.383 3619.87,-187.297 3619.88,-186.797 3619.89,-186.298 3624.89,-186.383 3619.96,-182.298 3629.88,-186.969 3629.88,-186.969"/>
</g>
<!-- java.lang.classfile.attribute.MethodParametersAttribute -->
<g id="node15" class="node"><title>java.lang.classfile.attribute.MethodParametersAttribute</title>
<g id="a_node15"><a xlink:href="../../../java/lang/classfile/attribute/MethodParametersAttribute.html" xlink:title="java.lang.classfile.attribute.MethodParametersAttribute">
<text text-anchor="middle" x="2613.5" y="-101.4" font-family="DejaVuSans" font-size="12.00" fill="#e76f00">MethodParametersAttribute</text>
</a>
</g>
</g>
<!-- java.lang.classfile.attribute.MethodParametersAttribute&#45;&gt;java.lang.classfile.Attribute -->
<g id="edge14" class="edge"><title>java.lang.classfile.attribute.MethodParametersAttribute&#45;&gt;java.lang.classfile.Attribute</title>
<path fill="none" stroke="#999999" stroke-width="2" d="M2700.72,-122.374C2707.06,-123.346 2713.37,-124.237 2719.5,-125 3063.3,-167.822 3481.22,-182.464 3619.56,-186.329"/>
<polygon fill="#999999" stroke="#999999" stroke-width="2" points="3629.79,-186.609 3619.67,-190.834 3624.78,-186.972 3619.78,-186.835 3619.8,-186.335 3619.81,-185.835 3624.81,-185.972 3619.92,-181.837 3629.79,-186.609 3629.79,-186.609"/>
</g>
<!-- java.lang.classfile.attribute.ModuleAttribute -->
<g id="node16" class="node"><title>java.lang.classfile.attribute.ModuleAttribute</title>
<g id="a_node16"><a xlink:href="../../../java/lang/classfile/attribute/ModuleAttribute.html" xlink:title="java.lang.classfile.attribute.ModuleAttribute">
<text text-anchor="middle" x="2793.5" y="-101.4" font-family="DejaVuSans" font-size="12.00" fill="#e76f00">ModuleAttribute</text>
</a>
</g>
</g>
<!-- java.lang.classfile.attribute.ModuleAttribute&#45;&gt;java.lang.classfile.Attribute -->
<g id="edge15" class="edge"><title>java.lang.classfile.attribute.ModuleAttribute&#45;&gt;java.lang.classfile.Attribute</title>
<path fill="none" stroke="#999999" stroke-width="2" d="M2850.19,-121.362C2856.34,-122.746 2862.53,-123.998 2868.5,-125 3150.82,-172.377 3495.49,-183.977 3619.37,-186.701"/>
<polygon fill="#999999" stroke="#999999" stroke-width="2" points="3629.63,-186.917 3619.54,-191.205 3624.62,-187.311 3619.62,-187.206 3619.63,-186.706 3619.64,-186.206 3624.64,-186.311 3619.73,-182.207 3629.63,-186.917 3629.63,-186.917"/>
</g>
<!-- java.lang.classfile.attribute.ModuleHashesAttribute -->
<g id="node17" class="node"><title>java.lang.classfile.attribute.ModuleHashesAttribute</title>
<g id="a_node17"><a xlink:href="../../../java/lang/classfile/attribute/ModuleHashesAttribute.html" xlink:title="java.lang.classfile.attribute.ModuleHashesAttribute">
<text text-anchor="middle" x="2963.5" y="-101.4" font-family="DejaVuSans" font-size="12.00" fill="#e76f00">ModuleHashesAttribute</text>
</a>
</g>
</g>
<!-- java.lang.classfile.attribute.ModuleHashesAttribute&#45;&gt;java.lang.classfile.Attribute -->
<g id="edge16" class="edge"><title>java.lang.classfile.attribute.ModuleHashesAttribute&#45;&gt;java.lang.classfile.Attribute</title>
<path fill="none" stroke="#999999" stroke-width="2" d="M3040.64,-122.005C3046.67,-123.09 3052.68,-124.105 3058.5,-125 3266.62,-156.975 3517.41,-176.932 3619.67,-184.291"/>
<polygon fill="#999999" stroke="#999999" stroke-width="2" points="3629.67,-185.004 3619.38,-188.781 3624.65,-185.147 3619.66,-184.792 3619.7,-184.293 3619.73,-183.794 3624.72,-184.15 3620.02,-179.804 3629.67,-185.004 3629.67,-185.004"/>
</g>
<!-- java.lang.classfile.attribute.ModuleMainClassAttribute -->
<g id="node18" class="node"><title>java.lang.classfile.attribute.ModuleMainClassAttribute</title>
<g id="a_node18"><a xlink:href="../../../java/lang/classfile/attribute/ModuleMainClassAttribute.html" xlink:title="java.lang.classfile.attribute.ModuleMainClassAttribute">
<text text-anchor="middle" x="3161.5" y="-101.4" font-family="DejaVuSans" font-size="12.00" fill="#e76f00">ModuleMainClassAttribute</text>
</a>
</g>
</g>
<!-- java.lang.classfile.attribute.ModuleMainClassAttribute&#45;&gt;java.lang.classfile.Attribute -->
<g id="edge17" class="edge"><title>java.lang.classfile.attribute.ModuleMainClassAttribute&#45;&gt;java.lang.classfile.Attribute</title>
<path fill="none" stroke="#999999" stroke-width="2" d="M3246.61,-121.84C3252.66,-122.932 3258.67,-123.995 3264.5,-125 3392.8,-147.112 3544.76,-169.785 3619.79,-180.746"/>
<polygon fill="#999999" stroke="#999999" stroke-width="2" points="3629.85,-182.214 3619.31,-185.224 3624.83,-181.987 3619.88,-181.266 3619.96,-180.771 3620.03,-180.276 3624.98,-180.998 3620.61,-176.318 3629.85,-182.214 3629.85,-182.214"/>
</g>
<!-- java.lang.classfile.attribute.ModulePackagesAttribute -->
<g id="node19" class="node"><title>java.lang.classfile.attribute.ModulePackagesAttribute</title>
<g id="a_node19"><a xlink:href="../../../java/lang/classfile/attribute/ModulePackagesAttribute.html" xlink:title="java.lang.classfile.attribute.ModulePackagesAttribute">
<text text-anchor="middle" x="3365.5" y="-101.4" font-family="DejaVuSans" font-size="12.00" fill="#e76f00">ModulePackagesAttribute</text>
</a>
</g>
</g>
<!-- java.lang.classfile.attribute.ModulePackagesAttribute&#45;&gt;java.lang.classfile.Attribute -->
<g id="edge18" class="edge"><title>java.lang.classfile.attribute.ModulePackagesAttribute&#45;&gt;java.lang.classfile.Attribute</title>
<path fill="none" stroke="#999999" stroke-width="2" d="M3437.21,-125.037C3493.83,-140.459 3571.15,-161.525 3619.96,-174.821"/>
<polygon fill="#999999" stroke="#999999" stroke-width="2" points="3629.62,-177.454 3618.79,-179.167 3624.67,-176.622 3619.84,-175.307 3619.97,-174.825 3620.11,-174.343 3624.93,-175.657 3621.16,-170.483 3629.62,-177.454 3629.62,-177.454"/>
</g>
<!-- java.lang.classfile.attribute.ModuleResolutionAttribute -->
<g id="node20" class="node"><title>java.lang.classfile.attribute.ModuleResolutionAttribute</title>
<g id="a_node20"><a xlink:href="../../../java/lang/classfile/attribute/ModuleResolutionAttribute.html" xlink:title="java.lang.classfile.attribute.ModuleResolutionAttribute">
<text text-anchor="middle" x="3569.5" y="-101.4" font-family="DejaVuSans" font-size="12.00" fill="#e76f00">ModuleResolutionAttribute</text>
</a>
</g>
</g>
<!-- java.lang.classfile.attribute.ModuleResolutionAttribute&#45;&gt;java.lang.classfile.Attribute -->
<g id="edge19" class="edge"><title>java.lang.classfile.attribute.ModuleResolutionAttribute&#45;&gt;java.lang.classfile.Attribute</title>
<path fill="none" stroke="#999999" stroke-width="2" d="M3592.98,-125.35C3605.73,-136.127 3621.65,-149.589 3635.42,-161.226"/>
<polygon fill="#999999" stroke="#999999" stroke-width="2" points="3643.24,-167.833 3632.69,-164.814 3639.09,-164.987 3635.28,-161.759 3635.6,-161.377 3635.92,-160.995 3639.74,-164.223 3638.5,-157.94 3643.24,-167.833 3643.24,-167.833"/>
</g>
<!-- java.lang.classfile.attribute.ModuleTargetAttribute -->
<g id="node21" class="node"><title>java.lang.classfile.attribute.ModuleTargetAttribute</title>
<g id="a_node21"><a xlink:href="../../../java/lang/classfile/attribute/ModuleTargetAttribute.html" xlink:title="java.lang.classfile.attribute.ModuleTargetAttribute">
<text text-anchor="middle" x="3763.5" y="-101.4" font-family="DejaVuSans" font-size="12.00" fill="#e76f00">ModuleTargetAttribute</text>
</a>
</g>
</g>
<!-- java.lang.classfile.attribute.ModuleTargetAttribute&#45;&gt;java.lang.classfile.Attribute -->
<g id="edge20" class="edge"><title>java.lang.classfile.attribute.ModuleTargetAttribute&#45;&gt;java.lang.classfile.Attribute</title>
<path fill="none" stroke="#999999" stroke-width="2" d="M3740.02,-125.35C3727.27,-136.127 3711.35,-149.589 3697.58,-161.226"/>
<polygon fill="#999999" stroke="#999999" stroke-width="2" points="3689.76,-167.833 3694.5,-157.94 3693.26,-164.223 3697.08,-160.995 3697.4,-161.377 3697.72,-161.759 3693.91,-164.987 3700.31,-164.814 3689.76,-167.833 3689.76,-167.833"/>
</g>
<!-- java.lang.classfile.attribute.NestHostAttribute -->
<g id="node22" class="node"><title>java.lang.classfile.attribute.NestHostAttribute</title>
<g id="a_node22"><a xlink:href="../../../java/lang/classfile/attribute/NestHostAttribute.html" xlink:title="java.lang.classfile.attribute.NestHostAttribute">
<text text-anchor="middle" x="3933.5" y="-101.4" font-family="DejaVuSans" font-size="12.00" fill="#e76f00">NestHostAttribute</text>
</a>
</g>
</g>
<!-- java.lang.classfile.attribute.NestHostAttribute&#45;&gt;java.lang.classfile.Attribute -->
<g id="edge21" class="edge"><title>java.lang.classfile.attribute.NestHostAttribute&#45;&gt;java.lang.classfile.Attribute</title>
<path fill="none" stroke="#999999" stroke-width="2" d="M3872.24,-124.312C3823.72,-139.215 3756.98,-159.713 3712.83,-173.271"/>
<polygon fill="#999999" stroke="#999999" stroke-width="2" points="3703.22,-176.223 3711.46,-168.985 3707.85,-174.277 3712.63,-172.809 3712.78,-173.287 3712.93,-173.765 3708.15,-175.233 3714.1,-177.589 3703.22,-176.223 3703.22,-176.223"/>
</g>
<!-- java.lang.classfile.attribute.NestMembersAttribute -->
<g id="node23" class="node"><title>java.lang.classfile.attribute.NestMembersAttribute</title>
<g id="a_node23"><a xlink:href="../../../java/lang/classfile/attribute/NestMembersAttribute.html" xlink:title="java.lang.classfile.attribute.NestMembersAttribute">
<text text-anchor="middle" x="4104.5" y="-101.4" font-family="DejaVuSans" font-size="12.00" fill="#e76f00">NestMembersAttribute</text>
</a>
</g>
</g>
<!-- java.lang.classfile.attribute.NestMembersAttribute&#45;&gt;java.lang.classfile.Attribute -->
<g id="edge22" class="edge"><title>java.lang.classfile.attribute.NestMembersAttribute&#45;&gt;java.lang.classfile.Attribute</title>
<path fill="none" stroke="#999999" stroke-width="2" d="M4030.72,-121.342C4024.56,-122.602 4018.43,-123.837 4012.5,-125 3905.75,-145.95 3779.95,-168.02 3713.35,-179.498"/>
<polygon fill="#999999" stroke="#999999" stroke-width="2" points="3703.18,-181.248 3712.28,-175.117 3708.03,-179.907 3712.96,-179.059 3713.04,-179.552 3713.12,-180.045 3708.2,-180.893 3713.8,-183.987 3703.18,-181.248 3703.18,-181.248"/>
</g>
<!-- java.lang.classfile.attribute.PermittedSubclassesAttribute -->
<g id="node24" class="node"><title>java.lang.classfile.attribute.PermittedSubclassesAttribute</title>
<g id="a_node24"><a xlink:href="../../../java/lang/classfile/attribute/PermittedSubclassesAttribute.html" xlink:title="java.lang.classfile.attribute.PermittedSubclassesAttribute">
<text text-anchor="middle" x="4307.5" y="-101.4" font-family="DejaVuSans" font-size="12.00" fill="#e76f00">PermittedSubclassesAttribute</text>
</a>
</g>
</g>
<!-- java.lang.classfile.attribute.PermittedSubclassesAttribute&#45;&gt;java.lang.classfile.Attribute -->
<g id="edge23" class="edge"><title>java.lang.classfile.attribute.PermittedSubclassesAttribute&#45;&gt;java.lang.classfile.Attribute</title>
<path fill="none" stroke="#999999" stroke-width="2" d="M4214.29,-122.268C4208.28,-123.228 4202.31,-124.148 4196.5,-125 4018.64,-151.089 3805.94,-173.533 3713.38,-182.871"/>
<polygon fill="#999999" stroke="#999999" stroke-width="2" points="3703.22,-183.892 3712.72,-178.415 3708.14,-182.895 3713.12,-182.395 3713.17,-182.892 3713.22,-183.39 3708.24,-183.89 3713.62,-187.37 3703.22,-183.892 3703.22,-183.892"/>
</g>
<!-- java.lang.classfile.attribute.RecordAttribute -->
<g id="node25" class="node"><title>java.lang.classfile.attribute.RecordAttribute</title>
<g id="a_node25"><a xlink:href="../../../java/lang/classfile/attribute/RecordAttribute.html" xlink:title="java.lang.classfile.attribute.RecordAttribute">
<text text-anchor="middle" x="4492.5" y="-101.4" font-family="DejaVuSans" font-size="12.00" fill="#e76f00">RecordAttribute</text>
</a>
</g>
</g>
<!-- java.lang.classfile.attribute.RecordAttribute&#45;&gt;java.lang.classfile.Attribute -->
<g id="edge24" class="edge"><title>java.lang.classfile.attribute.RecordAttribute&#45;&gt;java.lang.classfile.Attribute</title>
<path fill="none" stroke="#999999" stroke-width="2" d="M4436.16,-121.432C4430.23,-122.783 4424.26,-124.009 4418.5,-125 4154.37,-170.418 3832.16,-183.159 3713.37,-186.445"/>
<polygon fill="#999999" stroke="#999999" stroke-width="2" points="3703.18,-186.718 3713.05,-181.952 3708.16,-186.084 3713.16,-185.951 3713.17,-186.451 3713.18,-186.95 3708.19,-187.084 3713.29,-190.949 3703.18,-186.718 3703.18,-186.718"/>
</g>
<!-- java.lang.classfile.attribute.RuntimeInvisibleAnnotationsAttribute -->
<g id="node26" class="node"><title>java.lang.classfile.attribute.RuntimeInvisibleAnnotationsAttribute</title>
<g id="a_node26"><a xlink:href="../../../java/lang/classfile/attribute/RuntimeInvisibleAnnotationsAttribute.html" xlink:title="java.lang.classfile.attribute.RuntimeInvisibleAnnotationsAttribute">
<text text-anchor="middle" x="4697.5" y="-101.4" font-family="DejaVuSans" font-size="12.00" fill="#e76f00">RuntimeInvisibleAnnotationsAttribute</text>
</a>
</g>
</g>
<!-- java.lang.classfile.attribute.RuntimeInvisibleAnnotationsAttribute&#45;&gt;java.lang.classfile.Attribute -->
<g id="edge25" class="edge"><title>java.lang.classfile.attribute.RuntimeInvisibleAnnotationsAttribute&#45;&gt;java.lang.classfile.Attribute</title>
<path fill="none" stroke="#999999" stroke-width="2" d="M4584.32,-122.913C4578.3,-123.663 4572.33,-124.365 4566.5,-125 4240.94,-160.479 3846.81,-179.696 3713.29,-185.547"/>
<polygon fill="#999999" stroke="#999999" stroke-width="2" points="3703.03,-185.993 3712.82,-181.063 3708,-185.277 3713,-185.059 3713.02,-185.559 3713.04,-186.059 3708.04,-186.276 3713.21,-190.055 3703.03,-185.993 3703.03,-185.993"/>
</g>
<!-- java.lang.classfile.attribute.RuntimeInvisibleParameterAnnotationsAttribute -->
<g id="node27" class="node"><title>java.lang.classfile.attribute.RuntimeInvisibleParameterAnnotationsAttribute</title>
<g id="a_node27"><a xlink:href="../../../java/lang/classfile/attribute/RuntimeInvisibleParameterAnnotationsAttribute.html" xlink:title="java.lang.classfile.attribute.RuntimeInvisibleParameterAnnotationsAttribute">
<text text-anchor="middle" x="4987.5" y="-101.4" font-family="DejaVuSans" font-size="12.00" fill="#e76f00">RuntimeInvisibleParameterAnnotationsAttribute</text>
</a>
</g>
</g>
<!-- java.lang.classfile.attribute.RuntimeInvisibleParameterAnnotationsAttribute&#45;&gt;java.lang.classfile.Attribute -->
<g id="edge26" class="edge"><title>java.lang.classfile.attribute.RuntimeInvisibleParameterAnnotationsAttribute&#45;&gt;java.lang.classfile.Attribute</title>
<path fill="none" stroke="#999999" stroke-width="2" d="M4846.67,-123.289C4840.53,-123.901 4834.46,-124.475 4828.5,-125 4396.19,-163.091 3871.21,-181.264 3713.48,-186.125"/>
<polygon fill="#999999" stroke="#999999" stroke-width="2" points="3703.2,-186.439 3713.06,-181.636 3708.18,-185.787 3713.18,-185.634 3713.19,-186.134 3713.21,-186.634 3708.21,-186.786 3713.33,-190.632 3703.2,-186.439 3703.2,-186.439"/>
</g>
<!-- java.lang.classfile.attribute.RuntimeInvisibleTypeAnnotationsAttribute -->
<g id="node28" class="node"><title>java.lang.classfile.attribute.RuntimeInvisibleTypeAnnotationsAttribute</title>
<g id="a_node28"><a xlink:href="../../../java/lang/classfile/attribute/RuntimeInvisibleTypeAnnotationsAttribute.html" xlink:title="java.lang.classfile.attribute.RuntimeInvisibleTypeAnnotationsAttribute">
<text text-anchor="middle" x="5289.5" y="-101.4" font-family="DejaVuSans" font-size="12.00" fill="#e76f00">RuntimeInvisibleTypeAnnotationsAttribute</text>
</a>
</g>
</g>
<!-- java.lang.classfile.attribute.RuntimeInvisibleTypeAnnotationsAttribute&#45;&gt;java.lang.classfile.Attribute -->
<g id="edge27" class="edge"><title>java.lang.classfile.attribute.RuntimeInvisibleTypeAnnotationsAttribute&#45;&gt;java.lang.classfile.Attribute</title>
<path fill="none" stroke="#999999" stroke-width="2" d="M5163.63,-123.326C5157.85,-123.937 5152.12,-124.5 5146.5,-125 4583.63,-175.152 3896.65,-185.256 3713.3,-187.112"/>
<polygon fill="#999999" stroke="#999999" stroke-width="2" points="3703.2,-187.211 3713.15,-182.613 3708.19,-186.662 3713.19,-186.613 3713.2,-187.113 3713.2,-187.613 3708.2,-187.662 3713.24,-191.613 3703.2,-187.211 3703.2,-187.211"/>
</g>
<!-- java.lang.classfile.attribute.RuntimeVisibleAnnotationsAttribute -->
<g id="node29" class="node"><title>java.lang.classfile.attribute.RuntimeVisibleAnnotationsAttribute</title>
<g id="a_node29"><a xlink:href="../../../java/lang/classfile/attribute/RuntimeVisibleAnnotationsAttribute.html" xlink:title="java.lang.classfile.attribute.RuntimeVisibleAnnotationsAttribute">
<text text-anchor="middle" x="5560.5" y="-101.4" font-family="DejaVuSans" font-size="12.00" fill="#e76f00">RuntimeVisibleAnnotationsAttribute</text>
</a>
</g>
</g>
<!-- java.lang.classfile.attribute.RuntimeVisibleAnnotationsAttribute&#45;&gt;java.lang.classfile.Attribute -->
<g id="edge28" class="edge"><title>java.lang.classfile.attribute.RuntimeVisibleAnnotationsAttribute&#45;&gt;java.lang.classfile.Attribute</title>
<path fill="none" stroke="#999999" stroke-width="2" d="M5451.49,-123.081C5445.41,-123.798 5439.39,-124.446 5433.5,-125 4752.37,-189.116 3917.93,-188.965 3713.39,-187.852"/>
<polygon fill="#999999" stroke="#999999" stroke-width="2" points="3703.29,-187.793 3713.32,-183.352 3708.3,-187.322 3713.3,-187.352 3713.29,-187.852 3713.29,-188.352 3708.29,-188.322 3713.27,-192.351 3703.29,-187.793 3703.29,-187.793"/>
</g>
<!-- java.lang.classfile.attribute.RuntimeVisibleParameterAnnotationsAttribute -->
<g id="node30" class="node"><title>java.lang.classfile.attribute.RuntimeVisibleParameterAnnotationsAttribute</title>
<g id="a_node30"><a xlink:href="../../../java/lang/classfile/attribute/RuntimeVisibleParameterAnnotationsAttribute.html" xlink:title="java.lang.classfile.attribute.RuntimeVisibleParameterAnnotationsAttribute">
<text text-anchor="middle" x="5842.5" y="-101.4" font-family="DejaVuSans" font-size="12.00" fill="#e76f00">RuntimeVisibleParameterAnnotationsAttribute</text>
</a>
</g>
</g>
<!-- java.lang.classfile.attribute.RuntimeVisibleParameterAnnotationsAttribute&#45;&gt;java.lang.classfile.Attribute -->
<g id="edge29" class="edge"><title>java.lang.classfile.attribute.RuntimeVisibleParameterAnnotationsAttribute&#45;&gt;java.lang.classfile.Attribute</title>
<path fill="none" stroke="#999999" stroke-width="2" d="M5705.23,-123.466C5699.24,-124.03 5693.31,-124.545 5687.5,-125 4899.85,-186.587 3935.07,-188.192 3713.4,-187.681"/>
<polygon fill="#999999" stroke="#999999" stroke-width="2" points="3703.11,-187.654 3713.12,-183.18 3708.11,-187.167 3713.11,-187.18 3713.11,-187.68 3713.11,-188.18 3708.11,-188.167 3713.1,-192.18 3703.11,-187.654 3703.11,-187.654"/>
</g>
<!-- java.lang.classfile.attribute.RuntimeVisibleTypeAnnotationsAttribute -->
<g id="node31" class="node"><title>java.lang.classfile.attribute.RuntimeVisibleTypeAnnotationsAttribute</title>
<g id="a_node31"><a xlink:href="../../../java/lang/classfile/attribute/RuntimeVisibleTypeAnnotationsAttribute.html" xlink:title="java.lang.classfile.attribute.RuntimeVisibleTypeAnnotationsAttribute">
<text text-anchor="middle" x="6137.5" y="-101.4" font-family="DejaVuSans" font-size="12.00" fill="#e76f00">RuntimeVisibleTypeAnnotationsAttribute</text>
</a>
</g>
</g>
<!-- java.lang.classfile.attribute.RuntimeVisibleTypeAnnotationsAttribute&#45;&gt;java.lang.classfile.Attribute -->
<g id="edge30" class="edge"><title>java.lang.classfile.attribute.RuntimeVisibleTypeAnnotationsAttribute&#45;&gt;java.lang.classfile.Attribute</title>
<path fill="none" stroke="#999999" stroke-width="2" d="M6015.42,-123.321C6009.37,-123.948 6003.37,-124.514 5997.5,-125 5530.23,-163.685 4000.12,-183.533 3713.12,-186.961"/>
<polygon fill="#999999" stroke="#999999" stroke-width="2" points="3703.05,-187.08 3713,-182.462 3708.05,-186.521 3713.05,-186.461 3713.05,-186.961 3713.06,-187.461 3708.06,-187.521 3713.11,-191.461 3703.05,-187.08 3703.05,-187.08"/>
</g>
<!-- java.lang.classfile.attribute.SignatureAttribute -->
<g id="node32" class="node"><title>java.lang.classfile.attribute.SignatureAttribute</title>
<g id="a_node32"><a xlink:href="../../../java/lang/classfile/attribute/SignatureAttribute.html" xlink:title="java.lang.classfile.attribute.SignatureAttribute">
<text text-anchor="middle" x="6358.5" y="-101.4" font-family="DejaVuSans" font-size="12.00" fill="#e76f00">SignatureAttribute</text>
</a>
</g>
</g>
<!-- java.lang.classfile.attribute.SignatureAttribute&#45;&gt;java.lang.classfile.Attribute -->
<g id="edge31" class="edge"><title>java.lang.classfile.attribute.SignatureAttribute&#45;&gt;java.lang.classfile.Attribute</title>
<path fill="none" stroke="#999999" stroke-width="2" d="M6295.95,-121.946C6289.75,-123.158 6283.52,-124.212 6277.5,-125 5754.03,-193.485 4022.5,-189.092 3713.8,-187.739"/>
<polygon fill="#999999" stroke="#999999" stroke-width="2" points="3703.42,-187.692 3713.44,-183.237 3708.42,-187.215 3713.42,-187.237 3713.42,-187.737 3713.42,-188.237 3708.42,-188.215 3713.4,-192.237 3703.42,-187.692 3703.42,-187.692"/>
</g>
<!-- java.lang.classfile.attribute.SourceDebugExtensionAttribute -->
<g id="node33" class="node"><title>java.lang.classfile.attribute.SourceDebugExtensionAttribute</title>
<g id="a_node33"><a xlink:href="../../../java/lang/classfile/attribute/SourceDebugExtensionAttribute.html" xlink:title="java.lang.classfile.attribute.SourceDebugExtensionAttribute">
<text text-anchor="middle" x="6557.5" y="-101.4" font-family="DejaVuSans" font-size="12.00" fill="#e76f00">SourceDebugExtensionAttribute</text>
</a>
</g>
</g>
<!-- java.lang.classfile.attribute.SourceDebugExtensionAttribute&#45;&gt;java.lang.classfile.Attribute -->
<g id="edge32" class="edge"><title>java.lang.classfile.attribute.SourceDebugExtensionAttribute&#45;&gt;java.lang.classfile.Attribute</title>
<path fill="none" stroke="#999999" stroke-width="2" d="M6457.2,-123.064C6451.22,-123.803 6445.29,-124.459 6439.5,-125 5879.5,-177.318 4032.59,-186.197 3713.63,-187.35"/>
<polygon fill="#999999" stroke="#999999" stroke-width="2" points="3703.35,-187.386 3713.34,-182.851 3708.35,-186.868 3713.35,-186.851 3713.35,-187.351 3713.36,-187.851 3708.36,-187.868 3713.37,-191.851 3703.35,-187.386 3703.35,-187.386"/>
</g>
<!-- java.lang.classfile.attribute.SourceFileAttribute -->
<g id="node34" class="node"><title>java.lang.classfile.attribute.SourceFileAttribute</title>
<g id="a_node34"><a xlink:href="../../../java/lang/classfile/attribute/SourceFileAttribute.html" xlink:title="java.lang.classfile.attribute.SourceFileAttribute">
<text text-anchor="middle" x="6759.5" y="-101.4" font-family="DejaVuSans" font-size="12.00" fill="#e76f00">SourceFileAttribute</text>
</a>
</g>
</g>
<!-- java.lang.classfile.attribute.SourceFileAttribute&#45;&gt;java.lang.classfile.Attribute -->
<g id="edge33" class="edge"><title>java.lang.classfile.attribute.SourceFileAttribute&#45;&gt;java.lang.classfile.Attribute</title>
<path fill="none" stroke="#999999" stroke-width="2" d="M6693.7,-122.133C6687.58,-123.27 6681.44,-124.257 6675.5,-125 6369.62,-163.26 4070.78,-184.092 3713.19,-187.115"/>
<polygon fill="#999999" stroke="#999999" stroke-width="2" points="3703.18,-187.199 3713.15,-182.615 3708.18,-186.657 3713.18,-186.615 3713.18,-187.115 3713.19,-187.615 3708.19,-187.657 3713.22,-191.615 3703.18,-187.199 3703.18,-187.199"/>
</g>
<!-- java.lang.classfile.attribute.SourceIDAttribute -->
<g id="node35" class="node"><title>java.lang.classfile.attribute.SourceIDAttribute</title>
<g id="a_node35"><a xlink:href="../../../java/lang/classfile/attribute/SourceIDAttribute.html" xlink:title="java.lang.classfile.attribute.SourceIDAttribute">
<text text-anchor="middle" x="6922.5" y="-101.4" font-family="DejaVuSans" font-size="12.00" fill="#e76f00">SourceIDAttribute</text>
</a>
</g>
</g>
<!-- java.lang.classfile.attribute.SourceIDAttribute&#45;&gt;java.lang.classfile.Attribute -->
<g id="edge34" class="edge"><title>java.lang.classfile.attribute.SourceIDAttribute&#45;&gt;java.lang.classfile.Attribute</title>
<path fill="none" stroke="#999999" stroke-width="2" d="M6861.08,-122.061C6855.17,-123.231 6849.24,-124.244 6843.5,-125 6520.06,-167.56 4082,-184.829 3713.18,-187.209"/>
<polygon fill="#999999" stroke="#999999" stroke-width="2" points="3703.12,-187.274 3713.09,-182.71 3708.12,-186.742 3713.12,-186.709 3713.12,-187.209 3713.13,-187.709 3708.13,-187.742 3713.15,-191.709 3703.12,-187.274 3703.12,-187.274"/>
</g>
<!-- java.lang.classfile.attribute.StackMapTableAttribute -->
<g id="node36" class="node"><title>java.lang.classfile.attribute.StackMapTableAttribute</title>
<g id="a_node36"><a xlink:href="../../../java/lang/classfile/attribute/StackMapTableAttribute.html" xlink:title="java.lang.classfile.attribute.StackMapTableAttribute">
<text text-anchor="middle" x="7097.5" y="-101.4" font-family="DejaVuSans" font-size="12.00" fill="#e76f00">StackMapTableAttribute</text>
</a>
</g>
</g>
<!-- java.lang.classfile.attribute.StackMapTableAttribute&#45;&gt;java.lang.classfile.Attribute -->
<g id="edge35" class="edge"><title>java.lang.classfile.attribute.StackMapTableAttribute&#45;&gt;java.lang.classfile.Attribute</title>
<path fill="none" stroke="#999999" stroke-width="2" d="M7019.88,-122.51C7013.68,-123.488 7007.5,-124.34 7001.5,-125 6660.4,-162.524 4091.88,-184.142 3713.1,-187.139"/>
<polygon fill="#999999" stroke="#999999" stroke-width="2" points="3703.04,-187.219 3713.01,-182.64 3708.04,-186.679 3713.04,-186.64 3713.04,-187.14 3713.05,-187.64 3708.05,-187.679 3713.08,-191.64 3703.04,-187.219 3703.04,-187.219"/>
</g>
<!-- java.lang.classfile.attribute.SyntheticAttribute -->
<g id="node37" class="node"><title>java.lang.classfile.attribute.SyntheticAttribute</title>
<g id="a_node37"><a xlink:href="../../../java/lang/classfile/attribute/SyntheticAttribute.html" xlink:title="java.lang.classfile.attribute.SyntheticAttribute">
<text text-anchor="middle" x="7272.5" y="-101.4" font-family="DejaVuSans" font-size="12.00" fill="#e76f00">SyntheticAttribute</text>
</a>
</g>
</g>
<!-- java.lang.classfile.attribute.SyntheticAttribute&#45;&gt;java.lang.classfile.Attribute -->
<g id="edge36" class="edge"><title>java.lang.classfile.attribute.SyntheticAttribute&#45;&gt;java.lang.classfile.Attribute</title>
<path fill="none" stroke="#999999" stroke-width="2" d="M7211.08,-122.073C7205.17,-123.24 7199.24,-124.25 7193.5,-125 6832.9,-172.092 4105.22,-185.601 3713.34,-187.306"/>
<polygon fill="#999999" stroke="#999999" stroke-width="2" points="3703.2,-187.35 3713.19,-182.807 3708.2,-186.828 3713.2,-186.807 3713.2,-187.307 3713.21,-187.807 3708.21,-187.828 3713.22,-191.807 3703.2,-187.35 3703.2,-187.35"/>
</g>
<!-- java.lang.classfile.attribute.UnknownAttribute -->
<g id="node38" class="node"><title>java.lang.classfile.attribute.UnknownAttribute</title>
<g id="a_node38"><a xlink:href="../../../java/lang/classfile/attribute/UnknownAttribute.html" xlink:title="java.lang.classfile.attribute.UnknownAttribute">
<text text-anchor="middle" x="7431.5" y="-101.4" font-family="DejaVuSans" font-size="12.00" fill="#e76f00">UnknownAttribute</text>
</a>
</g>
</g>
<!-- java.lang.classfile.attribute.UnknownAttribute&#45;&gt;java.lang.classfile.Attribute -->
<g id="edge37" class="edge"><title>java.lang.classfile.attribute.UnknownAttribute&#45;&gt;java.lang.classfile.Attribute</title>
<path fill="none" stroke="#999999" stroke-width="2" d="M7369.3,-122.076C7363.32,-123.243 7357.31,-124.252 7351.5,-125 6973.98,-173.597 4114.53,-185.85 3713.23,-187.337"/>
<polygon fill="#999999" stroke="#999999" stroke-width="2" points="3703.14,-187.374 3713.12,-182.837 3708.14,-186.855 3713.14,-186.837 3713.14,-187.337 3713.14,-187.837 3708.14,-187.855 3713.16,-191.837 3703.14,-187.374 3703.14,-187.374"/>
</g>
<!-- java.lang.classfile.CustomAttribute -->
<g id="node39" class="node"><title>java.lang.classfile.CustomAttribute</title>
<g id="a_node39"><a xlink:href="../../../java/lang/classfile/CustomAttribute.html" xlink:title="java.lang.classfile.CustomAttribute">
<text text-anchor="middle" x="7586.5" y="-101.4" font-family="DejaVuSans" font-size="12.00" fill="#e76f00">CustomAttribute</text>
</a>
</g>
</g>
<!-- java.lang.classfile.CustomAttribute&#45;&gt;java.lang.classfile.Attribute -->
<g id="edge38" class="edge"><title>java.lang.classfile.CustomAttribute&#45;&gt;java.lang.classfile.Attribute</title>
<path fill="none" stroke="#999999" stroke-width="2" d="M7529.45,-121.827C7523.43,-123.101 7517.37,-124.201 7511.5,-125 7117.36,-178.659 4124.79,-186.577 3713.34,-187.415"/>
<polygon fill="#999999" stroke="#999999" stroke-width="2" points="3703.28,-187.435 3713.27,-182.915 3708.28,-186.925 3713.28,-186.915 3713.28,-187.415 3713.28,-187.915 3708.28,-187.925 3713.29,-191.915 3703.28,-187.435 3703.28,-187.435"/>
</g>
<!-- open node #0 -->
<g id="node40" class="node"><title>open node #0</title>
<g id="a_node40"><a xlink:title="Non&#45;sealed Hierarchy">
<text text-anchor="start" x="7569.5" y="-18.4" font-family="DejaVuSans" font-style="italic" font-size="12.00" fill="#e76f00">&lt;any&gt;</text>
</a>
</g>
</g>
<!-- open node #0&#45;&gt;java.lang.classfile.CustomAttribute -->
<g id="edge39" class="edge"><title>open node #0&#45;&gt;java.lang.classfile.CustomAttribute</title>
<path fill="none" stroke="#999999" stroke-width="2" stroke-dasharray="5,2" d="M7586.5,-41.3499C7586.5,-51.0192 7586.5,-62.8498 7586.5,-73.5843"/>
<polygon fill="#999999" stroke="#999999" stroke-width="2" points="7586.5,-83.8329 7582,-73.8328 7586,-78.8329 7586,-73.8329 7586.5,-73.8329 7587,-73.8329 7587,-78.8329 7591,-73.8329 7586.5,-83.8329 7586.5,-83.8329"/>
</g>
</g>
</svg>
