<?xml version="1.0" encoding="UTF-8" standalone="no"?>
<!DOCTYPE svg PUBLIC "-//W3C//DTD SVG 1.1//EN"
 "http://www.w3.org/Graphics/SVG/1.1/DTD/svg11.dtd">
<!-- Generated by graphviz version 2.38.0 (20140413.2041)
 -->
<!-- Title: G Pages: 1 -->
<svg width="675pt" height="217pt"
 viewBox="0.00 0.00 674.50 217.00" xmlns="http://www.w3.org/2000/svg" xmlns:xlink="http://www.w3.org/1999/xlink">
<g id="graph0" class="graph" transform="scale(1 1) rotate(0) translate(4 213)">
<title>G</title>
<polygon fill="white" stroke="none" points="-4,4 -4,-213 670.5,-213 670.5,4 -4,4"/>
<!-- java.lang.classfile.ClassModel -->
<g id="node1" class="node"><title>java.lang.classfile.ClassModel</title>
<g id="a_node1"><a xlink:href="../../../java/lang/classfile/ClassModel.html" xlink:title="java.lang.classfile.ClassModel">
<text text-anchor="middle" x="46" y="-101.4" font-family="DejaVuSans" font-size="12.00" fill="#e76f00">ClassModel</text>
</a>
</g>
</g>
<!-- java.lang.classfile.AttributedElement -->
<g id="node2" class="node"><title>java.lang.classfile.AttributedElement</title>
<g id="a_node2"><a xlink:href="../../../java/lang/classfile/AttributedElement.html" xlink:title="java.lang.classfile.AttributedElement">
<text text-anchor="middle" x="300" y="-185.4" font-family="DejaVuSans" font-size="12.00" fill="#e76f00">AttributedElement</text>
</a>
</g>
</g>
<!-- java.lang.classfile.ClassModel&#45;&gt;java.lang.classfile.AttributedElement -->
<g id="edge1" class="edge"><title>java.lang.classfile.ClassModel&#45;&gt;java.lang.classfile.AttributedElement</title>
<path fill="none" stroke="#999999" stroke-width="2" d="M92.2922,-120.445C130.605,-132.813 185.649,-150.584 229.448,-164.723"/>
<polygon fill="#999999" stroke="#999999" stroke-width="2" points="239.181,-167.865 228.282,-169.076 234.269,-166.805 229.511,-165.269 229.664,-164.793 229.818,-164.317 234.576,-165.854 231.047,-160.511 239.181,-167.865 239.181,-167.865"/>
</g>
<!-- java.lang.classfile.CodeModel -->
<g id="node3" class="node"><title>java.lang.classfile.CodeModel</title>
<g id="a_node3"><a xlink:href="../../../java/lang/classfile/CodeModel.html" xlink:title="java.lang.classfile.CodeModel">
<text text-anchor="middle" x="174" y="-101.4" font-family="DejaVuSans" font-size="12.00" fill="#e76f00">CodeModel</text>
</a>
</g>
</g>
<!-- java.lang.classfile.CodeModel&#45;&gt;java.lang.classfile.AttributedElement -->
<g id="edge2" class="edge"><title>java.lang.classfile.CodeModel&#45;&gt;java.lang.classfile.AttributedElement</title>
<path fill="none" stroke="#999999" stroke-width="2" d="M204.18,-125.141C221.198,-136.216 242.649,-150.176 260.938,-162.079"/>
<polygon fill="#999999" stroke="#999999" stroke-width="2" points="269.629,-167.735 258.793,-166.052 265.166,-165.427 260.975,-162.699 261.248,-162.28 261.521,-161.861 265.711,-164.589 263.703,-158.509 269.629,-167.735 269.629,-167.735"/>
</g>
<!-- java.lang.classfile.attribute.CodeAttribute -->
<g id="node4" class="node"><title>java.lang.classfile.attribute.CodeAttribute</title>
<g id="a_node4"><a xlink:href="../../../java/lang/classfile/attribute/CodeAttribute.html" xlink:title="java.lang.classfile.attribute.CodeAttribute">
<text text-anchor="middle" x="174" y="-17.4" font-family="DejaVuSans" font-size="12.00" fill="#e76f00">CodeAttribute</text>
</a>
</g>
</g>
<!-- java.lang.classfile.attribute.CodeAttribute&#45;&gt;java.lang.classfile.CodeModel -->
<g id="edge3" class="edge"><title>java.lang.classfile.attribute.CodeAttribute&#45;&gt;java.lang.classfile.CodeModel</title>
<path fill="none" stroke="#999999" stroke-width="2" d="M174,-41.3499C174,-51.0192 174,-62.8498 174,-73.5843"/>
<polygon fill="#999999" stroke="#999999" stroke-width="2" points="174,-83.8329 169.5,-73.8328 173.5,-78.8329 173.5,-73.8329 174,-73.8329 174.5,-73.8329 174.5,-78.8329 178.5,-73.8329 174,-83.8329 174,-83.8329"/>
</g>
<!-- java.lang.classfile.FieldModel -->
<g id="node5" class="node"><title>java.lang.classfile.FieldModel</title>
<g id="a_node5"><a xlink:href="../../../java/lang/classfile/FieldModel.html" xlink:title="java.lang.classfile.FieldModel">
<text text-anchor="middle" x="300" y="-101.4" font-family="DejaVuSans" font-size="12.00" fill="#e76f00">FieldModel</text>
</a>
</g>
</g>
<!-- java.lang.classfile.FieldModel&#45;&gt;java.lang.classfile.AttributedElement -->
<g id="edge4" class="edge"><title>java.lang.classfile.FieldModel&#45;&gt;java.lang.classfile.AttributedElement</title>
<path fill="none" stroke="#999999" stroke-width="2" d="M300,-125.35C300,-135.019 300,-146.85 300,-157.584"/>
<polygon fill="#999999" stroke="#999999" stroke-width="2" points="300,-167.833 295.5,-157.833 299.5,-162.833 299.5,-157.833 300,-157.833 300.5,-157.833 300.5,-162.833 304.5,-157.833 300,-167.833 300,-167.833"/>
</g>
<!-- java.lang.classfile.MethodModel -->
<g id="node6" class="node"><title>java.lang.classfile.MethodModel</title>
<g id="a_node6"><a xlink:href="../../../java/lang/classfile/MethodModel.html" xlink:title="java.lang.classfile.MethodModel">
<text text-anchor="middle" x="431" y="-101.4" font-family="DejaVuSans" font-size="12.00" fill="#e76f00">MethodModel</text>
</a>
</g>
</g>
<!-- java.lang.classfile.MethodModel&#45;&gt;java.lang.classfile.AttributedElement -->
<g id="edge5" class="edge"><title>java.lang.classfile.MethodModel&#45;&gt;java.lang.classfile.AttributedElement</title>
<path fill="none" stroke="#999999" stroke-width="2" d="M399.622,-125.141C381.768,-136.317 359.221,-150.431 340.094,-162.403"/>
<polygon fill="#999999" stroke="#999999" stroke-width="2" points="331.576,-167.735 337.664,-158.615 335.549,-164.658 339.787,-162.005 340.052,-162.429 340.317,-162.853 336.079,-165.506 342.44,-166.244 331.576,-167.735 331.576,-167.735"/>
</g>
<!-- java.lang.classfile.attribute.RecordComponentInfo -->
<g id="node7" class="node"><title>java.lang.classfile.attribute.RecordComponentInfo</title>
<g id="a_node7"><a xlink:href="../../../java/lang/classfile/attribute/RecordComponentInfo.html" xlink:title="java.lang.classfile.attribute.RecordComponentInfo">
<text text-anchor="middle" x="592" y="-101.4" font-family="DejaVuSans" font-size="12.00" fill="#e76f00">RecordComponentInfo</text>
</a>
</g>
</g>
<!-- java.lang.classfile.attribute.RecordComponentInfo&#45;&gt;java.lang.classfile.AttributedElement -->
<g id="edge6" class="edge"><title>java.lang.classfile.attribute.RecordComponentInfo&#45;&gt;java.lang.classfile.AttributedElement</title>
<path fill="none" stroke="#999999" stroke-width="2" d="M522.43,-125.037C477.012,-137.791 417.852,-154.405 371.962,-167.292"/>
<polygon fill="#999999" stroke="#999999" stroke-width="2" points="362.085,-170.065 370.496,-163.029 366.764,-168.232 371.578,-166.88 371.713,-167.361 371.848,-167.843 367.034,-169.195 372.93,-171.694 362.085,-170.065 362.085,-170.065"/>
</g>
</g>
</svg>
