<?xml version="1.0" encoding="UTF-8" standalone="no"?>
<!DOCTYPE svg PUBLIC "-//W3C//DTD SVG 1.1//EN"
 "http://www.w3.org/Graphics/SVG/1.1/DTD/svg11.dtd">
<!-- Generated by graphviz version 2.38.0 (20140413.2041)
 -->
<!-- Title: G Pages: 1 -->
<svg width="572pt" height="217pt"
 viewBox="0.00 0.00 572.00 217.00" xmlns="http://www.w3.org/2000/svg" xmlns:xlink="http://www.w3.org/1999/xlink">
<g id="graph0" class="graph" transform="scale(1 1) rotate(0) translate(4 213)">
<title>G</title>
<polygon fill="white" stroke="none" points="-4,4 -4,-213 568,-213 568,4 -4,4"/>
<!-- java.lang.classfile.ClassTransform -->
<g id="node1" class="node"><title>java.lang.classfile.ClassTransform</title>
<g id="a_node1"><a xlink:href="../../../java/lang/classfile/ClassTransform.html" xlink:title="java.lang.classfile.ClassTransform">
<text text-anchor="middle" x="507.5" y="-101.4" font-family="DejaVuSans" font-size="12.00" fill="#e76f00">ClassTransform</text>
</a>
</g>
</g>
<!-- java.lang.classfile.ClassFileTransform -->
<g id="node2" class="node"><title>java.lang.classfile.ClassFileTransform</title>
<g id="a_node2"><a xlink:href="../../../java/lang/classfile/ClassFileTransform.html" xlink:title="java.lang.classfile.ClassFileTransform">
<text text-anchor="middle" x="282.5" y="-185.4" font-family="DejaVuSans" font-size="12.00" fill="#e76f00">ClassFileTransform</text>
</a>
</g>
</g>
<!-- java.lang.classfile.ClassTransform&#45;&gt;java.lang.classfile.ClassFileTransform -->
<g id="edge1" class="edge"><title>java.lang.classfile.ClassTransform&#45;&gt;java.lang.classfile.ClassFileTransform</title>
<path fill="none" stroke="#999999" stroke-width="2" d="M453.893,-125.037C421.339,-136.901 379.622,-152.105 345.496,-164.541"/>
<polygon fill="#999999" stroke="#999999" stroke-width="2" points="336.086,-167.971 343.941,-160.319 340.613,-165.789 345.31,-164.077 345.482,-164.547 345.653,-165.016 340.955,-166.729 347.022,-168.775 336.086,-167.971 336.086,-167.971"/>
</g>
<!-- open node #0 -->
<g id="node3" class="node"><title>open node #0</title>
<g id="a_node3"><a xlink:title="Non&#45;sealed Hierarchy">
<text text-anchor="start" x="490.5" y="-18.4" font-family="DejaVuSans" font-style="italic" font-size="12.00" fill="#e76f00">&lt;any&gt;</text>
</a>
</g>
</g>
<!-- open node #0&#45;&gt;java.lang.classfile.ClassTransform -->
<g id="edge2" class="edge"><title>open node #0&#45;&gt;java.lang.classfile.ClassTransform</title>
<path fill="none" stroke="#999999" stroke-width="2" stroke-dasharray="5,2" d="M507.5,-41.3499C507.5,-51.0192 507.5,-62.8498 507.5,-73.5843"/>
<polygon fill="#999999" stroke="#999999" stroke-width="2" points="507.5,-83.8329 503,-73.8328 507,-78.8329 507,-73.8329 507.5,-73.8329 508,-73.8329 508,-78.8329 512,-73.8329 507.5,-83.8329 507.5,-83.8329"/>
</g>
<!-- java.lang.classfile.FieldTransform -->
<g id="node4" class="node"><title>java.lang.classfile.FieldTransform</title>
<g id="a_node4"><a xlink:href="../../../java/lang/classfile/FieldTransform.html" xlink:title="java.lang.classfile.FieldTransform">
<text text-anchor="middle" x="54.5" y="-101.4" font-family="DejaVuSans" font-size="12.00" fill="#e76f00">FieldTransform</text>
</a>
</g>
</g>
<!-- java.lang.classfile.FieldTransform&#45;&gt;java.lang.classfile.ClassFileTransform -->
<g id="edge3" class="edge"><title>java.lang.classfile.FieldTransform&#45;&gt;java.lang.classfile.ClassFileTransform</title>
<path fill="none" stroke="#999999" stroke-width="2" d="M108.822,-125.037C141.81,-136.901 184.083,-152.105 218.664,-164.541"/>
<polygon fill="#999999" stroke="#999999" stroke-width="2" points="228.199,-167.971 217.267,-168.821 223.325,-166.749 218.62,-165.057 218.79,-164.587 218.959,-164.116 223.664,-165.808 220.312,-160.352 228.199,-167.971 228.199,-167.971"/>
</g>
<!-- open node #1 -->
<g id="node5" class="node"><title>open node #1</title>
<g id="a_node5"><a xlink:title="Non&#45;sealed Hierarchy">
<text text-anchor="start" x="37.5" y="-18.4" font-family="DejaVuSans" font-style="italic" font-size="12.00" fill="#e76f00">&lt;any&gt;</text>
</a>
</g>
</g>
<!-- open node #1&#45;&gt;java.lang.classfile.FieldTransform -->
<g id="edge4" class="edge"><title>open node #1&#45;&gt;java.lang.classfile.FieldTransform</title>
<path fill="none" stroke="#999999" stroke-width="2" stroke-dasharray="5,2" d="M54.5,-41.3499C54.5,-51.0192 54.5,-62.8498 54.5,-73.5843"/>
<polygon fill="#999999" stroke="#999999" stroke-width="2" points="54.5,-83.8329 50.0001,-73.8328 54,-78.8329 54.0001,-73.8329 54.5001,-73.8329 55.0001,-73.8329 55,-78.8329 59.0001,-73.8329 54.5,-83.8329 54.5,-83.8329"/>
</g>
<!-- java.lang.classfile.MethodTransform -->
<g id="node6" class="node"><title>java.lang.classfile.MethodTransform</title>
<g id="a_node6"><a xlink:href="../../../java/lang/classfile/MethodTransform.html" xlink:title="java.lang.classfile.MethodTransform">
<text text-anchor="middle" x="206.5" y="-101.4" font-family="DejaVuSans" font-size="12.00" fill="#e76f00">MethodTransform</text>
</a>
</g>
</g>
<!-- java.lang.classfile.MethodTransform&#45;&gt;java.lang.classfile.ClassFileTransform -->
<g id="edge5" class="edge"><title>java.lang.classfile.MethodTransform&#45;&gt;java.lang.classfile.ClassFileTransform</title>
<path fill="none" stroke="#999999" stroke-width="2" d="M224.897,-125.35C234.606,-135.825 246.666,-148.837 257.238,-160.243"/>
<polygon fill="#999999" stroke="#999999" stroke-width="2" points="264.272,-167.833 254.174,-163.558 260.506,-164.506 257.108,-160.838 257.474,-160.499 257.841,-160.159 261.24,-163.826 260.775,-157.44 264.272,-167.833 264.272,-167.833"/>
</g>
<!-- open node #2 -->
<g id="node7" class="node"><title>open node #2</title>
<g id="a_node7"><a xlink:title="Non&#45;sealed Hierarchy">
<text text-anchor="start" x="189.5" y="-18.4" font-family="DejaVuSans" font-style="italic" font-size="12.00" fill="#e76f00">&lt;any&gt;</text>
</a>
</g>
</g>
<!-- open node #2&#45;&gt;java.lang.classfile.MethodTransform -->
<g id="edge6" class="edge"><title>open node #2&#45;&gt;java.lang.classfile.MethodTransform</title>
<path fill="none" stroke="#999999" stroke-width="2" stroke-dasharray="5,2" d="M206.5,-41.3499C206.5,-51.0192 206.5,-62.8498 206.5,-73.5843"/>
<polygon fill="#999999" stroke="#999999" stroke-width="2" points="206.5,-83.8329 202,-73.8328 206,-78.8329 206,-73.8329 206.5,-73.8329 207,-73.8329 207,-78.8329 211,-73.8329 206.5,-83.8329 206.5,-83.8329"/>
</g>
<!-- java.lang.classfile.CodeTransform -->
<g id="node8" class="node"><title>java.lang.classfile.CodeTransform</title>
<g id="a_node8"><a xlink:href="../../../java/lang/classfile/CodeTransform.html" xlink:title="java.lang.classfile.CodeTransform">
<text text-anchor="middle" x="359.5" y="-101.4" font-family="DejaVuSans" font-size="12.00" fill="#e76f00">CodeTransform</text>
</a>
</g>
</g>
<!-- java.lang.classfile.CodeTransform&#45;&gt;java.lang.classfile.ClassFileTransform -->
<g id="edge7" class="edge"><title>java.lang.classfile.CodeTransform&#45;&gt;java.lang.classfile.ClassFileTransform</title>
<path fill="none" stroke="#999999" stroke-width="2" d="M340.86,-125.35C331.024,-135.825 318.806,-148.837 308.095,-160.243"/>
<polygon fill="#999999" stroke="#999999" stroke-width="2" points="300.968,-167.833 304.533,-157.463 304.026,-163.846 307.449,-160.201 307.813,-160.543 308.178,-160.885 304.755,-164.53 311.094,-163.623 300.968,-167.833 300.968,-167.833"/>
</g>
<!-- open node #3 -->
<g id="node9" class="node"><title>open node #3</title>
<g id="a_node9"><a xlink:title="Non&#45;sealed Hierarchy">
<text text-anchor="start" x="342.5" y="-18.4" font-family="DejaVuSans" font-style="italic" font-size="12.00" fill="#e76f00">&lt;any&gt;</text>
</a>
</g>
</g>
<!-- open node #3&#45;&gt;java.lang.classfile.CodeTransform -->
<g id="edge8" class="edge"><title>open node #3&#45;&gt;java.lang.classfile.CodeTransform</title>
<path fill="none" stroke="#999999" stroke-width="2" stroke-dasharray="5,2" d="M359.5,-41.3499C359.5,-51.0192 359.5,-62.8498 359.5,-73.5843"/>
<polygon fill="#999999" stroke="#999999" stroke-width="2" points="359.5,-83.8329 355,-73.8328 359,-78.8329 359,-73.8329 359.5,-73.8329 360,-73.8329 360,-78.8329 364,-73.8329 359.5,-83.8329 359.5,-83.8329"/>
</g>
</g>
</svg>
