<?xml version="1.0" encoding="UTF-8" standalone="no"?>
<!DOCTYPE svg PUBLIC "-//W3C//DTD SVG 1.1//EN"
 "http://www.w3.org/Graphics/SVG/1.1/DTD/svg11.dtd">
<!-- Generated by graphviz version 2.38.0 (20140413.2041)
 -->
<!-- Title: G Pages: 1 -->
<svg width="527pt" height="217pt"
 viewBox="0.00 0.00 527.00 217.00" xmlns="http://www.w3.org/2000/svg" xmlns:xlink="http://www.w3.org/1999/xlink">
<g id="graph0" class="graph" transform="scale(1 1) rotate(0) translate(4 213)">
<title>G</title>
<polygon fill="white" stroke="none" points="-4,4 -4,-213 523,-213 523,4 -4,4"/>
<!-- java.lang.classfile.ClassBuilder -->
<g id="node1" class="node"><title>java.lang.classfile.ClassBuilder</title>
<g id="a_node1"><a xlink:href="../../../java/lang/classfile/ClassBuilder.html" xlink:title="java.lang.classfile.ClassBuilder">
<text text-anchor="middle" x="49" y="-101.4" font-family="DejaVuSans" font-size="12.00" fill="#e76f00">ClassBuilder</text>
</a>
</g>
</g>
<!-- java.lang.classfile.ClassFileBuilder -->
<g id="node2" class="node"><title>java.lang.classfile.ClassFileBuilder</title>
<g id="a_node2"><a xlink:href="../../../java/lang/classfile/ClassFileBuilder.html" xlink:title="java.lang.classfile.ClassFileBuilder">
<text text-anchor="middle" x="249" y="-185.4" font-family="DejaVuSans" font-size="12.00" fill="#e76f00">ClassFileBuilder</text>
</a>
</g>
</g>
<!-- java.lang.classfile.ClassBuilder&#45;&gt;java.lang.classfile.ClassFileBuilder -->
<g id="edge1" class="edge"><title>java.lang.classfile.ClassBuilder&#45;&gt;java.lang.classfile.ClassFileBuilder</title>
<path fill="none" stroke="#999999" stroke-width="2" d="M96.6509,-125.037C125.217,-136.749 161.72,-151.715 191.834,-164.062"/>
<polygon fill="#999999" stroke="#999999" stroke-width="2" points="201.368,-167.971 190.408,-168.341 196.552,-166.537 191.926,-164.64 192.115,-164.177 192.305,-163.715 196.931,-165.611 193.823,-160.014 201.368,-167.971 201.368,-167.971"/>
</g>
<!-- java.lang.classfile.FieldBuilder -->
<g id="node3" class="node"><title>java.lang.classfile.FieldBuilder</title>
<g id="a_node3"><a xlink:href="../../../java/lang/classfile/FieldBuilder.html" xlink:title="java.lang.classfile.FieldBuilder">
<text text-anchor="middle" x="181" y="-101.4" font-family="DejaVuSans" font-size="12.00" fill="#e76f00">FieldBuilder</text>
</a>
</g>
</g>
<!-- java.lang.classfile.FieldBuilder&#45;&gt;java.lang.classfile.ClassFileBuilder -->
<g id="edge2" class="edge"><title>java.lang.classfile.FieldBuilder&#45;&gt;java.lang.classfile.ClassFileBuilder</title>
<path fill="none" stroke="#999999" stroke-width="2" d="M197.461,-125.35C206.064,-135.724 216.73,-148.587 226.124,-159.914"/>
<polygon fill="#999999" stroke="#999999" stroke-width="2" points="232.691,-167.833 222.843,-163.008 229.114,-164.303 225.922,-160.454 226.307,-160.135 226.692,-159.816 229.884,-163.665 229.771,-157.263 232.691,-167.833 232.691,-167.833"/>
</g>
<!-- java.lang.classfile.MethodBuilder -->
<g id="node4" class="node"><title>java.lang.classfile.MethodBuilder</title>
<g id="a_node4"><a xlink:href="../../../java/lang/classfile/MethodBuilder.html" xlink:title="java.lang.classfile.MethodBuilder">
<text text-anchor="middle" x="318" y="-101.4" font-family="DejaVuSans" font-size="12.00" fill="#e76f00">MethodBuilder</text>
</a>
</g>
</g>
<!-- java.lang.classfile.MethodBuilder&#45;&gt;java.lang.classfile.ClassFileBuilder -->
<g id="edge3" class="edge"><title>java.lang.classfile.MethodBuilder&#45;&gt;java.lang.classfile.ClassFileBuilder</title>
<path fill="none" stroke="#999999" stroke-width="2" d="M301.297,-125.35C292.567,-135.724 281.744,-148.587 272.213,-159.914"/>
<polygon fill="#999999" stroke="#999999" stroke-width="2" points="265.549,-167.833 268.544,-157.284 268.386,-163.685 271.605,-159.859 271.988,-160.181 272.37,-160.503 269.151,-164.329 275.431,-163.079 265.549,-167.833 265.549,-167.833"/>
</g>
<!-- java.lang.classfile.CodeBuilder -->
<g id="node5" class="node"><title>java.lang.classfile.CodeBuilder</title>
<g id="a_node5"><a xlink:href="../../../java/lang/classfile/CodeBuilder.html" xlink:title="java.lang.classfile.CodeBuilder">
<text text-anchor="middle" x="456" y="-101.4" font-family="DejaVuSans" font-size="12.00" fill="#e76f00">CodeBuilder</text>
</a>
</g>
</g>
<!-- java.lang.classfile.CodeBuilder&#45;&gt;java.lang.classfile.ClassFileBuilder -->
<g id="edge4" class="edge"><title>java.lang.classfile.CodeBuilder&#45;&gt;java.lang.classfile.ClassFileBuilder</title>
<path fill="none" stroke="#999999" stroke-width="2" d="M407.99,-124.519C378.225,-136.31 339.767,-151.544 308.131,-164.076"/>
<polygon fill="#999999" stroke="#999999" stroke-width="2" points="298.549,-167.872 306.189,-160.005 303.013,-165.566 307.662,-163.724 307.846,-164.189 308.03,-164.654 303.381,-166.495 309.503,-168.373 298.549,-167.872 298.549,-167.872"/>
</g>
<!-- java.lang.classfile.CodeBuilder.BlockCodeBuilder -->
<g id="node6" class="node"><title>java.lang.classfile.CodeBuilder.BlockCodeBuilder</title>
<g id="a_node6"><a xlink:href="../../../java/lang/classfile/CodeBuilder.BlockCodeBuilder.html" xlink:title="java.lang.classfile.CodeBuilder.BlockCodeBuilder">
<text text-anchor="middle" x="456" y="-17.4" font-family="DejaVuSans" font-size="12.00" fill="#e76f00">BlockCodeBuilder</text>
</a>
</g>
</g>
<!-- java.lang.classfile.CodeBuilder.BlockCodeBuilder&#45;&gt;java.lang.classfile.CodeBuilder -->
<g id="edge5" class="edge"><title>java.lang.classfile.CodeBuilder.BlockCodeBuilder&#45;&gt;java.lang.classfile.CodeBuilder</title>
<path fill="none" stroke="#999999" stroke-width="2" d="M456,-41.3499C456,-51.0192 456,-62.8498 456,-73.5843"/>
<polygon fill="#999999" stroke="#999999" stroke-width="2" points="456,-83.8329 451.5,-73.8328 455.5,-78.8329 455.5,-73.8329 456,-73.8329 456.5,-73.8329 456.5,-78.8329 460.5,-73.8329 456,-83.8329 456,-83.8329"/>
</g>
</g>
</svg>
