<?xml version="1.0" encoding="UTF-8" standalone="no"?>
<!DOCTYPE svg PUBLIC "-//W3C//DTD SVG 1.1//EN"
 "http://www.w3.org/Graphics/SVG/1.1/DTD/svg11.dtd">
<!-- Generated by graphviz version 2.38.0 (20140413.2041)
 -->
<!-- Title: G Pages: 1 -->
<svg width="5629pt" height="217pt"
 viewBox="0.00 0.00 5629.00 217.00" xmlns="http://www.w3.org/2000/svg" xmlns:xlink="http://www.w3.org/1999/xlink">
<g id="graph0" class="graph" transform="scale(1 1) rotate(0) translate(4 213)">
<title>G</title>
<polygon fill="white" stroke="none" points="-4,4 -4,-213 5625,-213 5625,4 -4,4"/>
<!-- java.lang.classfile.AccessFlags -->
<g id="node1" class="node"><title>java.lang.classfile.AccessFlags</title>
<g id="a_node1"><a xlink:href="../../../java/lang/classfile/AccessFlags.html" xlink:title="java.lang.classfile.AccessFlags">
<text text-anchor="middle" x="49" y="-101.4" font-family="DejaVuSans" font-size="12.00" fill="#e76f00">AccessFlags</text>
</a>
</g>
</g>
<!-- java.lang.classfile.ClassElement -->
<g id="node2" class="node"><title>java.lang.classfile.ClassElement</title>
<g id="a_node2"><a xlink:href="../../../java/lang/classfile/ClassElement.html" xlink:title="java.lang.classfile.ClassElement">
<text text-anchor="middle" x="2516" y="-185.4" font-family="DejaVuSans" font-size="12.00" fill="#e76f00">ClassElement</text>
</a>
</g>
</g>
<!-- java.lang.classfile.AccessFlags&#45;&gt;java.lang.classfile.ClassElement -->
<g id="edge1" class="edge"><title>java.lang.classfile.AccessFlags&#45;&gt;java.lang.classfile.ClassElement</title>
<path fill="none" stroke="#999999" stroke-width="2" d="M98.0711,-121.337C104.06,-122.807 110.135,-124.086 116,-125 352.723,-161.899 2100.14,-182.932 2453.72,-186.835"/>
<polygon fill="#999999" stroke="#999999" stroke-width="2" points="2463.77,-186.946 2453.72,-191.335 2458.77,-187.39 2453.77,-187.335 2453.77,-186.836 2453.78,-186.336 2458.78,-186.391 2453.82,-182.336 2463.77,-186.946 2463.77,-186.946"/>
</g>
<!-- java.lang.classfile.Superclass -->
<g id="node3" class="node"><title>java.lang.classfile.Superclass</title>
<g id="a_node3"><a xlink:href="../../../java/lang/classfile/Superclass.html" xlink:title="java.lang.classfile.Superclass">
<text text-anchor="middle" x="179" y="-101.4" font-family="DejaVuSans" font-size="12.00" fill="#e76f00">Superclass</text>
</a>
</g>
</g>
<!-- java.lang.classfile.Superclass&#45;&gt;java.lang.classfile.ClassElement -->
<g id="edge2" class="edge"><title>java.lang.classfile.Superclass&#45;&gt;java.lang.classfile.ClassElement</title>
<path fill="none" stroke="#999999" stroke-width="2" d="M223.723,-120.972C229.805,-122.595 236.013,-124.01 242,-125 465.259,-161.906 2111.38,-182.824 2453.74,-186.801"/>
<polygon fill="#999999" stroke="#999999" stroke-width="2" points="2463.96,-186.92 2453.91,-191.304 2458.95,-187.362 2453.95,-187.304 2453.96,-186.804 2453.96,-186.304 2458.96,-186.362 2454.01,-182.304 2463.96,-186.92 2463.96,-186.92"/>
</g>
<!-- java.lang.classfile.Interfaces -->
<g id="node4" class="node"><title>java.lang.classfile.Interfaces</title>
<g id="a_node4"><a xlink:href="../../../java/lang/classfile/Interfaces.html" xlink:title="java.lang.classfile.Interfaces">
<text text-anchor="middle" x="300" y="-101.4" font-family="DejaVuSans" font-size="12.00" fill="#e76f00">Interfaces</text>
</a>
</g>
</g>
<!-- java.lang.classfile.Interfaces&#45;&gt;java.lang.classfile.ClassElement -->
<g id="edge3" class="edge"><title>java.lang.classfile.Interfaces&#45;&gt;java.lang.classfile.ClassElement</title>
<path fill="none" stroke="#999999" stroke-width="2" d="M340.165,-120.695C346.074,-122.433 352.144,-123.955 358,-125 568.681,-162.608 2121.12,-182.858 2453.48,-186.788"/>
<polygon fill="#999999" stroke="#999999" stroke-width="2" points="2463.87,-186.911 2453.82,-191.293 2458.87,-187.352 2453.87,-187.293 2453.88,-186.793 2453.88,-186.293 2458.88,-186.352 2453.93,-182.293 2463.87,-186.911 2463.87,-186.911"/>
</g>
<!-- java.lang.classfile.ClassFileVersion -->
<g id="node5" class="node"><title>java.lang.classfile.ClassFileVersion</title>
<g id="a_node5"><a xlink:href="../../../java/lang/classfile/ClassFileVersion.html" xlink:title="java.lang.classfile.ClassFileVersion">
<text text-anchor="middle" x="436" y="-101.4" font-family="DejaVuSans" font-size="12.00" fill="#e76f00">ClassFileVersion</text>
</a>
</g>
</g>
<!-- java.lang.classfile.ClassFileVersion&#45;&gt;java.lang.classfile.ClassElement -->
<g id="edge4" class="edge"><title>java.lang.classfile.ClassFileVersion&#45;&gt;java.lang.classfile.ClassElement</title>
<path fill="none" stroke="#999999" stroke-width="2" d="M496.217,-121.906C502.192,-123.126 508.193,-124.193 514,-125 902.26,-178.96 2159.37,-186.352 2453.87,-187.348"/>
<polygon fill="#999999" stroke="#999999" stroke-width="2" points="2463.93,-187.38 2453.92,-191.848 2458.93,-187.864 2453.93,-187.848 2453.93,-187.348 2453.94,-186.848 2458.94,-186.864 2453.95,-182.848 2463.93,-187.38 2463.93,-187.38"/>
</g>
<!-- java.lang.classfile.FieldModel -->
<g id="node6" class="node"><title>java.lang.classfile.FieldModel</title>
<g id="a_node6"><a xlink:href="../../../java/lang/classfile/FieldModel.html" xlink:title="java.lang.classfile.FieldModel">
<text text-anchor="middle" x="577" y="-101.4" font-family="DejaVuSans" font-size="12.00" fill="#e76f00">FieldModel</text>
</a>
</g>
</g>
<!-- java.lang.classfile.FieldModel&#45;&gt;java.lang.classfile.ClassElement -->
<g id="edge5" class="edge"><title>java.lang.classfile.FieldModel&#45;&gt;java.lang.classfile.ClassElement</title>
<path fill="none" stroke="#999999" stroke-width="2" d="M621.686,-121.125C627.454,-122.676 633.327,-124.032 639,-125 999.538,-186.519 2169.75,-188.213 2453.57,-187.691"/>
<polygon fill="#999999" stroke="#999999" stroke-width="2" points="2463.68,-187.671 2453.69,-192.191 2458.68,-188.181 2453.68,-188.191 2453.68,-187.691 2453.68,-187.191 2458.68,-187.181 2453.67,-183.191 2463.68,-187.671 2463.68,-187.671"/>
</g>
<!-- java.lang.classfile.MethodModel -->
<g id="node7" class="node"><title>java.lang.classfile.MethodModel</title>
<g id="a_node7"><a xlink:href="../../../java/lang/classfile/MethodModel.html" xlink:title="java.lang.classfile.MethodModel">
<text text-anchor="middle" x="708" y="-101.4" font-family="DejaVuSans" font-size="12.00" fill="#e76f00">MethodModel</text>
</a>
</g>
</g>
<!-- java.lang.classfile.MethodModel&#45;&gt;java.lang.classfile.ClassElement -->
<g id="edge6" class="edge"><title>java.lang.classfile.MethodModel&#45;&gt;java.lang.classfile.ClassElement</title>
<path fill="none" stroke="#999999" stroke-width="2" d="M758.564,-121.275C764.727,-122.756 770.974,-124.054 777,-125 1109.97,-177.258 2183.61,-185.9 2453.83,-187.258"/>
<polygon fill="#999999" stroke="#999999" stroke-width="2" points="2463.85,-187.307 2453.83,-191.758 2458.84,-187.782 2453.84,-187.758 2453.85,-187.258 2453.85,-186.758 2458.85,-186.782 2453.87,-182.758 2463.85,-187.307 2463.85,-187.307"/>
</g>
<!-- java.lang.classfile.CustomAttribute -->
<g id="node8" class="node"><title>java.lang.classfile.CustomAttribute</title>
<g id="a_node8"><a xlink:href="../../../java/lang/classfile/CustomAttribute.html" xlink:title="java.lang.classfile.CustomAttribute">
<text text-anchor="middle" x="852" y="-101.4" font-family="DejaVuSans" font-size="12.00" fill="#e76f00">CustomAttribute</text>
</a>
</g>
</g>
<!-- java.lang.classfile.CustomAttribute&#45;&gt;java.lang.classfile.ClassElement -->
<g id="edge7" class="edge"><title>java.lang.classfile.CustomAttribute&#45;&gt;java.lang.classfile.ClassElement</title>
<path fill="none" stroke="#999999" stroke-width="2" d="M909.067,-121.688C915.086,-122.989 921.144,-124.134 927,-125 1229.37,-169.723 2197.49,-183.839 2453.44,-186.835"/>
<polygon fill="#999999" stroke="#999999" stroke-width="2" points="2463.67,-186.954 2453.62,-191.338 2458.66,-187.396 2453.67,-187.338 2453.67,-186.838 2453.68,-186.338 2458.68,-186.396 2453.72,-182.338 2463.67,-186.954 2463.67,-186.954"/>
</g>
<!-- open node #0 -->
<g id="node9" class="node"><title>open node #0</title>
<g id="a_node9"><a xlink:title="Non&#45;sealed Hierarchy">
<text text-anchor="start" x="835" y="-18.4" font-family="DejaVuSans" font-style="italic" font-size="12.00" fill="#e76f00">&lt;any&gt;</text>
</a>
</g>
</g>
<!-- open node #0&#45;&gt;java.lang.classfile.CustomAttribute -->
<g id="edge8" class="edge"><title>open node #0&#45;&gt;java.lang.classfile.CustomAttribute</title>
<path fill="none" stroke="#999999" stroke-width="2" stroke-dasharray="5,2" d="M852,-41.3499C852,-51.0192 852,-62.8498 852,-73.5843"/>
<polygon fill="#999999" stroke="#999999" stroke-width="2" points="852,-83.8329 847.5,-73.8328 851.5,-78.8329 851.5,-73.8329 852,-73.8329 852.5,-73.8329 852.5,-78.8329 856.5,-73.8329 852,-83.8329 852,-83.8329"/>
</g>
<!-- java.lang.classfile.attribute.CompilationIDAttribute -->
<g id="node10" class="node"><title>java.lang.classfile.attribute.CompilationIDAttribute</title>
<g id="a_node10"><a xlink:href="../../../java/lang/classfile/attribute/CompilationIDAttribute.html" xlink:title="java.lang.classfile.attribute.CompilationIDAttribute">
<text text-anchor="middle" x="1020" y="-101.4" font-family="DejaVuSans" font-size="12.00" fill="#e76f00">CompilationIDAttribute</text>
</a>
</g>
</g>
<!-- java.lang.classfile.attribute.CompilationIDAttribute&#45;&gt;java.lang.classfile.ClassElement -->
<g id="edge9" class="edge"><title>java.lang.classfile.attribute.CompilationIDAttribute&#45;&gt;java.lang.classfile.ClassElement</title>
<path fill="none" stroke="#999999" stroke-width="2" d="M1094.64,-122.392C1100.49,-123.389 1106.33,-124.278 1112,-125 1377.32,-158.791 2217.94,-180.544 2453.88,-186.094"/>
<polygon fill="#999999" stroke="#999999" stroke-width="2" points="2464,-186.331 2453.9,-190.596 2458.99,-186.714 2453.99,-186.597 2454,-186.097 2454.01,-185.597 2459.01,-185.714 2454.11,-181.598 2464,-186.331 2464,-186.331"/>
</g>
<!-- java.lang.classfile.attribute.DeprecatedAttribute -->
<g id="node11" class="node"><title>java.lang.classfile.attribute.DeprecatedAttribute</title>
<g id="a_node11"><a xlink:href="../../../java/lang/classfile/attribute/DeprecatedAttribute.html" xlink:title="java.lang.classfile.attribute.DeprecatedAttribute">
<text text-anchor="middle" x="1198" y="-101.4" font-family="DejaVuSans" font-size="12.00" fill="#e76f00">DeprecatedAttribute</text>
</a>
</g>
</g>
<!-- java.lang.classfile.attribute.DeprecatedAttribute&#45;&gt;java.lang.classfile.ClassElement -->
<g id="edge10" class="edge"><title>java.lang.classfile.attribute.DeprecatedAttribute&#45;&gt;java.lang.classfile.ClassElement</title>
<path fill="none" stroke="#999999" stroke-width="2" d="M1265.87,-122.025C1271.98,-123.167 1278.09,-124.186 1284,-125 1729.12,-186.289 2272.12,-189.098 2453.6,-188.116"/>
<polygon fill="#999999" stroke="#999999" stroke-width="2" points="2463.76,-188.055 2453.79,-192.615 2458.76,-188.585 2453.76,-188.615 2453.76,-188.115 2453.76,-187.615 2458.76,-187.585 2453.73,-183.616 2463.76,-188.055 2463.76,-188.055"/>
</g>
<!-- java.lang.classfile.attribute.EnclosingMethodAttribute -->
<g id="node12" class="node"><title>java.lang.classfile.attribute.EnclosingMethodAttribute</title>
<g id="a_node12"><a xlink:href="../../../java/lang/classfile/attribute/EnclosingMethodAttribute.html" xlink:title="java.lang.classfile.attribute.EnclosingMethodAttribute">
<text text-anchor="middle" x="1385" y="-101.4" font-family="DejaVuSans" font-size="12.00" fill="#e76f00">EnclosingMethodAttribute</text>
</a>
</g>
</g>
<!-- java.lang.classfile.attribute.EnclosingMethodAttribute&#45;&gt;java.lang.classfile.ClassElement -->
<g id="edge11" class="edge"><title>java.lang.classfile.attribute.EnclosingMethodAttribute&#45;&gt;java.lang.classfile.ClassElement</title>
<path fill="none" stroke="#999999" stroke-width="2" d="M1468.09,-122.43C1474.14,-123.389 1480.15,-124.261 1486,-125 1850.79,-171.084 2292.71,-183.447 2453.61,-186.538"/>
<polygon fill="#999999" stroke="#999999" stroke-width="2" points="2463.8,-186.729 2453.71,-191.041 2458.79,-187.135 2453.79,-187.042 2453.8,-186.542 2453.81,-186.042 2458.81,-186.135 2453.88,-182.043 2463.8,-186.729 2463.8,-186.729"/>
</g>
<!-- java.lang.classfile.attribute.InnerClassesAttribute -->
<g id="node13" class="node"><title>java.lang.classfile.attribute.InnerClassesAttribute</title>
<g id="a_node13"><a xlink:href="../../../java/lang/classfile/attribute/InnerClassesAttribute.html" xlink:title="java.lang.classfile.attribute.InnerClassesAttribute">
<text text-anchor="middle" x="1576" y="-101.4" font-family="DejaVuSans" font-size="12.00" fill="#e76f00">InnerClassesAttribute</text>
</a>
</g>
</g>
<!-- java.lang.classfile.attribute.InnerClassesAttribute&#45;&gt;java.lang.classfile.ClassElement -->
<g id="edge12" class="edge"><title>java.lang.classfile.attribute.InnerClassesAttribute&#45;&gt;java.lang.classfile.ClassElement</title>
<path fill="none" stroke="#999999" stroke-width="2" d="M1647.73,-122.135C1653.55,-123.205 1659.36,-124.18 1665,-125 1958.19,-167.663 2312.66,-181.812 2453.73,-185.961"/>
<polygon fill="#999999" stroke="#999999" stroke-width="2" points="2463.91,-186.254 2453.79,-190.464 2458.9,-186.61 2453.9,-186.466 2453.92,-185.966 2453.93,-185.466 2458.93,-185.61 2454.05,-181.468 2463.91,-186.254 2463.91,-186.254"/>
</g>
<!-- java.lang.classfile.attribute.ModuleAttribute -->
<g id="node14" class="node"><title>java.lang.classfile.attribute.ModuleAttribute</title>
<g id="a_node14"><a xlink:href="../../../java/lang/classfile/attribute/ModuleAttribute.html" xlink:title="java.lang.classfile.attribute.ModuleAttribute">
<text text-anchor="middle" x="1740" y="-101.4" font-family="DejaVuSans" font-size="12.00" fill="#e76f00">ModuleAttribute</text>
</a>
</g>
</g>
<!-- java.lang.classfile.attribute.ModuleAttribute&#45;&gt;java.lang.classfile.ClassElement -->
<g id="edge13" class="edge"><title>java.lang.classfile.attribute.ModuleAttribute&#45;&gt;java.lang.classfile.ClassElement</title>
<path fill="none" stroke="#999999" stroke-width="2" d="M1796.71,-121.297C1802.85,-122.693 1809.03,-123.966 1815,-125 2048.37,-165.456 2330.26,-180.48 2453.38,-185.391"/>
<polygon fill="#999999" stroke="#999999" stroke-width="2" points="2463.73,-185.795 2453.56,-189.901 2458.72,-186.099 2453.72,-185.904 2453.74,-185.405 2453.76,-184.905 2458.76,-185.1 2453.92,-180.908 2463.73,-185.795 2463.73,-185.795"/>
</g>
<!-- java.lang.classfile.attribute.ModuleHashesAttribute -->
<g id="node15" class="node"><title>java.lang.classfile.attribute.ModuleHashesAttribute</title>
<g id="a_node15"><a xlink:href="../../../java/lang/classfile/attribute/ModuleHashesAttribute.html" xlink:title="java.lang.classfile.attribute.ModuleHashesAttribute">
<text text-anchor="middle" x="1910" y="-101.4" font-family="DejaVuSans" font-size="12.00" fill="#e76f00">ModuleHashesAttribute</text>
</a>
</g>
</g>
<!-- java.lang.classfile.attribute.ModuleHashesAttribute&#45;&gt;java.lang.classfile.ClassElement -->
<g id="edge14" class="edge"><title>java.lang.classfile.attribute.ModuleHashesAttribute&#45;&gt;java.lang.classfile.ClassElement</title>
<path fill="none" stroke="#999999" stroke-width="2" d="M1987.16,-121.88C1993.18,-122.994 1999.18,-124.049 2005,-125 2166.06,-151.335 2357.33,-171.899 2453.78,-181.527"/>
<polygon fill="#999999" stroke="#999999" stroke-width="2" points="2463.94,-182.535 2453.54,-186.025 2458.92,-182.539 2453.94,-182.045 2453.99,-181.547 2454.04,-181.05 2459.01,-181.544 2454.43,-177.069 2463.94,-182.535 2463.94,-182.535"/>
</g>
<!-- java.lang.classfile.attribute.ModuleMainClassAttribute -->
<g id="node16" class="node"><title>java.lang.classfile.attribute.ModuleMainClassAttribute</title>
<g id="a_node16"><a xlink:href="../../../java/lang/classfile/attribute/ModuleMainClassAttribute.html" xlink:title="java.lang.classfile.attribute.ModuleMainClassAttribute">
<text text-anchor="middle" x="2108" y="-101.4" font-family="DejaVuSans" font-size="12.00" fill="#e76f00">ModuleMainClassAttribute</text>
</a>
</g>
</g>
<!-- java.lang.classfile.attribute.ModuleMainClassAttribute&#45;&gt;java.lang.classfile.ClassElement -->
<g id="edge15" class="edge"><title>java.lang.classfile.attribute.ModuleMainClassAttribute&#45;&gt;java.lang.classfile.ClassElement</title>
<path fill="none" stroke="#999999" stroke-width="2" d="M2193.03,-122.59C2270.83,-138.226 2384.11,-160.992 2453.77,-174.992"/>
<polygon fill="#999999" stroke="#999999" stroke-width="2" points="2463.72,-176.992 2453.03,-179.434 2458.72,-176.497 2453.82,-175.512 2453.91,-175.022 2454.01,-174.532 2458.91,-175.517 2454.8,-170.61 2463.72,-176.992 2463.72,-176.992"/>
</g>
<!-- java.lang.classfile.attribute.ModulePackagesAttribute -->
<g id="node17" class="node"><title>java.lang.classfile.attribute.ModulePackagesAttribute</title>
<g id="a_node17"><a xlink:href="../../../java/lang/classfile/attribute/ModulePackagesAttribute.html" xlink:title="java.lang.classfile.attribute.ModulePackagesAttribute">
<text text-anchor="middle" x="2312" y="-101.4" font-family="DejaVuSans" font-size="12.00" fill="#e76f00">ModulePackagesAttribute</text>
</a>
</g>
</g>
<!-- java.lang.classfile.attribute.ModulePackagesAttribute&#45;&gt;java.lang.classfile.ClassElement -->
<g id="edge16" class="edge"><title>java.lang.classfile.attribute.ModulePackagesAttribute&#45;&gt;java.lang.classfile.ClassElement</title>
<path fill="none" stroke="#999999" stroke-width="2" d="M2360.6,-125.037C2389.87,-136.8 2427.3,-151.845 2458.09,-164.222"/>
<polygon fill="#999999" stroke="#999999" stroke-width="2" points="2467.42,-167.971 2456.46,-168.417 2462.59,-166.57 2457.95,-164.705 2458.14,-164.241 2458.32,-163.777 2462.96,-165.642 2459.82,-160.066 2467.42,-167.971 2467.42,-167.971"/>
</g>
<!-- java.lang.classfile.attribute.ModuleResolutionAttribute -->
<g id="node18" class="node"><title>java.lang.classfile.attribute.ModuleResolutionAttribute</title>
<g id="a_node18"><a xlink:href="../../../java/lang/classfile/attribute/ModuleResolutionAttribute.html" xlink:title="java.lang.classfile.attribute.ModuleResolutionAttribute">
<text text-anchor="middle" x="2516" y="-101.4" font-family="DejaVuSans" font-size="12.00" fill="#e76f00">ModuleResolutionAttribute</text>
</a>
</g>
</g>
<!-- java.lang.classfile.attribute.ModuleResolutionAttribute&#45;&gt;java.lang.classfile.ClassElement -->
<g id="edge17" class="edge"><title>java.lang.classfile.attribute.ModuleResolutionAttribute&#45;&gt;java.lang.classfile.ClassElement</title>
<path fill="none" stroke="#999999" stroke-width="2" d="M2516,-125.35C2516,-135.019 2516,-146.85 2516,-157.584"/>
<polygon fill="#999999" stroke="#999999" stroke-width="2" points="2516,-167.833 2511.5,-157.833 2515.5,-162.833 2515.5,-157.833 2516,-157.833 2516.5,-157.833 2516.5,-162.833 2520.5,-157.833 2516,-167.833 2516,-167.833"/>
</g>
<!-- java.lang.classfile.attribute.ModuleTargetAttribute -->
<g id="node19" class="node"><title>java.lang.classfile.attribute.ModuleTargetAttribute</title>
<g id="a_node19"><a xlink:href="../../../java/lang/classfile/attribute/ModuleTargetAttribute.html" xlink:title="java.lang.classfile.attribute.ModuleTargetAttribute">
<text text-anchor="middle" x="2710" y="-101.4" font-family="DejaVuSans" font-size="12.00" fill="#e76f00">ModuleTargetAttribute</text>
</a>
</g>
</g>
<!-- java.lang.classfile.attribute.ModuleTargetAttribute&#45;&gt;java.lang.classfile.ClassElement -->
<g id="edge18" class="edge"><title>java.lang.classfile.attribute.ModuleTargetAttribute&#45;&gt;java.lang.classfile.ClassElement</title>
<path fill="none" stroke="#999999" stroke-width="2" d="M2663.53,-125.141C2635.92,-136.813 2600.72,-151.689 2571.64,-163.983"/>
<polygon fill="#999999" stroke="#999999" stroke-width="2" points="2562.42,-167.877 2569.88,-159.839 2566.84,-165.47 2571.44,-163.523 2571.64,-163.984 2571.83,-164.444 2567.22,-166.391 2573.39,-168.129 2562.42,-167.877 2562.42,-167.877"/>
</g>
<!-- java.lang.classfile.attribute.NestHostAttribute -->
<g id="node20" class="node"><title>java.lang.classfile.attribute.NestHostAttribute</title>
<g id="a_node20"><a xlink:href="../../../java/lang/classfile/attribute/NestHostAttribute.html" xlink:title="java.lang.classfile.attribute.NestHostAttribute">
<text text-anchor="middle" x="2880" y="-101.4" font-family="DejaVuSans" font-size="12.00" fill="#e76f00">NestHostAttribute</text>
</a>
</g>
</g>
<!-- java.lang.classfile.attribute.NestHostAttribute&#45;&gt;java.lang.classfile.ClassElement -->
<g id="edge19" class="edge"><title>java.lang.classfile.attribute.NestHostAttribute&#45;&gt;java.lang.classfile.ClassElement</title>
<path fill="none" stroke="#999999" stroke-width="2" d="M2818.8,-120.775C2812.79,-122.224 2806.78,-123.653 2801,-125 2724.44,-142.84 2635.98,-162.017 2578.17,-174.355"/>
<polygon fill="#999999" stroke="#999999" stroke-width="2" points="2568.1,-176.502 2576.94,-170.016 2572.88,-174.971 2577.77,-173.928 2577.88,-174.417 2577.98,-174.906 2573.09,-175.949 2578.82,-178.818 2568.1,-176.502 2568.1,-176.502"/>
</g>
<!-- java.lang.classfile.attribute.NestMembersAttribute -->
<g id="node21" class="node"><title>java.lang.classfile.attribute.NestMembersAttribute</title>
<g id="a_node21"><a xlink:href="../../../java/lang/classfile/attribute/NestMembersAttribute.html" xlink:title="java.lang.classfile.attribute.NestMembersAttribute">
<text text-anchor="middle" x="3051" y="-101.4" font-family="DejaVuSans" font-size="12.00" fill="#e76f00">NestMembersAttribute</text>
</a>
</g>
</g>
<!-- java.lang.classfile.attribute.NestMembersAttribute&#45;&gt;java.lang.classfile.ClassElement -->
<g id="edge20" class="edge"><title>java.lang.classfile.attribute.NestMembersAttribute&#45;&gt;java.lang.classfile.ClassElement</title>
<path fill="none" stroke="#999999" stroke-width="2" d="M2977.27,-121.593C2971.1,-122.798 2964.95,-123.951 2959,-125 2823.75,-148.845 2664,-169.566 2578.12,-180.104"/>
<polygon fill="#999999" stroke="#999999" stroke-width="2" points="2568.02,-181.338 2577.4,-175.658 2572.92,-180.235 2577.88,-179.629 2577.94,-180.125 2578,-180.621 2573.04,-181.228 2578.49,-184.592 2568.02,-181.338 2568.02,-181.338"/>
</g>
<!-- java.lang.classfile.attribute.PermittedSubclassesAttribute -->
<g id="node22" class="node"><title>java.lang.classfile.attribute.PermittedSubclassesAttribute</title>
<g id="a_node22"><a xlink:href="../../../java/lang/classfile/attribute/PermittedSubclassesAttribute.html" xlink:title="java.lang.classfile.attribute.PermittedSubclassesAttribute">
<text text-anchor="middle" x="3254" y="-101.4" font-family="DejaVuSans" font-size="12.00" fill="#e76f00">PermittedSubclassesAttribute</text>
</a>
</g>
</g>
<!-- java.lang.classfile.attribute.PermittedSubclassesAttribute&#45;&gt;java.lang.classfile.ClassElement -->
<g id="edge21" class="edge"><title>java.lang.classfile.attribute.PermittedSubclassesAttribute&#45;&gt;java.lang.classfile.ClassElement</title>
<path fill="none" stroke="#999999" stroke-width="2" d="M3160.88,-122.243C3154.5,-123.227 3148.16,-124.157 3142,-125 2936.32,-153.134 2690.99,-173.944 2578.25,-182.797"/>
<polygon fill="#999999" stroke="#999999" stroke-width="2" points="2568.09,-183.591 2577.71,-178.326 2573.04,-182.703 2578.02,-182.313 2578.06,-182.812 2578.1,-183.31 2573.11,-183.7 2578.41,-187.298 2568.09,-183.591 2568.09,-183.591"/>
</g>
<!-- java.lang.classfile.attribute.RecordAttribute -->
<g id="node23" class="node"><title>java.lang.classfile.attribute.RecordAttribute</title>
<g id="a_node23"><a xlink:href="../../../java/lang/classfile/attribute/RecordAttribute.html" xlink:title="java.lang.classfile.attribute.RecordAttribute">
<text text-anchor="middle" x="3439" y="-101.4" font-family="DejaVuSans" font-size="12.00" fill="#e76f00">RecordAttribute</text>
</a>
</g>
</g>
<!-- java.lang.classfile.attribute.RecordAttribute&#45;&gt;java.lang.classfile.ClassElement -->
<g id="edge22" class="edge"><title>java.lang.classfile.attribute.RecordAttribute&#45;&gt;java.lang.classfile.ClassElement</title>
<path fill="none" stroke="#999999" stroke-width="2" d="M3382.67,-121.488C3376.74,-122.828 3370.77,-124.037 3365,-125 3073.46,-173.716 2719.28,-184.46 2578.26,-186.83"/>
<polygon fill="#999999" stroke="#999999" stroke-width="2" points="2568.08,-186.992 2578.01,-182.333 2573.07,-186.412 2578.07,-186.333 2578.08,-186.833 2578.09,-187.332 2573.09,-187.412 2578.15,-191.332 2568.08,-186.992 2568.08,-186.992"/>
</g>
<!-- java.lang.classfile.attribute.RuntimeInvisibleAnnotationsAttribute -->
<g id="node24" class="node"><title>java.lang.classfile.attribute.RuntimeInvisibleAnnotationsAttribute</title>
<g id="a_node24"><a xlink:href="../../../java/lang/classfile/attribute/RuntimeInvisibleAnnotationsAttribute.html" xlink:title="java.lang.classfile.attribute.RuntimeInvisibleAnnotationsAttribute">
<text text-anchor="middle" x="3644" y="-101.4" font-family="DejaVuSans" font-size="12.00" fill="#e76f00">RuntimeInvisibleAnnotationsAttribute</text>
</a>
</g>
</g>
<!-- java.lang.classfile.attribute.RuntimeInvisibleAnnotationsAttribute&#45;&gt;java.lang.classfile.ClassElement -->
<g id="edge23" class="edge"><title>java.lang.classfile.attribute.RuntimeInvisibleAnnotationsAttribute&#45;&gt;java.lang.classfile.ClassElement</title>
<path fill="none" stroke="#999999" stroke-width="2" d="M3530.82,-122.961C3524.8,-123.698 3518.83,-124.384 3513,-125 3160.63,-162.202 2735.69,-179.832 2578.44,-185.435"/>
<polygon fill="#999999" stroke="#999999" stroke-width="2" points="2568.03,-185.802 2577.86,-180.952 2573.01,-185.126 2578,-184.95 2578.02,-185.449 2578.04,-185.949 2573.04,-186.125 2578.18,-189.946 2568.03,-185.802 2568.03,-185.802"/>
</g>
<!-- java.lang.classfile.attribute.RuntimeInvisibleTypeAnnotationsAttribute -->
<g id="node25" class="node"><title>java.lang.classfile.attribute.RuntimeInvisibleTypeAnnotationsAttribute</title>
<g id="a_node25"><a xlink:href="../../../java/lang/classfile/attribute/RuntimeInvisibleTypeAnnotationsAttribute.html" xlink:title="java.lang.classfile.attribute.RuntimeInvisibleTypeAnnotationsAttribute">
<text text-anchor="middle" x="3919" y="-101.4" font-family="DejaVuSans" font-size="12.00" fill="#e76f00">RuntimeInvisibleTypeAnnotationsAttribute</text>
</a>
</g>
</g>
<!-- java.lang.classfile.attribute.RuntimeInvisibleTypeAnnotationsAttribute&#45;&gt;java.lang.classfile.ClassElement -->
<g id="edge24" class="edge"><title>java.lang.classfile.attribute.RuntimeInvisibleTypeAnnotationsAttribute&#45;&gt;java.lang.classfile.ClassElement</title>
<path fill="none" stroke="#999999" stroke-width="2" d="M3793.41,-123.146C3787.19,-123.819 3781.03,-124.443 3775,-125 3316.77,-167.322 2761.89,-182.286 2578.29,-186.281"/>
<polygon fill="#999999" stroke="#999999" stroke-width="2" points="2568.28,-186.496 2578.18,-181.782 2573.27,-185.889 2578.27,-185.781 2578.28,-186.281 2578.29,-186.781 2573.29,-186.889 2578.38,-190.78 2568.28,-186.496 2568.28,-186.496"/>
</g>
<!-- java.lang.classfile.attribute.RuntimeVisibleAnnotationsAttribute -->
<g id="node26" class="node"><title>java.lang.classfile.attribute.RuntimeVisibleAnnotationsAttribute</title>
<g id="a_node26"><a xlink:href="../../../java/lang/classfile/attribute/RuntimeVisibleAnnotationsAttribute.html" xlink:title="java.lang.classfile.attribute.RuntimeVisibleAnnotationsAttribute">
<text text-anchor="middle" x="4190" y="-101.4" font-family="DejaVuSans" font-size="12.00" fill="#e76f00">RuntimeVisibleAnnotationsAttribute</text>
</a>
</g>
</g>
<!-- java.lang.classfile.attribute.RuntimeVisibleAnnotationsAttribute&#45;&gt;java.lang.classfile.ClassElement -->
<g id="edge25" class="edge"><title>java.lang.classfile.attribute.RuntimeVisibleAnnotationsAttribute&#45;&gt;java.lang.classfile.ClassElement</title>
<path fill="none" stroke="#999999" stroke-width="2" d="M4080.99,-123.045C4074.91,-123.771 4068.88,-124.431 4063,-125 3488.11,-180.572 2788.42,-186.887 2578.44,-187.482"/>
<polygon fill="#999999" stroke="#999999" stroke-width="2" points="2568.23,-187.507 2578.22,-182.982 2573.23,-186.995 2578.23,-186.982 2578.23,-187.482 2578.23,-187.982 2573.23,-187.995 2578.24,-191.982 2568.23,-187.507 2568.23,-187.507"/>
</g>
<!-- java.lang.classfile.attribute.RuntimeVisibleTypeAnnotationsAttribute -->
<g id="node27" class="node"><title>java.lang.classfile.attribute.RuntimeVisibleTypeAnnotationsAttribute</title>
<g id="a_node27"><a xlink:href="../../../java/lang/classfile/attribute/RuntimeVisibleTypeAnnotationsAttribute.html" xlink:title="java.lang.classfile.attribute.RuntimeVisibleTypeAnnotationsAttribute">
<text text-anchor="middle" x="4457" y="-101.4" font-family="DejaVuSans" font-size="12.00" fill="#e76f00">RuntimeVisibleTypeAnnotationsAttribute</text>
</a>
</g>
</g>
<!-- java.lang.classfile.attribute.RuntimeVisibleTypeAnnotationsAttribute&#45;&gt;java.lang.classfile.ClassElement -->
<g id="edge26" class="edge"><title>java.lang.classfile.attribute.RuntimeVisibleTypeAnnotationsAttribute&#45;&gt;java.lang.classfile.ClassElement</title>
<path fill="none" stroke="#999999" stroke-width="2" d="M4334.92,-123.264C4328.87,-123.906 4322.87,-124.491 4317,-125 3637.44,-183.958 2809.08,-187.824 2578.28,-187.674"/>
<polygon fill="#999999" stroke="#999999" stroke-width="2" points="2568.06,-187.665 2578.06,-183.174 2573.06,-187.169 2578.06,-187.174 2578.06,-187.674 2578.06,-188.174 2573.06,-188.169 2578.06,-192.174 2568.06,-187.665 2568.06,-187.665"/>
</g>
<!-- java.lang.classfile.attribute.SignatureAttribute -->
<g id="node28" class="node"><title>java.lang.classfile.attribute.SignatureAttribute</title>
<g id="a_node28"><a xlink:href="../../../java/lang/classfile/attribute/SignatureAttribute.html" xlink:title="java.lang.classfile.attribute.SignatureAttribute">
<text text-anchor="middle" x="4678" y="-101.4" font-family="DejaVuSans" font-size="12.00" fill="#e76f00">SignatureAttribute</text>
</a>
</g>
</g>
<!-- java.lang.classfile.attribute.SignatureAttribute&#45;&gt;java.lang.classfile.ClassElement -->
<g id="edge27" class="edge"><title>java.lang.classfile.attribute.SignatureAttribute&#45;&gt;java.lang.classfile.ClassElement</title>
<path fill="none" stroke="#999999" stroke-width="2" d="M4615.45,-121.907C4609.25,-123.127 4603.02,-124.194 4597,-125 4192.28,-179.204 2880.91,-186.413 2578.58,-187.359"/>
<polygon fill="#999999" stroke="#999999" stroke-width="2" points="2568.25,-187.39 2578.24,-182.86 2573.25,-186.875 2578.25,-186.86 2578.25,-187.36 2578.25,-187.86 2573.25,-187.875 2578.26,-191.86 2568.25,-187.39 2568.25,-187.39"/>
</g>
<!-- java.lang.classfile.attribute.SourceDebugExtensionAttribute -->
<g id="node29" class="node"><title>java.lang.classfile.attribute.SourceDebugExtensionAttribute</title>
<g id="a_node29"><a xlink:href="../../../java/lang/classfile/attribute/SourceDebugExtensionAttribute.html" xlink:title="java.lang.classfile.attribute.SourceDebugExtensionAttribute">
<text text-anchor="middle" x="4877" y="-101.4" font-family="DejaVuSans" font-size="12.00" fill="#e76f00">SourceDebugExtensionAttribute</text>
</a>
</g>
</g>
<!-- java.lang.classfile.attribute.SourceDebugExtensionAttribute&#45;&gt;java.lang.classfile.ClassElement -->
<g id="edge28" class="edge"><title>java.lang.classfile.attribute.SourceDebugExtensionAttribute&#45;&gt;java.lang.classfile.ClassElement</title>
<path fill="none" stroke="#999999" stroke-width="2" d="M4776.7,-123.028C4770.72,-123.776 4764.79,-124.444 4759,-125 4318.79,-167.309 2895.1,-183.732 2578.69,-186.906"/>
<polygon fill="#999999" stroke="#999999" stroke-width="2" points="2568.34,-187.009 2578.3,-182.41 2573.34,-186.459 2578.34,-186.409 2578.34,-186.909 2578.35,-187.409 2573.35,-187.459 2578.39,-191.409 2568.34,-187.009 2568.34,-187.009"/>
</g>
<!-- java.lang.classfile.attribute.SourceFileAttribute -->
<g id="node30" class="node"><title>java.lang.classfile.attribute.SourceFileAttribute</title>
<g id="a_node30"><a xlink:href="../../../java/lang/classfile/attribute/SourceFileAttribute.html" xlink:title="java.lang.classfile.attribute.SourceFileAttribute">
<text text-anchor="middle" x="5079" y="-101.4" font-family="DejaVuSans" font-size="12.00" fill="#e76f00">SourceFileAttribute</text>
</a>
</g>
</g>
<!-- java.lang.classfile.attribute.SourceFileAttribute&#45;&gt;java.lang.classfile.ClassElement -->
<g id="edge29" class="edge"><title>java.lang.classfile.attribute.SourceFileAttribute&#45;&gt;java.lang.classfile.ClassElement</title>
<path fill="none" stroke="#999999" stroke-width="2" d="M5013.2,-122.105C5007.08,-123.247 5000.94,-124.244 4995,-125 4506.79,-187.167 2913.33,-188.143 2578.2,-187.641"/>
<polygon fill="#999999" stroke="#999999" stroke-width="2" points="2568.19,-187.625 2578.2,-183.141 2573.2,-187.133 2578.2,-187.141 2578.19,-187.641 2578.19,-188.141 2573.19,-188.133 2578.19,-192.141 2568.19,-187.625 2568.19,-187.625"/>
</g>
<!-- java.lang.classfile.attribute.SourceIDAttribute -->
<g id="node31" class="node"><title>java.lang.classfile.attribute.SourceIDAttribute</title>
<g id="a_node31"><a xlink:href="../../../java/lang/classfile/attribute/SourceIDAttribute.html" xlink:title="java.lang.classfile.attribute.SourceIDAttribute">
<text text-anchor="middle" x="5242" y="-101.4" font-family="DejaVuSans" font-size="12.00" fill="#e76f00">SourceIDAttribute</text>
</a>
</g>
</g>
<!-- java.lang.classfile.attribute.SourceIDAttribute&#45;&gt;java.lang.classfile.ClassElement -->
<g id="edge30" class="edge"><title>java.lang.classfile.attribute.SourceIDAttribute&#45;&gt;java.lang.classfile.ClassElement</title>
<path fill="none" stroke="#999999" stroke-width="2" d="M5180.58,-122.037C5174.67,-123.212 5168.74,-124.233 5163,-125 4899.64,-160.183 2952.82,-182.795 2578.25,-186.845"/>
<polygon fill="#999999" stroke="#999999" stroke-width="2" points="2568.14,-186.954 2578.09,-182.346 2573.14,-186.4 2578.14,-186.346 2578.14,-186.846 2578.15,-187.346 2573.15,-187.4 2578.19,-191.346 2568.14,-186.954 2568.14,-186.954"/>
</g>
<!-- java.lang.classfile.attribute.SyntheticAttribute -->
<g id="node32" class="node"><title>java.lang.classfile.attribute.SyntheticAttribute</title>
<g id="a_node32"><a xlink:href="../../../java/lang/classfile/attribute/SyntheticAttribute.html" xlink:title="java.lang.classfile.attribute.SyntheticAttribute">
<text text-anchor="middle" x="5400" y="-101.4" font-family="DejaVuSans" font-size="12.00" fill="#e76f00">SyntheticAttribute</text>
</a>
</g>
</g>
<!-- java.lang.classfile.attribute.SyntheticAttribute&#45;&gt;java.lang.classfile.ClassElement -->
<g id="edge31" class="edge"><title>java.lang.classfile.attribute.SyntheticAttribute&#45;&gt;java.lang.classfile.ClassElement</title>
<path fill="none" stroke="#999999" stroke-width="2" d="M5338.58,-122.045C5332.67,-123.218 5326.74,-124.237 5321,-125 5041.01,-162.215 2965.7,-183.3 2578.21,-186.934"/>
<polygon fill="#999999" stroke="#999999" stroke-width="2" points="2568.04,-187.029 2578,-182.436 2573.03,-186.482 2578.03,-186.436 2578.04,-186.936 2578.04,-187.436 2573.04,-187.482 2578.08,-191.435 2568.04,-187.029 2568.04,-187.029"/>
</g>
<!-- java.lang.classfile.attribute.UnknownAttribute -->
<g id="node33" class="node"><title>java.lang.classfile.attribute.UnknownAttribute</title>
<g id="a_node33"><a xlink:href="../../../java/lang/classfile/attribute/UnknownAttribute.html" xlink:title="java.lang.classfile.attribute.UnknownAttribute">
<text text-anchor="middle" x="5559" y="-101.4" font-family="DejaVuSans" font-size="12.00" fill="#e76f00">UnknownAttribute</text>
</a>
</g>
</g>
<!-- java.lang.classfile.attribute.UnknownAttribute&#45;&gt;java.lang.classfile.ClassElement -->
<g id="edge32" class="edge"><title>java.lang.classfile.attribute.UnknownAttribute&#45;&gt;java.lang.classfile.ClassElement</title>
<path fill="none" stroke="#999999" stroke-width="2" d="M5496.8,-122.051C5490.81,-123.223 5484.81,-124.24 5479,-125 5182.38,-163.806 2979.39,-183.685 2578.5,-187"/>
<polygon fill="#999999" stroke="#999999" stroke-width="2" points="2568.26,-187.084 2578.22,-182.502 2573.26,-186.543 2578.26,-186.502 2578.26,-187.002 2578.27,-187.502 2573.27,-187.543 2578.3,-191.502 2568.26,-187.084 2568.26,-187.084"/>
</g>
</g>
</svg>
