<?xml version="1.0" encoding="UTF-8" standalone="no"?>
<!DOCTYPE svg PUBLIC "-//W3C//DTD SVG 1.1//EN"
 "http://www.w3.org/Graphics/SVG/1.1/DTD/svg11.dtd">
<!-- Generated by graphviz version 2.38.0 (20140413.2041)
 -->
<!-- Title: G Pages: 1 -->
<svg width="5243pt" height="301pt"
 viewBox="0.00 0.00 5243.00 301.00" xmlns="http://www.w3.org/2000/svg" xmlns:xlink="http://www.w3.org/1999/xlink">
<g id="graph0" class="graph" transform="scale(1 1) rotate(0) translate(4 297)">
<title>G</title>
<polygon fill="white" stroke="none" points="-4,4 -4,-297 5239,-297 5239,4 -4,4"/>
<!-- java.lang.classfile.Instruction -->
<g id="node1" class="node"><title>java.lang.classfile.Instruction</title>
<g id="a_node1"><a xlink:href="../../../java/lang/classfile/Instruction.html" xlink:title="java.lang.classfile.Instruction">
<text text-anchor="middle" x="2949.5" y="-185.4" font-family="DejaVuSans" font-size="12.00" fill="#e76f00">Instruction</text>
</a>
</g>
</g>
<!-- java.lang.classfile.CodeElement -->
<g id="node2" class="node"><title>java.lang.classfile.CodeElement</title>
<g id="a_node2"><a xlink:href="../../../java/lang/classfile/CodeElement.html" xlink:title="java.lang.classfile.CodeElement">
<text text-anchor="middle" x="1252.5" y="-269.4" font-family="DejaVuSans" font-size="12.00" fill="#e76f00">CodeElement</text>
</a>
</g>
</g>
<!-- java.lang.classfile.Instruction&#45;&gt;java.lang.classfile.CodeElement -->
<g id="edge1" class="edge"><title>java.lang.classfile.Instruction&#45;&gt;java.lang.classfile.CodeElement</title>
<path fill="none" stroke="#999999" stroke-width="2" d="M2907.97,-191.507C2680.52,-202.497 1586.04,-255.383 1313.88,-268.534"/>
<polygon fill="#999999" stroke="#999999" stroke-width="2" points="1303.79,-269.022 1313.56,-264.044 1308.76,-268.281 1313.75,-268.04 1313.78,-268.539 1313.8,-269.038 1308.81,-269.28 1313.99,-273.034 1303.79,-269.022 1303.79,-269.022"/>
</g>
<!-- java.lang.classfile.instruction.ArrayLoadInstruction -->
<g id="node3" class="node"><title>java.lang.classfile.instruction.ArrayLoadInstruction</title>
<g id="a_node3"><a xlink:href="../../../java/lang/classfile/instruction/ArrayLoadInstruction.html" xlink:title="java.lang.classfile.instruction.ArrayLoadInstruction">
<text text-anchor="middle" x="1032.5" y="-101.4" font-family="DejaVuSans" font-size="12.00" fill="#e76f00">ArrayLoadInstruction</text>
</a>
</g>
</g>
<!-- java.lang.classfile.instruction.ArrayLoadInstruction&#45;&gt;java.lang.classfile.Instruction -->
<g id="edge2" class="edge"><title>java.lang.classfile.instruction.ArrayLoadInstruction&#45;&gt;java.lang.classfile.Instruction</title>
<path fill="none" stroke="#999999" stroke-width="2" d="M1102.43,-122.211C1108.51,-123.297 1114.6,-124.252 1120.5,-125 1478.02,-170.328 2638.16,-184.4 2897.68,-187.017"/>
<polygon fill="#999999" stroke="#999999" stroke-width="2" points="2907.95,-187.119 2897.91,-191.519 2902.95,-187.569 2897.95,-187.519 2897.95,-187.019 2897.96,-186.519 2902.96,-186.569 2898,-182.52 2907.95,-187.119 2907.95,-187.119"/>
</g>
<!-- java.lang.classfile.instruction.ArrayStoreInstruction -->
<g id="node4" class="node"><title>java.lang.classfile.instruction.ArrayStoreInstruction</title>
<g id="a_node4"><a xlink:href="../../../java/lang/classfile/instruction/ArrayStoreInstruction.html" xlink:title="java.lang.classfile.instruction.ArrayStoreInstruction">
<text text-anchor="middle" x="1208.5" y="-101.4" font-family="DejaVuSans" font-size="12.00" fill="#e76f00">ArrayStoreInstruction</text>
</a>
</g>
</g>
<!-- java.lang.classfile.instruction.ArrayStoreInstruction&#45;&gt;java.lang.classfile.Instruction -->
<g id="edge3" class="edge"><title>java.lang.classfile.instruction.ArrayStoreInstruction&#45;&gt;java.lang.classfile.Instruction</title>
<path fill="none" stroke="#999999" stroke-width="2" d="M1278.91,-122.274C1284.84,-123.329 1290.76,-124.261 1296.5,-125 1617.32,-166.268 2653.44,-183.303 2897.61,-186.798"/>
<polygon fill="#999999" stroke="#999999" stroke-width="2" points="2907.64,-186.94 2897.58,-191.298 2902.63,-187.369 2897.63,-187.298 2897.64,-186.798 2897.65,-186.299 2902.65,-186.369 2897.7,-182.299 2907.64,-186.94 2907.64,-186.94"/>
</g>
<!-- java.lang.classfile.instruction.BranchInstruction -->
<g id="node5" class="node"><title>java.lang.classfile.instruction.BranchInstruction</title>
<g id="a_node5"><a xlink:href="../../../java/lang/classfile/instruction/BranchInstruction.html" xlink:title="java.lang.classfile.instruction.BranchInstruction">
<text text-anchor="middle" x="1375.5" y="-101.4" font-family="DejaVuSans" font-size="12.00" fill="#e76f00">BranchInstruction</text>
</a>
</g>
</g>
<!-- java.lang.classfile.instruction.BranchInstruction&#45;&gt;java.lang.classfile.Instruction -->
<g id="edge4" class="edge"><title>java.lang.classfile.instruction.BranchInstruction&#45;&gt;java.lang.classfile.Instruction</title>
<path fill="none" stroke="#999999" stroke-width="2" d="M1436.51,-121.839C1442.55,-123.072 1448.63,-124.161 1454.5,-125 1742.12,-166.087 2668.52,-183.09 2897.8,-186.728"/>
<polygon fill="#999999" stroke="#999999" stroke-width="2" points="2907.88,-186.886 2897.81,-191.228 2902.87,-187.308 2897.87,-187.229 2897.88,-186.729 2897.89,-186.229 2902.89,-186.308 2897.95,-182.23 2907.88,-186.886 2907.88,-186.886"/>
</g>
<!-- java.lang.classfile.instruction.ConstantInstruction -->
<g id="node6" class="node"><title>java.lang.classfile.instruction.ConstantInstruction</title>
<g id="a_node6"><a xlink:href="../../../java/lang/classfile/instruction/ConstantInstruction.html" xlink:title="java.lang.classfile.instruction.ConstantInstruction">
<text text-anchor="middle" x="1538.5" y="-101.4" font-family="DejaVuSans" font-size="12.00" fill="#e76f00">ConstantInstruction</text>
</a>
</g>
</g>
<!-- java.lang.classfile.instruction.ConstantInstruction&#45;&gt;java.lang.classfile.Instruction -->
<g id="edge5" class="edge"><title>java.lang.classfile.instruction.ConstantInstruction&#45;&gt;java.lang.classfile.Instruction</title>
<path fill="none" stroke="#999999" stroke-width="2" d="M1604.44,-122.144C1610.18,-123.244 1615.93,-124.221 1621.5,-125 1874.67,-160.392 2683.99,-181.33 2897.47,-186.33"/>
<polygon fill="#999999" stroke="#999999" stroke-width="2" points="2907.76,-186.569 2897.66,-190.835 2902.75,-186.953 2897.76,-186.836 2897.77,-186.336 2897.78,-185.837 2902.78,-185.953 2897.87,-181.838 2907.76,-186.569 2907.76,-186.569"/>
</g>
<!-- java.lang.classfile.instruction.ConstantInstruction.IntrinsicConstantInstruction -->
<g id="node7" class="node"><title>java.lang.classfile.instruction.ConstantInstruction.IntrinsicConstantInstruction</title>
<g id="a_node7"><a xlink:href="../../../java/lang/classfile/instruction/ConstantInstruction.IntrinsicConstantInstruction.html" xlink:title="java.lang.classfile.instruction.ConstantInstruction.IntrinsicConstantInstruction">
<text text-anchor="middle" x="1292.5" y="-17.4" font-family="DejaVuSans" font-size="12.00" fill="#e76f00">IntrinsicConstantInstruction</text>
</a>
</g>
</g>
<!-- java.lang.classfile.instruction.ConstantInstruction.IntrinsicConstantInstruction&#45;&gt;java.lang.classfile.instruction.ConstantInstruction -->
<g id="edge6" class="edge"><title>java.lang.classfile.instruction.ConstantInstruction.IntrinsicConstantInstruction&#45;&gt;java.lang.classfile.instruction.ConstantInstruction</title>
<path fill="none" stroke="#999999" stroke-width="2" d="M1351.11,-41.0369C1386.86,-52.9518 1432.7,-68.2345 1470.1,-80.7007"/>
<polygon fill="#999999" stroke="#999999" stroke-width="2" points="1479.91,-83.9709 1469,-85.0776 1475.01,-82.864 1470.27,-81.2829 1470.43,-80.8085 1470.58,-80.3342 1475.33,-81.9153 1471.85,-76.5394 1479.91,-83.9709 1479.91,-83.9709"/>
</g>
<!-- java.lang.classfile.instruction.ConstantInstruction.ArgumentConstantInstruction -->
<g id="node8" class="node"><title>java.lang.classfile.instruction.ConstantInstruction.ArgumentConstantInstruction</title>
<g id="a_node8"><a xlink:href="../../../java/lang/classfile/instruction/ConstantInstruction.ArgumentConstantInstruction.html" xlink:title="java.lang.classfile.instruction.ConstantInstruction.ArgumentConstantInstruction">
<text text-anchor="middle" x="1506.5" y="-17.4" font-family="DejaVuSans" font-size="12.00" fill="#e76f00">ArgumentConstantInstruction</text>
</a>
</g>
</g>
<!-- java.lang.classfile.instruction.ConstantInstruction.ArgumentConstantInstruction&#45;&gt;java.lang.classfile.instruction.ConstantInstruction -->
<g id="edge7" class="edge"><title>java.lang.classfile.instruction.ConstantInstruction.ArgumentConstantInstruction&#45;&gt;java.lang.classfile.instruction.ConstantInstruction</title>
<path fill="none" stroke="#999999" stroke-width="2" d="M1514.25,-41.3499C1518.1,-51.2207 1522.83,-63.3437 1527.09,-74.2538"/>
<polygon fill="#999999" stroke="#999999" stroke-width="2" points="1530.83,-83.8329 1523,-76.1531 1528.54,-79.3568 1526.72,-74.6989 1527.19,-74.5171 1527.66,-74.3353 1529.47,-78.9932 1531.38,-72.8811 1530.83,-83.8329 1530.83,-83.8329"/>
</g>
<!-- java.lang.classfile.instruction.ConstantInstruction.LoadConstantInstruction -->
<g id="node9" class="node"><title>java.lang.classfile.instruction.ConstantInstruction.LoadConstantInstruction</title>
<g id="a_node9"><a xlink:href="../../../java/lang/classfile/instruction/ConstantInstruction.LoadConstantInstruction.html" xlink:title="java.lang.classfile.instruction.ConstantInstruction.LoadConstantInstruction">
<text text-anchor="middle" x="1713.5" y="-17.4" font-family="DejaVuSans" font-size="12.00" fill="#e76f00">LoadConstantInstruction</text>
</a>
</g>
</g>
<!-- java.lang.classfile.instruction.ConstantInstruction.LoadConstantInstruction&#45;&gt;java.lang.classfile.instruction.ConstantInstruction -->
<g id="edge8" class="edge"><title>java.lang.classfile.instruction.ConstantInstruction.LoadConstantInstruction&#45;&gt;java.lang.classfile.instruction.ConstantInstruction</title>
<path fill="none" stroke="#999999" stroke-width="2" d="M1671.58,-41.141C1647,-52.6612 1615.75,-67.3028 1589.71,-79.5032"/>
<polygon fill="#999999" stroke="#999999" stroke-width="2" points="1580.38,-83.8773 1587.52,-75.5594 1584.69,-81.303 1589.22,-79.1815 1589.43,-79.6342 1589.65,-80.087 1585.12,-82.2085 1591.34,-83.7091 1580.38,-83.8773 1580.38,-83.8773"/>
</g>
<!-- java.lang.classfile.instruction.ConvertInstruction -->
<g id="node10" class="node"><title>java.lang.classfile.instruction.ConvertInstruction</title>
<g id="a_node10"><a xlink:href="../../../java/lang/classfile/instruction/ConvertInstruction.html" xlink:title="java.lang.classfile.instruction.ConvertInstruction">
<text text-anchor="middle" x="1702.5" y="-101.4" font-family="DejaVuSans" font-size="12.00" fill="#e76f00">ConvertInstruction</text>
</a>
</g>
</g>
<!-- java.lang.classfile.instruction.ConvertInstruction&#45;&gt;java.lang.classfile.Instruction -->
<g id="edge9" class="edge"><title>java.lang.classfile.instruction.ConvertInstruction&#45;&gt;java.lang.classfile.Instruction</title>
<path fill="none" stroke="#999999" stroke-width="2" d="M1765.07,-121.759C1771.27,-123.009 1777.49,-124.123 1783.5,-125 2210.42,-187.297 2733.38,-189.209 2897.63,-188.082"/>
<polygon fill="#999999" stroke="#999999" stroke-width="2" points="2907.92,-188.004 2897.95,-192.58 2902.92,-188.542 2897.92,-188.58 2897.92,-188.08 2897.92,-187.58 2902.92,-187.542 2897.89,-183.58 2907.92,-188.004 2907.92,-188.004"/>
</g>
<!-- java.lang.classfile.instruction.DiscontinuedInstruction -->
<g id="node11" class="node"><title>java.lang.classfile.instruction.DiscontinuedInstruction</title>
<g id="a_node11"><a xlink:href="../../../java/lang/classfile/instruction/DiscontinuedInstruction.html" xlink:title="java.lang.classfile.instruction.DiscontinuedInstruction">
<text text-anchor="middle" x="1878.5" y="-101.4" font-family="DejaVuSans" font-size="12.00" fill="#e76f00">DiscontinuedInstruction</text>
</a>
</g>
</g>
<!-- java.lang.classfile.instruction.DiscontinuedInstruction&#45;&gt;java.lang.classfile.Instruction -->
<g id="edge10" class="edge"><title>java.lang.classfile.instruction.DiscontinuedInstruction&#45;&gt;java.lang.classfile.Instruction</title>
<path fill="none" stroke="#999999" stroke-width="2" d="M1955.6,-122.256C1961.64,-123.284 1967.66,-124.217 1973.5,-125 2324.78,-172.07 2752.11,-183.933 2897.91,-186.709"/>
<polygon fill="#999999" stroke="#999999" stroke-width="2" points="2907.92,-186.893 2897.83,-191.208 2902.91,-187.301 2897.91,-187.209 2897.92,-186.709 2897.93,-186.209 2902.93,-186.301 2898,-182.21 2907.92,-186.893 2907.92,-186.893"/>
</g>
<!-- java.lang.classfile.instruction.DiscontinuedInstruction.JsrInstruction -->
<g id="node12" class="node"><title>java.lang.classfile.instruction.DiscontinuedInstruction.JsrInstruction</title>
<g id="a_node12"><a xlink:href="../../../java/lang/classfile/instruction/DiscontinuedInstruction.JsrInstruction.html" xlink:title="java.lang.classfile.instruction.DiscontinuedInstruction.JsrInstruction">
<text text-anchor="middle" x="1878.5" y="-17.4" font-family="DejaVuSans" font-size="12.00" fill="#e76f00">JsrInstruction</text>
</a>
</g>
</g>
<!-- java.lang.classfile.instruction.DiscontinuedInstruction.JsrInstruction&#45;&gt;java.lang.classfile.instruction.DiscontinuedInstruction -->
<g id="edge11" class="edge"><title>java.lang.classfile.instruction.DiscontinuedInstruction.JsrInstruction&#45;&gt;java.lang.classfile.instruction.DiscontinuedInstruction</title>
<path fill="none" stroke="#999999" stroke-width="2" d="M1878.5,-41.3499C1878.5,-51.0192 1878.5,-62.8498 1878.5,-73.5843"/>
<polygon fill="#999999" stroke="#999999" stroke-width="2" points="1878.5,-83.8329 1874,-73.8328 1878,-78.8329 1878,-73.8329 1878.5,-73.8329 1879,-73.8329 1879,-78.8329 1883,-73.8329 1878.5,-83.8329 1878.5,-83.8329"/>
</g>
<!-- java.lang.classfile.instruction.DiscontinuedInstruction.RetInstruction -->
<g id="node13" class="node"><title>java.lang.classfile.instruction.DiscontinuedInstruction.RetInstruction</title>
<g id="a_node13"><a xlink:href="../../../java/lang/classfile/instruction/DiscontinuedInstruction.RetInstruction.html" xlink:title="java.lang.classfile.instruction.DiscontinuedInstruction.RetInstruction">
<text text-anchor="middle" x="2015.5" y="-17.4" font-family="DejaVuSans" font-size="12.00" fill="#e76f00">RetInstruction</text>
</a>
</g>
</g>
<!-- java.lang.classfile.instruction.DiscontinuedInstruction.RetInstruction&#45;&gt;java.lang.classfile.instruction.DiscontinuedInstruction -->
<g id="edge12" class="edge"><title>java.lang.classfile.instruction.DiscontinuedInstruction.RetInstruction&#45;&gt;java.lang.classfile.instruction.DiscontinuedInstruction</title>
<path fill="none" stroke="#999999" stroke-width="2" d="M1982.69,-41.141C1963.93,-52.3673 1940.22,-66.5577 1920.16,-78.5647"/>
<polygon fill="#999999" stroke="#999999" stroke-width="2" points="1911.52,-83.735 1917.79,-74.738 1915.56,-80.7381 1919.85,-78.1702 1920.1,-78.5992 1920.36,-79.0283 1916.07,-81.5961 1922.41,-82.4604 1911.52,-83.735 1911.52,-83.735"/>
</g>
<!-- java.lang.classfile.instruction.FieldInstruction -->
<g id="node14" class="node"><title>java.lang.classfile.instruction.FieldInstruction</title>
<g id="a_node14"><a xlink:href="../../../java/lang/classfile/instruction/FieldInstruction.html" xlink:title="java.lang.classfile.instruction.FieldInstruction">
<text text-anchor="middle" x="2046.5" y="-101.4" font-family="DejaVuSans" font-size="12.00" fill="#e76f00">FieldInstruction</text>
</a>
</g>
</g>
<!-- java.lang.classfile.instruction.FieldInstruction&#45;&gt;java.lang.classfile.Instruction -->
<g id="edge13" class="edge"><title>java.lang.classfile.instruction.FieldInstruction&#45;&gt;java.lang.classfile.Instruction</title>
<path fill="none" stroke="#999999" stroke-width="2" d="M2101.67,-121.391C2107.65,-122.769 2113.68,-124.012 2119.5,-125 2410.8,-174.431 2766.24,-184.771 2897.55,-186.931"/>
<polygon fill="#999999" stroke="#999999" stroke-width="2" points="2907.71,-187.089 2897.65,-191.433 2902.71,-187.511 2897.71,-187.433 2897.72,-186.933 2897.72,-186.434 2902.72,-186.511 2897.79,-182.434 2907.71,-187.089 2907.71,-187.089"/>
</g>
<!-- java.lang.classfile.instruction.InvokeDynamicInstruction -->
<g id="node15" class="node"><title>java.lang.classfile.instruction.InvokeDynamicInstruction</title>
<g id="a_node15"><a xlink:href="../../../java/lang/classfile/instruction/InvokeDynamicInstruction.html" xlink:title="java.lang.classfile.instruction.InvokeDynamicInstruction">
<text text-anchor="middle" x="2220.5" y="-101.4" font-family="DejaVuSans" font-size="12.00" fill="#e76f00">InvokeDynamicInstruction</text>
</a>
</g>
</g>
<!-- java.lang.classfile.instruction.InvokeDynamicInstruction&#45;&gt;java.lang.classfile.Instruction -->
<g id="edge14" class="edge"><title>java.lang.classfile.instruction.InvokeDynamicInstruction&#45;&gt;java.lang.classfile.Instruction</title>
<path fill="none" stroke="#999999" stroke-width="2" d="M2303.62,-122.174C2309.66,-123.193 2315.67,-124.149 2321.5,-125 2534.23,-156.055 2789.79,-176.222 2897.55,-183.947"/>
<polygon fill="#999999" stroke="#999999" stroke-width="2" points="2907.82,-184.678 2897.53,-188.457 2902.8,-184.822 2897.81,-184.467 2897.85,-183.968 2897.88,-183.469 2902.87,-183.824 2898.17,-179.479 2907.82,-184.678 2907.82,-184.678"/>
</g>
<!-- java.lang.classfile.instruction.InvokeInstruction -->
<g id="node16" class="node"><title>java.lang.classfile.instruction.InvokeInstruction</title>
<g id="a_node16"><a xlink:href="../../../java/lang/classfile/instruction/InvokeInstruction.html" xlink:title="java.lang.classfile.instruction.InvokeInstruction">
<text text-anchor="middle" x="2399.5" y="-101.4" font-family="DejaVuSans" font-size="12.00" fill="#e76f00">InvokeInstruction</text>
</a>
</g>
</g>
<!-- java.lang.classfile.instruction.InvokeInstruction&#45;&gt;java.lang.classfile.Instruction -->
<g id="edge15" class="edge"><title>java.lang.classfile.instruction.InvokeInstruction&#45;&gt;java.lang.classfile.Instruction</title>
<path fill="none" stroke="#999999" stroke-width="2" d="M2459.39,-121.201C2465.49,-122.58 2471.6,-123.876 2477.5,-125 2629.07,-153.884 2810.55,-173.875 2897.74,-182.586"/>
<polygon fill="#999999" stroke="#999999" stroke-width="2" points="2907.89,-183.592 2897.5,-187.084 2902.87,-183.596 2897.89,-183.103 2897.94,-182.606 2897.99,-182.108 2902.97,-182.601 2898.39,-178.128 2907.89,-183.592 2907.89,-183.592"/>
</g>
<!-- java.lang.classfile.instruction.LoadInstruction -->
<g id="node17" class="node"><title>java.lang.classfile.instruction.LoadInstruction</title>
<g id="a_node17"><a xlink:href="../../../java/lang/classfile/instruction/LoadInstruction.html" xlink:title="java.lang.classfile.instruction.LoadInstruction">
<text text-anchor="middle" x="2550.5" y="-101.4" font-family="DejaVuSans" font-size="12.00" fill="#e76f00">LoadInstruction</text>
</a>
</g>
</g>
<!-- java.lang.classfile.instruction.LoadInstruction&#45;&gt;java.lang.classfile.Instruction -->
<g id="edge16" class="edge"><title>java.lang.classfile.instruction.LoadInstruction&#45;&gt;java.lang.classfile.Instruction</title>
<path fill="none" stroke="#999999" stroke-width="2" d="M2605.8,-120.718C2611.76,-122.224 2617.75,-123.682 2623.5,-125 2719.88,-147.081 2833.5,-167.638 2897.96,-178.795"/>
<polygon fill="#999999" stroke="#999999" stroke-width="2" points="2907.87,-180.504 2897.26,-183.24 2902.86,-180.147 2897.94,-179.298 2898.02,-178.805 2898.11,-178.312 2903.03,-179.162 2898.78,-174.37 2907.87,-180.504 2907.87,-180.504"/>
</g>
<!-- java.lang.classfile.instruction.StoreInstruction -->
<g id="node18" class="node"><title>java.lang.classfile.instruction.StoreInstruction</title>
<g id="a_node18"><a xlink:href="../../../java/lang/classfile/instruction/StoreInstruction.html" xlink:title="java.lang.classfile.instruction.StoreInstruction">
<text text-anchor="middle" x="2697.5" y="-101.4" font-family="DejaVuSans" font-size="12.00" fill="#e76f00">StoreInstruction</text>
</a>
</g>
</g>
<!-- java.lang.classfile.instruction.StoreInstruction&#45;&gt;java.lang.classfile.Instruction -->
<g id="edge17" class="edge"><title>java.lang.classfile.instruction.StoreInstruction&#45;&gt;java.lang.classfile.Instruction</title>
<path fill="none" stroke="#999999" stroke-width="2" d="M2753.74,-123.8C2796.98,-137.871 2856.23,-157.151 2898.19,-170.804"/>
<polygon fill="#999999" stroke="#999999" stroke-width="2" points="2907.93,-173.973 2897.03,-175.158 2903.02,-172.902 2898.27,-171.354 2898.42,-170.879 2898.58,-170.404 2903.33,-171.951 2899.81,-166.6 2907.93,-173.973 2907.93,-173.973"/>
</g>
<!-- java.lang.classfile.instruction.IncrementInstruction -->
<g id="node19" class="node"><title>java.lang.classfile.instruction.IncrementInstruction</title>
<g id="a_node19"><a xlink:href="../../../java/lang/classfile/instruction/IncrementInstruction.html" xlink:title="java.lang.classfile.instruction.IncrementInstruction">
<text text-anchor="middle" x="2857.5" y="-101.4" font-family="DejaVuSans" font-size="12.00" fill="#e76f00">IncrementInstruction</text>
</a>
</g>
</g>
<!-- java.lang.classfile.instruction.IncrementInstruction&#45;&gt;java.lang.classfile.Instruction -->
<g id="edge18" class="edge"><title>java.lang.classfile.instruction.IncrementInstruction&#45;&gt;java.lang.classfile.Instruction</title>
<path fill="none" stroke="#999999" stroke-width="2" d="M2879.77,-125.35C2891.75,-136.026 2906.68,-149.338 2919.66,-160.9"/>
<polygon fill="#999999" stroke="#999999" stroke-width="2" points="2927.43,-167.833 2916.98,-164.538 2923.37,-164.879 2919.64,-161.552 2919.97,-161.179 2920.3,-160.806 2924.03,-164.133 2922.96,-157.82 2927.43,-167.833 2927.43,-167.833"/>
</g>
<!-- java.lang.classfile.instruction.LookupSwitchInstruction -->
<g id="node20" class="node"><title>java.lang.classfile.instruction.LookupSwitchInstruction</title>
<g id="a_node20"><a xlink:href="../../../java/lang/classfile/instruction/LookupSwitchInstruction.html" xlink:title="java.lang.classfile.instruction.LookupSwitchInstruction">
<text text-anchor="middle" x="3041.5" y="-101.4" font-family="DejaVuSans" font-size="12.00" fill="#e76f00">LookupSwitchInstruction</text>
</a>
</g>
</g>
<!-- java.lang.classfile.instruction.LookupSwitchInstruction&#45;&gt;java.lang.classfile.Instruction -->
<g id="edge19" class="edge"><title>java.lang.classfile.instruction.LookupSwitchInstruction&#45;&gt;java.lang.classfile.Instruction</title>
<path fill="none" stroke="#999999" stroke-width="2" d="M3019.23,-125.35C3007.25,-136.026 2992.32,-149.338 2979.34,-160.9"/>
<polygon fill="#999999" stroke="#999999" stroke-width="2" points="2971.57,-167.833 2976.04,-157.82 2974.97,-164.133 2978.7,-160.806 2979.03,-161.179 2979.36,-161.552 2975.63,-164.879 2982.02,-164.538 2971.57,-167.833 2971.57,-167.833"/>
</g>
<!-- java.lang.classfile.instruction.MonitorInstruction -->
<g id="node21" class="node"><title>java.lang.classfile.instruction.MonitorInstruction</title>
<g id="a_node21"><a xlink:href="../../../java/lang/classfile/instruction/MonitorInstruction.html" xlink:title="java.lang.classfile.instruction.MonitorInstruction">
<text text-anchor="middle" x="3218.5" y="-101.4" font-family="DejaVuSans" font-size="12.00" fill="#e76f00">MonitorInstruction</text>
</a>
</g>
</g>
<!-- java.lang.classfile.instruction.MonitorInstruction&#45;&gt;java.lang.classfile.Instruction -->
<g id="edge20" class="edge"><title>java.lang.classfile.instruction.MonitorInstruction&#45;&gt;java.lang.classfile.Instruction</title>
<path fill="none" stroke="#999999" stroke-width="2" d="M3156.79,-124.312C3109.63,-138.687 3045.39,-158.269 3000.98,-171.806"/>
<polygon fill="#999999" stroke="#999999" stroke-width="2" points="2991.26,-174.769 2999.52,-167.548 2995.9,-172.832 3000.68,-171.374 3000.83,-171.853 3000.98,-172.331 2996.19,-173.789 3002.14,-176.157 2991.26,-174.769 2991.26,-174.769"/>
</g>
<!-- java.lang.classfile.instruction.NewMultiArrayInstruction -->
<g id="node22" class="node"><title>java.lang.classfile.instruction.NewMultiArrayInstruction</title>
<g id="a_node22"><a xlink:href="../../../java/lang/classfile/instruction/NewMultiArrayInstruction.html" xlink:title="java.lang.classfile.instruction.NewMultiArrayInstruction">
<text text-anchor="middle" x="3397.5" y="-101.4" font-family="DejaVuSans" font-size="12.00" fill="#e76f00">NewMultiArrayInstruction</text>
</a>
</g>
</g>
<!-- java.lang.classfile.instruction.NewMultiArrayInstruction&#45;&gt;java.lang.classfile.Instruction -->
<g id="edge21" class="edge"><title>java.lang.classfile.instruction.NewMultiArrayInstruction&#45;&gt;java.lang.classfile.Instruction</title>
<path fill="none" stroke="#999999" stroke-width="2" d="M3316.48,-121.577C3310.4,-122.747 3304.35,-123.899 3298.5,-125 3193.06,-144.825 3069.41,-166.627 3001.23,-178.524"/>
<polygon fill="#999999" stroke="#999999" stroke-width="2" points="2991.18,-180.276 3000.26,-174.126 2996.02,-178.925 3000.94,-178.066 3001.03,-178.559 3001.11,-179.051 2996.19,-179.91 3001.8,-182.992 2991.18,-180.276 2991.18,-180.276"/>
</g>
<!-- java.lang.classfile.instruction.NewObjectInstruction -->
<g id="node23" class="node"><title>java.lang.classfile.instruction.NewObjectInstruction</title>
<g id="a_node23"><a xlink:href="../../../java/lang/classfile/instruction/NewObjectInstruction.html" xlink:title="java.lang.classfile.instruction.NewObjectInstruction">
<text text-anchor="middle" x="3586.5" y="-101.4" font-family="DejaVuSans" font-size="12.00" fill="#e76f00">NewObjectInstruction</text>
</a>
</g>
</g>
<!-- java.lang.classfile.instruction.NewObjectInstruction&#45;&gt;java.lang.classfile.Instruction -->
<g id="edge22" class="edge"><title>java.lang.classfile.instruction.NewObjectInstruction&#45;&gt;java.lang.classfile.Instruction</title>
<path fill="none" stroke="#999999" stroke-width="2" d="M3514.9,-121.686C3508.69,-122.885 3502.49,-124.011 3496.5,-125 3315.65,-154.847 3098.81,-175.048 3001.38,-183.307"/>
<polygon fill="#999999" stroke="#999999" stroke-width="2" points="2991.21,-184.162 3000.8,-178.84 2996.15,-183.245 3001.13,-182.826 3001.18,-183.324 3001.22,-183.822 2996.24,-184.241 3001.55,-187.808 2991.21,-184.162 2991.21,-184.162"/>
</g>
<!-- java.lang.classfile.instruction.NewPrimitiveArrayInstruction -->
<g id="node24" class="node"><title>java.lang.classfile.instruction.NewPrimitiveArrayInstruction</title>
<g id="a_node24"><a xlink:href="../../../java/lang/classfile/instruction/NewPrimitiveArrayInstruction.html" xlink:title="java.lang.classfile.instruction.NewPrimitiveArrayInstruction">
<text text-anchor="middle" x="3785.5" y="-101.4" font-family="DejaVuSans" font-size="12.00" fill="#e76f00">NewPrimitiveArrayInstruction</text>
</a>
</g>
</g>
<!-- java.lang.classfile.instruction.NewPrimitiveArrayInstruction&#45;&gt;java.lang.classfile.Instruction -->
<g id="edge23" class="edge"><title>java.lang.classfile.instruction.NewPrimitiveArrayInstruction&#45;&gt;java.lang.classfile.Instruction</title>
<path fill="none" stroke="#999999" stroke-width="2" d="M3693.71,-122.538C3687.9,-123.426 3682.12,-124.257 3676.5,-125 3424.45,-158.309 3120.79,-177.804 3001.34,-184.673"/>
<polygon fill="#999999" stroke="#999999" stroke-width="2" points="2991.04,-185.261 3000.77,-180.199 2996,-184.477 3000.99,-184.192 3001.02,-184.691 3001.05,-185.19 2996.06,-185.475 3001.28,-189.184 2991.04,-185.261 2991.04,-185.261"/>
</g>
<!-- java.lang.classfile.instruction.NewReferenceArrayInstruction -->
<g id="node25" class="node"><title>java.lang.classfile.instruction.NewReferenceArrayInstruction</title>
<g id="a_node25"><a xlink:href="../../../java/lang/classfile/instruction/NewReferenceArrayInstruction.html" xlink:title="java.lang.classfile.instruction.NewReferenceArrayInstruction">
<text text-anchor="middle" x="4009.5" y="-101.4" font-family="DejaVuSans" font-size="12.00" fill="#e76f00">NewReferenceArrayInstruction</text>
</a>
</g>
</g>
<!-- java.lang.classfile.instruction.NewReferenceArrayInstruction&#45;&gt;java.lang.classfile.Instruction -->
<g id="edge24" class="edge"><title>java.lang.classfile.instruction.NewReferenceArrayInstruction&#45;&gt;java.lang.classfile.Instruction</title>
<path fill="none" stroke="#999999" stroke-width="2" d="M3913.2,-122.693C3907.22,-123.537 3901.28,-124.316 3895.5,-125 3555.84,-165.161 3144.29,-181.304 3001.36,-185.959"/>
<polygon fill="#999999" stroke="#999999" stroke-width="2" points="2991.14,-186.287 3000.99,-181.468 2996.12,-185.626 3001.11,-185.466 3001.13,-185.966 3001.15,-186.465 2996.15,-186.626 3001.27,-190.463 2991.14,-186.287 2991.14,-186.287"/>
</g>
<!-- java.lang.classfile.instruction.NopInstruction -->
<g id="node26" class="node"><title>java.lang.classfile.instruction.NopInstruction</title>
<g id="a_node26"><a xlink:href="../../../java/lang/classfile/instruction/NopInstruction.html" xlink:title="java.lang.classfile.instruction.NopInstruction">
<text text-anchor="middle" x="4194.5" y="-101.4" font-family="DejaVuSans" font-size="12.00" fill="#e76f00">NopInstruction</text>
</a>
</g>
</g>
<!-- java.lang.classfile.instruction.NopInstruction&#45;&gt;java.lang.classfile.Instruction -->
<g id="edge25" class="edge"><title>java.lang.classfile.instruction.NopInstruction&#45;&gt;java.lang.classfile.Instruction</title>
<path fill="none" stroke="#999999" stroke-width="2" d="M4141.27,-121.439C4135.32,-122.828 4129.3,-124.06 4123.5,-125 3902.55,-160.796 3198.47,-181.131 3001.28,-186.223"/>
<polygon fill="#999999" stroke="#999999" stroke-width="2" points="2991.18,-186.482 3001.06,-181.727 2996.17,-185.854 3001.17,-185.726 3001.18,-186.226 3001.19,-186.726 2996.19,-186.854 3001.29,-190.724 2991.18,-186.482 2991.18,-186.482"/>
</g>
<!-- java.lang.classfile.instruction.OperatorInstruction -->
<g id="node27" class="node"><title>java.lang.classfile.instruction.OperatorInstruction</title>
<g id="a_node27"><a xlink:href="../../../java/lang/classfile/instruction/OperatorInstruction.html" xlink:title="java.lang.classfile.instruction.OperatorInstruction">
<text text-anchor="middle" x="4348.5" y="-101.4" font-family="DejaVuSans" font-size="12.00" fill="#e76f00">OperatorInstruction</text>
</a>
</g>
</g>
<!-- java.lang.classfile.instruction.OperatorInstruction&#45;&gt;java.lang.classfile.Instruction -->
<g id="edge26" class="edge"><title>java.lang.classfile.instruction.OperatorInstruction&#45;&gt;java.lang.classfile.Instruction</title>
<path fill="none" stroke="#999999" stroke-width="2" d="M4283.47,-121.967C4277.42,-123.139 4271.36,-124.179 4265.5,-125 4014.76,-160.107 3213.5,-181.235 3001.41,-186.307"/>
<polygon fill="#999999" stroke="#999999" stroke-width="2" points="2991.18,-186.55 3001.07,-181.813 2996.17,-185.931 3001.17,-185.812 3001.18,-186.312 3001.19,-186.812 2996.19,-186.931 3001.29,-190.811 2991.18,-186.55 2991.18,-186.55"/>
</g>
<!-- java.lang.classfile.instruction.ReturnInstruction -->
<g id="node28" class="node"><title>java.lang.classfile.instruction.ReturnInstruction</title>
<g id="a_node28"><a xlink:href="../../../java/lang/classfile/instruction/ReturnInstruction.html" xlink:title="java.lang.classfile.instruction.ReturnInstruction">
<text text-anchor="middle" x="4509.5" y="-101.4" font-family="DejaVuSans" font-size="12.00" fill="#e76f00">ReturnInstruction</text>
</a>
</g>
</g>
<!-- java.lang.classfile.instruction.ReturnInstruction&#45;&gt;java.lang.classfile.Instruction -->
<g id="edge27" class="edge"><title>java.lang.classfile.instruction.ReturnInstruction&#45;&gt;java.lang.classfile.Instruction</title>
<path fill="none" stroke="#999999" stroke-width="2" d="M4449.7,-121.751C4443.59,-123.021 4437.44,-124.141 4431.5,-125 4146.6,-166.184 3229.06,-183.102 3001.12,-186.728"/>
<polygon fill="#999999" stroke="#999999" stroke-width="2" points="2991.11,-186.885 3001.04,-182.228 2996.1,-186.307 3001.1,-186.228 3001.11,-186.728 3001.12,-187.228 2996.12,-187.307 3001.18,-191.227 2991.11,-186.885 2991.11,-186.885"/>
</g>
<!-- java.lang.classfile.instruction.StackInstruction -->
<g id="node29" class="node"><title>java.lang.classfile.instruction.StackInstruction</title>
<g id="a_node29"><a xlink:href="../../../java/lang/classfile/instruction/StackInstruction.html" xlink:title="java.lang.classfile.instruction.StackInstruction">
<text text-anchor="middle" x="4661.5" y="-101.4" font-family="DejaVuSans" font-size="12.00" fill="#e76f00">StackInstruction</text>
</a>
</g>
</g>
<!-- java.lang.classfile.instruction.StackInstruction&#45;&gt;java.lang.classfile.Instruction -->
<g id="edge28" class="edge"><title>java.lang.classfile.instruction.StackInstruction&#45;&gt;java.lang.classfile.Instruction</title>
<path fill="none" stroke="#999999" stroke-width="2" d="M4604.8,-121.786C4598.99,-123.049 4593.15,-124.158 4587.5,-125 4270.63,-172.21 3244.1,-184.723 3001.31,-187.053"/>
<polygon fill="#999999" stroke="#999999" stroke-width="2" points="2991.01,-187.15 3000.97,-182.556 2996.01,-186.603 3001.01,-186.555 3001.01,-187.055 3001.02,-187.555 2996.02,-187.603 3001.05,-191.555 2991.01,-187.15 2991.01,-187.15"/>
</g>
<!-- java.lang.classfile.instruction.TableSwitchInstruction -->
<g id="node30" class="node"><title>java.lang.classfile.instruction.TableSwitchInstruction</title>
<g id="a_node30"><a xlink:href="../../../java/lang/classfile/instruction/TableSwitchInstruction.html" xlink:title="java.lang.classfile.instruction.TableSwitchInstruction">
<text text-anchor="middle" x="4828.5" y="-101.4" font-family="DejaVuSans" font-size="12.00" fill="#e76f00">TableSwitchInstruction</text>
</a>
</g>
</g>
<!-- java.lang.classfile.instruction.TableSwitchInstruction&#45;&gt;java.lang.classfile.Instruction -->
<g id="edge29" class="edge"><title>java.lang.classfile.instruction.TableSwitchInstruction&#45;&gt;java.lang.classfile.Instruction</title>
<path fill="none" stroke="#999999" stroke-width="2" d="M4753.87,-122.452C4748.01,-123.436 4742.17,-124.305 4736.5,-125 4387.57,-167.752 3257.34,-183.777 3001.37,-186.904"/>
<polygon fill="#999999" stroke="#999999" stroke-width="2" points="2991.23,-187.027 3001.18,-182.406 2996.22,-186.466 3001.22,-186.406 3001.23,-186.906 3001.24,-187.406 2996.24,-187.466 3001.28,-191.405 2991.23,-187.027 2991.23,-187.027"/>
</g>
<!-- java.lang.classfile.instruction.ThrowInstruction -->
<g id="node31" class="node"><title>java.lang.classfile.instruction.ThrowInstruction</title>
<g id="a_node31"><a xlink:href="../../../java/lang/classfile/instruction/ThrowInstruction.html" xlink:title="java.lang.classfile.instruction.ThrowInstruction">
<text text-anchor="middle" x="4997.5" y="-101.4" font-family="DejaVuSans" font-size="12.00" fill="#e76f00">ThrowInstruction</text>
</a>
</g>
</g>
<!-- java.lang.classfile.instruction.ThrowInstruction&#45;&gt;java.lang.classfile.Instruction -->
<g id="edge30" class="edge"><title>java.lang.classfile.instruction.ThrowInstruction&#45;&gt;java.lang.classfile.Instruction</title>
<path fill="none" stroke="#999999" stroke-width="2" d="M4938.84,-121.907C4933.02,-123.127 4927.16,-124.194 4921.5,-125 4534.99,-180.029 3273.22,-186.613 3001.4,-187.395"/>
<polygon fill="#999999" stroke="#999999" stroke-width="2" points="2991.04,-187.424 3001.03,-182.896 2996.04,-186.91 3001.04,-186.896 3001.04,-187.396 3001.04,-187.896 2996.04,-187.91 3001.05,-191.896 2991.04,-187.424 2991.04,-187.424"/>
</g>
<!-- java.lang.classfile.instruction.TypeCheckInstruction -->
<g id="node32" class="node"><title>java.lang.classfile.instruction.TypeCheckInstruction</title>
<g id="a_node32"><a xlink:href="../../../java/lang/classfile/instruction/TypeCheckInstruction.html" xlink:title="java.lang.classfile.instruction.TypeCheckInstruction">
<text text-anchor="middle" x="5163.5" y="-101.4" font-family="DejaVuSans" font-size="12.00" fill="#e76f00">TypeCheckInstruction</text>
</a>
</g>
</g>
<!-- java.lang.classfile.instruction.TypeCheckInstruction&#45;&gt;java.lang.classfile.Instruction -->
<g id="edge31" class="edge"><title>java.lang.classfile.instruction.TypeCheckInstruction&#45;&gt;java.lang.classfile.Instruction</title>
<path fill="none" stroke="#999999" stroke-width="2" d="M5091.81,-122.409C5085.97,-123.418 5080.15,-124.304 5074.5,-125 4654.99,-176.669 3285.1,-185.912 3001.26,-187.286"/>
<polygon fill="#999999" stroke="#999999" stroke-width="2" points="2991.24,-187.333 3001.22,-182.786 2996.24,-186.809 3001.24,-186.786 3001.24,-187.286 3001.25,-187.786 2996.25,-187.809 3001.26,-191.786 2991.24,-187.333 2991.24,-187.333"/>
</g>
<!-- java.lang.classfile.PseudoInstruction -->
<g id="node33" class="node"><title>java.lang.classfile.PseudoInstruction</title>
<g id="a_node33"><a xlink:href="../../../java/lang/classfile/PseudoInstruction.html" xlink:title="java.lang.classfile.PseudoInstruction">
<text text-anchor="middle" x="478.5" y="-185.4" font-family="DejaVuSans" font-size="12.00" fill="#e76f00">PseudoInstruction</text>
</a>
</g>
</g>
<!-- java.lang.classfile.PseudoInstruction&#45;&gt;java.lang.classfile.CodeElement -->
<g id="edge32" class="edge"><title>java.lang.classfile.PseudoInstruction&#45;&gt;java.lang.classfile.CodeElement</title>
<path fill="none" stroke="#999999" stroke-width="2" d="M541.184,-196.141C686.861,-211.574 1046.8,-249.707 1191.15,-265.001"/>
<polygon fill="#999999" stroke="#999999" stroke-width="2" points="1201.17,-266.062 1190.75,-269.483 1196.14,-266.032 1191.17,-265.505 1191.22,-265.008 1191.28,-264.511 1196.25,-265.038 1191.7,-260.533 1201.17,-266.062 1201.17,-266.062"/>
</g>
<!-- java.lang.classfile.instruction.CharacterRange -->
<g id="node34" class="node"><title>java.lang.classfile.instruction.CharacterRange</title>
<g id="a_node34"><a xlink:href="../../../java/lang/classfile/instruction/CharacterRange.html" xlink:title="java.lang.classfile.instruction.CharacterRange">
<text text-anchor="middle" x="58.5" y="-101.4" font-family="DejaVuSans" font-size="12.00" fill="#e76f00">CharacterRange</text>
</a>
</g>
</g>
<!-- java.lang.classfile.instruction.CharacterRange&#45;&gt;java.lang.classfile.PseudoInstruction -->
<g id="edge33" class="edge"><title>java.lang.classfile.instruction.CharacterRange&#45;&gt;java.lang.classfile.PseudoInstruction</title>
<path fill="none" stroke="#999999" stroke-width="2" d="M117.318,-121.034C123.11,-122.43 128.911,-123.777 134.5,-125 227.612,-145.377 335.925,-164.271 405.757,-175.835"/>
<polygon fill="#999999" stroke="#999999" stroke-width="2" points="415.775,-177.487 405.176,-180.3 410.76,-177.167 405.827,-176.353 405.908,-175.86 405.99,-175.366 410.923,-176.18 406.64,-171.42 415.775,-177.487 415.775,-177.487"/>
</g>
<!-- java.lang.classfile.instruction.ExceptionCatch -->
<g id="node35" class="node"><title>java.lang.classfile.instruction.ExceptionCatch</title>
<g id="a_node35"><a xlink:href="../../../java/lang/classfile/instruction/ExceptionCatch.html" xlink:title="java.lang.classfile.instruction.ExceptionCatch">
<text text-anchor="middle" x="209.5" y="-101.4" font-family="DejaVuSans" font-size="12.00" fill="#e76f00">ExceptionCatch</text>
</a>
</g>
</g>
<!-- java.lang.classfile.instruction.ExceptionCatch&#45;&gt;java.lang.classfile.PseudoInstruction -->
<g id="edge34" class="edge"><title>java.lang.classfile.instruction.ExceptionCatch&#45;&gt;java.lang.classfile.PseudoInstruction</title>
<path fill="none" stroke="#999999" stroke-width="2" d="M266.219,-122.79C306.918,-135.196 362.093,-152.015 405.992,-165.397"/>
<polygon fill="#999999" stroke="#999999" stroke-width="2" points="415.747,-168.371 404.869,-169.759 410.819,-167.391 406.036,-165.933 406.182,-165.455 406.327,-164.977 411.11,-166.435 407.494,-161.15 415.747,-168.371 415.747,-168.371"/>
</g>
<!-- java.lang.classfile.instruction.LabelTarget -->
<g id="node36" class="node"><title>java.lang.classfile.instruction.LabelTarget</title>
<g id="a_node36"><a xlink:href="../../../java/lang/classfile/instruction/LabelTarget.html" xlink:title="java.lang.classfile.instruction.LabelTarget">
<text text-anchor="middle" x="348.5" y="-101.4" font-family="DejaVuSans" font-size="12.00" fill="#e76f00">LabelTarget</text>
</a>
</g>
</g>
<!-- java.lang.classfile.instruction.LabelTarget&#45;&gt;java.lang.classfile.PseudoInstruction -->
<g id="edge35" class="edge"><title>java.lang.classfile.instruction.LabelTarget&#45;&gt;java.lang.classfile.PseudoInstruction</title>
<path fill="none" stroke="#999999" stroke-width="2" d="M379.638,-125.141C397.276,-136.267 419.53,-150.303 438.455,-162.241"/>
<polygon fill="#999999" stroke="#999999" stroke-width="2" points="447.165,-167.735 436.306,-166.206 442.67,-165.49 438.441,-162.823 438.707,-162.4 438.974,-161.977 443.203,-164.645 441.108,-158.594 447.165,-167.735 447.165,-167.735"/>
</g>
<!-- java.lang.classfile.instruction.LineNumber -->
<g id="node37" class="node"><title>java.lang.classfile.instruction.LineNumber</title>
<g id="a_node37"><a xlink:href="../../../java/lang/classfile/instruction/LineNumber.html" xlink:title="java.lang.classfile.instruction.LineNumber">
<text text-anchor="middle" x="478.5" y="-101.4" font-family="DejaVuSans" font-size="12.00" fill="#e76f00">LineNumber</text>
</a>
</g>
</g>
<!-- java.lang.classfile.instruction.LineNumber&#45;&gt;java.lang.classfile.PseudoInstruction -->
<g id="edge36" class="edge"><title>java.lang.classfile.instruction.LineNumber&#45;&gt;java.lang.classfile.PseudoInstruction</title>
<path fill="none" stroke="#999999" stroke-width="2" d="M478.5,-125.35C478.5,-135.019 478.5,-146.85 478.5,-157.584"/>
<polygon fill="#999999" stroke="#999999" stroke-width="2" points="478.5,-167.833 474,-157.833 478,-162.833 478,-157.833 478.5,-157.833 479,-157.833 479,-162.833 483,-157.833 478.5,-167.833 478.5,-167.833"/>
</g>
<!-- java.lang.classfile.instruction.LocalVariable -->
<g id="node38" class="node"><title>java.lang.classfile.instruction.LocalVariable</title>
<g id="a_node38"><a xlink:href="../../../java/lang/classfile/instruction/LocalVariable.html" xlink:title="java.lang.classfile.instruction.LocalVariable">
<text text-anchor="middle" x="613.5" y="-101.4" font-family="DejaVuSans" font-size="12.00" fill="#e76f00">LocalVariable</text>
</a>
</g>
</g>
<!-- java.lang.classfile.instruction.LocalVariable&#45;&gt;java.lang.classfile.PseudoInstruction -->
<g id="edge37" class="edge"><title>java.lang.classfile.instruction.LocalVariable&#45;&gt;java.lang.classfile.PseudoInstruction</title>
<path fill="none" stroke="#999999" stroke-width="2" d="M581.164,-125.141C562.765,-136.317 539.529,-150.431 519.818,-162.403"/>
<polygon fill="#999999" stroke="#999999" stroke-width="2" points="511.04,-167.735 517.251,-158.697 515.054,-164.712 519.327,-162.116 519.587,-162.544 519.846,-162.971 515.573,-165.567 521.923,-166.39 511.04,-167.735 511.04,-167.735"/>
</g>
<!-- java.lang.classfile.instruction.LocalVariableType -->
<g id="node39" class="node"><title>java.lang.classfile.instruction.LocalVariableType</title>
<g id="a_node39"><a xlink:href="../../../java/lang/classfile/instruction/LocalVariableType.html" xlink:title="java.lang.classfile.instruction.LocalVariableType">
<text text-anchor="middle" x="764.5" y="-101.4" font-family="DejaVuSans" font-size="12.00" fill="#e76f00">LocalVariableType</text>
</a>
</g>
</g>
<!-- java.lang.classfile.instruction.LocalVariableType&#45;&gt;java.lang.classfile.PseudoInstruction -->
<g id="edge38" class="edge"><title>java.lang.classfile.instruction.LocalVariableType&#45;&gt;java.lang.classfile.PseudoInstruction</title>
<path fill="none" stroke="#999999" stroke-width="2" d="M700.316,-123.902C656.127,-136.572 597.336,-153.428 551.382,-166.604"/>
<polygon fill="#999999" stroke="#999999" stroke-width="2" points="541.485,-169.441 549.858,-162.359 546.154,-167.583 550.96,-166.205 551.098,-166.685 551.236,-167.166 546.429,-168.544 552.338,-171.011 541.485,-169.441 541.485,-169.441"/>
</g>
<!-- java.lang.classfile.CustomAttribute -->
<g id="node40" class="node"><title>java.lang.classfile.CustomAttribute</title>
<g id="a_node40"><a xlink:href="../../../java/lang/classfile/CustomAttribute.html" xlink:title="java.lang.classfile.CustomAttribute">
<text text-anchor="middle" x="895.5" y="-185.4" font-family="DejaVuSans" font-size="12.00" fill="#e76f00">CustomAttribute</text>
</a>
</g>
</g>
<!-- java.lang.classfile.CustomAttribute&#45;&gt;java.lang.classfile.CodeElement -->
<g id="edge39" class="edge"><title>java.lang.classfile.CustomAttribute&#45;&gt;java.lang.classfile.CodeElement</title>
<path fill="none" stroke="#999999" stroke-width="2" d="M952.774,-204.619C958.752,-206.129 964.745,-207.615 970.5,-209 1046.39,-227.268 1134.25,-246.427 1191.46,-258.64"/>
<polygon fill="#999999" stroke="#999999" stroke-width="2" points="1201.43,-260.763 1190.71,-263.081 1196.43,-260.21 1191.54,-259.169 1191.65,-258.68 1191.75,-258.191 1196.64,-259.232 1192.59,-254.278 1201.43,-260.763 1201.43,-260.763"/>
</g>
<!-- open node #0 -->
<g id="node41" class="node"><title>open node #0</title>
<g id="a_node41"><a xlink:title="Non&#45;sealed Hierarchy">
<text text-anchor="start" x="878.5" y="-102.4" font-family="DejaVuSans" font-style="italic" font-size="12.00" fill="#e76f00">&lt;any&gt;</text>
</a>
</g>
</g>
<!-- open node #0&#45;&gt;java.lang.classfile.CustomAttribute -->
<g id="edge40" class="edge"><title>open node #0&#45;&gt;java.lang.classfile.CustomAttribute</title>
<path fill="none" stroke="#999999" stroke-width="2" stroke-dasharray="5,2" d="M895.5,-125.35C895.5,-135.019 895.5,-146.85 895.5,-157.584"/>
<polygon fill="#999999" stroke="#999999" stroke-width="2" points="895.5,-167.833 891,-157.833 895,-162.833 895,-157.833 895.5,-157.833 896,-157.833 896,-162.833 900,-157.833 895.5,-167.833 895.5,-167.833"/>
</g>
<!-- java.lang.classfile.attribute.RuntimeVisibleTypeAnnotationsAttribute -->
<g id="node42" class="node"><title>java.lang.classfile.attribute.RuntimeVisibleTypeAnnotationsAttribute</title>
<g id="a_node42"><a xlink:href="../../../java/lang/classfile/attribute/RuntimeVisibleTypeAnnotationsAttribute.html" xlink:title="java.lang.classfile.attribute.RuntimeVisibleTypeAnnotationsAttribute">
<text text-anchor="middle" x="1110.5" y="-185.4" font-family="DejaVuSans" font-size="12.00" fill="#e76f00">RuntimeVisibleTypeAnnotationsAttribute</text>
</a>
</g>
</g>
<!-- java.lang.classfile.attribute.RuntimeVisibleTypeAnnotationsAttribute&#45;&gt;java.lang.classfile.CodeElement -->
<g id="edge41" class="edge"><title>java.lang.classfile.attribute.RuntimeVisibleTypeAnnotationsAttribute&#45;&gt;java.lang.classfile.CodeElement</title>
<path fill="none" stroke="#999999" stroke-width="2" d="M1144.51,-209.141C1164.04,-220.418 1188.75,-234.685 1209.6,-246.726"/>
<polygon fill="#999999" stroke="#999999" stroke-width="2" points="1218.27,-251.735 1207.36,-250.631 1213.69,-249.668 1209.36,-247.167 1209.61,-246.734 1209.86,-246.301 1214.19,-248.802 1211.86,-242.837 1218.27,-251.735 1218.27,-251.735"/>
</g>
<!-- java.lang.classfile.attribute.RuntimeInvisibleTypeAnnotationsAttribute -->
<g id="node43" class="node"><title>java.lang.classfile.attribute.RuntimeInvisibleTypeAnnotationsAttribute</title>
<g id="a_node43"><a xlink:href="../../../java/lang/classfile/attribute/RuntimeInvisibleTypeAnnotationsAttribute.html" xlink:title="java.lang.classfile.attribute.RuntimeInvisibleTypeAnnotationsAttribute">
<text text-anchor="middle" x="1394.5" y="-185.4" font-family="DejaVuSans" font-size="12.00" fill="#e76f00">RuntimeInvisibleTypeAnnotationsAttribute</text>
</a>
</g>
</g>
<!-- java.lang.classfile.attribute.RuntimeInvisibleTypeAnnotationsAttribute&#45;&gt;java.lang.classfile.CodeElement -->
<g id="edge42" class="edge"><title>java.lang.classfile.attribute.RuntimeInvisibleTypeAnnotationsAttribute&#45;&gt;java.lang.classfile.CodeElement</title>
<path fill="none" stroke="#999999" stroke-width="2" d="M1360.49,-209.141C1340.96,-220.418 1316.25,-234.685 1295.4,-246.726"/>
<polygon fill="#999999" stroke="#999999" stroke-width="2" points="1286.73,-251.735 1293.14,-242.837 1290.81,-248.802 1295.14,-246.301 1295.39,-246.734 1295.64,-247.167 1291.31,-249.668 1297.64,-250.631 1286.73,-251.735 1286.73,-251.735"/>
</g>
<!-- java.lang.classfile.attribute.StackMapTableAttribute -->
<g id="node44" class="node"><title>java.lang.classfile.attribute.StackMapTableAttribute</title>
<g id="a_node44"><a xlink:href="../../../java/lang/classfile/attribute/StackMapTableAttribute.html" xlink:title="java.lang.classfile.attribute.StackMapTableAttribute">
<text text-anchor="middle" x="1633.5" y="-185.4" font-family="DejaVuSans" font-size="12.00" fill="#e76f00">StackMapTableAttribute</text>
</a>
</g>
</g>
<!-- java.lang.classfile.attribute.StackMapTableAttribute&#45;&gt;java.lang.classfile.CodeElement -->
<g id="edge43" class="edge"><title>java.lang.classfile.attribute.StackMapTableAttribute&#45;&gt;java.lang.classfile.CodeElement</title>
<path fill="none" stroke="#999999" stroke-width="2" d="M1555.94,-206.193C1484.33,-221.604 1379.41,-244.186 1313.59,-258.353"/>
<polygon fill="#999999" stroke="#999999" stroke-width="2" points="1303.77,-260.466 1312.6,-253.963 1308.55,-258.925 1313.44,-257.873 1313.54,-258.362 1313.65,-258.851 1308.76,-259.903 1314.49,-262.761 1303.77,-260.466 1303.77,-260.466"/>
</g>
</g>
</svg>
