<?xml version="1.0" encoding="UTF-8" standalone="no"?>
<!DOCTYPE svg PUBLIC "-//W3C//DTD SVG 1.1//EN"
 "http://www.w3.org/Graphics/SVG/1.1/DTD/svg11.dtd">
<!-- Generated by graphviz version 2.38.0 (20140413.2041)
 -->
<!-- Title: G Pages: 1 -->
<svg width="490pt" height="217pt"
 viewBox="0.00 0.00 489.50 217.00" xmlns="http://www.w3.org/2000/svg" xmlns:xlink="http://www.w3.org/1999/xlink">
<g id="graph0" class="graph" transform="scale(1 1) rotate(0) translate(4 213)">
<title>G</title>
<polygon fill="white" stroke="none" points="-4,4 -4,-213 485.5,-213 485.5,4 -4,4"/>
<!-- java.lang.classfile.ClassModel -->
<g id="node1" class="node"><title>java.lang.classfile.ClassModel</title>
<g id="a_node1"><a xlink:href="../../../java/lang/classfile/ClassModel.html" xlink:title="java.lang.classfile.ClassModel">
<text text-anchor="middle" x="46" y="-101.4" font-family="DejaVuSans" font-size="12.00" fill="#e76f00">ClassModel</text>
</a>
</g>
</g>
<!-- java.lang.classfile.CompoundElement -->
<g id="node2" class="node"><title>java.lang.classfile.CompoundElement</title>
<g id="a_node2"><a xlink:href="../../../java/lang/classfile/CompoundElement.html" xlink:title="java.lang.classfile.CompoundElement">
<text text-anchor="middle" x="237" y="-185.4" font-family="DejaVuSans" font-size="12.00" fill="#e76f00">CompoundElement</text>
</a>
</g>
</g>
<!-- java.lang.classfile.ClassModel&#45;&gt;java.lang.classfile.CompoundElement -->
<g id="edge1" class="edge"><title>java.lang.classfile.ClassModel&#45;&gt;java.lang.classfile.CompoundElement</title>
<path fill="none" stroke="#999999" stroke-width="2" d="M91.7493,-125.141C118.818,-136.762 153.286,-151.56 181.851,-163.824"/>
<polygon fill="#999999" stroke="#999999" stroke-width="2" points="191.293,-167.877 180.329,-168.067 186.502,-166.364 181.907,-164.392 182.104,-163.932 182.302,-163.473 186.896,-165.445 183.88,-159.797 191.293,-167.877 191.293,-167.877"/>
</g>
<!-- java.lang.classfile.CodeModel -->
<g id="node3" class="node"><title>java.lang.classfile.CodeModel</title>
<g id="a_node3"><a xlink:href="../../../java/lang/classfile/CodeModel.html" xlink:title="java.lang.classfile.CodeModel">
<text text-anchor="middle" x="174" y="-101.4" font-family="DejaVuSans" font-size="12.00" fill="#e76f00">CodeModel</text>
</a>
</g>
</g>
<!-- java.lang.classfile.CodeModel&#45;&gt;java.lang.classfile.CompoundElement -->
<g id="edge2" class="edge"><title>java.lang.classfile.CodeModel&#45;&gt;java.lang.classfile.CompoundElement</title>
<path fill="none" stroke="#999999" stroke-width="2" d="M189.251,-125.35C197.144,-135.624 206.911,-148.337 215.552,-159.583"/>
<polygon fill="#999999" stroke="#999999" stroke-width="2" points="221.89,-167.833 212.229,-162.645 218.447,-164.173 215.401,-160.208 215.797,-159.903 216.194,-159.598 219.24,-163.563 219.366,-157.161 221.89,-167.833 221.89,-167.833"/>
</g>
<!-- java.lang.classfile.attribute.CodeAttribute -->
<g id="node4" class="node"><title>java.lang.classfile.attribute.CodeAttribute</title>
<g id="a_node4"><a xlink:href="../../../java/lang/classfile/attribute/CodeAttribute.html" xlink:title="java.lang.classfile.attribute.CodeAttribute">
<text text-anchor="middle" x="174" y="-17.4" font-family="DejaVuSans" font-size="12.00" fill="#e76f00">CodeAttribute</text>
</a>
</g>
</g>
<!-- java.lang.classfile.attribute.CodeAttribute&#45;&gt;java.lang.classfile.CodeModel -->
<g id="edge3" class="edge"><title>java.lang.classfile.attribute.CodeAttribute&#45;&gt;java.lang.classfile.CodeModel</title>
<path fill="none" stroke="#999999" stroke-width="2" d="M174,-41.3499C174,-51.0192 174,-62.8498 174,-73.5843"/>
<polygon fill="#999999" stroke="#999999" stroke-width="2" points="174,-83.8329 169.5,-73.8328 173.5,-78.8329 173.5,-73.8329 174,-73.8329 174.5,-73.8329 174.5,-78.8329 178.5,-73.8329 174,-83.8329 174,-83.8329"/>
</g>
<!-- java.lang.classfile.FieldModel -->
<g id="node5" class="node"><title>java.lang.classfile.FieldModel</title>
<g id="a_node5"><a xlink:href="../../../java/lang/classfile/FieldModel.html" xlink:title="java.lang.classfile.FieldModel">
<text text-anchor="middle" x="300" y="-101.4" font-family="DejaVuSans" font-size="12.00" fill="#e76f00">FieldModel</text>
</a>
</g>
</g>
<!-- java.lang.classfile.FieldModel&#45;&gt;java.lang.classfile.CompoundElement -->
<g id="edge4" class="edge"><title>java.lang.classfile.FieldModel&#45;&gt;java.lang.classfile.CompoundElement</title>
<path fill="none" stroke="#999999" stroke-width="2" d="M284.749,-125.35C276.856,-135.624 267.089,-148.337 258.448,-159.583"/>
<polygon fill="#999999" stroke="#999999" stroke-width="2" points="252.11,-167.833 254.634,-157.161 254.76,-163.563 257.806,-159.598 258.203,-159.903 258.599,-160.208 255.553,-164.173 261.771,-162.645 252.11,-167.833 252.11,-167.833"/>
</g>
<!-- java.lang.classfile.MethodModel -->
<g id="node6" class="node"><title>java.lang.classfile.MethodModel</title>
<g id="a_node6"><a xlink:href="../../../java/lang/classfile/MethodModel.html" xlink:title="java.lang.classfile.MethodModel">
<text text-anchor="middle" x="431" y="-101.4" font-family="DejaVuSans" font-size="12.00" fill="#e76f00">MethodModel</text>
</a>
</g>
</g>
<!-- java.lang.classfile.MethodModel&#45;&gt;java.lang.classfile.CompoundElement -->
<g id="edge5" class="edge"><title>java.lang.classfile.MethodModel&#45;&gt;java.lang.classfile.CompoundElement</title>
<path fill="none" stroke="#999999" stroke-width="2" d="M384.532,-125.141C356.918,-136.813 321.724,-151.689 292.637,-163.983"/>
<polygon fill="#999999" stroke="#999999" stroke-width="2" points="283.424,-167.877 290.883,-159.839 287.835,-165.47 292.441,-163.523 292.635,-163.984 292.83,-164.444 288.225,-166.391 294.387,-168.129 283.424,-167.877 283.424,-167.877"/>
</g>
</g>
</svg>
