<?xml version="1.0" encoding="UTF-8" standalone="no"?>
<!DOCTYPE svg PUBLIC "-//W3C//DTD SVG 1.1//EN"
 "http://www.w3.org/Graphics/SVG/1.1/DTD/svg11.dtd">
<!-- Generated by graphviz version 2.38.0 (20140413.2041)
 -->
<!-- Title: G Pages: 1 -->
<svg width="2180pt" height="217pt"
 viewBox="0.00 0.00 2180.00 217.00" xmlns="http://www.w3.org/2000/svg" xmlns:xlink="http://www.w3.org/1999/xlink">
<g id="graph0" class="graph" transform="scale(1 1) rotate(0) translate(4 213)">
<title>G</title>
<polygon fill="white" stroke="none" points="-4,4 -4,-213 2176,-213 2176,4 -4,4"/>
<!-- java.lang.classfile.AccessFlags -->
<g id="node1" class="node"><title>java.lang.classfile.AccessFlags</title>
<g id="a_node1"><a xlink:href="../../../java/lang/classfile/AccessFlags.html" xlink:title="java.lang.classfile.AccessFlags">
<text text-anchor="middle" x="49" y="-101.4" font-family="DejaVuSans" font-size="12.00" fill="#e76f00">AccessFlags</text>
</a>
</g>
</g>
<!-- java.lang.classfile.FieldElement -->
<g id="node2" class="node"><title>java.lang.classfile.FieldElement</title>
<g id="a_node2"><a xlink:href="../../../java/lang/classfile/FieldElement.html" xlink:title="java.lang.classfile.FieldElement">
<text text-anchor="middle" x="1032" y="-185.4" font-family="DejaVuSans" font-size="12.00" fill="#e76f00">FieldElement</text>
</a>
</g>
</g>
<!-- java.lang.classfile.AccessFlags&#45;&gt;java.lang.classfile.FieldElement -->
<g id="edge1" class="edge"><title>java.lang.classfile.AccessFlags&#45;&gt;java.lang.classfile.FieldElement</title>
<path fill="none" stroke="#999999" stroke-width="2" d="M98.1114,-121.095C104.093,-122.608 110.155,-123.963 116,-125 434.793,-181.587 824.379,-187.724 971.711,-187.845"/>
<polygon fill="#999999" stroke="#999999" stroke-width="2" points="981.896,-187.844 971.897,-192.345 976.896,-188.344 971.896,-188.345 971.896,-187.845 971.896,-187.345 976.896,-187.344 971.896,-183.345 981.896,-187.844 981.896,-187.844"/>
</g>
<!-- java.lang.classfile.CustomAttribute -->
<g id="node3" class="node"><title>java.lang.classfile.CustomAttribute</title>
<g id="a_node3"><a xlink:href="../../../java/lang/classfile/CustomAttribute.html" xlink:title="java.lang.classfile.CustomAttribute">
<text text-anchor="middle" x="191" y="-101.4" font-family="DejaVuSans" font-size="12.00" fill="#e76f00">CustomAttribute</text>
</a>
</g>
</g>
<!-- java.lang.classfile.CustomAttribute&#45;&gt;java.lang.classfile.FieldElement -->
<g id="edge2" class="edge"><title>java.lang.classfile.CustomAttribute&#45;&gt;java.lang.classfile.FieldElement</title>
<path fill="none" stroke="#999999" stroke-width="2" d="M248.107,-121.435C254.118,-122.786 260.164,-124.011 266,-125 526.329,-169.122 841.904,-182.377 971.755,-186.121"/>
<polygon fill="#999999" stroke="#999999" stroke-width="2" points="981.891,-186.405 971.769,-190.623 976.879,-186.765 971.881,-186.625 971.895,-186.125 971.909,-185.625 976.907,-185.765 972.021,-181.627 981.891,-186.405 981.891,-186.405"/>
</g>
<!-- open node #0 -->
<g id="node4" class="node"><title>open node #0</title>
<g id="a_node4"><a xlink:title="Non&#45;sealed Hierarchy">
<text text-anchor="start" x="174" y="-18.4" font-family="DejaVuSans" font-style="italic" font-size="12.00" fill="#e76f00">&lt;any&gt;</text>
</a>
</g>
</g>
<!-- open node #0&#45;&gt;java.lang.classfile.CustomAttribute -->
<g id="edge3" class="edge"><title>open node #0&#45;&gt;java.lang.classfile.CustomAttribute</title>
<path fill="none" stroke="#999999" stroke-width="2" stroke-dasharray="5,2" d="M191,-41.3499C191,-51.0192 191,-62.8498 191,-73.5843"/>
<polygon fill="#999999" stroke="#999999" stroke-width="2" points="191,-83.8329 186.5,-73.8328 190.5,-78.8329 190.5,-73.8329 191,-73.8329 191.5,-73.8329 191.5,-78.8329 195.5,-73.8329 191,-83.8329 191,-83.8329"/>
</g>
<!-- java.lang.classfile.attribute.ConstantValueAttribute -->
<g id="node5" class="node"><title>java.lang.classfile.attribute.ConstantValueAttribute</title>
<g id="a_node5"><a xlink:href="../../../java/lang/classfile/attribute/ConstantValueAttribute.html" xlink:title="java.lang.classfile.attribute.ConstantValueAttribute">
<text text-anchor="middle" x="360" y="-101.4" font-family="DejaVuSans" font-size="12.00" fill="#e76f00">ConstantValueAttribute</text>
</a>
</g>
</g>
<!-- java.lang.classfile.attribute.ConstantValueAttribute&#45;&gt;java.lang.classfile.FieldElement -->
<g id="edge4" class="edge"><title>java.lang.classfile.attribute.ConstantValueAttribute&#45;&gt;java.lang.classfile.FieldElement</title>
<path fill="none" stroke="#999999" stroke-width="2" d="M436.07,-121.931C442.124,-123.04 448.155,-124.08 454,-125 641.917,-154.58 866.428,-174.482 971.793,-182.923"/>
<polygon fill="#999999" stroke="#999999" stroke-width="2" points="981.917,-183.728 971.592,-187.421 976.893,-183.83 971.909,-183.433 971.949,-182.935 971.988,-182.437 976.973,-182.833 972.306,-178.449 981.917,-183.728 981.917,-183.728"/>
</g>
<!-- java.lang.classfile.attribute.DeprecatedAttribute -->
<g id="node6" class="node"><title>java.lang.classfile.attribute.DeprecatedAttribute</title>
<g id="a_node6"><a xlink:href="../../../java/lang/classfile/attribute/DeprecatedAttribute.html" xlink:title="java.lang.classfile.attribute.DeprecatedAttribute">
<text text-anchor="middle" x="540" y="-101.4" font-family="DejaVuSans" font-size="12.00" fill="#e76f00">DeprecatedAttribute</text>
</a>
</g>
</g>
<!-- java.lang.classfile.attribute.DeprecatedAttribute&#45;&gt;java.lang.classfile.FieldElement -->
<g id="edge5" class="edge"><title>java.lang.classfile.attribute.DeprecatedAttribute&#45;&gt;java.lang.classfile.FieldElement</title>
<path fill="none" stroke="#999999" stroke-width="2" d="M607.508,-121.278C613.748,-122.594 619.984,-123.856 626,-125 748.033,-148.198 891.956,-168.762 971.488,-179.537"/>
<polygon fill="#999999" stroke="#999999" stroke-width="2" points="981.804,-180.928 971.292,-184.051 976.782,-180.756 971.826,-180.087 971.893,-179.592 971.96,-179.096 976.915,-179.765 972.495,-175.132 981.804,-180.928 981.804,-180.928"/>
</g>
<!-- java.lang.classfile.attribute.RuntimeInvisibleAnnotationsAttribute -->
<g id="node7" class="node"><title>java.lang.classfile.attribute.RuntimeInvisibleAnnotationsAttribute</title>
<g id="a_node7"><a xlink:href="../../../java/lang/classfile/attribute/RuntimeInvisibleAnnotationsAttribute.html" xlink:title="java.lang.classfile.attribute.RuntimeInvisibleAnnotationsAttribute">
<text text-anchor="middle" x="757" y="-101.4" font-family="DejaVuSans" font-size="12.00" fill="#e76f00">RuntimeInvisibleAnnotationsAttribute</text>
</a>
</g>
</g>
<!-- java.lang.classfile.attribute.RuntimeInvisibleAnnotationsAttribute&#45;&gt;java.lang.classfile.FieldElement -->
<g id="edge6" class="edge"><title>java.lang.classfile.attribute.RuntimeInvisibleAnnotationsAttribute&#45;&gt;java.lang.classfile.FieldElement</title>
<path fill="none" stroke="#999999" stroke-width="2" d="M822.52,-125.037C867.863,-138.557 927.749,-156.414 971.873,-169.571"/>
<polygon fill="#999999" stroke="#999999" stroke-width="2" points="981.601,-172.472 970.732,-173.927 976.667,-171.522 971.875,-170.094 972.018,-169.614 972.161,-169.135 976.953,-170.564 973.304,-165.302 981.601,-172.472 981.601,-172.472"/>
</g>
<!-- java.lang.classfile.attribute.RuntimeInvisibleTypeAnnotationsAttribute -->
<g id="node8" class="node"><title>java.lang.classfile.attribute.RuntimeInvisibleTypeAnnotationsAttribute</title>
<g id="a_node8"><a xlink:href="../../../java/lang/classfile/attribute/RuntimeInvisibleTypeAnnotationsAttribute.html" xlink:title="java.lang.classfile.attribute.RuntimeInvisibleTypeAnnotationsAttribute">
<text text-anchor="middle" x="1032" y="-101.4" font-family="DejaVuSans" font-size="12.00" fill="#e76f00">RuntimeInvisibleTypeAnnotationsAttribute</text>
</a>
</g>
</g>
<!-- java.lang.classfile.attribute.RuntimeInvisibleTypeAnnotationsAttribute&#45;&gt;java.lang.classfile.FieldElement -->
<g id="edge7" class="edge"><title>java.lang.classfile.attribute.RuntimeInvisibleTypeAnnotationsAttribute&#45;&gt;java.lang.classfile.FieldElement</title>
<path fill="none" stroke="#999999" stroke-width="2" d="M1032,-125.35C1032,-135.019 1032,-146.85 1032,-157.584"/>
<polygon fill="#999999" stroke="#999999" stroke-width="2" points="1032,-167.833 1027.5,-157.833 1031.5,-162.833 1031.5,-157.833 1032,-157.833 1032.5,-157.833 1032.5,-162.833 1036.5,-157.833 1032,-167.833 1032,-167.833"/>
</g>
<!-- java.lang.classfile.attribute.RuntimeVisibleAnnotationsAttribute -->
<g id="node9" class="node"><title>java.lang.classfile.attribute.RuntimeVisibleAnnotationsAttribute</title>
<g id="a_node9"><a xlink:href="../../../java/lang/classfile/attribute/RuntimeVisibleAnnotationsAttribute.html" xlink:title="java.lang.classfile.attribute.RuntimeVisibleAnnotationsAttribute">
<text text-anchor="middle" x="1303" y="-101.4" font-family="DejaVuSans" font-size="12.00" fill="#e76f00">RuntimeVisibleAnnotationsAttribute</text>
</a>
</g>
</g>
<!-- java.lang.classfile.attribute.RuntimeVisibleAnnotationsAttribute&#45;&gt;java.lang.classfile.FieldElement -->
<g id="edge8" class="edge"><title>java.lang.classfile.attribute.RuntimeVisibleAnnotationsAttribute&#45;&gt;java.lang.classfile.FieldElement</title>
<path fill="none" stroke="#999999" stroke-width="2" d="M1238.43,-125.037C1193.9,-138.513 1135.12,-156.298 1091.68,-169.443"/>
<polygon fill="#999999" stroke="#999999" stroke-width="2" points="1082.1,-172.342 1090.36,-165.138 1086.74,-170.415 1091.52,-168.967 1091.67,-169.445 1091.81,-169.924 1087.03,-171.372 1092.97,-173.752 1082.1,-172.342 1082.1,-172.342"/>
</g>
<!-- java.lang.classfile.attribute.RuntimeVisibleTypeAnnotationsAttribute -->
<g id="node10" class="node"><title>java.lang.classfile.attribute.RuntimeVisibleTypeAnnotationsAttribute</title>
<g id="a_node10"><a xlink:href="../../../java/lang/classfile/attribute/RuntimeVisibleTypeAnnotationsAttribute.html" xlink:title="java.lang.classfile.attribute.RuntimeVisibleTypeAnnotationsAttribute">
<text text-anchor="middle" x="1570" y="-101.4" font-family="DejaVuSans" font-size="12.00" fill="#e76f00">RuntimeVisibleTypeAnnotationsAttribute</text>
</a>
</g>
</g>
<!-- java.lang.classfile.attribute.RuntimeVisibleTypeAnnotationsAttribute&#45;&gt;java.lang.classfile.FieldElement -->
<g id="edge9" class="edge"><title>java.lang.classfile.attribute.RuntimeVisibleTypeAnnotationsAttribute&#45;&gt;java.lang.classfile.FieldElement</title>
<path fill="none" stroke="#999999" stroke-width="2" d="M1447.92,-124.107C1336.95,-141.021 1177.85,-165.27 1092.16,-178.33"/>
<polygon fill="#999999" stroke="#999999" stroke-width="2" points="1082.08,-179.866 1091.29,-173.911 1086.95,-178.619 1091.89,-177.865 1091.97,-178.36 1092.04,-178.854 1087.1,-179.607 1092.65,-182.808 1082.08,-179.866 1082.08,-179.866"/>
</g>
<!-- java.lang.classfile.attribute.SignatureAttribute -->
<g id="node11" class="node"><title>java.lang.classfile.attribute.SignatureAttribute</title>
<g id="a_node11"><a xlink:href="../../../java/lang/classfile/attribute/SignatureAttribute.html" xlink:title="java.lang.classfile.attribute.SignatureAttribute">
<text text-anchor="middle" x="1791" y="-101.4" font-family="DejaVuSans" font-size="12.00" fill="#e76f00">SignatureAttribute</text>
</a>
</g>
</g>
<!-- java.lang.classfile.attribute.SignatureAttribute&#45;&gt;java.lang.classfile.FieldElement -->
<g id="edge10" class="edge"><title>java.lang.classfile.attribute.SignatureAttribute&#45;&gt;java.lang.classfile.FieldElement</title>
<path fill="none" stroke="#999999" stroke-width="2" d="M1728.39,-121.517C1722.2,-122.816 1715.99,-124.008 1710,-125 1483.88,-162.44 1211.34,-179.02 1092.42,-184.86"/>
<polygon fill="#999999" stroke="#999999" stroke-width="2" points="1082.08,-185.36 1091.85,-180.382 1087.05,-184.619 1092.04,-184.378 1092.06,-184.877 1092.09,-185.377 1087.09,-185.618 1092.28,-189.372 1082.08,-185.36 1082.08,-185.36"/>
</g>
<!-- java.lang.classfile.attribute.SyntheticAttribute -->
<g id="node12" class="node"><title>java.lang.classfile.attribute.SyntheticAttribute</title>
<g id="a_node12"><a xlink:href="../../../java/lang/classfile/attribute/SyntheticAttribute.html" xlink:title="java.lang.classfile.attribute.SyntheticAttribute">
<text text-anchor="middle" x="1951" y="-101.4" font-family="DejaVuSans" font-size="12.00" fill="#e76f00">SyntheticAttribute</text>
</a>
</g>
</g>
<!-- java.lang.classfile.attribute.SyntheticAttribute&#45;&gt;java.lang.classfile.FieldElement -->
<g id="edge11" class="edge"><title>java.lang.classfile.attribute.SyntheticAttribute&#45;&gt;java.lang.classfile.FieldElement</title>
<path fill="none" stroke="#999999" stroke-width="2" d="M1889.96,-121.639C1883.92,-122.913 1877.86,-124.066 1872,-125 1582.42,-171.178 1231.1,-183.361 1092.44,-186.473"/>
<polygon fill="#999999" stroke="#999999" stroke-width="2" points="1082.04,-186.698 1091.94,-181.982 1087.03,-186.09 1092.03,-185.981 1092.04,-186.481 1092.05,-186.981 1087.05,-187.089 1092.14,-190.98 1082.04,-186.698 1082.04,-186.698"/>
</g>
<!-- java.lang.classfile.attribute.UnknownAttribute -->
<g id="node13" class="node"><title>java.lang.classfile.attribute.UnknownAttribute</title>
<g id="a_node13"><a xlink:href="../../../java/lang/classfile/attribute/UnknownAttribute.html" xlink:title="java.lang.classfile.attribute.UnknownAttribute">
<text text-anchor="middle" x="2110" y="-101.4" font-family="DejaVuSans" font-size="12.00" fill="#e76f00">UnknownAttribute</text>
</a>
</g>
</g>
<!-- java.lang.classfile.attribute.UnknownAttribute&#45;&gt;java.lang.classfile.FieldElement -->
<g id="edge12" class="edge"><title>java.lang.classfile.attribute.UnknownAttribute&#45;&gt;java.lang.classfile.FieldElement</title>
<path fill="none" stroke="#999999" stroke-width="2" d="M2047.76,-121.796C2041.79,-123.021 2035.79,-124.119 2030,-125 1677.67,-178.544 1248.66,-186.404 1092.5,-187.417"/>
<polygon fill="#999999" stroke="#999999" stroke-width="2" points="1082.18,-187.477 1092.15,-182.919 1087.17,-186.948 1092.17,-186.919 1092.18,-187.419 1092.18,-187.919 1087.18,-187.948 1092.2,-191.919 1082.18,-187.477 1082.18,-187.477"/>
</g>
</g>
</svg>
