<?xml version="1.0" encoding="UTF-8" standalone="no"?>
<!DOCTYPE svg PUBLIC "-//W3C//DTD SVG 1.1//EN"
 "http://www.w3.org/Graphics/SVG/1.1/DTD/svg11.dtd">
<!-- Generated by graphviz version 2.38.0 (20140413.2041)
 -->
<!-- Title: G Pages: 1 -->
<svg width="3330pt" height="217pt"
 viewBox="0.00 0.00 3330.00 217.00" xmlns="http://www.w3.org/2000/svg" xmlns:xlink="http://www.w3.org/1999/xlink">
<g id="graph0" class="graph" transform="scale(1 1) rotate(0) translate(4 213)">
<title>G</title>
<polygon fill="white" stroke="none" points="-4,4 -4,-213 3326,-213 3326,4 -4,4"/>
<!-- java.lang.classfile.AccessFlags -->
<g id="node1" class="node"><title>java.lang.classfile.AccessFlags</title>
<g id="a_node1"><a xlink:href="../../../java/lang/classfile/AccessFlags.html" xlink:title="java.lang.classfile.AccessFlags">
<text text-anchor="middle" x="49" y="-101.4" font-family="DejaVuSans" font-size="12.00" fill="#e76f00">AccessFlags</text>
</a>
</g>
</g>
<!-- java.lang.classfile.MethodElement -->
<g id="node2" class="node"><title>java.lang.classfile.MethodElement</title>
<g id="a_node2"><a xlink:href="../../../java/lang/classfile/MethodElement.html" xlink:title="java.lang.classfile.MethodElement">
<text text-anchor="middle" x="1425" y="-185.4" font-family="DejaVuSans" font-size="12.00" fill="#e76f00">MethodElement</text>
</a>
</g>
</g>
<!-- java.lang.classfile.AccessFlags&#45;&gt;java.lang.classfile.MethodElement -->
<g id="edge1" class="edge"><title>java.lang.classfile.AccessFlags&#45;&gt;java.lang.classfile.MethodElement</title>
<path fill="none" stroke="#999999" stroke-width="2" d="M98.0912,-121.212C104.077,-122.704 110.145,-124.022 116,-125 358.698,-165.529 1125.76,-182.189 1357.83,-186.381"/>
<polygon fill="#999999" stroke="#999999" stroke-width="2" points="1368.15,-186.566 1358.07,-190.886 1363.14,-186.976 1358.14,-186.887 1358.15,-186.387 1358.16,-185.887 1363.16,-185.976 1358.23,-181.887 1368.15,-186.566 1368.15,-186.566"/>
</g>
<!-- java.lang.classfile.CodeModel -->
<g id="node3" class="node"><title>java.lang.classfile.CodeModel</title>
<g id="a_node3"><a xlink:href="../../../java/lang/classfile/CodeModel.html" xlink:title="java.lang.classfile.CodeModel">
<text text-anchor="middle" x="180" y="-101.4" font-family="DejaVuSans" font-size="12.00" fill="#e76f00">CodeModel</text>
</a>
</g>
</g>
<!-- java.lang.classfile.CodeModel&#45;&gt;java.lang.classfile.MethodElement -->
<g id="edge2" class="edge"><title>java.lang.classfile.CodeModel&#45;&gt;java.lang.classfile.MethodElement</title>
<path fill="none" stroke="#999999" stroke-width="2" d="M225.819,-120.918C231.879,-122.526 238.052,-123.952 244,-125 460.485,-163.123 1141.02,-181.197 1357.9,-186.09"/>
<polygon fill="#999999" stroke="#999999" stroke-width="2" points="1368.18,-186.32 1358.08,-190.595 1363.17,-186.708 1358.17,-186.596 1358.18,-186.096 1358.19,-185.596 1363.19,-185.708 1358.28,-181.597 1368.18,-186.32 1368.18,-186.32"/>
</g>
<!-- java.lang.classfile.attribute.CodeAttribute -->
<g id="node4" class="node"><title>java.lang.classfile.attribute.CodeAttribute</title>
<g id="a_node4"><a xlink:href="../../../java/lang/classfile/attribute/CodeAttribute.html" xlink:title="java.lang.classfile.attribute.CodeAttribute">
<text text-anchor="middle" x="180" y="-17.4" font-family="DejaVuSans" font-size="12.00" fill="#e76f00">CodeAttribute</text>
</a>
</g>
</g>
<!-- java.lang.classfile.attribute.CodeAttribute&#45;&gt;java.lang.classfile.CodeModel -->
<g id="edge3" class="edge"><title>java.lang.classfile.attribute.CodeAttribute&#45;&gt;java.lang.classfile.CodeModel</title>
<path fill="none" stroke="#999999" stroke-width="2" d="M180,-41.3499C180,-51.0192 180,-62.8498 180,-73.5843"/>
<polygon fill="#999999" stroke="#999999" stroke-width="2" points="180,-83.8329 175.5,-73.8328 179.5,-78.8329 179.5,-73.8329 180,-73.8329 180.5,-73.8329 180.5,-78.8329 184.5,-73.8329 180,-83.8329 180,-83.8329"/>
</g>
<!-- java.lang.classfile.CustomAttribute -->
<g id="node5" class="node"><title>java.lang.classfile.CustomAttribute</title>
<g id="a_node5"><a xlink:href="../../../java/lang/classfile/CustomAttribute.html" xlink:title="java.lang.classfile.CustomAttribute">
<text text-anchor="middle" x="319" y="-101.4" font-family="DejaVuSans" font-size="12.00" fill="#e76f00">CustomAttribute</text>
</a>
</g>
</g>
<!-- java.lang.classfile.CustomAttribute&#45;&gt;java.lang.classfile.MethodElement -->
<g id="edge4" class="edge"><title>java.lang.classfile.CustomAttribute&#45;&gt;java.lang.classfile.MethodElement</title>
<path fill="none" stroke="#999999" stroke-width="2" d="M376.087,-121.56C382.101,-122.887 388.154,-124.072 394,-125 754.244,-182.197 1192.92,-187.959 1357.95,-187.912"/>
<polygon fill="#999999" stroke="#999999" stroke-width="2" points="1368.42,-187.901 1358.43,-192.412 1363.43,-188.407 1358.43,-188.412 1358.42,-187.912 1358.42,-187.412 1363.42,-187.407 1358.42,-183.412 1368.42,-187.901 1368.42,-187.901"/>
</g>
<!-- open node #0 -->
<g id="node6" class="node"><title>open node #0</title>
<g id="a_node6"><a xlink:title="Non&#45;sealed Hierarchy">
<text text-anchor="start" x="302" y="-18.4" font-family="DejaVuSans" font-style="italic" font-size="12.00" fill="#e76f00">&lt;any&gt;</text>
</a>
</g>
</g>
<!-- open node #0&#45;&gt;java.lang.classfile.CustomAttribute -->
<g id="edge5" class="edge"><title>open node #0&#45;&gt;java.lang.classfile.CustomAttribute</title>
<path fill="none" stroke="#999999" stroke-width="2" stroke-dasharray="5,2" d="M319,-41.3499C319,-51.0192 319,-62.8498 319,-73.5843"/>
<polygon fill="#999999" stroke="#999999" stroke-width="2" points="319,-83.8329 314.5,-73.8328 318.5,-78.8329 318.5,-73.8329 319,-73.8329 319.5,-73.8329 319.5,-78.8329 323.5,-73.8329 319,-83.8329 319,-83.8329"/>
</g>
<!-- java.lang.classfile.attribute.AnnotationDefaultAttribute -->
<g id="node7" class="node"><title>java.lang.classfile.attribute.AnnotationDefaultAttribute</title>
<g id="a_node7"><a xlink:href="../../../java/lang/classfile/attribute/AnnotationDefaultAttribute.html" xlink:title="java.lang.classfile.attribute.AnnotationDefaultAttribute">
<text text-anchor="middle" x="497" y="-101.4" font-family="DejaVuSans" font-size="12.00" fill="#e76f00">AnnotationDefaultAttribute</text>
</a>
</g>
</g>
<!-- java.lang.classfile.attribute.AnnotationDefaultAttribute&#45;&gt;java.lang.classfile.MethodElement -->
<g id="edge6" class="edge"><title>java.lang.classfile.attribute.AnnotationDefaultAttribute&#45;&gt;java.lang.classfile.MethodElement</title>
<path fill="none" stroke="#999999" stroke-width="2" d="M581.759,-122.46C587.582,-123.392 593.37,-124.251 599,-125 879.762,-162.337 1217.4,-179.217 1358.24,-185.017"/>
<polygon fill="#999999" stroke="#999999" stroke-width="2" points="1368.44,-185.432 1358.26,-189.522 1363.42,-185.729 1358.43,-185.525 1358.45,-185.026 1358.47,-184.526 1363.46,-184.729 1358.63,-180.53 1368.44,-185.432 1368.44,-185.432"/>
</g>
<!-- java.lang.classfile.attribute.DeprecatedAttribute -->
<g id="node8" class="node"><title>java.lang.classfile.attribute.DeprecatedAttribute</title>
<g id="a_node8"><a xlink:href="../../../java/lang/classfile/attribute/DeprecatedAttribute.html" xlink:title="java.lang.classfile.attribute.DeprecatedAttribute">
<text text-anchor="middle" x="685" y="-101.4" font-family="DejaVuSans" font-size="12.00" fill="#e76f00">DeprecatedAttribute</text>
</a>
</g>
</g>
<!-- java.lang.classfile.attribute.DeprecatedAttribute&#45;&gt;java.lang.classfile.MethodElement -->
<g id="edge7" class="edge"><title>java.lang.classfile.attribute.DeprecatedAttribute&#45;&gt;java.lang.classfile.MethodElement</title>
<path fill="none" stroke="#999999" stroke-width="2" d="M752.913,-121.741C759.01,-122.944 765.105,-124.054 771,-125 984.112,-159.201 1239.51,-176.99 1358.24,-183.943"/>
<polygon fill="#999999" stroke="#999999" stroke-width="2" points="1368.27,-184.523 1358.02,-188.438 1363.25,-184.733 1358.25,-184.444 1358.28,-183.945 1358.31,-183.446 1363.3,-183.735 1358.54,-179.453 1368.27,-184.523 1368.27,-184.523"/>
</g>
<!-- java.lang.classfile.attribute.ExceptionsAttribute -->
<g id="node9" class="node"><title>java.lang.classfile.attribute.ExceptionsAttribute</title>
<g id="a_node9"><a xlink:href="../../../java/lang/classfile/attribute/ExceptionsAttribute.html" xlink:title="java.lang.classfile.attribute.ExceptionsAttribute">
<text text-anchor="middle" x="855" y="-101.4" font-family="DejaVuSans" font-size="12.00" fill="#e76f00">ExceptionsAttribute</text>
</a>
</g>
</g>
<!-- java.lang.classfile.attribute.ExceptionsAttribute&#45;&gt;java.lang.classfile.MethodElement -->
<g id="edge8" class="edge"><title>java.lang.classfile.attribute.ExceptionsAttribute&#45;&gt;java.lang.classfile.MethodElement</title>
<path fill="none" stroke="#999999" stroke-width="2" d="M921.359,-121.552C927.308,-122.795 933.254,-123.966 939,-125 1087.69,-151.75 1263.97,-171.464 1358,-181.031"/>
<polygon fill="#999999" stroke="#999999" stroke-width="2" points="1368.22,-182.064 1357.82,-185.535 1363.2,-182.058 1358.22,-181.556 1358.27,-181.058 1358.32,-180.561 1363.3,-181.063 1358.73,-176.581 1368.22,-182.064 1368.22,-182.064"/>
</g>
<!-- java.lang.classfile.attribute.MethodParametersAttribute -->
<g id="node10" class="node"><title>java.lang.classfile.attribute.MethodParametersAttribute</title>
<g id="a_node10"><a xlink:href="../../../java/lang/classfile/attribute/MethodParametersAttribute.html" xlink:title="java.lang.classfile.attribute.MethodParametersAttribute">
<text text-anchor="middle" x="1044" y="-101.4" font-family="DejaVuSans" font-size="12.00" fill="#e76f00">MethodParametersAttribute</text>
</a>
</g>
</g>
<!-- java.lang.classfile.attribute.MethodParametersAttribute&#45;&gt;java.lang.classfile.MethodElement -->
<g id="edge9" class="edge"><title>java.lang.classfile.attribute.MethodParametersAttribute&#45;&gt;java.lang.classfile.MethodElement</title>
<path fill="none" stroke="#999999" stroke-width="2" d="M1131.41,-124.312C1200.54,-139.191 1295.59,-159.648 1358.59,-173.207"/>
<polygon fill="#999999" stroke="#999999" stroke-width="2" points="1368.42,-175.322 1357.69,-177.617 1363.42,-174.759 1358.53,-173.706 1358.64,-173.218 1358.75,-172.729 1363.63,-173.781 1359.59,-168.818 1368.42,-175.322 1368.42,-175.322"/>
</g>
<!-- java.lang.classfile.attribute.RuntimeInvisibleAnnotationsAttribute -->
<g id="node11" class="node"><title>java.lang.classfile.attribute.RuntimeInvisibleAnnotationsAttribute</title>
<g id="a_node11"><a xlink:href="../../../java/lang/classfile/attribute/RuntimeInvisibleAnnotationsAttribute.html" xlink:title="java.lang.classfile.attribute.RuntimeInvisibleAnnotationsAttribute">
<text text-anchor="middle" x="1280" y="-101.4" font-family="DejaVuSans" font-size="12.00" fill="#e76f00">RuntimeInvisibleAnnotationsAttribute</text>
</a>
</g>
</g>
<!-- java.lang.classfile.attribute.RuntimeInvisibleAnnotationsAttribute&#45;&gt;java.lang.classfile.MethodElement -->
<g id="edge10" class="edge"><title>java.lang.classfile.attribute.RuntimeInvisibleAnnotationsAttribute&#45;&gt;java.lang.classfile.MethodElement</title>
<path fill="none" stroke="#999999" stroke-width="2" d="M1314.73,-125.141C1334.74,-136.459 1360.09,-150.79 1381.43,-162.859"/>
<polygon fill="#999999" stroke="#999999" stroke-width="2" points="1390.3,-167.877 1379.38,-166.872 1385.7,-165.851 1381.35,-163.39 1381.6,-162.955 1381.84,-162.519 1386.2,-164.981 1383.81,-159.038 1390.3,-167.877 1390.3,-167.877"/>
</g>
<!-- java.lang.classfile.attribute.RuntimeInvisibleParameterAnnotationsAttribute -->
<g id="node12" class="node"><title>java.lang.classfile.attribute.RuntimeInvisibleParameterAnnotationsAttribute</title>
<g id="a_node12"><a xlink:href="../../../java/lang/classfile/attribute/RuntimeInvisibleParameterAnnotationsAttribute.html" xlink:title="java.lang.classfile.attribute.RuntimeInvisibleParameterAnnotationsAttribute">
<text text-anchor="middle" x="1570" y="-101.4" font-family="DejaVuSans" font-size="12.00" fill="#e76f00">RuntimeInvisibleParameterAnnotationsAttribute</text>
</a>
</g>
</g>
<!-- java.lang.classfile.attribute.RuntimeInvisibleParameterAnnotationsAttribute&#45;&gt;java.lang.classfile.MethodElement -->
<g id="edge11" class="edge"><title>java.lang.classfile.attribute.RuntimeInvisibleParameterAnnotationsAttribute&#45;&gt;java.lang.classfile.MethodElement</title>
<path fill="none" stroke="#999999" stroke-width="2" d="M1535.27,-125.141C1515.26,-136.459 1489.91,-150.79 1468.57,-162.859"/>
<polygon fill="#999999" stroke="#999999" stroke-width="2" points="1459.7,-167.877 1466.19,-159.038 1463.8,-164.981 1468.16,-162.519 1468.4,-162.955 1468.65,-163.39 1464.3,-165.851 1470.62,-166.872 1459.7,-167.877 1459.7,-167.877"/>
</g>
<!-- java.lang.classfile.attribute.RuntimeInvisibleTypeAnnotationsAttribute -->
<g id="node13" class="node"><title>java.lang.classfile.attribute.RuntimeInvisibleTypeAnnotationsAttribute</title>
<g id="a_node13"><a xlink:href="../../../java/lang/classfile/attribute/RuntimeInvisibleTypeAnnotationsAttribute.html" xlink:title="java.lang.classfile.attribute.RuntimeInvisibleTypeAnnotationsAttribute">
<text text-anchor="middle" x="1872" y="-101.4" font-family="DejaVuSans" font-size="12.00" fill="#e76f00">RuntimeInvisibleTypeAnnotationsAttribute</text>
</a>
</g>
</g>
<!-- java.lang.classfile.attribute.RuntimeInvisibleTypeAnnotationsAttribute&#45;&gt;java.lang.classfile.MethodElement -->
<g id="edge12" class="edge"><title>java.lang.classfile.attribute.RuntimeInvisibleTypeAnnotationsAttribute&#45;&gt;java.lang.classfile.MethodElement</title>
<path fill="none" stroke="#999999" stroke-width="2" d="M1765.5,-125.037C1680.41,-140.646 1563.82,-162.034 1491.51,-175.299"/>
<polygon fill="#999999" stroke="#999999" stroke-width="2" points="1481.61,-177.115 1490.63,-170.885 1486.44,-175.721 1491.36,-174.819 1491.45,-175.311 1491.54,-175.802 1486.62,-176.705 1492.26,-179.737 1481.61,-177.115 1481.61,-177.115"/>
</g>
<!-- java.lang.classfile.attribute.RuntimeVisibleAnnotationsAttribute -->
<g id="node14" class="node"><title>java.lang.classfile.attribute.RuntimeVisibleAnnotationsAttribute</title>
<g id="a_node14"><a xlink:href="../../../java/lang/classfile/attribute/RuntimeVisibleAnnotationsAttribute.html" xlink:title="java.lang.classfile.attribute.RuntimeVisibleAnnotationsAttribute">
<text text-anchor="middle" x="2143" y="-101.4" font-family="DejaVuSans" font-size="12.00" fill="#e76f00">RuntimeVisibleAnnotationsAttribute</text>
</a>
</g>
</g>
<!-- java.lang.classfile.attribute.RuntimeVisibleAnnotationsAttribute&#45;&gt;java.lang.classfile.MethodElement -->
<g id="edge13" class="edge"><title>java.lang.classfile.attribute.RuntimeVisibleAnnotationsAttribute&#45;&gt;java.lang.classfile.MethodElement</title>
<path fill="none" stroke="#999999" stroke-width="2" d="M2033.94,-122.585C2027.87,-123.429 2021.86,-124.24 2016,-125 1826.43,-149.564 1601.7,-171.309 1491.99,-181.449"/>
<polygon fill="#999999" stroke="#999999" stroke-width="2" points="1481.74,-182.394 1491.29,-176.995 1486.68,-181.437 1491.65,-180.978 1491.7,-181.476 1491.75,-181.974 1486.77,-182.433 1492.11,-185.957 1481.74,-182.394 1481.74,-182.394"/>
</g>
<!-- java.lang.classfile.attribute.RuntimeVisibleParameterAnnotationsAttribute -->
<g id="node15" class="node"><title>java.lang.classfile.attribute.RuntimeVisibleParameterAnnotationsAttribute</title>
<g id="a_node15"><a xlink:href="../../../java/lang/classfile/attribute/RuntimeVisibleParameterAnnotationsAttribute.html" xlink:title="java.lang.classfile.attribute.RuntimeVisibleParameterAnnotationsAttribute">
<text text-anchor="middle" x="2425" y="-101.4" font-family="DejaVuSans" font-size="12.00" fill="#e76f00">RuntimeVisibleParameterAnnotationsAttribute</text>
</a>
</g>
</g>
<!-- java.lang.classfile.attribute.RuntimeVisibleParameterAnnotationsAttribute&#45;&gt;java.lang.classfile.MethodElement -->
<g id="edge14" class="edge"><title>java.lang.classfile.attribute.RuntimeVisibleParameterAnnotationsAttribute&#45;&gt;java.lang.classfile.MethodElement</title>
<path fill="none" stroke="#999999" stroke-width="2" d="M2287.7,-123.153C2281.72,-123.801 2275.8,-124.421 2270,-125 1981.01,-153.847 1635.17,-175.373 1492.06,-183.713"/>
<polygon fill="#999999" stroke="#999999" stroke-width="2" points="1481.71,-184.314 1491.43,-179.242 1486.67,-183.525 1491.66,-183.235 1491.69,-183.735 1491.72,-184.234 1486.73,-184.523 1491.95,-188.227 1481.71,-184.314 1481.71,-184.314"/>
</g>
<!-- java.lang.classfile.attribute.RuntimeVisibleTypeAnnotationsAttribute -->
<g id="node16" class="node"><title>java.lang.classfile.attribute.RuntimeVisibleTypeAnnotationsAttribute</title>
<g id="a_node16"><a xlink:href="../../../java/lang/classfile/attribute/RuntimeVisibleTypeAnnotationsAttribute.html" xlink:title="java.lang.classfile.attribute.RuntimeVisibleTypeAnnotationsAttribute">
<text text-anchor="middle" x="2720" y="-101.4" font-family="DejaVuSans" font-size="12.00" fill="#e76f00">RuntimeVisibleTypeAnnotationsAttribute</text>
</a>
</g>
</g>
<!-- java.lang.classfile.attribute.RuntimeVisibleTypeAnnotationsAttribute&#45;&gt;java.lang.classfile.MethodElement -->
<g id="edge15" class="edge"><title>java.lang.classfile.attribute.RuntimeVisibleTypeAnnotationsAttribute&#45;&gt;java.lang.classfile.MethodElement</title>
<path fill="none" stroke="#999999" stroke-width="2" d="M2597.9,-123.124C2591.86,-123.803 2585.86,-124.434 2580,-125 2167.46,-164.821 1669.39,-181.057 1491.84,-185.855"/>
<polygon fill="#999999" stroke="#999999" stroke-width="2" points="1481.61,-186.128 1491.49,-181.362 1486.6,-185.494 1491.6,-185.361 1491.61,-185.861 1491.62,-186.36 1486.62,-186.494 1491.73,-190.359 1481.61,-186.128 1481.61,-186.128"/>
</g>
<!-- java.lang.classfile.attribute.SignatureAttribute -->
<g id="node17" class="node"><title>java.lang.classfile.attribute.SignatureAttribute</title>
<g id="a_node17"><a xlink:href="../../../java/lang/classfile/attribute/SignatureAttribute.html" xlink:title="java.lang.classfile.attribute.SignatureAttribute">
<text text-anchor="middle" x="2941" y="-101.4" font-family="DejaVuSans" font-size="12.00" fill="#e76f00">SignatureAttribute</text>
</a>
</g>
</g>
<!-- java.lang.classfile.attribute.SignatureAttribute&#45;&gt;java.lang.classfile.MethodElement -->
<g id="edge16" class="edge"><title>java.lang.classfile.attribute.SignatureAttribute&#45;&gt;java.lang.classfile.MethodElement</title>
<path fill="none" stroke="#999999" stroke-width="2" d="M2878.44,-121.822C2872.24,-123.059 2866.02,-124.153 2860,-125 2590.55,-162.94 1737.61,-181.615 1491.86,-186.298"/>
<polygon fill="#999999" stroke="#999999" stroke-width="2" points="1481.65,-186.491 1491.57,-181.803 1486.64,-185.897 1491.64,-185.802 1491.65,-186.302 1491.66,-186.802 1486.66,-186.897 1491.74,-190.801 1481.65,-186.491 1481.65,-186.491"/>
</g>
<!-- java.lang.classfile.attribute.SyntheticAttribute -->
<g id="node18" class="node"><title>java.lang.classfile.attribute.SyntheticAttribute</title>
<g id="a_node18"><a xlink:href="../../../java/lang/classfile/attribute/SyntheticAttribute.html" xlink:title="java.lang.classfile.attribute.SyntheticAttribute">
<text text-anchor="middle" x="3101" y="-101.4" font-family="DejaVuSans" font-size="12.00" fill="#e76f00">SyntheticAttribute</text>
</a>
</g>
</g>
<!-- java.lang.classfile.attribute.SyntheticAttribute&#45;&gt;java.lang.classfile.MethodElement -->
<g id="edge17" class="edge"><title>java.lang.classfile.attribute.SyntheticAttribute&#45;&gt;java.lang.classfile.MethodElement</title>
<path fill="none" stroke="#999999" stroke-width="2" d="M3040,-121.855C3033.95,-123.085 3027.87,-124.169 3022,-125 2719.37,-167.819 1754.89,-183.227 1491.83,-186.691"/>
<polygon fill="#999999" stroke="#999999" stroke-width="2" points="1481.67,-186.823 1491.61,-182.193 1486.66,-186.258 1491.66,-186.193 1491.66,-186.693 1491.67,-187.193 1486.67,-187.258 1491.72,-191.193 1481.67,-186.823 1481.67,-186.823"/>
</g>
<!-- java.lang.classfile.attribute.UnknownAttribute -->
<g id="node19" class="node"><title>java.lang.classfile.attribute.UnknownAttribute</title>
<g id="a_node19"><a xlink:href="../../../java/lang/classfile/attribute/UnknownAttribute.html" xlink:title="java.lang.classfile.attribute.UnknownAttribute">
<text text-anchor="middle" x="3260" y="-101.4" font-family="DejaVuSans" font-size="12.00" fill="#e76f00">UnknownAttribute</text>
</a>
</g>
</g>
<!-- java.lang.classfile.attribute.UnknownAttribute&#45;&gt;java.lang.classfile.MethodElement -->
<g id="edge18" class="edge"><title>java.lang.classfile.attribute.UnknownAttribute&#45;&gt;java.lang.classfile.MethodElement</title>
<path fill="none" stroke="#999999" stroke-width="2" d="M3197.78,-121.962C3191.8,-123.152 3185.81,-124.198 3180,-125 2844.93,-171.312 1772.17,-184.296 1492.3,-186.934"/>
<polygon fill="#999999" stroke="#999999" stroke-width="2" points="1481.9,-187.03 1491.86,-182.437 1486.89,-186.484 1491.89,-186.437 1491.9,-186.937 1491.9,-187.437 1486.9,-187.484 1491.94,-191.437 1481.9,-187.03 1481.9,-187.03"/>
</g>
</g>
</svg>
