<?xml version="1.0" encoding="UTF-8" standalone="no"?>
<!DOCTYPE svg PUBLIC "-//W3C//DTD SVG 1.1//EN"
 "http://www.w3.org/Graphics/SVG/1.1/DTD/svg11.dtd">
<!-- Generated by graphviz version 2.38.0 (20140413.2041)
 -->
<!-- Title: G Pages: 1 -->
<svg width="512pt" height="217pt"
 viewBox="0.00 0.00 511.50 217.00" xmlns="http://www.w3.org/2000/svg" xmlns:xlink="http://www.w3.org/1999/xlink">
<g id="graph0" class="graph" transform="scale(1 1) rotate(0) translate(4 213)">
<title>G</title>
<polygon fill="white" stroke="none" points="-4,4 -4,-213 507.5,-213 507.5,4 -4,4"/>
<!-- java.lang.classfile.Signature.RefTypeSig -->
<g id="node1" class="node"><title>java.lang.classfile.Signature.RefTypeSig</title>
<g id="a_node1"><a xlink:href="../../../java/lang/classfile/Signature.RefTypeSig.html" xlink:title="java.lang.classfile.Signature.RefTypeSig">
<text text-anchor="middle" x="181.5" y="-101.4" font-family="DejaVuSans" font-size="12.00" fill="#e76f00">RefTypeSig</text>
</a>
</g>
</g>
<!-- java.lang.classfile.Signature -->
<g id="node2" class="node"><title>java.lang.classfile.Signature</title>
<g id="a_node2"><a xlink:href="../../../java/lang/classfile/Signature.html" xlink:title="java.lang.classfile.Signature">
<text text-anchor="middle" x="315.5" y="-185.4" font-family="DejaVuSans" font-size="12.00" fill="#e76f00">Signature</text>
</a>
</g>
</g>
<!-- java.lang.classfile.Signature.RefTypeSig&#45;&gt;java.lang.classfile.Signature -->
<g id="edge1" class="edge"><title>java.lang.classfile.Signature.RefTypeSig&#45;&gt;java.lang.classfile.Signature</title>
<path fill="none" stroke="#999999" stroke-width="2" d="M213.596,-125.141C231.859,-136.317 254.923,-150.431 274.488,-162.403"/>
<polygon fill="#999999" stroke="#999999" stroke-width="2" points="283.201,-167.735 272.323,-166.354 278.675,-165.552 274.41,-162.942 274.671,-162.515 274.932,-162.089 279.197,-164.699 277.02,-158.677 283.201,-167.735 283.201,-167.735"/>
</g>
<!-- java.lang.classfile.Signature.ArrayTypeSig -->
<g id="node3" class="node"><title>java.lang.classfile.Signature.ArrayTypeSig</title>
<g id="a_node3"><a xlink:href="../../../java/lang/classfile/Signature.ArrayTypeSig.html" xlink:title="java.lang.classfile.Signature.ArrayTypeSig">
<text text-anchor="middle" x="50.5" y="-17.4" font-family="DejaVuSans" font-size="12.00" fill="#e76f00">ArrayTypeSig</text>
</a>
</g>
</g>
<!-- java.lang.classfile.Signature.ArrayTypeSig&#45;&gt;java.lang.classfile.Signature.RefTypeSig -->
<g id="edge2" class="edge"><title>java.lang.classfile.Signature.ArrayTypeSig&#45;&gt;java.lang.classfile.Signature.RefTypeSig</title>
<path fill="none" stroke="#999999" stroke-width="2" d="M81.8778,-41.141C99.732,-52.317 122.279,-66.4305 141.406,-78.403"/>
<polygon fill="#999999" stroke="#999999" stroke-width="2" points="149.924,-83.735 139.06,-82.2435 145.421,-81.5059 141.183,-78.853 141.448,-78.4292 141.713,-78.0054 145.951,-80.6583 143.836,-74.6148 149.924,-83.735 149.924,-83.735"/>
</g>
<!-- java.lang.classfile.Signature.ClassTypeSig -->
<g id="node4" class="node"><title>java.lang.classfile.Signature.ClassTypeSig</title>
<g id="a_node4"><a xlink:href="../../../java/lang/classfile/Signature.ClassTypeSig.html" xlink:title="java.lang.classfile.Signature.ClassTypeSig">
<text text-anchor="middle" x="315.5" y="-17.4" font-family="DejaVuSans" font-size="12.00" fill="#e76f00">ClassTypeSig</text>
</a>
</g>
</g>
<!-- java.lang.classfile.Signature.ClassTypeSig&#45;&gt;java.lang.classfile.Signature.RefTypeSig -->
<g id="edge3" class="edge"><title>java.lang.classfile.Signature.ClassTypeSig&#45;&gt;java.lang.classfile.Signature.RefTypeSig</title>
<path fill="none" stroke="#999999" stroke-width="2" d="M283.404,-41.141C265.141,-52.317 242.077,-66.4305 222.512,-78.403"/>
<polygon fill="#999999" stroke="#999999" stroke-width="2" points="213.799,-83.735 219.98,-74.677 217.803,-80.6987 222.068,-78.0888 222.329,-78.5153 222.59,-78.9418 218.325,-81.5517 224.677,-82.3537 213.799,-83.735 213.799,-83.735"/>
</g>
<!-- java.lang.classfile.Signature.ThrowableSig -->
<g id="node6" class="node"><title>java.lang.classfile.Signature.ThrowableSig</title>
<g id="a_node6"><a xlink:href="../../../java/lang/classfile/Signature.ThrowableSig.html" xlink:title="java.lang.classfile.Signature.ThrowableSig">
<text text-anchor="middle" x="315.5" y="-101.4" font-family="DejaVuSans" font-size="12.00" fill="#e76f00">ThrowableSig</text>
</a>
</g>
</g>
<!-- java.lang.classfile.Signature.ClassTypeSig&#45;&gt;java.lang.classfile.Signature.ThrowableSig -->
<g id="edge6" class="edge"><title>java.lang.classfile.Signature.ClassTypeSig&#45;&gt;java.lang.classfile.Signature.ThrowableSig</title>
<path fill="none" stroke="#999999" stroke-width="2" d="M315.5,-41.3499C315.5,-51.0192 315.5,-62.8498 315.5,-73.5843"/>
<polygon fill="#999999" stroke="#999999" stroke-width="2" points="315.5,-83.8329 311,-73.8328 315,-78.8329 315,-73.8329 315.5,-73.8329 316,-73.8329 316,-78.8329 320,-73.8329 315.5,-83.8329 315.5,-83.8329"/>
</g>
<!-- java.lang.classfile.Signature.TypeVarSig -->
<g id="node5" class="node"><title>java.lang.classfile.Signature.TypeVarSig</title>
<g id="a_node5"><a xlink:href="../../../java/lang/classfile/Signature.TypeVarSig.html" xlink:title="java.lang.classfile.Signature.TypeVarSig">
<text text-anchor="middle" x="182.5" y="-17.4" font-family="DejaVuSans" font-size="12.00" fill="#e76f00">TypeVarSig</text>
</a>
</g>
</g>
<!-- java.lang.classfile.Signature.TypeVarSig&#45;&gt;java.lang.classfile.Signature.RefTypeSig -->
<g id="edge4" class="edge"><title>java.lang.classfile.Signature.TypeVarSig&#45;&gt;java.lang.classfile.Signature.RefTypeSig</title>
<path fill="none" stroke="#999999" stroke-width="2" d="M182.258,-41.3499C182.14,-51.0192 181.996,-62.8498 181.865,-73.5843"/>
<polygon fill="#999999" stroke="#999999" stroke-width="2" points="181.74,-83.8329 177.362,-73.7787 181.301,-78.8272 181.362,-73.8275 181.862,-73.8336 182.362,-73.8397 182.301,-78.8394 186.362,-73.8885 181.74,-83.8329 181.74,-83.8329"/>
</g>
<!-- java.lang.classfile.Signature.TypeVarSig&#45;&gt;java.lang.classfile.Signature.ThrowableSig -->
<g id="edge7" class="edge"><title>java.lang.classfile.Signature.TypeVarSig&#45;&gt;java.lang.classfile.Signature.ThrowableSig</title>
<path fill="none" stroke="#999999" stroke-width="2" d="M214.357,-41.141C232.484,-52.317 255.375,-66.4305 274.794,-78.403"/>
<polygon fill="#999999" stroke="#999999" stroke-width="2" points="283.442,-83.735 272.568,-82.3174 278.924,-81.5366 274.668,-78.9125 274.93,-78.4869 275.192,-78.0613 279.448,-80.6853 277.292,-74.6564 283.442,-83.735 283.442,-83.735"/>
</g>
<!-- java.lang.classfile.Signature.ThrowableSig&#45;&gt;java.lang.classfile.Signature -->
<g id="edge5" class="edge"><title>java.lang.classfile.Signature.ThrowableSig&#45;&gt;java.lang.classfile.Signature</title>
<path fill="none" stroke="#999999" stroke-width="2" d="M315.5,-125.35C315.5,-135.019 315.5,-146.85 315.5,-157.584"/>
<polygon fill="#999999" stroke="#999999" stroke-width="2" points="315.5,-167.833 311,-157.833 315,-162.833 315,-157.833 315.5,-157.833 316,-157.833 316,-162.833 320,-157.833 315.5,-167.833 315.5,-167.833"/>
</g>
<!-- java.lang.classfile.Signature.BaseTypeSig -->
<g id="node7" class="node"><title>java.lang.classfile.Signature.BaseTypeSig</title>
<g id="a_node7"><a xlink:href="../../../java/lang/classfile/Signature.BaseTypeSig.html" xlink:title="java.lang.classfile.Signature.BaseTypeSig">
<text text-anchor="middle" x="453.5" y="-101.4" font-family="DejaVuSans" font-size="12.00" fill="#e76f00">BaseTypeSig</text>
</a>
</g>
</g>
<!-- java.lang.classfile.Signature.BaseTypeSig&#45;&gt;java.lang.classfile.Signature -->
<g id="edge8" class="edge"><title>java.lang.classfile.Signature.BaseTypeSig&#45;&gt;java.lang.classfile.Signature</title>
<path fill="none" stroke="#999999" stroke-width="2" d="M420.446,-125.141C401.553,-136.367 377.671,-150.558 357.464,-162.565"/>
<polygon fill="#999999" stroke="#999999" stroke-width="2" points="348.763,-167.735 355.061,-158.758 352.806,-164.751 357.104,-162.197 357.36,-162.627 357.615,-163.057 353.317,-165.611 359.659,-166.495 348.763,-167.735 348.763,-167.735"/>
</g>
</g>
</svg>
