<?xml version="1.0" encoding="UTF-8" standalone="no"?>
<!DOCTYPE svg PUBLIC "-//W3C//DTD SVG 1.1//EN"
 "http://www.w3.org/Graphics/SVG/1.1/DTD/svg11.dtd">
<!-- Generated by graphviz version 2.38.0 (20140413.2041)
 -->
<!-- Title: G Pages: 1 -->
<svg width="857pt" height="217pt"
 viewBox="0.00 0.00 856.50 217.00" xmlns="http://www.w3.org/2000/svg" xmlns:xlink="http://www.w3.org/1999/xlink">
<g id="graph0" class="graph" transform="scale(1 1) rotate(0) translate(4 213)">
<title>G</title>
<polygon fill="white" stroke="none" points="-4,4 -4,-213 852.5,-213 852.5,4 -4,4"/>
<!-- java.nio.ByteBuffer -->
<g id="node1" class="node"><title>java.nio.ByteBuffer</title>
<g id="a_node1"><a xlink:href="../../java/nio/ByteBuffer.html" xlink:title="java.nio.ByteBuffer">
<text text-anchor="middle" x="784.5" y="-101.4" font-family="DejaVuSans" font-size="12.00" fill="#e76f00">ByteBuffer</text>
</a>
</g>
</g>
<!-- java.nio.Buffer -->
<g id="node2" class="node"><title>java.nio.Buffer</title>
<g id="a_node2"><a xlink:href="../../java/nio/Buffer.html" xlink:title="java.nio.Buffer">
<text text-anchor="middle" x="420.5" y="-185.4" font-family="DejaVuSans" font-size="12.00" fill="#e76f00">Buffer</text>
</a>
</g>
</g>
<!-- java.nio.ByteBuffer&#45;&gt;java.nio.Buffer -->
<g id="edge1" class="edge"><title>java.nio.ByteBuffer&#45;&gt;java.nio.Buffer</title>
<path fill="none" stroke="#999999" stroke-width="2" d="M741.737,-120.039C735.972,-121.811 730.112,-123.516 724.5,-125 631.378,-149.623 520.071,-170.334 461.386,-180.59"/>
<polygon fill="#999999" stroke="#999999" stroke-width="2" points="451.4,-182.323 460.483,-176.179 456.241,-180.975 461.167,-180.12 461.253,-180.613 461.338,-181.106 456.412,-181.96 462.022,-185.047 451.4,-182.323 451.4,-182.323"/>
</g>
<!-- java.nio.MappedByteBuffer -->
<g id="node3" class="node"><title>java.nio.MappedByteBuffer</title>
<g id="a_node3"><a xlink:href="../../java/nio/MappedByteBuffer.html" xlink:title="java.nio.MappedByteBuffer">
<text text-anchor="middle" x="784.5" y="-17.4" font-family="DejaVuSans" font-size="12.00" fill="#e76f00">MappedByteBuffer</text>
</a>
</g>
</g>
<!-- java.nio.MappedByteBuffer&#45;&gt;java.nio.ByteBuffer -->
<g id="edge2" class="edge"><title>java.nio.MappedByteBuffer&#45;&gt;java.nio.ByteBuffer</title>
<path fill="none" stroke="#999999" stroke-width="2" d="M784.5,-41.3499C784.5,-51.0192 784.5,-62.8498 784.5,-73.5843"/>
<polygon fill="#999999" stroke="#999999" stroke-width="2" points="784.5,-83.8329 780,-73.8328 784,-78.8329 784,-73.8329 784.5,-73.8329 785,-73.8329 785,-78.8329 789,-73.8329 784.5,-83.8329 784.5,-83.8329"/>
</g>
<!-- java.nio.CharBuffer -->
<g id="node4" class="node"><title>java.nio.CharBuffer</title>
<g id="a_node4"><a xlink:href="../../java/nio/CharBuffer.html" xlink:title="java.nio.CharBuffer">
<text text-anchor="middle" x="43.5" y="-101.4" font-family="DejaVuSans" font-size="12.00" fill="#e76f00">CharBuffer</text>
</a>
</g>
</g>
<!-- java.nio.CharBuffer&#45;&gt;java.nio.Buffer -->
<g id="edge3" class="edge"><title>java.nio.CharBuffer&#45;&gt;java.nio.Buffer</title>
<path fill="none" stroke="#999999" stroke-width="2" d="M87.0244,-119.844C93.1965,-121.686 99.4873,-123.463 105.5,-125 203.029,-149.934 319.678,-170.786 379.962,-180.911"/>
<polygon fill="#999999" stroke="#999999" stroke-width="2" points="389.844,-182.56 379.239,-185.353 384.829,-182.23 379.898,-181.407 379.98,-180.914 380.062,-180.421 384.994,-181.244 380.72,-176.476 389.844,-182.56 389.844,-182.56"/>
</g>
<!-- java.nio.DoubleBuffer -->
<g id="node5" class="node"><title>java.nio.DoubleBuffer</title>
<g id="a_node5"><a xlink:href="../../java/nio/DoubleBuffer.html" xlink:title="java.nio.DoubleBuffer">
<text text-anchor="middle" x="173.5" y="-101.4" font-family="DejaVuSans" font-size="12.00" fill="#e76f00">DoubleBuffer</text>
</a>
</g>
</g>
<!-- java.nio.DoubleBuffer&#45;&gt;java.nio.Buffer -->
<g id="edge4" class="edge"><title>java.nio.DoubleBuffer&#45;&gt;java.nio.Buffer</title>
<path fill="none" stroke="#999999" stroke-width="2" d="M223.782,-122.193C269.975,-137.528 337.558,-159.965 380.268,-174.144"/>
<polygon fill="#999999" stroke="#999999" stroke-width="2" points="389.775,-177.3 378.866,-178.42 384.872,-176.199 380.126,-174.623 380.284,-174.149 380.441,-173.674 385.187,-175.25 381.702,-169.878 389.775,-177.3 389.775,-177.3"/>
</g>
<!-- java.nio.FloatBuffer -->
<g id="node6" class="node"><title>java.nio.FloatBuffer</title>
<g id="a_node6"><a xlink:href="../../java/nio/FloatBuffer.html" xlink:title="java.nio.FloatBuffer">
<text text-anchor="middle" x="303.5" y="-101.4" font-family="DejaVuSans" font-size="12.00" fill="#e76f00">FloatBuffer</text>
</a>
</g>
</g>
<!-- java.nio.FloatBuffer&#45;&gt;java.nio.Buffer -->
<g id="edge5" class="edge"><title>java.nio.FloatBuffer&#45;&gt;java.nio.Buffer</title>
<path fill="none" stroke="#999999" stroke-width="2" d="M331.524,-125.141C347.183,-136.116 366.884,-149.923 383.765,-161.754"/>
<polygon fill="#999999" stroke="#999999" stroke-width="2" points="392.299,-167.735 381.527,-165.681 387.917,-165.275 383.823,-162.405 384.11,-161.996 384.397,-161.586 388.491,-164.456 386.692,-158.311 392.299,-167.735 392.299,-167.735"/>
</g>
<!-- java.nio.IntBuffer -->
<g id="node7" class="node"><title>java.nio.IntBuffer</title>
<g id="a_node7"><a xlink:href="../../java/nio/IntBuffer.html" xlink:title="java.nio.IntBuffer">
<text text-anchor="middle" x="420.5" y="-101.4" font-family="DejaVuSans" font-size="12.00" fill="#e76f00">IntBuffer</text>
</a>
</g>
</g>
<!-- java.nio.IntBuffer&#45;&gt;java.nio.Buffer -->
<g id="edge6" class="edge"><title>java.nio.IntBuffer&#45;&gt;java.nio.Buffer</title>
<path fill="none" stroke="#999999" stroke-width="2" d="M420.5,-125.35C420.5,-135.019 420.5,-146.85 420.5,-157.584"/>
<polygon fill="#999999" stroke="#999999" stroke-width="2" points="420.5,-167.833 416,-157.833 420,-162.833 420,-157.833 420.5,-157.833 421,-157.833 421,-162.833 425,-157.833 420.5,-167.833 420.5,-167.833"/>
</g>
<!-- java.nio.LongBuffer -->
<g id="node8" class="node"><title>java.nio.LongBuffer</title>
<g id="a_node8"><a xlink:href="../../java/nio/LongBuffer.html" xlink:title="java.nio.LongBuffer">
<text text-anchor="middle" x="537.5" y="-101.4" font-family="DejaVuSans" font-size="12.00" fill="#e76f00">LongBuffer</text>
</a>
</g>
</g>
<!-- java.nio.LongBuffer&#45;&gt;java.nio.Buffer -->
<g id="edge7" class="edge"><title>java.nio.LongBuffer&#45;&gt;java.nio.Buffer</title>
<path fill="none" stroke="#999999" stroke-width="2" d="M509.476,-125.141C493.817,-136.116 474.116,-149.923 457.235,-161.754"/>
<polygon fill="#999999" stroke="#999999" stroke-width="2" points="448.701,-167.735 454.308,-158.311 452.509,-164.456 456.603,-161.586 456.89,-161.996 457.177,-162.405 453.083,-165.275 459.473,-165.681 448.701,-167.735 448.701,-167.735"/>
</g>
<!-- java.nio.ShortBuffer -->
<g id="node9" class="node"><title>java.nio.ShortBuffer</title>
<g id="a_node9"><a xlink:href="../../java/nio/ShortBuffer.html" xlink:title="java.nio.ShortBuffer">
<text text-anchor="middle" x="661.5" y="-101.4" font-family="DejaVuSans" font-size="12.00" fill="#e76f00">ShortBuffer</text>
</a>
</g>
</g>
<!-- java.nio.ShortBuffer&#45;&gt;java.nio.Buffer -->
<g id="edge8" class="edge"><title>java.nio.ShortBuffer&#45;&gt;java.nio.Buffer</title>
<path fill="none" stroke="#999999" stroke-width="2" d="M616.735,-120.731C572.029,-135.942 503.935,-159.111 460.852,-173.77"/>
<polygon fill="#999999" stroke="#999999" stroke-width="2" points="451.262,-177.033 459.279,-169.552 455.834,-174.949 460.568,-173.339 460.729,-173.812 460.89,-174.285 456.156,-175.896 462.178,-178.072 451.262,-177.033 451.262,-177.033"/>
</g>
</g>
</svg>
